<?xml version="1.0" encoding="UTF-8" standalone="yes"?>
<svg width="397mm" height="210mm" version="1.1" viewBox="0 0 397 210">
  <path d="M 10 60 L65.25181371549247 60 58.198390687982794 131.0211236182588 17.053423027509677 131.0211236182588 10 60" stroke="#ff0000" stroke-width="0.001mm" style="fill:none;stroke-width:1"/>
  <path d="M 10 60 L65.25181371549247 60 61.137316949445164 34.03849002850566 14.11449676604731 34.03849002850566 10 60" stroke="#ff0000" stroke-width="0.001mm" style="fill:none;stroke-width:1"/>
  <path d="M 61.137316949445164 34.03849002850566 L14.11449676604731 34.03849002850566 19.992349288972044 24.038490028505663 55.25946442652043 24.038490028505663 61.137316949445164 34.03849002850566" stroke="#ff0000" stroke-width="0.001mm" style="fill:none;stroke-width:1"/>
  <path d="M 55.25946442652043 24.038490028505663 L19.992349288972044 24.038490028505663 19.992349288972044 4.038490028505663 55.25946442652043 4.038490028505663 55.25946442652043 24.038490028505663" stroke="#ff0000" stroke-width="0.001mm" style="fill:none;stroke-width:1"/>
  <path d="M 65.25181371549247 60 L119.44491692959733 70.7643152535059 98.6901114433444 139.05039601402993 58.33354522007483 131.0344165699298 65.25181371549247 60" stroke="#ff0000" stroke-width="0.001mm" style="fill:none;stroke-width:1"/>
  <path d="M 65.25181371549247 60 L119.44491692959733 70.7643152535059 120.4671554060487 44.49867016081731 74.34536543659775 35.33755079613144 65.25181371549247 60" stroke="#ff0000" stroke-width="0.001mm" style="fill:none;stroke-width:1"/>
  <path d="M 120.4671554060487 44.49867016081731 L74.34536543659775 35.33755079613144 82.05881758102402 26.674306236678063 116.65016005811222 33.54514576019247 120.4671554060487 44.49867016081731" stroke="#ff0000" stroke-width="0.001mm" style="fill:none;stroke-width:1"/>
  <path d="M 116.65016005811222 33.54514576019247 L82.05881758102402 26.674306236678063 85.9552743775138 7.057537276599838 120.54661685460201 13.92837680011425 116.65016005811222 33.54514576019247" stroke="#ff0000" stroke-width="0.001mm" style="fill:none;stroke-width:1"/>
  <path d="M 58.33354522007483 131.0344165699298 L98.6901114433444 139.05039601402993 103.53732675615326 179.90884517075455 66.17650434698851 197.1447760331197 38.23903093766711 166.93871797708002 58.333545220074825 131.0344165699298" stroke="#ff0000" stroke-width="0.001mm" style="fill:none;stroke-width:1"/>
  <path d="M 119.44491692959733 70.7643152535059 L170.50246171218163 91.88042378765303 136.84166233617253 154.81452711623848 98.82008643424807 139.08976544187357 119.44491692959733 70.7643152535059" stroke="#ff0000" stroke-width="0.001mm" style="fill:none;stroke-width:1"/>
  <path d="M 119.44491692959733 70.7643152535059 L170.50246171218163 91.88042378765303 176.62226007969383 66.31722462207891 133.1690304774944 48.34606842280477 119.44491692959733 70.7643152535059" stroke="#ff0000" stroke-width="0.001mm" style="fill:none;stroke-width:1"/>
  <path d="M 176.62226007969383 66.31722462207891 L133.1690304774944 48.34606842280477 142.42247881475265 41.35158172605961 175.01240101640224 54.829948875515214 176.62226007969383 66.31722462207891" stroke="#ff0000" stroke-width="0.001mm" style="fill:none;stroke-width:1"/>
  <path d="M 175.01240101640224 54.829948875515214 L142.42247881475265 41.35158172605961 150.06606808871933 22.869819282750754 182.6559902903689 36.34818643220637 175.01240101640224 54.829948875515214" stroke="#ff0000" stroke-width="0.001mm" style="fill:none;stroke-width:1"/>
  <path d="M 170.50246171218163 91.88042378765303 L216.46776446495716 122.53909077917712 171.19095751413852 177.7093864893082 136.96147674079506 154.87846426157748 170.50246171218163 91.88042378765303" stroke="#ff0000" stroke-width="0.001mm" style="fill:none;stroke-width:1"/>
  <path d="M 170.50246171218163 91.88042378765303 L216.46776446495716 122.53909077917712 227.45059305428083 98.65799868071252 188.331186456174 72.56551613473457 170.50246171218163 91.88042378765303" stroke="#ff0000" stroke-width="0.001mm" style="fill:none;stroke-width:1"/>
  <path d="M 227.45059305428083 98.65799868071252 L188.331186456174 72.56551613473457 198.77001012334927 67.50783774174889 228.10956507192938 87.07719965123236 227.45059305428083 98.65799868071252" stroke="#ff0000" stroke-width="0.001mm" style="fill:none;stroke-width:1"/>
  <path d="M 228.10956507192938 87.07719965123236 L198.77001012334927 67.50783774174889 209.86780580817307 50.86936031928304 239.2073607567532 70.43872222876651 228.10956507192938 87.07719965123236" stroke="#ff0000" stroke-width="0.001mm" style="fill:none;stroke-width:1"/>
  <path d="M 216.46776446495716 122.53909077917713 L255.57929211049736 161.5653809447005 200.42162536607913 206.85757205659866 171.29601967259177 177.79544108227273 216.46776446495716 122.53909077917713" stroke="#ff0000" stroke-width="0.001mm" style="fill:none;stroke-width:1"/>
  <path d="M 216.46776446495716 122.53909077917713 L255.57929211049736 161.5653809447005 271.0042548394756 140.28159348928168 237.7178483326329 107.06772951862345 216.46776446495716 122.53909077917713" stroke="#ff0000" stroke-width="0.001mm" style="fill:none;stroke-width:1"/>
  <path d="M 271.0042548394756 140.28159348928168 L237.7178483326329 107.06772951862345 248.941999204772 104.14068536441064 273.906804084904 129.0510833424043 271.0042548394756 140.28159348928168" stroke="#ff0000" stroke-width="0.001mm" style="fill:none;stroke-width:1"/>
  <path d="M 273.906804084904 129.0510833424043 L248.941999204772 104.14068536441064 263.06869932233957 89.98313106332046 288.0335042024716 114.89352904131411 273.906804084904 129.0510833424043" stroke="#ff0000" stroke-width="0.001mm" style="fill:none;stroke-width:1"/>
  <path d="M 288.0335042024716 114.89352904131411 L263.06869932233957 89.98313106332046 279.04534667360065 58.542454392190464 313.884262643083 64.02144555812988 319.4392494921635 98.84832499387085 288.0335042024716 114.89352904131411" stroke="#ff0000" stroke-width="0.001mm" style="fill:none;stroke-width:1"/>
</svg>