<?xml version="1.0" encoding="UTF-8" standalone="yes"?>
<svg width="397mm" height="210mm" version="1.1" viewBox="0 0 397 210">
  <path d="M 10 62 L65.25181371549247 62 58.198390687982794 133.0211236182588 17.053423027509677 133.0211236182588 10 62" stroke="#ff0000" stroke-width="0.001mm" style="fill:none;stroke-width:1"/>
  <path d="M 10 62 L65.25181371549247 62 61.137316949445164 36.03849002850566 14.11449676604731 36.03849002850566 10 62" stroke="#ff0000" stroke-width="0.001mm" style="fill:none;stroke-width:1"/>
  <path d="M 61.137316949445164 36.03849002850566 L14.11449676604731 36.03849002850566 19.992349288972044 26.038490028505663 55.25946442652043 26.038490028505663 61.137316949445164 36.03849002850566" stroke="#ff0000" stroke-width="0.001mm" style="fill:none;stroke-width:1"/>
  <path d="M 55.25946442652043 26.038490028505663 L19.992349288972044 26.038490028505663 19.992349288972044 6.038490028505663 55.25946442652043 6.038490028505663 55.25946442652043 26.038490028505663" stroke="#ff0000" stroke-width="0.001mm" style="fill:none;stroke-width:1"/>
  <path d="M 14.992349288972044 26.038490028505663 L14.992349288972044 6.038490028505663 19.992349288972044 6.038490028505663 19.992349288972044 26.038490028505663 14.992349288972044 26.038490028505663" stroke="#ff0000" stroke-width="0.001mm" style="fill:none;stroke-width:1"/>
  <path d="M 19.992349288972044 21.038490028505663 L19.992349288972044 11.038490028505663" stroke="#000000" stroke-width="0.001mm" style="fill:none;stroke-width:1.5"/>
  <path d="M 65.25946442652042 12.038490028505663 L65.25946442652042 20.038490028505663 55.25946442652043 20.038490028505663 55.25946442652043 12.038490028505663 65.25946442652042 12.038490028505663" stroke="#000000" stroke-width="0.001mm" style="fill:none;stroke-width:1.5"/>
  <path d="M 19.992349288972044 1.038490028505663 L55.25946442652043 1.038490028505663 55.25946442652043 6.038490028505663 19.992349288972044 6.038490028505663 19.992349288972044 1.038490028505663" stroke="#ff0000" stroke-width="0.001mm" style="fill:none;stroke-width:1"/>
  <path d="M 29.992349288972044 6.038490028505663 L45.25946442652043 6.038490028505663" stroke="#000000" stroke-width="0.001mm" style="fill:none;stroke-width:1.5"/>
  <path d="M 53.198390687982794 138.0211236182588 L22.053423027509677 138.0211236182588 22.053423027509677 133.0211236182588 53.198390687982794 133.0211236182588 53.198390687982794 138.0211236182588" stroke="#ff0000" stroke-width="0.001mm" style="fill:none;stroke-width:1"/>
  <path d="M 43.198390687982794 133.0211236182588 L32.05342302750968 133.0211236182588" stroke="#000000" stroke-width="0.001mm" style="fill:none;stroke-width:1.5"/>
  <path d="M 65.25181371549247 62 L119.44491692959733 72.7643152535059 98.6901114433444 141.05039601402993 58.33354522007483 133.0344165699298 65.25181371549247 62" stroke="#ff0000" stroke-width="0.001mm" style="fill:none;stroke-width:1"/>
  <path d="M 65.25181371549247 62 L119.44491692959733 72.7643152535059 120.4671554060487 46.49867016081731 74.34536543659775 37.33755079613144 65.25181371549247 62" stroke="#ff0000" stroke-width="0.001mm" style="fill:none;stroke-width:1"/>
  <path d="M 120.4671554060487 46.49867016081731 L74.34536543659775 37.33755079613144 82.05881758102402 28.674306236678063 116.65016005811222 35.54514576019247 120.4671554060487 46.49867016081731" stroke="#ff0000" stroke-width="0.001mm" style="fill:none;stroke-width:1"/>
  <path d="M 116.65016005811222 35.54514576019247 L82.05881758102402 28.674306236678063 85.9552743775138 9.057537276599838 120.54661685460201 15.92837680011425 116.65016005811222 35.54514576019247" stroke="#ff0000" stroke-width="0.001mm" style="fill:none;stroke-width:1"/>
  <path d="M 77.15462534100445 27.700192037555617 L81.05108213749423 8.083423077477391 85.9552743775138 9.057537276599838 82.05881758102402 28.674306236678063 77.15462534100445 27.700192037555617" stroke="#ff0000" stroke-width="0.001mm" style="fill:none;stroke-width:1"/>
  <path d="M 83.03293178014646 23.7701139966585 L84.98116017839135 13.961729516619393" stroke="#000000" stroke-width="0.001mm" style="fill:none;stroke-width:1.5"/>
  <path d="M 129.18606429569417 23.7616358863826 L127.62748157709827 31.608343470413892 117.81909709705916 29.660115072169006 119.37767981565507 21.813407488137713 129.18606429569417 23.7616358863826" stroke="#000000" stroke-width="0.001mm" style="fill:none;stroke-width:1.5"/>
  <path d="M 86.92938857663624 4.153345036580276 L121.52073105372445 11.024184560094682 120.54661685460201 15.92837680011425 85.9552743775138 9.057537276599838 86.92938857663624 4.153345036580276" stroke="#ff0000" stroke-width="0.001mm" style="fill:none;stroke-width:1"/>
  <path d="M 95.76365885755291 11.005765674844731 L110.73823237456288 13.980148401869357" stroke="#000000" stroke-width="0.001mm" style="fill:none;stroke-width:1.5"/>
  <path d="M 58.33354522007483 133.0344165699298 L98.6901114433444 141.05039601402993 103.53732675615326 181.90884517075455 66.17650434698851 199.1447760331197 38.23903093766711 168.93871797708002 58.333545220074825 133.0344165699298" stroke="#ff0000" stroke-width="0.001mm" style="fill:none;stroke-width:1"/>
  <path d="M 115.4705884157225 155.1718545994413 L116.54794075792816 164.2531400504027 101.65239527085167 166.02026331787295 100.575042928646 156.93897786691153 115.4705884157225 155.1718545994413" stroke="#ff0000" stroke-width="0.001mm" style="fill:none;stroke-width:1"/>
  <path d="M 95.29247410708794 202.2317978301296 L86.98857858528592 206.0626923306472 80.70496779066987 192.44225785219592 89.00886331247189 188.61136335167834 95.29247410708794 202.2317978301296" stroke="#ff0000" stroke-width="0.001mm" style="fill:none;stroke-width:1"/>
  <path d="M 44.300428205253425 197.5835929429572 L38.09098619154608 190.8699305006307 49.10304663547413 180.68491578393662 55.312488649181475 187.3985782262631 44.300428205253425 197.5835929429572" stroke="#ff0000" stroke-width="0.001mm" style="fill:none;stroke-width:1"/>
  <path d="M 32.963724990659486 147.65090110532293 L37.42997429681876 139.67073502645397 50.51941273195061 146.9964842340704 46.053163425791325 154.9766503129394 32.963724990659486 147.65090110532293" stroke="#ff0000" stroke-width="0.001mm" style="fill:none;stroke-width:1"/>
  <path d="M 119.44491692959733 72.7643152535059 L170.50246171218163 93.88042378765303 136.84166233617253 156.81452711623848 98.82008643424807 141.08976544187357 119.44491692959733 72.7643152535059" stroke="#ff0000" stroke-width="0.001mm" style="fill:none;stroke-width:1"/>
  <path d="M 119.44491692959733 72.7643152535059 L170.50246171218163 93.88042378765303 176.62226007969383 68.31722462207891 133.1690304774944 50.34606842280477 119.44491692959733 72.7643152535059" stroke="#ff0000" stroke-width="0.001mm" style="fill:none;stroke-width:1"/>
  <path d="M 176.62226007969383 68.31722462207891 L133.1690304774944 50.34606842280477 142.42247881475265 43.35158172605961 175.01240101640224 56.829948875515214 176.62226007969383 68.31722462207891" stroke="#ff0000" stroke-width="0.001mm" style="fill:none;stroke-width:1"/>
  <path d="M 175.01240101640224 56.829948875515214 L142.42247881475265 43.35158172605961 150.06606808871933 24.869819282750754 182.6559902903689 38.34818643220637 175.01240101640224 56.829948875515214" stroke="#ff0000" stroke-width="0.001mm" style="fill:none;stroke-width:1"/>
  <path d="M 137.80203820392546 41.44068440756794 L145.44562747789212 22.95892196425909 150.06606808871933 24.869819282750754 142.42247881475265 43.35158172605961 137.80203820392546 41.44068440756794" stroke="#ff0000" stroke-width="0.001mm" style="fill:none;stroke-width:1"/>
  <path d="M 144.33337613324431 38.7311411152324 L148.15517077022767 29.490259893577964" stroke="#000000" stroke-width="0.001mm" style="fill:none;stroke-width:1.5"/>
  <path d="M 189.6037947298333 47.71450980218235 L186.54635902024665 55.107214779505895 177.30547779859222 51.28542014252256 180.36291350817888 43.892715165199014 189.6037947298333 47.71450980218235" stroke="#000000" stroke-width="0.001mm" style="fill:none;stroke-width:1.5"/>
  <path d="M 151.976965407211 20.249378671923537 L184.56688760886055 33.72774582137915 182.6559902903689 38.34818643220637 150.06606808871933 24.869819282750754 151.976965407211 20.249378671923537" stroke="#ff0000" stroke-width="0.001mm" style="fill:none;stroke-width:1"/>
  <path d="M 159.30694931037374 28.69161391973409 L173.41510906871446 34.526391795223034" stroke="#000000" stroke-width="0.001mm" style="fill:none;stroke-width:1.5"/>
  <path d="M 130.31032440685368 159.524070408574 L101.52962972658361 147.62110337119248 103.44052704507527 143.00066276036523 132.22122172534534 154.90362979774682 130.31032440685368 159.524070408574" stroke="#ff0000" stroke-width="0.001mm" style="fill:none;stroke-width:1"/>
  <path d="M 122.9803405036909 151.08183516076346 L112.6814082667297 146.8224573973486" stroke="#000000" stroke-width="0.001mm" style="fill:none;stroke-width:1.5"/>
  <path d="M 170.50246171218163 93.88042378765303 L216.46776446495716 124.53909077917712 171.19095751413852 179.7093864893082 136.96147674079506 156.87846426157748 170.50246171218163 93.88042378765303" stroke="#ff0000" stroke-width="0.001mm" style="fill:none;stroke-width:1"/>
  <path d="M 170.50246171218163 93.88042378765303 L216.46776446495716 124.53909077917712 227.45059305428083 100.65799868071252 188.331186456174 74.56551613473457 170.50246171218163 93.88042378765303" stroke="#ff0000" stroke-width="0.001mm" style="fill:none;stroke-width:1"/>
  <path d="M 227.45059305428083 100.65799868071252 L188.331186456174 74.56551613473457 198.77001012334927 69.50783774174889 228.10956507192938 89.07719965123236 227.45059305428083 100.65799868071252" stroke="#ff0000" stroke-width="0.001mm" style="fill:none;stroke-width:1"/>
  <path d="M 228.10956507192938 89.07719965123236 L198.77001012334927 69.50783774174889 209.86780580817307 52.86936031928304 239.2073607567532 72.43872222876651 228.10956507192938 89.07719965123236" stroke="#ff0000" stroke-width="0.001mm" style="fill:none;stroke-width:1"/>
  <path d="M 194.6103907677328 66.73338882054293 L205.70818645255662 50.09491139807709 209.86780580817307 52.86936031928304 198.77001012334927 69.50783774174889 194.6103907677328 66.73338882054293" stroke="#ff0000" stroke-width="0.001mm" style="fill:none;stroke-width:1"/>
  <path d="M 201.54445904455523 65.34821838613243 L207.09335688696711 57.02897967489951" stroke="#000000" stroke-width="0.001mm" style="fill:none;stroke-width:1.5"/>
  <path d="M 244.19726076253897 82.97916329791818 L239.75814248860945 89.63455426690452 231.43890377737654 84.08565642449261 235.87802205130606 77.43026545550627 244.19726076253897 82.97916329791818" stroke="#000000" stroke-width="0.001mm" style="fill:none;stroke-width:1.5"/>
  <path d="M 212.64225472937903 48.70974096366658 L241.98180967795915 68.27910287315005 239.2073607567532 72.43872222876651 209.86780580817307 52.86936031928304 212.64225472937903 48.70974096366658" stroke="#ff0000" stroke-width="0.001mm" style="fill:none;stroke-width:1"/>
  <path d="M 218.18704451940602 58.41825816169496 L230.88812204552028 66.8898243863546" stroke="#000000" stroke-width="0.001mm" style="fill:none;stroke-width:1.5"/>
  <path d="M 164.2568892373161 181.0945569237187 L138.34664717520556 163.8125325383999 141.12109609641152 159.65291318278344 167.03133815852206 176.93493756810224 164.2568892373161 181.0945569237187" stroke="#ff0000" stroke-width="0.001mm" style="fill:none;stroke-width:1"/>
  <path d="M 158.71209944728915 171.38603972569032 L149.44033480764443 165.20181102519535" stroke="#000000" stroke-width="0.001mm" style="fill:none;stroke-width:1.5"/>
  <path d="M 216.46776446495716 124.53909077917713 L255.57929211049736 163.5653809447005 200.42162536607913 208.85757205659866 171.29601967259177 179.79544108227273 216.46776446495716 124.53909077917713" stroke="#ff0000" stroke-width="0.001mm" style="fill:none;stroke-width:1"/>
  <path d="M 216.46776446495716 124.53909077917713 L255.57929211049736 163.5653809447005 271.0042548394756 142.28159348928168 237.7178483326329 109.06772951862345 216.46776446495716 124.53909077917713" stroke="#ff0000" stroke-width="0.001mm" style="fill:none;stroke-width:1"/>
  <path d="M 271.0042548394756 142.28159348928168 L237.7178483326329 109.06772951862345 248.941999204772 106.14068536441064 273.906804084904 131.0510833424043 271.0042548394756 142.28159348928168" stroke="#ff0000" stroke-width="0.001mm" style="fill:none;stroke-width:1"/>
  <path d="M 273.906804084904 131.0510833424043 L248.941999204772 106.14068536441064 263.06869932233957 91.98313106332046 288.0335042024716 116.89352904131411 273.906804084904 131.0510833424043" stroke="#ff0000" stroke-width="0.001mm" style="fill:none;stroke-width:1"/>
  <path d="M 245.40261062949946 102.60901033501875 L259.52931074706703 88.45145603392858 263.06869932233957 91.98313106332046 248.941999204772 106.14068536441064 245.40261062949946 102.60901033501875" stroke="#ff0000" stroke-width="0.001mm" style="fill:none;stroke-width:1"/>
  <path d="M 252.4736742341639 102.6012967891381 L259.53702429294765 95.52251963859301" stroke="#000000" stroke-width="0.001mm" style="fill:none;stroke-width:1.5"/>
  <path d="M 290.87427131774643 128.20414539042494 L285.2235912707194 133.86716711086103 278.1448141201743 126.80381705207725 283.79549416720135 121.14079533164117 290.87427131774643 128.20414539042494" stroke="#000000" stroke-width="0.001mm" style="fill:none;stroke-width:1.5"/>
  <path d="M 288.0335042024716 116.89352904131411 L263.06869932233957 91.98313106332046 279.04534667360065 60.542454392190464 313.884262643083 66.02144555812988 319.4392494921635 100.84832499387085 288.0335042024716 116.89352904131411" stroke="#ff0000" stroke-width="0.001mm" style="fill:none;stroke-width:1"/>
  <path d="M 259.1368879080344 77.6464348259602 L265.1471334042846 65.81878530681358 274.0621457460952 70.34896796818215 268.051900249845 82.17661748732877 259.1368879080344 77.6464348259602" stroke="#000000" stroke-width="0.001mm" style="fill:none;stroke-width:1.5"/>
  <path d="M 291.4653585065886 52.37279674523616 L304.57138965293507 54.433935184051535 303.01782023151503 64.31251919456787 289.91178908516855 62.251380755752486 291.4653585065886 52.37279674523616" stroke="#000000" stroke-width="0.001mm" style="fill:none;stroke-width:1.5"/>
  <path d="M 325.49206351085064 75.30901569322188 L327.5817907206573 88.41051882307531 317.7066196725266 89.98563684092709 315.61689246271993 76.88413371107364 325.49206351085064 75.30901569322188" stroke="#000000" stroke-width="0.001mm" style="fill:none;stroke-width:1.5"/>
  <path d="M 314.1932531300965 114.75801665721046 L302.378744426626 120.79405245635763 297.8291224955823 111.88894491716607 309.6436311990528 105.8529091180189 314.1932531300965 114.75801665721046" stroke="#000000" stroke-width="0.001mm" style="fill:none;stroke-width:1.5"/>
  <path d="M 193.3505617614147 208.86528560247933 L171.30373321847242 186.86650468693716 174.8354082478643 183.32711611166462 196.8822367908066 205.3258970272068 193.3505617614147 208.86528560247933" stroke="#ff0000" stroke-width="0.001mm" style="fill:none;stroke-width:1"/>
  <path d="M 189.8034596402615 198.262546968423 L181.9141853984094 190.3904661704484" stroke="#000000" stroke-width="0.001mm" style="fill:none;stroke-width:1.5"/>
</svg>