<?xml version="1.0" encoding="UTF-8" standalone="no"?>
<svg
   width="800mm"
   height="400mm"
   version="1.1"
   viewBox="0 0 800 400"
   id="svg14"
   sodipodi:docname="Generated5.svg"
   inkscape:version="1.1.1 (1:1.1+202109281949+c3084ef5ed)"
   xmlns:inkscape="http://www.inkscape.org/namespaces/inkscape"
   xmlns:sodipodi="http://sodipodi.sourceforge.net/DTD/sodipodi-0.dtd"
   xmlns="http://www.w3.org/2000/svg"
   xmlns:svg="http://www.w3.org/2000/svg">
  <defs
     id="defs18" />
  <sodipodi:namedview
     id="namedview16"
     pagecolor="#505050"
     bordercolor="#eeeeee"
     borderopacity="1"
     inkscape:pageshadow="0"
     inkscape:pageopacity="0"
     inkscape:pagecheckerboard="0"
     inkscape:document-units="mm"
     showgrid="false"
     inkscape:snap-global="false"
     inkscape:zoom="0.29761822"
     inkscape:cx="756.0021"
     inkscape:cy="470.4013"
     inkscape:current-layer="svg14" />
  <path
     d="M 28.5 0 L28.5 66 28.5 66 31.6 66 31.6 63 34.5 63 34.5 66 37.6 66 37.6 63 40.5 63 40.5 66 43.6 66 43.6 63 46.5 63 46.5 66 49.6 66 49.6 63 52.5 63 52.5 66 55.6 66 55.6 63 58.5 63 58.5 66 61.6 66 61.6 63 64.5 63 64.5 66 67.6 66 67.6 63 70.5 63 70.5 66 73.6 66 73.6 63 76.5 63 76.5 66 79.6 66 79.6 63 82.5 63 82.5 66 85.6 66 85.6 63 88.5 63 88.5 66 91.6 66 91.6 63 94.5 63 94.5 66 97.6 66 97.6 63 100.5 63 100.5 66 103.6 66 103.6 63 106.5 63 106.5 66 109.6 66 109.6 63 112.5 63 112.5 66 115.6 66 115.6 63 118.5 63 118.5 66 121.5 66 121.5 0 121.5 0 118.4 0 118.4 3 115.5 3 115.5 0 112.4 0 112.4 3 109.5 3 109.5 0 106.4 0 106.4 3 103.5 3 103.5 0 100.4 0 100.4 3 97.5 3 97.5 0 94.4 0 94.4 3 91.5 3 91.5 0 88.4 0 88.4 3 85.5 3 85.5 0 82.4 0 82.4 3 79.5 3 79.5 0 76.4 0 76.4 3 73.5 3 73.5 0 70.4 0 70.4 3 67.5 3 67.5 0 64.4 0 64.4 3 61.5 3 61.5 0 58.4 0 58.4 3 55.5 3 55.5 0 52.400000000000006 0 52.400000000000006 3 49.50000000000001 3 49.5 0 46.400000000000006 0 46.400000000000006 3 43.50000000000001 3 43.5 0 40.400000000000006 0 40.400000000000006 3 37.50000000000001 3 37.5 0 34.400000000000006 0 34.400000000000006 3 31.500000000000007 3 31.5 0 28.5 0"
     stroke="#ff0000"
     stroke-width="0.001mm"
     style="fill:none;stroke-width:1"
     id="path2" />
  <path
     d="M 21 281 L0 123 28.5 66 28.5 66 31.6 66 31.6 63 34.5 63 34.5 66 37.6 66 37.6 63 40.5 63 40.5 66 43.6 66 43.6 63 46.5 63 46.5 66 49.6 66 49.6 63 52.5 63 52.5 66 55.6 66 55.6 63 58.5 63 58.5 66 61.6 66 61.6 63 64.5 63 64.5 66 67.6 66 67.6 63 70.5 63 70.5 66 73.6 66 73.6 63 76.5 63 76.5 66 79.6 66 79.6 63 82.5 63 82.5 66 85.6 66 85.6 63 88.5 63 88.5 66 91.6 66 91.6 63 94.5 63 94.5 66 97.6 66 97.6 63 100.5 63 100.5 66 103.6 66 103.6 63 106.5 63 106.5 66 109.6 66 109.6 63 112.5 63 112.5 66 115.6 66 115.6 63 118.5 63 118.5 66 121.5 66 150 123 129 281 129 281 125.9 281 125.9 284 123 284 123 281 119.9 281 119.9 284 117 284 117 281 113.9 281 113.9 284 111 284 111 281 107.9 281 107.9 284 105 284 105 281 101.9 281 101.9 284 99 284 99 281 95.9 281 95.9 284 93 284 93 281 89.9 281 89.9 284 87 284 87 281 83.9 281 83.9 284 81 284 81 281 77.9 281 77.9 284 75 284 75 281 71.9 281 71.9 284 69 284 69 281 65.9 281 65.9 284 63.00000000000001 284 63 281 59.900000000000006 281 59.900000000000006 284 57.00000000000001 284 57 281 53.900000000000006 281 53.900000000000006 284 51.00000000000001 284 51 281 47.900000000000006 281 47.900000000000006 284 45.00000000000001 284 45 281 41.900000000000006 281 41.900000000000006 284 39.00000000000001 284 39 281 35.900000000000006 281 35.900000000000006 284 33.00000000000001 284 33 281 29.900000000000006 281 29.900000000000006 284 27.000000000000007 284 27 281 23.900000000000006 281 23.900000000000006 284 21.000000000000007 284 21 281 21 281"
     stroke="#ff0000"
     stroke-width="0.001mm"
     style="fill:none;stroke-width:1"
     id="path4" />
  <path
     d="m 705.97854,5.8922591 h 80.09788 l 8,7.9999999 v 45 h -5 v -3 h -86.09788 v 3 h -5 v -45 l 8,-7.9999999"
     stroke="#ff0000"
     stroke-width="0.001mm"
     style="fill:none;stroke-width:1"
     id="path10" />
  <path
     d="m 425.82527,61.608733 h 65.09788 l 8,8 v 44.999997 h -5 v -3 h -71.09788 v 3 h -5 V 69.608733 l 8,-8"
     stroke="#ff0000"
     stroke-width="0.001mm"
     style="fill:none;stroke-width:1"
     id="path12" />
  <path
     d="m 23.9,347 v -66 0 H 27 v 3 h 2.9 v -3 H 33 v 3 h 2.9 v -3 H 39 v 3 h 2.9 v -3 H 45 v 3 h 2.9 v -3 H 51 v 3 h 2.9 v -3 H 57 v 3 h 2.9 v -3 H 63 v 3 h 2.9 v -3 H 69 v 3 h 2.9 v -3 H 75 v 3 h 2.9 v -3 H 81 v 3 h 2.9 v -3 H 87 v 3 h 2.9 v -3 H 93 v 3 h 2.9 v -3 H 99 v 3 h 2.9 v -3 h 3.1 v 3 h 2.9 v -3 h 3.1 v 3 h 2.9 v -3 h 3 v 66 0 h -3.1 v -3 h -2.9 v 3 h -3.1 v -3 h -2.9 v 3 h -3.1 v -3 h -2.9 v 3 h -3.1 v -3 h -2.9 v 3 h -3.1 v -3 h -2.9 v 3 h -3.1 v -3 h -2.9 v 3 h -3.1 v -3 h -2.9 v 3 h -3.1 v -3 h -2.9 v 3 h -3.1 v -3 h -2.9 v 3 h -3.1 v -3 h -2.9 v 3 h -3.1 v -3 h -2.9 v 3 h -3.1 v -3 h -2.9 v 3 h -3.1 v -3 h -2.9 v 3 h -3.1 v -3 h -2.9 v 3 h -3.1 v -3 h -2.9 v 3 h -3"
     stroke="#ff0000"
     stroke-width="0.001mm"
     style="fill:none;stroke-width:1"
     id="path835" />
  <path
     d="m 150,123 -21,158 28.5,57 v 0 h 3.1 v 3 h 2.9 v -3 h 3.1 v 3 h 2.9 v -3 h 3.1 v 3 h 2.9 v -3 h 3.1 v 3 h 2.9 v -3 h 3.1 v 3 h 2.9 v -3 h 3.1 v 3 h 2.9 v -3 h 3.1 v 3 h 2.9 v -3 h 3.1 v 3 h 2.9 v -3 h 3.1 v 3 h 2.9 v -3 h 3.1 v 3 h 2.9 v -3 h 3.1 v 3 h 2.9 v -3 h 3.1 v 3 h 2.9 v -3 h 3.1 v 3 h 2.9 v -3 h 3.1 v 3 h 2.9 v -3 h 3.1 v 3 h 2.9 v -3 h 3 L 279,281 258,123 v 0 h -3.1 v -3 H 252 v 3 h -3.1 v -3 H 246 v 3 h -3.1 v -3 H 240 v 3 h -3.1 v -3 H 234 v 3 h -3.1 v -3 H 228 v 3 h -3.1 v -3 H 222 v 3 h -3.1 v -3 H 216 v 3 h -3.1 v -3 H 210 v 3 h -3.1 v -3 H 204 v 3 h -3.1 v -3 H 198 v 3 h -3.1 v -3 H 192 v 3 h -3.1 v -3 H 186 v 3 h -3.1 v -3 H 180 v 3 h -3.1 v -3 H 174 v 3 h -3.1 v -3 H 168 v 3 h -3.1 v -3 H 162 v 3 h -3.1 v -3 H 156 v 3 h -3.1 v -3 H 150 v 3 0"
     stroke="#ff0000"
     stroke-width="0.001mm"
     style="fill:none;stroke-width:1"
     id="path837" />
  <path
     d="M 286.5,9.9999999e-7 V 66.000001 v 0 h 3.1 v -3 h 2.9 v 3 h 3.1 v -3 h 2.9 v 3 h 3.1 v -3 h 2.9 v 3 h 3.1 v -3 h 2.9 v 3 h 3.1 v -3 h 2.9 v 3 h 3.1 v -3 h 2.9 v 3 h 3.1 v -3 h 2.9 v 3 h 3.1 v -3 h 2.9 v 3 h 3.1 v -3 h 2.9 v 3 h 3.1 v -3 h 2.9 v 3 h 3.1 v -3 h 2.9 v 3 h 3.1 v -3 h 2.9 v 3 h 3.1 v -3 h 2.9 v 3 h 3.1 v -3 h 2.9 v 3 h 3.1 v -3 h 2.9 v 3 h 3 V 9.9999999e-7 v 0 h -3.1 V 3.0000005 h -2.9 V 9.9999999e-7 h -3.1 V 3.0000005 h -2.9 V 9.9999999e-7 h -3.1 V 3.0000005 h -2.9 V 9.9999999e-7 h -3.1 V 3.0000005 h -2.9 V 9.9999999e-7 h -3.1 V 3.0000005 h -2.9 V 9.9999999e-7 h -3.1 V 3.0000005 h -2.9 V 9.9999999e-7 h -3.1 V 3.0000005 h -2.9 V 9.9999999e-7 h -3.1 V 3.0000005 h -2.9 V 9.9999999e-7 h -3.1 V 3.0000005 h -2.9 V 9.9999999e-7 h -3.1 V 3.0000005 h -2.9 V 9.9999999e-7 h -3.1 V 3.0000005 h -2.9 V 9.9999999e-7 h -3.1 V 3.0000005 h -2.9 V 9.9999999e-7 h -3.1 V 3.0000005 h -2.9 V 9.9999999e-7 h -3.1 V 3.0000005 h -2.9 V 9.9999999e-7 h -3.1 V 3.0000005 h -2.9 V 9.9999999e-7 h -3"
     stroke="#ff0000"
     stroke-width="0.001mm"
     style="fill:none;stroke-width:1"
     id="path933" />
  <path
     d="M 279,281 258,123 286.5,66.000001 v 0 h 3.1 v -3 h 2.9 v 3 h 3.1 v -3 h 2.9 v 3 h 3.1 v -3 h 2.9 v 3 h 3.1 v -3 h 2.9 v 3 h 3.1 v -3 h 2.9 v 3 h 3.1 v -3 h 2.9 v 3 h 3.1 v -3 h 2.9 v 3 h 3.1 v -3 h 2.9 v 3 h 3.1 v -3 h 2.9 v 3 h 3.1 v -3 h 2.9 v 3 h 3.1 v -3 h 2.9 v 3 h 3.1 v -3 h 2.9 v 3 h 3.1 v -3 h 2.9 v 3 h 3.1 v -3 h 2.9 v 3 h 3.1 v -3 h 2.9 v 3 h 3 L 408,123 387,281 v 0 h -3.1 v 3 H 381 v -3 h -3.1 v 3 H 375 v -3 h -3.1 v 3 H 369 v -3 h -3.1 v 3 H 363 v -3 h -3.1 v 3 H 357 v -3 h -3.1 v 3 H 351 v -3 h -3.1 v 3 H 345 v -3 h -3.1 v 3 H 339 v -3 h -3.1 v 3 H 333 v -3 h -3.1 v 3 H 327 v -3 h -3.1 v 3 H 321 v -3 h -3.1 v 3 H 315 v -3 h -3.1 v 3 H 309 v -3 h -3.1 v 3 H 303 v -3 h -3.1 v 3 H 297 v -3 h -3.1 v 3 H 291 v -3 h -3.1 v 3 H 285 v -3 h -3.1 v 3 H 279 v -3 0"
     stroke="#ff0000"
     stroke-width="0.001mm"
     style="fill:none;stroke-width:1"
     id="path935" />
  <path
     d="m 281.9,347 v -66 0 h 3.1 v 3 h 2.9 v -3 h 3.1 v 3 h 2.9 v -3 h 3.1 v 3 h 2.9 v -3 h 3.1 v 3 h 2.9 v -3 h 3.1 v 3 h 2.9 v -3 h 3.1 v 3 h 2.9 v -3 h 3.1 v 3 h 2.9 v -3 h 3.1 v 3 h 2.9 v -3 h 3.1 v 3 h 2.9 v -3 h 3.1 v 3 h 2.9 v -3 h 3.1 v 3 h 2.9 v -3 h 3.1 v 3 h 2.9 v -3 h 3.1 v 3 h 2.9 v -3 h 3.1 v 3 h 2.9 v -3 h 3.1 v 3 h 2.9 v -3 h 3 v 66 0 h -3.1 v -3 h -2.9 v 3 h -3.1 v -3 h -2.9 v 3 h -3.1 v -3 h -2.9 v 3 h -3.1 v -3 h -2.9 v 3 h -3.1 v -3 h -2.9 v 3 h -3.1 v -3 h -2.9 v 3 h -3.1 v -3 h -2.9 v 3 h -3.1 v -3 h -2.9 v 3 h -3.1 v -3 h -2.9 v 3 h -3.1 v -3 h -2.9 v 3 h -3.1 v -3 h -2.9 v 3 h -3.1 v -3 h -2.9 v 3 h -3.1 v -3 h -2.9 v 3 h -3.1 v -3 h -2.9 v 3 h -3.1 v -3 h -2.9 v 3 h -3"
     stroke="#ff0000"
     stroke-width="0.001mm"
     style="fill:none;stroke-width:1"
     id="path937" />
  <path
     d="m 408,123 -21,158 28.5,57 v 0 h 3.1 v 3 h 2.9 v -3 h 3.1 v 3 h 2.9 v -3 h 3.1 v 3 h 2.9 v -3 h 3.1 v 3 h 2.9 v -3 h 3.1 v 3 h 2.9 v -3 h 3.1 v 3 h 2.9 v -3 h 3.1 v 3 h 2.9 v -3 h 3.1 v 3 h 2.9 v -3 h 3.1 v 3 h 2.9 v -3 h 3.1 v 3 h 2.9 v -3 h 3.1 v 3 h 2.9 v -3 h 3.1 v 3 h 2.9 v -3 h 3.1 v 3 h 2.9 v -3 h 3.1 v 3 h 2.9 v -3 h 3.1 v 3 h 2.9 v -3 h 3 L 537,281 516,123 v 0 h -3.1 v -3 H 510 v 3 h -3.1 v -3 H 504 v 3 h -3.1 v -3 H 498 v 3 h -3.1 v -3 H 492 v 3 h -3.1 v -3 H 486 v 3 h -3.1 v -3 H 480 v 3 h -3.1 v -3 H 474 v 3 h -3.1 v -3 H 468 v 3 h -3.1 v -3 H 462 v 3 h -3.1 v -3 H 456 v 3 h -3.1 v -3 H 450 v 3 h -3.1 v -3 H 444 v 3 h -3.1 v -3 H 438 v 3 h -3.1 v -3 H 432 v 3 h -3.1 v -3 H 426 v 3 h -3.1 v -3 H 420 v 3 h -3.1 v -3 H 414 v 3 h -3.1 v -3 H 408 v 3 0"
     stroke="#ff0000"
     stroke-width="0.001mm"
     style="fill:none;stroke-width:1"
     id="path945" />
  <path
     d="m 544.5,0 v 66 0 h 3.1 v -3 h 2.9 v 3 h 3.1 v -3 h 2.9 v 3 h 3.1 v -3 h 2.9 v 3 h 3.1 v -3 h 2.9 v 3 h 3.1 v -3 h 2.9 v 3 h 3.1 v -3 h 2.9 v 3 h 3.1 v -3 h 2.9 v 3 h 3.1 v -3 h 2.9 v 3 h 3.1 v -3 h 2.9 v 3 h 3.1 v -3 h 2.9 v 3 h 3.1 v -3 h 2.9 v 3 h 3.1 v -3 h 2.9 v 3 h 3.1 v -3 h 2.9 v 3 h 3.1 v -3 h 2.9 v 3 h 3.1 v -3 h 2.9 v 3 h 3 V 0 0 h -3.1 v 3 h -2.9 V 0 h -3.1 v 3 h -2.9 V 0 h -3.1 v 3 h -2.9 V 0 h -3.1 v 3 h -2.9 V 0 h -3.1 v 3 h -2.9 V 0 h -3.1 v 3 h -2.9 V 0 h -3.1 v 3 h -2.9 V 0 h -3.1 v 3 h -2.9 V 0 h -3.1 v 3 h -2.9 V 0 h -3.1 v 3 h -2.9 V 0 h -3.1 v 3 h -2.9 V 0 h -3.1 v 3 h -2.9 V 0 h -3.1 v 3 h -2.9 V 0 h -3.1 v 3 h -2.9 V 0 h -3.1 v 3 h -2.9 V 0 h -3"
     stroke="#ff0000"
     stroke-width="0.001mm"
     style="fill:none;stroke-width:1"
     id="path947" />
  <path
     d="M 537,281 516,123 544.5,66 v 0 h 3.1 v -3 h 2.9 v 3 h 3.1 v -3 h 2.9 v 3 h 3.1 v -3 h 2.9 v 3 h 3.1 v -3 h 2.9 v 3 h 3.1 v -3 h 2.9 v 3 h 3.1 v -3 h 2.9 v 3 h 3.1 v -3 h 2.9 v 3 h 3.1 v -3 h 2.9 v 3 h 3.1 v -3 h 2.9 v 3 h 3.1 v -3 h 2.9 v 3 h 3.1 v -3 h 2.9 v 3 h 3.1 v -3 h 2.9 v 3 h 3.1 v -3 h 2.9 v 3 h 3.1 v -3 h 2.9 v 3 h 3.1 v -3 h 2.9 v 3 h 3 l 28.5,57 -21,158 v 0 h -3.1 v 3 H 639 v -3 h -3.1 v 3 H 633 v -3 h -3.1 v 3 H 627 v -3 h -3.1 v 3 H 621 v -3 h -3.1 v 3 H 615 v -3 h -3.1 v 3 H 609 v -3 h -3.1 v 3 H 603 v -3 h -3.1 v 3 H 597 v -3 h -3.1 v 3 H 591 v -3 h -3.1 v 3 H 585 v -3 h -3.1 v 3 H 579 v -3 h -3.1 v 3 H 573 v -3 h -3.1 v 3 H 567 v -3 h -3.1 v 3 H 561 v -3 h -3.1 v 3 H 555 v -3 h -3.1 v 3 H 549 v -3 h -3.1 v 3 H 543 v -3 h -3.1 v 3 H 537 v -3 0"
     stroke="#ff0000"
     stroke-width="0.001mm"
     style="fill:none;stroke-width:1"
     id="path949" />
  <path
     d="m 539.9,347 v -66 0 h 3.1 v 3 h 2.9 v -3 h 3.1 v 3 h 2.9 v -3 h 3.1 v 3 h 2.9 v -3 h 3.1 v 3 h 2.9 v -3 h 3.1 v 3 h 2.9 v -3 h 3.1 v 3 h 2.9 v -3 h 3.1 v 3 h 2.9 v -3 h 3.1 v 3 h 2.9 v -3 h 3.1 v 3 h 2.9 v -3 h 3.1 v 3 h 2.9 v -3 h 3.1 v 3 h 2.9 v -3 h 3.1 v 3 h 2.9 v -3 h 3.1 v 3 h 2.9 v -3 h 3.1 v 3 h 2.9 v -3 h 3.1 v 3 h 2.9 v -3 h 3 v 66 0 h -3.1 v -3 h -2.9 v 3 h -3.1 v -3 h -2.9 v 3 h -3.1 v -3 h -2.9 v 3 h -3.1 v -3 h -2.9 v 3 h -3.1 v -3 h -2.9 v 3 h -3.1 v -3 h -2.9 v 3 h -3.1 v -3 h -2.9 v 3 h -3.1 v -3 h -2.9 v 3 h -3.1 v -3 h -2.9 v 3 h -3.1 v -3 h -2.9 v 3 h -3.1 v -3 h -2.9 v 3 h -3.1 v -3 h -2.9 v 3 h -3.1 v -3 h -2.9 v 3 h -3.1 v -3 h -2.9 v 3 h -3.1 v -3 h -2.9 v 3 h -3"
     stroke="#ff0000"
     stroke-width="0.001mm"
     style="fill:none;stroke-width:1"
     id="path951" />
  <path
     d="m 425.82527,11.597443 h 65.09788 l 8,8 v 45 h -5 v -3 h -71.09788 v 3 h -5 v -45 l 8,-8"
     stroke="#ff0000"
     stroke-width="0.001mm"
     style="fill:none;stroke-width:1"
     id="path1142" />
  <path
     d="m 177.71751,58.140992 h 65.09788 l 8,8 v 44.999998 h -5 v -3 h -71.09788 v 3 h -5 V 66.140992 l 8,-8"
     stroke="#ff0000"
     stroke-width="0.001mm"
     style="fill:none;stroke-width:1"
     id="path1144" />
  <path
     d="m 177.71751,8.129702 h 65.09788 l 8,8 v 45 h -5 v -3 h -71.09788 v 3 h -5 v -45 l 8,-8"
     stroke="#ff0000"
     stroke-width="0.001mm"
     style="fill:none;stroke-width:1"
     id="path1146" />
  <path
     d="m 716.07615,260.36498 h 65.09788 l 8,8 v 45.00001 h -5 v -3 h -71.09788 v 3 h -5 v -45.00001 l 8,-8"
     stroke="#ff0000"
     stroke-width="0.001mm"
     style="fill:none;stroke-width:1"
     id="path1148" />
  <path
     d="m 705.97854,56.933368 h 80.09788 l 8,8 v 45.000002 h -5 v -3 h -86.09788 v 3 h -5 V 64.933368 l 8,-8"
     stroke="#ff0000"
     stroke-width="0.001mm"
     style="fill:none;stroke-width:1"
     id="path3100" />
  <path
     d="m 705.97854,107.37137 h 80.09788 l 8,8 v 45 h -5 v -3 h -86.09788 v 3 h -5 v -45 l 8,-8"
     stroke="#ff0000"
     stroke-width="0.001mm"
     style="fill:none;stroke-width:1"
     id="path3102" />
  <path
     d="m 705.97854,158.41248 h 80.09788 l 8,8 v 45 h -5 v -3 h -86.09788 v 3 h -5 v -45 l 8,-8"
     stroke="#ff0000"
     stroke-width="0.001mm"
     style="fill:none;stroke-width:1"
     id="path3104" />
  <path
     d="m 705.97854,209.04454 h 80.09788 l 8,8 v 45 h -5 v -3 h -86.09788 v 3 h -5 v -45 l 8,-8"
     stroke="#ff0000"
     stroke-width="0.001mm"
     style="fill:none;stroke-width:1"
     id="path3106" />
  <g
     id="g3171"
     transform="rotate(89.91182,454.53766,218.02091)">
    <g
       id="g3354"
       transform="translate(452.2981,207.16647)">
      <path
         d="m 178.4,63 v 3 h -2.9 v -3 h -3.1 v 0 3 h -2.9 v -3 h -3.1 v 0 3 h -2.9 v -3 h -3.1 v 0 3 h -2.9 v -3 h -3.1 v 0 3 h -2.9 v -3 h -3.1 v 0 3 h -2.9 v -3 h -3.1 v 0 3 h -2.9 v -3 h -3.1 v 0 3 h -2.9 v -3 h -3.1 v 0 3 h -2.9 v -3 h -3.1 v 0 3 h -2.9 V 63 L 150,6 178.5,63"
         stroke="#ff0000"
         stroke-width="0.001mm"
         style="fill:none;stroke-width:1"
         id="path6" />
      <path
         d="m 121.5,66 h 3.1 v -3 h 2.9 v 3 h 3.1 v -3 h 2.9 v 3 h 3.1 v -3 h 2.9 v 3 h 3.1 v -3 h 2.9 v 3 h 3.1 v -3 h 2.9 v 3 h 3.1 v -3 h 2.9 v 3 h 3.1 v -3 h 2.9 v 3 h 3.1 v -3 h 2.9 v 3 h 3.1 v -3 h 2.9 v 3 h 3 L 150,123 121.5,66"
         stroke="#ff0000"
         stroke-width="0.001mm"
         style="fill:none;stroke-width:1"
         id="path8" />
    </g>
    <g
       id="g4030"
       transform="translate(454.69154,84.501939)">
      <path
         d="m 178.4,63 v 3 h -2.9 v -3 h -3.1 v 0 3 h -2.9 v -3 h -3.1 v 0 3 h -2.9 v -3 h -3.1 v 0 3 h -2.9 v -3 h -3.1 v 0 3 h -2.9 v -3 h -3.1 v 0 3 h -2.9 v -3 h -3.1 v 0 3 h -2.9 v -3 h -3.1 v 0 3 h -2.9 v -3 h -3.1 v 0 3 h -2.9 v -3 h -3.1 v 0 3 h -2.9 V 63 L 150,6 178.5,63"
         stroke="#ff0000"
         stroke-width="0.001mm"
         style="fill:none;stroke-width:1"
         id="path4026" />
      <path
         d="m 121.5,66 h 3.1 v -3 h 2.9 v 3 h 3.1 v -3 h 2.9 v 3 h 3.1 v -3 h 2.9 v 3 h 3.1 v -3 h 2.9 v 3 h 3.1 v -3 h 2.9 v 3 h 3.1 v -3 h 2.9 v 3 h 3.1 v -3 h 2.9 v 3 h 3.1 v -3 h 2.9 v 3 h 3.1 v -3 h 2.9 v 3 h 3 L 150,123 121.5,66"
         stroke="#ff0000"
         stroke-width="0.001mm"
         style="fill:none;stroke-width:1"
         id="path4028" />
    </g>
    <g
       id="g4036"
       transform="translate(454.34622,-44.531506)">
      <path
         d="m 178.4,63 v 3 h -2.9 v -3 h -3.1 v 0 3 h -2.9 v -3 h -3.1 v 0 3 h -2.9 v -3 h -3.1 v 0 3 h -2.9 v -3 h -3.1 v 0 3 h -2.9 v -3 h -3.1 v 0 3 h -2.9 v -3 h -3.1 v 0 3 h -2.9 v -3 h -3.1 v 0 3 h -2.9 v -3 h -3.1 v 0 3 h -2.9 v -3 h -3.1 v 0 3 h -2.9 V 63 L 150,6 178.5,63"
         stroke="#ff0000"
         stroke-width="0.001mm"
         style="fill:none;stroke-width:1"
         id="path4032" />
      <path
         d="m 121.5,66 h 3.1 v -3 h 2.9 v 3 h 3.1 v -3 h 2.9 v 3 h 3.1 v -3 h 2.9 v 3 h 3.1 v -3 h 2.9 v 3 h 3.1 v -3 h 2.9 v 3 h 3.1 v -3 h 2.9 v 3 h 3.1 v -3 h 2.9 v 3 h 3.1 v -3 h 2.9 v 3 h 3.1 v -3 h 2.9 v 3 h 3 L 150,123 121.5,66"
         stroke="#ff0000"
         stroke-width="0.001mm"
         style="fill:none;stroke-width:1"
         id="path4034" />
    </g>
  </g>
  <g
     id="g4016"
     transform="rotate(89.91182,325.05579,428.92264)">
    <g
       id="g4014"
       transform="translate(114.96799,426.66607)">
      <path
         d="m 178.4,63 v 3 h -2.9 v -3 h -3.1 v 0 3 h -2.9 v -3 h -3.1 v 0 3 h -2.9 v -3 h -3.1 v 0 3 h -2.9 v -3 h -3.1 v 0 3 h -2.9 v -3 h -3.1 v 0 3 h -2.9 v -3 h -3.1 v 0 3 h -2.9 v -3 h -3.1 v 0 3 h -2.9 v -3 h -3.1 v 0 3 h -2.9 v -3 h -3.1 v 0 3 h -2.9 V 63 L 150,6 178.5,63"
         stroke="#ff0000"
         stroke-width="0.001mm"
         style="fill:none;stroke-width:1"
         id="path4010" />
      <path
         d="m 121.5,66 h 3.1 v -3 h 2.9 v 3 h 3.1 v -3 h 2.9 v 3 h 3.1 v -3 h 2.9 v 3 h 3.1 v -3 h 2.9 v 3 h 3.1 v -3 h 2.9 v 3 h 3.1 v -3 h 2.9 v 3 h 3.1 v -3 h 2.9 v 3 h 3.1 v -3 h 2.9 v 3 h 3.1 v -3 h 2.9 v 3 h 3 L 150,123 121.5,66"
         stroke="#ff0000"
         stroke-width="0.001mm"
         style="fill:none;stroke-width:1"
         id="path4012" />
    </g>
  </g>
  <g
     id="g4024"
     transform="rotate(89.91182,267.10346,366.20833)">
    <g
       id="g4022"
       transform="translate(116.79738,426.94581)">
      <path
         d="m 178.4,63 v 3 h -2.9 v -3 h -3.1 v 0 3 h -2.9 v -3 h -3.1 v 0 3 h -2.9 v -3 h -3.1 v 0 3 h -2.9 v -3 h -3.1 v 0 3 h -2.9 v -3 h -3.1 v 0 3 h -2.9 v -3 h -3.1 v 0 3 h -2.9 v -3 h -3.1 v 0 3 h -2.9 v -3 h -3.1 v 0 3 h -2.9 v -3 h -3.1 v 0 3 h -2.9 V 63 L 150,6 178.5,63"
         stroke="#ff0000"
         stroke-width="0.001mm"
         style="fill:none;stroke-width:1"
         id="path4018" />
      <path
         d="m 121.5,66 h 3.1 v -3 h 2.9 v 3 h 3.1 v -3 h 2.9 v 3 h 3.1 v -3 h 2.9 v 3 h 3.1 v -3 h 2.9 v 3 h 3.1 v -3 h 2.9 v 3 h 3.1 v -3 h 2.9 v 3 h 3.1 v -3 h 2.9 v 3 h 3.1 v -3 h 2.9 v 3 h 3.1 v -3 h 2.9 v 3 h 3 L 150,123 121.5,66"
         stroke="#ff0000"
         stroke-width="0.001mm"
         style="fill:none;stroke-width:1"
         id="path4020" />
    </g>
  </g>
</svg>
