<?xml version="1.0" encoding="UTF-8" standalone="yes"?>
<svg width="300mm" height="400mm" version="1.1" viewBox="0 0 300 400">
  <path d="M 46 285 L25 127 53.5 70 53.5 70 56.6 70 56.6 67 59.5 67 59.5 70 62.6 70 62.6 67 65.5 67 65.5 70 68.6 70 68.6 67 71.5 67 71.5 70 74.6 70 74.6 67 77.5 67 77.5 70 80.6 70 80.6 67 83.5 67 83.5 70 86.6 70 86.6 67 89.5 67 89.5 70 92.6 70 92.6 67 95.5 67 95.5 70 98.6 70 98.6 67 101.5 67 101.5 70 104.6 70 104.6 67 107.5 67 107.5 70 110.6 70 110.6 67 113.5 67 113.5 70 116.6 70 116.6 67 119.5 67 119.5 70 122.6 70 122.6 67 125.5 67 125.5 70 128.6 70 128.6 67 131.5 67 131.5 70 134.6 70 134.6 67 137.5 67 137.5 70 140.6 70 140.6 67 143.5 67 143.5 70 146.5 70 175 127 154 285 154 285 150.9 285 150.9 288 148 288 148 285 144.9 285 144.9 288 142 288 142 285 138.9 285 138.9 288 136 288 136 285 132.9 285 132.9 288 130 288 130 285 126.9 285 126.9 288 124 288 124 285 120.9 285 120.9 288 118 288 118 285 114.9 285 114.9 288 112 288 112 285 108.9 285 108.9 288 106 288 106 285 102.9 285 102.9 288 100 288 100 285 96.9 285 96.9 288 94 288 94 285 90.9 285 90.9 288 88 288 88 285 84.9 285 84.9 288 82 288 82 285 78.9 285 78.9 288 76 288 76 285 72.9 285 72.9 288 70 288 70 285 66.9 285 66.9 288 64 288 64 285 60.900000000000006 285 60.900000000000006 288 58.00000000000001 288 58 285 54.900000000000006 285 54.900000000000006 288 52.00000000000001 288 52 285 48.900000000000006 285 48.900000000000006 288 46.00000000000001 288 46 285 46 285" stroke="#ff0000" stroke-width="1mm" style="fill:none;stroke-width:1"/>
  <path d="M 150 70 L153.1 70 153.1 67 156 67 156 70 159.1 70 159.1 67 162 67 162 70 165.1 70 165.1 67 168 67 168 70 171.1 70 171.1 67 174 67 174 70 177.1 70 177.1 67 180 67 180 70 183.1 70 183.1 67 186 67 186 70 189.1 70 189.1 67 192 67 192 70 195.1 70 195.1 67 198 67 198 70 201.1 70 201.1 67 204 67 204 70 207 70 178.5 127 150 70" stroke="#ff0000" stroke-width="1mm" style="fill:none;stroke-width:1"/>
  <path d="M 150.1 25 L150.1 22 153 22 153 25 156.1 25 156.1 25 156.1 22 159 22 159 25 162.1 25 162.1 25 162.1 22 165 22 165 25 168.1 25 168.1 25 168.1 22 171 22 171 25 174.1 25 174.1 25 174.1 22 177 22 177 25 180.1 25 180.1 25 180.1 22 183 22 183 25 186.1 25 186.1 25 186.1 22 189 22 189 25 192.1 25 192.1 25 192.1 22 195 22 195 25 198.1 25 198.1 25 198.1 22 201 22 201 25 204.1 25 204.1 25 204.1 22 207 22 207 25 178.5 82 150 25" stroke="#ff0000" stroke-width="1mm" style="fill:none;stroke-width:1"/>
  <path d="M 54 0 L54 66 147 66 147 0 54 0" stroke="#000000" stroke-width="1mm" style="fill:none;stroke-width:1"/>
  <path d="M 54 0 L54 66 54 66 57.1 66 57.1 63 60 63 60 66 63.1 66 63.1 63 66 63 66 66 69.1 66 69.1 63 72 63 72 66 75.1 66 75.1 63 78 63 78 66 81.1 66 81.1 63 84 63 84 66 87.1 66 87.1 63 90 63 90 66 93.1 66 93.1 63 96 63 96 66 99.1 66 99.1 63 102 63 102 66 105.1 66 105.1 63 108 63 108 66 111.1 66 111.1 63 114 63 114 66 117.1 66 117.1 63 120 63 120 66 123.1 66 123.1 63 126 63 126 66 129.1 66 129.1 63 132 63 132 66 135.1 66 135.1 63 138 63 138 66 141.1 66 141.1 63 144 63 144 66 147 66 147 0 147 0 143.9 0 143.9 3 141 3 141 0 137.9 0 137.9 3 135 3 135 0 131.9 0 131.9 3 129 3 129 0 125.9 0 125.9 3 123 3 123 0 119.9 0 119.9 3 117 3 117 0 113.9 0 113.9 3 111 3 111 0 107.9 0 107.9 3 105 3 105 0 101.9 0 101.9 3 99 3 99 0 95.9 0 95.9 3 93 3 93 0 89.9 0 89.9 3 87 3 87 0 83.9 0 83.9 3 81 3 81 0 77.9 0 77.9 3 75 3 75 0 71.9 0 71.9 3 69 3 69 0 65.9 0 65.9 3 63.00000000000001 3 63 0 59.900000000000006 0 59.900000000000006 3 57.00000000000001 3 57 0 54 0" stroke="#ff0000" stroke-width="1mm" style="fill:none;stroke-width:1"/>
</svg>