<?xml version="1.0" encoding="UTF-8" standalone="yes"?>
<svg width="300mm" height="400mm" version="1.1" viewBox="0 0 300 400">
  <path d="M 108 11.876458656219484 L199.41892036436906 78.29619216526895 164.5 185.7655785066213 51.50000000000001 185.7655785066213 16.58107963563093 78.29619216526896 107.99999999999997 11.876458656219484" stroke="#000000" stroke-width="1mm" style="fill:none;stroke-width:1"/>
  <path d="M 108 16.04464761714449 L195.4547370919318 79.58423338996083 162.05 182.3934428014669 53.95000000000002 182.39344280146693 20.54526290806818 79.58423338996084 107.99999999999997 16.04464761714449" stroke="#000000" stroke-width="1mm" style="fill:none;stroke-width:1"/>
  <path d="M 108 24.636220781500086 L187.28366544874484 82.23917550616245 157 175.4427141030875 59.00000000000001 175.4427141030875 28.716334551255144 82.23917550616247 107.99999999999999 24.636220781500086" stroke="#000000" stroke-width="1mm" style="fill:none;stroke-width:1"/>
  <path d="M 109.11180025387316 19.44816053698005 L111.61975293643549 21.27029481908672 114.08845099606388 17.872423442711945 111.58049831350155 16.050289160605278 109.11180025387316 19.44816053698005" stroke="#ff0000" stroke-width="1mm" style="fill:none;stroke-width:1"/>
  <path d="M 113.96590222012284 22.9748720507349 L116.47385490268519 24.797006332841562 118.94255296231356 21.399134956466774 116.43460027975121 19.57700067436011 113.96590222012284 22.9748720507349" stroke="#ff0000" stroke-width="1mm" style="fill:none;stroke-width:1"/>
  <path d="M 118.82000418637253 26.50158356448973 L121.32795686893488 28.3237178465964 123.79665492856324 24.925846470221618 121.2887022460009 23.10371218811495 118.82000418637253 26.50158356448973" stroke="#ff0000" stroke-width="1mm" style="fill:none;stroke-width:1"/>
  <path d="M 123.67410615262222 30.028295078244568 L126.18205883518456 31.850429360351235 128.65075689481293 28.452557983976455 126.14280421225058 26.630423701869788 123.67410615262222 30.028295078244568" stroke="#ff0000" stroke-width="1mm" style="fill:none;stroke-width:1"/>
  <path d="M 128.5282081188719 33.55500659199941 L131.03616080143425 35.377140874106075 133.50485886106262 31.979269497731295 130.99690617850027 30.157135215624628 128.5282081188719 33.55500659199941" stroke="#ff0000" stroke-width="1mm" style="fill:none;stroke-width:1"/>
  <path d="M 133.3823100851216 37.08171810575425 L135.89026276768394 38.903852387860915 138.3589608273123 35.505981011486135 135.85100814474995 33.68384672937947 133.3823100851216 37.08171810575425" stroke="#ff0000" stroke-width="1mm" style="fill:none;stroke-width:1"/>
  <path d="M 138.23641205137127 40.60842961950908 L140.74436473393362 42.430563901615756 143.213062793562 39.032692525240975 140.70511011099964 37.2105582431343 138.23641205137127 40.60842961950908" stroke="#ff0000" stroke-width="1mm" style="fill:none;stroke-width:1"/>
  <path d="M 143.09051401762096 44.13514113326393 L145.5984667001833 45.95727541537059 148.06716475981167 42.55940403899581 145.55921207724933 40.73726975688915 143.09051401762096 44.13514113326393" stroke="#ff0000" stroke-width="1mm" style="fill:none;stroke-width:1"/>
  <path d="M 147.94461598387065 47.66185264701876 L150.452568666433 49.483986929125436 152.92126672606136 46.086115552750655 150.413314043499 44.26398127064398 147.94461598387065 47.66185264701876" stroke="#ff0000" stroke-width="1mm" style="fill:none;stroke-width:1"/>
  <path d="M 152.79871795012033 51.1885641607736 L155.30667063268268 53.01069844288027 157.77536869231105 49.61282706650549 155.2674160097487 47.79069278439882 152.79871795012033 51.1885641607736" stroke="#ff0000" stroke-width="1mm" style="fill:none;stroke-width:1"/>
  <path d="M 157.65281991637 54.715275674528435 L160.1607725989323 56.5374099566351 162.62947065856073 53.139538580260336 160.12151797599842 51.31740429815367 157.65281991637 54.715275674528435" stroke="#ff0000" stroke-width="1mm" style="fill:none;stroke-width:1"/>
  <path d="M 162.50692188261968 58.241987188283275 L165.014874565182 60.06412147038994 167.48357262481042 56.666250094015176 164.9756199422481 54.84411581190851 162.50692188261968 58.241987188283275" stroke="#ff0000" stroke-width="1mm" style="fill:none;stroke-width:1"/>
  <path d="M 167.36102384886937 61.768698702038115 L169.86897653143168 63.59083298414478 172.3376745910601 60.192961607770016 169.8297219084978 58.37082732566335 167.36102384886937 61.768698702038115" stroke="#ff0000" stroke-width="1mm" style="fill:none;stroke-width:1"/>
  <path d="M 172.21512581511908 65.29541021579296 L174.7230784976814 67.11754449789962 177.19177655730977 63.719673121524835 174.68382387474745 61.89753883941818 172.21512581511908 65.29541021579296" stroke="#ff0000" stroke-width="1mm" style="fill:none;stroke-width:1"/>
  <path d="M 177.06922778136877 68.8221217295478 L179.5771804639311 70.64425601165446 182.04587852355945 67.24638463527968 179.53792584099713 65.42425035317302 177.06922778136877 68.8221217295478" stroke="#ff0000" stroke-width="1mm" style="fill:none;stroke-width:1"/>
  <path d="M 181.92332974761842 72.34883324330262 L184.43128243018074 74.1709675254093 186.89998048980917 70.77309614903454 184.39202780724685 68.95096186692787 181.92332974761842 72.34883324330262" stroke="#ff0000" stroke-width="1mm" style="fill:none;stroke-width:1"/>
  <path d="M 186.7774317138681 75.87554475705745 L189.28538439643043 77.69767903916413 191.75408245605885 74.29980766278938 189.24612977349653 72.4776733806827 186.7774317138681 75.87554475705745" stroke="#ff0000" stroke-width="1mm" style="fill:none;stroke-width:1"/>
  <path d="M 191.63153368011783 79.40225627081232 L194.13948636268015 81.22439055291898 196.6081844223085 77.8265191765442 194.1002317397462 76.00438489443754 191.63153368011783 79.40225627081232" stroke="#ff0000" stroke-width="1mm" style="fill:none;stroke-width:1"/>
  <path d="M 107.8877430058551 26.408763267437454 L111.93282797772984 29.34768952889982 113.69618373460726 26.920638545774978 109.65109876273252 23.98171228431261 107.8877430058551 26.408763267437454" stroke="#ff0000" stroke-width="1mm" style="fill:none;stroke-width:1"/>
  <path d="M 187.39592244288974 80.46663302022509 L183.350837471015 77.52770675876272 181.58748171413757 79.95475774188756 185.6325666860123 82.89368400334993 187.39592244288974 80.46663302022509" stroke="#ff0000" stroke-width="1mm" style="fill:none;stroke-width:1"/>
  <path d="M 192.56136912402462 81.69336159902939 L191.6034164414623 84.64163679954436 195.59785380990195 85.93950817591914 196.55580649246428 82.99123297540417 192.56136912402462 81.69336159902939" stroke="#ff0000" stroke-width="1mm" style="fill:none;stroke-width:1"/>
  <path d="M 190.70726715777494 87.39970069680031 L189.7493144752126 90.34797589731528 193.74375184365226 91.64584727369007 194.7017045262146 88.6975720731751 190.70726715777494 87.39970069680031" stroke="#ff0000" stroke-width="1mm" style="fill:none;stroke-width:1"/>
  <path d="M 188.85316519152525 93.10603979457123 L187.8952125089629 96.0543149950862 191.88964987740258 97.35218637146099 192.8476025599649 94.40391117094602 188.85316519152525 93.10603979457123" stroke="#ff0000" stroke-width="1mm" style="fill:none;stroke-width:1"/>
  <path d="M 186.99906322527556 98.81237889234215 L186.04111054271323 101.76065409285712 190.0355479111529 103.05852546923191 190.99350059371523 100.11025026871694 186.99906322527556 98.81237889234215" stroke="#ff0000" stroke-width="1mm" style="fill:none;stroke-width:1"/>
  <path d="M 185.14496125902588 104.51871799011307 L184.18700857646354 107.46699319062805 188.1814459449032 108.76486456700283 189.13939862746554 105.81658936648786 185.14496125902588 104.51871799011307" stroke="#ff0000" stroke-width="1mm" style="fill:none;stroke-width:1"/>
  <path d="M 183.29085929277625 110.22505708788398 L182.33290661021388 113.17333228839895 186.3273439786535 114.47120366477377 187.28529666121585 111.5229284642588 183.29085929277625 110.22505708788398" stroke="#ff0000" stroke-width="1mm" style="fill:none;stroke-width:1"/>
  <path d="M 181.43675732652653 115.93139618565492 L180.4788046439642 118.87967138616989 184.47324201240386 120.17754276254468 185.4311946949662 117.2292675620297 181.43675732652653 115.93139618565492" stroke="#ff0000" stroke-width="1mm" style="fill:none;stroke-width:1"/>
  <path d="M 179.58265536027685 121.63773528342584 L178.6247026777145 124.58601048394081 182.61914004615417 125.8838818603156 183.5770927287165 122.93560665980063 179.58265536027685 121.63773528342584" stroke="#ff0000" stroke-width="1mm" style="fill:none;stroke-width:1"/>
  <path d="M 177.72855339402716 127.34407438119676 L176.77060071146482 130.29234958171176 180.76503807990449 131.59022095808652 181.72299076246682 128.64194575757153 177.72855339402716 127.34407438119676" stroke="#ff0000" stroke-width="1mm" style="fill:none;stroke-width:1"/>
  <path d="M 175.87445142777747 133.0504134789677 L174.91649874521514 135.99868867948268 178.9109361136548 137.29656005585744 179.86888879621713 134.34828485534246 175.87445142777747 133.0504134789677" stroke="#ff0000" stroke-width="1mm" style="fill:none;stroke-width:1"/>
  <path d="M 174.0203494615278 138.75675257673862 L173.06239677896545 141.7050277772536 177.0568341474051 143.00289915362836 178.01478682996745 140.05462395311338 174.0203494615278 138.75675257673862" stroke="#ff0000" stroke-width="1mm" style="fill:none;stroke-width:1"/>
  <path d="M 172.1662474952781 144.46309167450954 L171.20829481271576 147.41136687502453 175.20273218115543 148.70923825139928 176.16068486371776 145.7609630508843 172.1662474952781 144.46309167450954" stroke="#ff0000" stroke-width="1mm" style="fill:none;stroke-width:1"/>
  <path d="M 170.3121455290284 150.16943077228046 L169.35419284646608 153.11770597279545 173.34863021490574 154.4155773491702 174.30658289746808 151.46730214865522 170.3121455290284 150.16943077228046" stroke="#ff0000" stroke-width="1mm" style="fill:none;stroke-width:1"/>
  <path d="M 168.45804356277873 155.87576987005139 L167.5000908802164 158.82404507056637 171.49452824865605 160.12191644694113 172.4524809312184 157.17364124642614 168.45804356277873 155.87576987005139" stroke="#ff0000" stroke-width="1mm" style="fill:none;stroke-width:1"/>
  <path d="M 166.60394159652904 161.5821089678223 L165.6459889139667 164.5303841683373 169.64042628240637 165.82825554471205 170.5983789649687 162.87998034419707 166.60394159652904 161.5821089678223" stroke="#ff0000" stroke-width="1mm" style="fill:none;stroke-width:1"/>
  <path d="M 164.74983963027935 167.28844806559323 L163.79188694771702 170.2367232661082 167.78632431615668 171.53459464248297 168.74427699871902 168.586319441968 164.74983963027935 167.28844806559323" stroke="#ff0000" stroke-width="1mm" style="fill:none;stroke-width:1"/>
  <path d="M 162.89573766402967 172.99478716336415 L161.93778498146736 175.94306236387914 165.93222234990702 177.2409337402539 166.89017503246933 174.2926585397389 162.89573766402967 172.99478716336415" stroke="#ff0000" stroke-width="1mm" style="fill:none;stroke-width:1"/>
  <path d="M 161.04163569778 178.70112626113507 L160.08368301521767 181.64940146165006 164.07812038365734 182.94727283802482 165.03607306621967 179.99899763750983 161.04163569778 178.70112626113507" stroke="#ff0000" stroke-width="1mm" style="fill:none;stroke-width:1"/>
  <path d="M 185.56318804815587 82.68015851178751 L184.01810307628114 87.43544109326328 186.87127262516663 88.36249207638812 188.41635759704135 83.60720949491235 185.56318804815587 82.68015851178751" stroke="#ff0000" stroke-width="1mm" style="fill:none;stroke-width:1"/>
  <path d="M 158.72047740058898 175.00173109746245 L160.2655623724637 170.24644851598669 157.41239282357822 169.31939753286184 155.8673078517035 174.0746801143376 158.72047740058898 175.00173109746245" stroke="#ff0000" stroke-width="1mm" style="fill:none;stroke-width:1"/>
  <path d="M 159.15 180.2934428014669 L156.05 180.2934428014669 156.05 184.4934428014669 159.15 184.4934428014669 159.15 180.2934428014669" stroke="#ff0000" stroke-width="1mm" style="fill:none;stroke-width:1"/>
  <path d="M 153.15 180.2934428014669 L150.05 180.2934428014669 150.05 184.4934428014669 153.15 184.4934428014669 153.15 180.2934428014669" stroke="#ff0000" stroke-width="1mm" style="fill:none;stroke-width:1"/>
  <path d="M 147.15 180.2934428014669 L144.05 180.2934428014669 144.05 184.4934428014669 147.15 184.4934428014669 147.15 180.2934428014669" stroke="#ff0000" stroke-width="1mm" style="fill:none;stroke-width:1"/>
  <path d="M 141.15 180.2934428014669 L138.05 180.2934428014669 138.05 184.4934428014669 141.15 184.4934428014669 141.15 180.2934428014669" stroke="#ff0000" stroke-width="1mm" style="fill:none;stroke-width:1"/>
  <path d="M 135.15 180.2934428014669 L132.05 180.2934428014669 132.05 184.4934428014669 135.15 184.4934428014669 135.15 180.2934428014669" stroke="#ff0000" stroke-width="1mm" style="fill:none;stroke-width:1"/>
  <path d="M 129.15 180.2934428014669 L126.05000000000001 180.2934428014669 126.05000000000001 184.4934428014669 129.15 184.4934428014669 129.15 180.2934428014669" stroke="#ff0000" stroke-width="1mm" style="fill:none;stroke-width:1"/>
  <path d="M 123.15 180.2934428014669 L120.05000000000001 180.2934428014669 120.05000000000001 184.4934428014669 123.15 184.4934428014669 123.15 180.2934428014669" stroke="#ff0000" stroke-width="1mm" style="fill:none;stroke-width:1"/>
  <path d="M 117.15 180.2934428014669 L114.05000000000001 180.2934428014669 114.05000000000001 184.4934428014669 117.15 184.4934428014669 117.15 180.2934428014669" stroke="#ff0000" stroke-width="1mm" style="fill:none;stroke-width:1"/>
  <path d="M 111.15 180.2934428014669 L108.05000000000001 180.2934428014669 108.05000000000001 184.4934428014669 111.15 184.4934428014669 111.15 180.2934428014669" stroke="#ff0000" stroke-width="1mm" style="fill:none;stroke-width:1"/>
  <path d="M 105.15 180.29344280146694 L102.05000000000001 180.29344280146694 102.05000000000001 184.49344280146693 105.15 184.49344280146693 105.15 180.29344280146694" stroke="#ff0000" stroke-width="1mm" style="fill:none;stroke-width:1"/>
  <path d="M 99.15 180.29344280146694 L96.05000000000001 180.29344280146694 96.05000000000001 184.49344280146693 99.15 184.49344280146693 99.15 180.29344280146694" stroke="#ff0000" stroke-width="1mm" style="fill:none;stroke-width:1"/>
  <path d="M 93.15 180.29344280146694 L90.05000000000001 180.29344280146694 90.05000000000001 184.49344280146693 93.15 184.49344280146693 93.15 180.29344280146694" stroke="#ff0000" stroke-width="1mm" style="fill:none;stroke-width:1"/>
  <path d="M 87.15 180.29344280146694 L84.05000000000001 180.29344280146694 84.05000000000001 184.49344280146693 87.15 184.49344280146693 87.15 180.29344280146694" stroke="#ff0000" stroke-width="1mm" style="fill:none;stroke-width:1"/>
  <path d="M 81.15 180.29344280146694 L78.05000000000001 180.29344280146694 78.05000000000001 184.49344280146693 81.15 184.49344280146693 81.15 180.29344280146694" stroke="#ff0000" stroke-width="1mm" style="fill:none;stroke-width:1"/>
  <path d="M 75.15 180.29344280146694 L72.05000000000001 180.29344280146694 72.05000000000001 184.49344280146693 75.15 184.49344280146693 75.15 180.29344280146694" stroke="#ff0000" stroke-width="1mm" style="fill:none;stroke-width:1"/>
  <path d="M 69.15 180.29344280146694 L66.05000000000001 180.29344280146694 66.05000000000001 184.49344280146693 69.15 184.49344280146693 69.15 180.29344280146694" stroke="#ff0000" stroke-width="1mm" style="fill:none;stroke-width:1"/>
  <path d="M 63.150000000000006 180.29344280146694 L60.05000000000001 180.29344280146694 60.05000000000001 184.49344280146693 63.150000000000006 184.49344280146693 63.150000000000006 180.29344280146694" stroke="#ff0000" stroke-width="1mm" style="fill:none;stroke-width:1"/>
  <path d="M 57.150000000000006 180.29344280146694 L54.05000000000001 180.29344280146694 54.05000000000001 184.49344280146693 57.150000000000006 184.49344280146693 57.150000000000006 180.29344280146694" stroke="#ff0000" stroke-width="1mm" style="fill:none;stroke-width:1"/>
  <path d="M 156.04894348370485 173.9427141030875 L151.04894348370485 173.9427141030875 151.04894348370485 176.9427141030875 156.04894348370485 176.9427141030875 156.04894348370485 173.9427141030875" stroke="#ff0000" stroke-width="1mm" style="fill:none;stroke-width:1"/>
  <path d="M 59.95105651629516 176.9427141030875 L64.95105651629515 176.9427141030875 64.95105651629515 173.9427141030875 59.95105651629516 173.9427141030875 59.95105651629516 176.9427141030875" stroke="#ff0000" stroke-width="1mm" style="fill:none;stroke-width:1"/>
  <path d="M 55.05106940053249 178.98644321602362 L54.093116717970155 176.03816801550863 50.09867934953051 177.3360393918834 51.05663203209284 180.28431459239837 55.05106940053249 178.98644321602362" stroke="#ff0000" stroke-width="1mm" style="fill:none;stroke-width:1"/>
  <path d="M 53.196967434282804 173.2801041182527 L52.23901475172047 170.3318289177377 48.24457738328082 171.62970029411247 49.202530065843156 174.57797549462745 53.196967434282804 173.2801041182527" stroke="#ff0000" stroke-width="1mm" style="fill:none;stroke-width:1"/>
  <path d="M 51.34286546803312 167.57376502048177 L50.38491278547078 164.6254898199668 46.39047541703113 165.92336119634155 47.34842809959347 168.87163639685653 51.34286546803312 167.57376502048177" stroke="#ff0000" stroke-width="1mm" style="fill:none;stroke-width:1"/>
  <path d="M 49.48876350178344 161.86742592271085 L48.530810819221095 158.91915072219587 44.53637345078145 160.21702209857062 45.49432613334379 163.1652972990856 49.48876350178344 161.86742592271085" stroke="#ff0000" stroke-width="1mm" style="fill:none;stroke-width:1"/>
  <path d="M 47.63466153553375 156.16108682493993 L46.67670885297141 153.21281162442494 42.68227148453176 154.5106830007997 43.640224167094104 157.4589582013147 47.63466153553375 156.16108682493993" stroke="#ff0000" stroke-width="1mm" style="fill:none;stroke-width:1"/>
  <path d="M 45.780559569284065 150.454747727169 L44.82260688672173 147.50647252665402 40.82816951828208 148.80434390302878 41.78612220084442 151.75261910354376 45.780559569284065 150.454747727169" stroke="#ff0000" stroke-width="1mm" style="fill:none;stroke-width:1"/>
  <path d="M 43.92645760303438 144.74840862939809 L42.96850492047204 141.8001334288831 38.974067552032395 143.09800480525786 39.93202023459473 146.04628000577284 43.92645760303438 144.74840862939809" stroke="#ff0000" stroke-width="1mm" style="fill:none;stroke-width:1"/>
  <path d="M 42.07235563678469 139.04206953162716 L41.114402954222356 136.0937943311122 37.11996558578271 137.39166570748696 38.077918268345044 140.33994090800192 42.07235563678469 139.04206953162716" stroke="#ff0000" stroke-width="1mm" style="fill:none;stroke-width:1"/>
  <path d="M 40.218253670535006 133.33573043385624 L39.26030098797267 130.38745523334129 35.26586361953302 131.68532660971604 36.22381630209536 134.633601810231 40.218253670535006 133.33573043385624" stroke="#ff0000" stroke-width="1mm" style="fill:none;stroke-width:1"/>
  <path d="M 38.36415170428532 127.6293913360853 L37.40619902172298 124.68111613557033 33.411761653283335 125.97898751194512 34.369714335845686 128.9272627124601 38.36415170428532 127.6293913360853" stroke="#ff0000" stroke-width="1mm" style="fill:none;stroke-width:1"/>
  <path d="M 36.51004973803563 121.92305223831438 L35.5520970554733 118.97477703779941 31.557659687033652 120.2726484141742 32.515612369596 123.22092361468917 36.51004973803563 121.92305223831438" stroke="#ff0000" stroke-width="1mm" style="fill:none;stroke-width:1"/>
  <path d="M 34.655947771785954 116.21671314054346 L33.69799508922361 113.26843794002849 29.70355772078397 114.56630931640328 30.66151040334631 117.51458451691825 34.655947771785954 116.21671314054346" stroke="#ff0000" stroke-width="1mm" style="fill:none;stroke-width:1"/>
  <path d="M 32.80184580553626 110.51037404277254 L31.843893122973924 107.56209884225757 27.849455754534283 108.85997021863236 28.80740843709662 111.80824541914733 32.80184580553626 110.51037404277254" stroke="#ff0000" stroke-width="1mm" style="fill:none;stroke-width:1"/>
  <path d="M 30.947743839286574 104.80403494500162 L29.989791156724237 101.85575974448665 25.995353788284596 103.15363112086143 26.953306470846933 106.1019063213764 30.947743839286574 104.80403494500162" stroke="#ff0000" stroke-width="1mm" style="fill:none;stroke-width:1"/>
  <path d="M 29.093641873036887 99.0976958472307 L28.13568919047455 96.14942064671573 24.14125182203491 97.44729202309051 25.099204504597246 100.39556722360548 29.093641873036887 99.0976958472307" stroke="#ff0000" stroke-width="1mm" style="fill:none;stroke-width:1"/>
  <path d="M 27.2395399067872 93.39135674945977 L26.281587224224868 90.44308154894482 22.287149855785227 91.7409529253196 23.24510253834756 94.68922812583456 27.2395399067872 93.39135674945977" stroke="#ff0000" stroke-width="1mm" style="fill:none;stroke-width:1"/>
  <path d="M 25.38543794053752 87.68501765168887 L24.427485257975185 84.7367424511739 20.433047889535537 86.03461382754868 21.391000572097873 88.98288902806365 25.38543794053752 87.68501765168887" stroke="#ff0000" stroke-width="1mm" style="fill:none;stroke-width:1"/>
  <path d="M 23.531335974287835 81.97867855391794 L22.5733832917255 79.03040335340297 18.57894592328585 80.32827472977776 19.536898605848187 83.27654993029273 23.531335974287835 81.97867855391794" stroke="#ff0000" stroke-width="1mm" style="fill:none;stroke-width:1"/>
  <path d="M 60.1326921482965 174.0746801143376 L58.58760717642176 169.31939753286184 55.7344376275363 170.24644851598669 57.27952259941104 175.00173109746245 60.1326921482965 174.0746801143376" stroke="#ff0000" stroke-width="1mm" style="fill:none;stroke-width:1"/>
  <path d="M 27.583642402958652 83.60720949491237 L29.12872737483339 88.36249207638814 31.98189692371885 87.4354410932633 30.436811951844113 82.68015851178752 27.583642402958652 83.60720949491237" stroke="#ff0000" stroke-width="1mm" style="fill:none;stroke-width:1"/>
  <path d="M 24.125761221569718 79.57859184650006 L26.633713904132055 77.7564575643934 24.165015844503674 74.35858618801862 21.657063161941338 76.18072047012528 24.125761221569718 79.57859184650006" stroke="#ff0000" stroke-width="1mm" style="fill:none;stroke-width:1"/>
  <path d="M 28.97986318781941 76.05188033274523 L31.487815870381745 74.22974605063855 29.01911781075335 70.83187467426377 26.511165128191017 72.65400895637045 28.97986318781941 76.05188033274523" stroke="#ff0000" stroke-width="1mm" style="fill:none;stroke-width:1"/>
  <path d="M 33.833965154069084 72.52516881899038 L36.341917836631424 70.70303453688372 33.873219777003044 67.30516316050894 31.365267094440703 69.1272974426156 33.833965154069084 72.52516881899038" stroke="#ff0000" stroke-width="1mm" style="fill:none;stroke-width:1"/>
  <path d="M 38.68806712031878 68.99845730523555 L41.19601980288111 67.17632302312887 38.727321743252716 63.7784516467541 36.21936906069038 65.60058592886077 38.68806712031878 68.99845730523555" stroke="#ff0000" stroke-width="1mm" style="fill:none;stroke-width:1"/>
  <path d="M 43.54216908656846 65.4717457914807 L46.05012176913079 63.64961150937404 43.58142370950241 60.25174013299926 41.07347102694008 62.07387441510592 43.54216908656846 65.4717457914807" stroke="#ff0000" stroke-width="1mm" style="fill:none;stroke-width:1"/>
  <path d="M 48.39627105281815 61.94503427772586 L50.904223735380484 60.122899995619186 48.43552567575209 56.72502861924442 45.927572993189756 58.54716290135109 48.39627105281815 61.94503427772586" stroke="#ff0000" stroke-width="1mm" style="fill:none;stroke-width:1"/>
  <path d="M 53.25037301906782 58.41832276397103 L55.75832570163016 56.59618848186436 53.28962764200178 53.19831710548958 50.78167495943944 55.020451387596246 53.25037301906782 58.41832276397103" stroke="#ff0000" stroke-width="1mm" style="fill:none;stroke-width:1"/>
  <path d="M 58.104474985317516 54.89161125021619 L60.61242766787985 53.06947696810952 58.143729608251455 49.67160559173474 55.63577692568912 51.493739873841406 58.104474985317516 54.89161125021619" stroke="#ff0000" stroke-width="1mm" style="fill:none;stroke-width:1"/>
  <path d="M 62.95857695156719 51.364899736461346 L65.46652963412953 49.54276545435468 62.997831574501156 46.1448940779799 60.48987889193881 47.967028360086566 62.95857695156719 51.364899736461346" stroke="#ff0000" stroke-width="1mm" style="fill:none;stroke-width:1"/>
  <path d="M 67.81267891781687 47.838188222706506 L70.32063160037922 46.01605394059984 67.85193354075085 42.61818256422506 65.3439808581885 44.440316846331726 67.81267891781687 47.838188222706506" stroke="#ff0000" stroke-width="1mm" style="fill:none;stroke-width:1"/>
  <path d="M 72.66678088406657 44.311476708951666 L75.1747335666289 42.489342426845 72.70603550700051 39.09147105047022 70.19808282443817 40.913605332576886 72.66678088406657 44.311476708951666" stroke="#ff0000" stroke-width="1mm" style="fill:none;stroke-width:1"/>
  <path d="M 77.52088285031626 40.784765195196826 L80.02883553287859 38.96263091309016 77.5601374732502 35.56475953671538 75.05218479068786 37.386893818822045 77.52088285031626 40.784765195196826" stroke="#ff0000" stroke-width="1mm" style="fill:none;stroke-width:1"/>
  <path d="M 82.37498481656594 37.258053681441986 L84.88293749912827 35.43591939933532 82.41423943949988 32.03804802296054 79.90628675693755 33.860182305067205 82.37498481656594 37.258053681441986" stroke="#ff0000" stroke-width="1mm" style="fill:none;stroke-width:1"/>
  <path d="M 87.22908678281563 33.731342167687146 L89.73703946537796 31.909207885580475 87.26834140574957 28.5113365092057 84.76038872318723 30.33347079131237 87.22908678281563 33.731342167687146" stroke="#ff0000" stroke-width="1mm" style="fill:none;stroke-width:1"/>
  <path d="M 92.08318874906531 30.204630653932302 L94.59114143162763 28.382496371825635 92.12244337199924 24.98462499545086 89.61449068943692 26.80675927755753 92.08318874906531 30.204630653932302" stroke="#ff0000" stroke-width="1mm" style="fill:none;stroke-width:1"/>
  <path d="M 96.93729071531499 26.677919140177465 L99.44524339787732 24.855784858070805 96.97654533824893 21.457913481696025 94.46859265568659 23.280047763802685 96.93729071531499 26.677919140177465" stroke="#ff0000" stroke-width="1mm" style="fill:none;stroke-width:1"/>
  <path d="M 101.79139268156467 23.151207626422625 L104.299345364127 21.329073344315965 101.83064730449861 17.931201967941185 99.32269462193628 19.753336250047845 101.79139268156467 23.151207626422625" stroke="#ff0000" stroke-width="1mm" style="fill:none;stroke-width:1"/>
  <path d="M 106.64549464781436 19.624496112667785 L109.1534473303767 17.802361830561125 106.6847492707483 14.404490454186345 104.17679658818597 16.226624736293005 106.64549464781436 19.624496112667785" stroke="#ff0000" stroke-width="1mm" style="fill:none;stroke-width:1"/>
  <path d="M 30.367433313987668 82.89368400334995 L34.412518285862404 79.95475774188758 32.64916252898499 77.52770675876273 28.604077557110248 80.4666330202251 30.367433313987668 82.89368400334995" stroke="#ff0000" stroke-width="1mm" style="fill:none;stroke-width:1"/>
  <path d="M 106.34890123726747 23.98171228431261 L102.30381626539273 26.920638545774978 104.06717202227014 29.34768952889982 108.11225699414489 26.408763267437454 106.34890123726747 23.98171228431261" stroke="#ff0000" stroke-width="1mm" style="fill:none;stroke-width:1"/>
  <path d="M 5 0 L91.09788696740969 0 96.09788696740969 5 96.09788696740969 53 91.09788696740969 53 91.09788696740969 50 5 50 5 53 0 53 0 5 5 0" stroke="#ff0000" stroke-width="1mm" style="fill:none;stroke-width:1"/>
  <path d="M 81.74574522975001 0 L159.4905689099072 56.48492073591247 129.79468871345486 147.87944233846255 33.69680174604518 147.87944233846258 4.000921549592789 56.48492073591248 81.74574522975 0" stroke="#ff0000" stroke-width="1mm" style="fill:none;stroke-width:1"/>
  <path d="M 93 13.889474823260286 L95.50795268256233 15.711609105366954 98.15298631787846 12.07103263067969 100.49913560156581 13.775609862327862 97.85410196624969 17.416186337015127 100.36205464881202 19.238320619121794 103.00708828412814 15.59774414443453 105.3532375678155 17.302321376082702 102.70820393249937 20.942897850769963 105.2161566150617 22.76503213287663 107.86119025037783 19.124455658189365 110.20733953406518 20.82903288983754 107.56230589874906 24.469609364524803 110.07025858131139 26.29174364663147 112.71529221662752 22.651167171944206 115.06144150031487 24.35574440359238 112.41640786499875 27.99632087827964 114.92436054756108 29.818455160386307 117.5693941828772 26.177878685699042 119.91554346656456 27.882455917347215 117.27050983124843 31.52303239203448 119.77846251381077 33.34516667414115 122.42349614912689 29.704590199453882 124.76964543281424 31.409167431102055 122.1246117974981 35.04974390578932 124.63256448006044 36.87187818789599 127.27759811537656 33.23130171320872 129.62374739906392 34.935878944856896 126.97871376374779 38.57645541954416 129.48666644631012 40.39858970165083 132.13170008162626 36.75801322696356 134.4778493653136 38.462590458611736 131.8328157299975 42.10316693329899 134.3407684125598 43.92530121540567 136.98580204787595 40.2847247407184 139.3319513315633 41.989301972366576 136.68691769624718 45.62987844705384 139.1948703788095 47.4520127291605 141.83990401412564 43.811436254473236 144.18605329781298 45.51601348612141 141.54101966249686 49.156589960808674 144.04897234505918 50.97872424291534 146.69400598037532 47.338147768228076 149.04015526406266 49.04272499987625 146.39512162874652 52.683301474563514 148.90307431130887 54.505435756670174 151.548107946625 50.86485928198291 153.89425723031235 52.56943651363108 151.2492235949962 56.210012988318354 153.75717627755856 58.032147270425014 156.4022099128747 54.39157079573775 158.74835919656203 56.09614802738592 156.1033255612459 59.736724502073194 158.61127824380821 61.558858784179854 161.25631187912435 57.91828230949259 163.6024611628117 59.62285954114076 160.95742752749558 63.26343601582803 163.4653802100579 65.0855702979347 166.11041384537404 61.44499382324743 168.45656312906138 63.1495710548956 165.81152949374527 66.79014752958287 168.2385804768701 68.55350328646028 168.2385804768701 68.55350328646028 167.28062779430778 71.50177848697525 171.56038211763595 72.89235496166252 170.6642328339486 75.65041885891847 166.38447851062043 74.2598423842312 165.4265258280581 77.20811758474618 169.70628015138627 78.59869405943344 168.81013086769892 81.35675795668939 164.53037654437074 79.96618148200213 163.5724238618084 82.9144566825171 167.85217818513658 84.30503315720436 166.95602890144923 87.06309705446031 162.67627457812105 85.67252057977305 161.71832189555872 88.62079578028802 165.9980762188869 90.01137225497529 165.10192693519954 92.76943615223124 160.82217261187137 91.37885967754397 159.86421992930903 94.32713487805894 164.1439742526372 95.7177113527462 163.24782496894986 98.47577525000216 158.96807064562168 97.0851987753149 158.01011796305934 100.03347397582986 162.28987228638752 101.42405045051713 161.39372300270017 104.18211434777308 157.113968679372 102.79153787308582 156.15601599680966 105.73981307360079 160.43577032013783 107.13038954828805 159.53962103645048 109.888453445544 155.2598667131223 108.49787697085674 154.30191403055997 111.44615217137171 158.58166835388815 112.83672864605897 157.6855190702008 115.59479254331492 153.40576474687265 114.20421606862764 152.44781206431028 117.15249126914262 156.72756638763846 118.54306774382988 155.8314171039511 121.30113164108583 151.55166278062296 119.91055516639857 150.59371009806063 122.85883036691354 154.8734644213888 124.2494068416008 153.97731513770145 127.00747073885675 149.69756081437328 125.61689426416949 148.73960813181094 128.56516946468446 153.01936245513912 129.95574593937172 152.12321317145177 132.71380983662766 147.8434588481236 131.32323336194042 146.88550616556125 134.27150856245538 151.16526048888943 135.66208503714265 150.26911120520208 138.42014893439858 145.9893568818739 137.02957245971135 145.03140419931157 139.9778476602263 149.31115852263974 141.36842413491357 148.4150092389524 144.1264880321695 144.13525491562422 142.73591155748227 143.17730223306188 145.68418675799722 147.45705655639006 147.0747632326845 146.5609072727027 149.83282712994043 142.28115294937453 148.4422506552532 141.3232002668122 151.39052585576815 145.60295459014037 152.7811023304554 144.70680530645302 155.53916622771135 140.42705098312484 154.1485897530241 139.5 157.00175930190954 139.5 157.00175930190954 136.4 157.00175930190954 136.4 161.50175930190954 133.5 161.50175930190954 133.5 157.00175930190954 130.4 157.00175930190954 130.4 161.50175930190954 127.5 161.50175930190954 127.5 157.00175930190954 124.4 157.00175930190954 124.4 161.50175930190954 121.5 161.50175930190954 121.5 157.00175930190954 118.4 157.00175930190954 118.4 161.50175930190954 115.5 161.50175930190954 115.5 157.00175930190954 112.4 157.00175930190954 112.4 161.50175930190954 109.5 161.50175930190954 109.5 157.00175930190954 106.4 157.00175930190954 106.4 161.50175930190954 103.5 161.50175930190954 103.5 157.00175930190954 100.4 157.00175930190954 100.4 161.50175930190954 97.5 161.50175930190954 97.5 157.00175930190954 94.4 157.00175930190954 94.4 161.50175930190954 91.5 161.50175930190954 91.5 157.00175930190957 88.4 157.00175930190957 88.4 161.50175930190957 85.5 161.50175930190957 85.5 157.00175930190957 82.4 157.00175930190957 82.4 161.50175930190957 79.5 161.50175930190957 79.5 157.00175930190957 76.4 157.00175930190957 76.4 161.50175930190957 73.5 161.50175930190957 73.5 157.00175930190957 70.4 157.00175930190957 70.4 161.50175930190957 67.5 161.50175930190957 67.5 157.00175930190957 64.4 157.00175930190957 64.4 161.50175930190957 61.50000000000001 161.50175930190957 61.5 157.00175930190957 58.400000000000006 157.00175930190957 58.400000000000006 161.50175930190957 55.50000000000001 161.50175930190957 55.5 157.00175930190957 52.400000000000006 157.00175930190957 52.400000000000006 161.50175930190957 49.50000000000001 161.50175930190957 49.5 157.00175930190957 46.50000000000001 157.00175930190957 46.50000000000001 157.00175930190957 45.54204731743767 154.0534841013946 41.26229299410948 155.44406057608185 40.36614371042213 152.68599667882592 44.64589803375032 151.29542020413865 43.687945351187984 148.34714500362367 39.40819102785979 149.73772147831093 38.51204174417244 146.979657581055 42.791796067500634 145.58908110636773 41.8338433849383 142.64080590585274 37.55408906161011 144.03138238054 36.657939777922756 141.27331848328407 40.937694101250955 139.8827420085968 39.97974141868861 136.93446680808182 35.69998709536042 138.3250432827691 34.80383781167307 135.56697938551315 39.08359213500127 134.17640291082589 38.12563945243893 131.2281277103109 33.84588512911074 132.61870418499817 32.94973584542339 129.86064028774223 37.22949016875158 128.47006381305496 36.271537486189246 125.52178861253999 31.991783162861054 126.91236508722726 31.095633879173707 124.1543011899713 35.375388202501895 122.76372471528404 34.41743551993956 119.81544951476907 30.137681196611368 121.20602598945634 29.24153191292402 118.44796209220038 33.52128623625221 117.05738561751312 32.56333355368987 114.10911041699815 28.28357923036168 115.49968689168541 27.387429946674335 112.74162299442946 31.667184270002522 111.3510465197422 30.709231587440186 108.40277131922723 26.429477264111995 109.79334779391449 25.533327980424648 107.03528389665854 29.81308230375284 105.64470742197128 28.8551296211905 102.6964322214563 24.57537529786231 104.08700869614357 23.67922601417496 101.32894479888762 27.958980337503153 99.93836832420035 27.001027654940817 96.99009312368538 22.721273331612625 98.38066959837265 21.82512404792528 95.6226057011167 26.104878371253466 94.23202922642943 25.146925688691134 91.28375402591448 20.867171365362942 92.67433050060174 19.971022081675596 89.91626660334579 24.250776405003784 88.52569012865852 23.292823722441447 85.57741492814355 19.013069399113256 86.96799140283082 18.11692011542591 84.20992750557487 22.396674438754097 82.8193510308876 21.43872175619176 79.87107583037263 17.15896743286357 81.2616523050599 16.262818149176223 78.50358840780395 20.54257247250441 77.11301193311668 19.584619789942074 74.16473673260171 15.304865466613883 75.55531320728898 14.408716182926534 72.79724931003302 18.688470506254728 71.40667283534576 17.761419523129888 68.5535032864603 17.761419523129888 68.5535032864603 20.269372205692225 66.73136900435364 17.624338570376096 63.09079252966637 19.970487854063443 61.3862152980182 22.61552148937957 65.02679177270547 25.123474171941908 63.20465749059879 22.47844053662578 59.564081015911526 24.824589820313125 57.85950378426335 27.469623455629254 61.50008025895062 29.977576138191594 59.67794597684395 27.332542502875466 56.037369502156686 29.678691786562812 54.33279227050851 32.32372542187894 57.97336874519578 34.83167810444128 56.15123446308911 32.18664446912515 52.510657988401846 34.532793752812495 50.80608075675367 37.17782738812862 54.44665723144094 39.68578007069097 52.62452294933427 37.040746435374835 48.983946474647006 39.38689571906218 47.27936924299883 42.031929354378306 50.919945717686105 44.53988203694065 49.09781143557943 41.894848401624515 45.457234960892166 44.24099768531186 43.75265772924399 46.88603132062799 47.39323420393126 49.393984003190326 45.5710999218246 46.748950367874194 41.93052344713733 49.09509965156154 40.22594621548916 51.74013328687768 43.866522690176424 54.24808596944001 42.04438840806975 51.60305233412388 38.403811933382485 53.94920161781123 36.69923470173431 56.59423525312736 40.339811176421584 59.1021879356897 38.51767689431492 56.45715430037357 34.87710041962765 58.80330358406091 33.17252318797948 61.448337219377045 36.813099662666744 63.956289901939385 34.99096538056008 61.31125626662325 31.350388905872812 63.6574055503106 29.64581167422464 66.30243918562672 33.286388148911904 68.81039186818907 31.464253866805237 66.16535823287295 27.823677392117972 68.5115075165603 26.1191001604698 71.15654115187641 29.759676635157064 73.66449383443874 27.937542353050397 71.01946019912262 24.29696587836313 73.36560948280997 22.59238864671496 76.0106431181261 26.232965121402223 78.51859580068843 24.410830839295564 75.8735621653723 20.7702543646083 78.21971144905966 19.065677132960126 80.86474508437578 22.706253607647383 83.37269776693812 20.884119325540723 80.72766413162199 17.24354285085346 83.07381341530935 15.538965619205285 85.71884705062547 19.179542093892543 88.2267997331878 17.357407811785883 85.58176609787168 13.71683133709862 87.92791538155903 12.012254105450447 90.57294901687514 15.652830580137703 92.99999999999999 13.889474823260286" stroke="#ff0000" stroke-width="1mm" style="fill:none;stroke-width:1"/>
  <path d="M 92.8877430058551 24.168525392718056 L96.93282797772984 27.107451654180423 98.69618373460726 24.68040067105558 94.65109876273252 21.741474409593213 92.8877430058551 24.168525392718056" stroke="#ff0000" stroke-width="1mm" style="fill:none;stroke-width:1"/>
  <path d="M 160.26066752726553 69.4096163611186 L156.2155825553908 66.47069009965622 154.45222679851335 68.89774108278107 158.49731177038808 71.83666734424344 160.26066752726553 69.4096163611186" stroke="#ff0000" stroke-width="1mm" style="fill:none;stroke-width:1"/>
  <path d="M 158.42793313253165 71.62314185268102 L156.88284816065692 76.37842443415678 159.7360177095424 77.30547541728163 161.28110268141714 72.55019283580586 158.42793313253165 71.62314185268102" stroke="#ff0000" stroke-width="1mm" style="fill:none;stroke-width:1"/>
  <path d="M 136.22047740058898 149.67886669392865 L137.7655623724637 144.9235841124529 134.91239282357822 143.99653312932804 133.3673078517035 148.7518157108038 136.22047740058898 149.67886669392865" stroke="#ff0000" stroke-width="1mm" style="fill:none;stroke-width:1"/>
  <path d="M 133.54894348370485 148.6198496995537 L128.54894348370485 148.6198496995537 128.54894348370485 151.6198496995537 133.54894348370485 151.6198496995537 133.54894348370485 148.6198496995537" stroke="#ff0000" stroke-width="1mm" style="fill:none;stroke-width:1"/>
  <path d="M 52.45105651629516 151.6198496995537 L57.45105651629516 151.6198496995537 57.45105651629516 148.6198496995537 52.45105651629516 148.6198496995537 52.45105651629516 151.6198496995537" stroke="#ff0000" stroke-width="1mm" style="fill:none;stroke-width:1"/>
  <path d="M 52.6326921482965 148.7518157108038 L51.08760717642176 143.99653312932804 48.2344376275363 144.9235841124529 49.77952259941104 149.67886669392865 52.6326921482965 148.7518157108038" stroke="#ff0000" stroke-width="1mm" style="fill:none;stroke-width:1"/>
  <path d="M 24.71889731858287 72.55019283580587 L26.263982290457605 77.30547541728164 29.117151839343066 76.3784244341568 27.57206686746833 71.62314185268103 24.71889731858287 72.55019283580587" stroke="#ff0000" stroke-width="1mm" style="fill:none;stroke-width:1"/>
  <path d="M 27.502688229611884 71.83666734424345 L31.547773201486624 68.89774108278108 29.784417444609204 66.47069009965624 25.739332472734464 69.40961636111861 27.502688229611884 71.83666734424345" stroke="#ff0000" stroke-width="1mm" style="fill:none;stroke-width:1"/>
  <path d="M 91.34890123726747 21.741474409593213 L87.30381626539273 24.68040067105558 89.06717202227014 27.107451654180423 93.11225699414489 24.168525392718056 91.34890123726747 21.741474409593213" stroke="#ff0000" stroke-width="1mm" style="fill:none;stroke-width:1"/>
  <path d="M 5 0 L76.09788696740968 0 81.09788696740968 5 81.09788696740968 53 76.09788696740968 53 76.09788696740968 50 5 50 5 53 0 53 0 5 5 0" stroke="#ff0000" stroke-width="1mm" style="fill:none;stroke-width:1"/>
  <path d="M 68.98598310446941 0 L134.5955518690024 47.66814195152537 109.53492658817427 124.79681580964815 28.43703962076458 124.79681580964817 3.376414339936403 47.668141951525385 68.9859831044694 0" stroke="#ff0000" stroke-width="1mm" style="fill:none;stroke-width:1"/>
  <path d="M 56.9 57 L56.9 60 54 60 54 57 50.9 57 50.9 57 50.9 60 48 60 48 57 44.9 57 44.9 57 44.900000000000006 60 42 60 42 57 38.9 57 38.9 57 38.900000000000006 60 36 60 36 57 32.9 57 32.9 57 32.9 60 30 60 30 57 26.9 56.99999999999999 26.9 56.99999999999999 26.9 60 24 59.99999999999999 24 56.99999999999999 20.9 56.99999999999999 20.9 56.99999999999999 20.9 59.99999999999999 18 59.99999999999999 18 56.99999999999999 14.899999999999999 56.99999999999999 14.899999999999999 56.99999999999999 14.899999999999999 59.99999999999999 12 59.99999999999999 12 56.99999999999999 8.899999999999999 56.99999999999999 8.899999999999999 56.99999999999999 8.899999999999999 59.99999999999999 6 59.99999999999999 6 56.99999999999999 2.8999999999999986 56.99999999999999 2.8999999999999986 56.99999999999999 2.8999999999999986 59.99999999999999 0 59.99999999999999 0 56.99999999999999 28.500000000000007 0 57 57" stroke="#ff0000" stroke-width="1mm" style="fill:none;stroke-width:1"/>
  <path d="M 0 60 L3.1 60 3.1 57 6 57 6 60 9.1 60 9.1 57 12 57 12 60 15.1 60 15.1 57 18 57 18 60 21.1 60 21.1 57 24 57 24 60 27.1 60 27.1 57 30 57 30 60 33.1 60 33.1 57 36 57 36 60 39.1 60 39.1 57 42 57 42 60 45.1 60 45.1 57 48 57 48 60 51.1 60 51.1 57 54 57 54 60 57 60 28.5 117 0 60" stroke="#ff0000" stroke-width="1mm" style="fill:none;stroke-width:1"/>
  <path d="M 0 0 L0 66 0 66 3.1 66 3.1 63 6 63 6 66 9.1 66 9.1 63 12 63 12 66 15.1 66 15.1 63 18 63 18 66 21.1 66 21.1 63 24 63 24 66 27.1 66 27.1 63 30 63 30 66 33.1 66 33.1 63 36 63 36 66 39.1 66 39.1 63 42 63 42 66 45.1 66 45.1 63 48 63 48 66 51.1 66 51.1 63 54 63 54 66 57.1 66 57.1 63 60 63 60 66 63.1 66 63.1 63 66 63 66 66 69.1 66 69.1 63 72 63 72 66 75.1 66 75.1 63 78 63 78 66 81.1 66 81.1 63 84 63 84 66 87.1 66 87.1 63 90 63 90 66 93 66 93 0 93 0 89.9 0 89.9 3 87 3 87 0 83.9 0 83.9 3 81 3 81 0 77.9 0 77.9 3 75 3 75 0 71.9 0 71.9 3 69 3 69 0 65.9 0 65.9 3 63.00000000000001 3 63 0 59.9 0 59.9 3 57 3 57 0 53.9 0 53.9 3 51 3 51 0 47.9 0 47.9 3 45 3 45 0 41.9 0 41.9 3 39 3 39 0 35.9 0 35.9 3 33 3 33 0 29.9 0 29.9 3 27 3 27 0 23.900000000000006 0 23.900000000000006 3 21.000000000000007 3 21 0 17.900000000000006 0 17.900000000000006 3 15.000000000000005 3 15 0 11.900000000000006 0 11.900000000000006 3 9.000000000000005 3 9 0 5.900000000000006 0 5.900000000000006 3 3.0000000000000058 3 3 0 0 0" stroke="#ff0000" stroke-width="1mm" style="fill:none;stroke-width:1"/>
  <path d="M 21 220 L0 62 28.5 5 28.5 5 31.6 5 31.6 2 34.5 2 34.5 5 37.6 5 37.6 2 40.5 2 40.5 5 43.6 5 43.6 2 46.5 2 46.5 5 49.6 5 49.6 2 52.5 2 52.5 5 55.6 5 55.6 2 58.5 2 58.5 5 61.6 5 61.6 2 64.5 2 64.5 5 67.6 5 67.6 2 70.5 2 70.5 5 73.6 5 73.6 2 76.5 2 76.5 5 79.6 5 79.6 2 82.5 2 82.5 5 85.6 5 85.6 2 88.5 2 88.5 5 91.6 5 91.6 2 94.5 2 94.5 5 97.6 5 97.6 2 100.5 2 100.5 5 103.6 5 103.6 2 106.5 2 106.5 5 109.6 5 109.6 2 112.5 2 112.5 5 115.6 5 115.6 2 118.5 2 118.5 5 121.5 5 150 62 129 220 129 220 125.9 220 125.9 223 123 223 123 220 119.9 220 119.9 223 117 223 117 220 113.9 220 113.9 223 111 223 111 220 107.9 220 107.9 223 105 223 105 220 101.9 220 101.9 223 99 223 99 220 95.9 220 95.9 223 93 223 93 220 89.9 220 89.9 223 87 223 87 220 83.9 220 83.9 223 81 223 81 220 77.9 220 77.9 223 75 223 75 220 71.9 220 71.9 223 69 223 69 220 65.9 220 65.9 223 63.00000000000001 223 63 220 59.900000000000006 220 59.900000000000006 223 57.00000000000001 223 57 220 53.900000000000006 220 53.900000000000006 223 51.00000000000001 223 51 220 47.900000000000006 220 47.900000000000006 223 45.00000000000001 223 45 220 41.900000000000006 220 41.900000000000006 223 39.00000000000001 223 39 220 35.900000000000006 220 35.900000000000006 223 33.00000000000001 223 33 220 29.900000000000006 220 29.900000000000006 223 27.000000000000007 223 27 220 23.900000000000006 220 23.900000000000006 223 21.000000000000007 223 21 220 21 220" stroke="#ff0000" stroke-width="1mm" style="fill:none;stroke-width:1"/>
  <circle cx="108" cy="108" r="60" stroke="#ff0000" stroke-width="1mm" style="fill:none;stroke-width:1"/>
  <circle cx="81.74574522975001" cy="81.74574522975001" r="7.5" stroke="#ff0000" stroke-width="1mm" style="fill:none;stroke-width:1"/>
  <circle cx="93" cy="93" r="60" stroke="#ff0000" stroke-width="1mm" style="fill:none;stroke-width:1"/>
  <circle cx="68.98598310446941" cy="68.98598310446941" r="7.5" stroke="#ff0000" stroke-width="1mm" style="fill:none;stroke-width:1"/>
</svg>