<?xml version="1.0" encoding="UTF-8" standalone="yes"?>
<svg width="800mm" height="400mm" version="1.1" viewBox="0 0 800 400">
  <path d="M 28.5 0 L28.5 66 121.5 66 121.5 0 28.5 0" stroke="#ff0000" stroke-width="0.001mm" style="fill:none;stroke-width:1"/>
  <path d="M 21 281 L0 123 28.5 66 121.5 66 150 123 129 281 21 281" stroke="#ff0000" stroke-width="0.001mm" style="fill:none;stroke-width:1"/>
  <path d="M 178.5 63 L121.5 62.99999999999999 150 6 178.5 63" stroke="#ff0000" stroke-width="0.001mm" style="fill:none;stroke-width:1"/>
  <path d="M 121.5 66 L178.5 66 150 123 121.5 66" stroke="#ff0000" stroke-width="0.001mm" style="fill:none;stroke-width:1"/>
  <path d="M 188 0 L268.0978869674097 0 276.0978869674097 8 276.0978869674097 53 271.0978869674097 53 271.0978869674097 50 185 50 185 53 180 53 180 8 188 0" stroke="#ff0000" stroke-width="0.001mm" style="fill:none;stroke-width:1"/>
  <path d="M 188 60 L253.0978869674097 60 261.0978869674097 68 261.0978869674097 113 256.0978869674097 113 256.0978869674097 110 185 110 185 113 180 113 180 68 188 60" stroke="#ff0000" stroke-width="0.001mm" style="fill:none;stroke-width:1"/>
</svg>