<?xml version="1.0" encoding="UTF-8" standalone="yes"?>
<svg width="800mm" height="400mm" version="1.1" viewBox="0 0 800 400">
  <path d="M 28.5 0 L28.5 66 28.5 66 31.6 66 31.6 63 34.5 63 34.5 66 37.6 66 37.6 63 40.5 63 40.5 66 43.6 66 43.6 63 46.5 63 46.5 66 49.6 66 49.6 63 52.5 63 52.5 66 55.6 66 55.6 63 58.5 63 58.5 66 61.6 66 61.6 63 64.5 63 64.5 66 67.6 66 67.6 63 70.5 63 70.5 66 73.6 66 73.6 63 76.5 63 76.5 66 79.6 66 79.6 63 82.5 63 82.5 66 85.6 66 85.6 63 88.5 63 88.5 66 91.6 66 91.6 63 94.5 63 94.5 66 97.6 66 97.6 63 100.5 63 100.5 66 103.6 66 103.6 63 106.5 63 106.5 66 109.6 66 109.6 63 112.5 63 112.5 66 115.6 66 115.6 63 118.5 63 118.5 66 121.5 66 121.5 0 121.5 0 118.4 0 118.4 3 115.5 3 115.5 0 112.4 0 112.4 3 109.5 3 109.5 0 106.4 0 106.4 3 103.5 3 103.5 0 100.4 0 100.4 3 97.5 3 97.5 0 94.4 0 94.4 3 91.5 3 91.5 0 88.4 0 88.4 3 85.5 3 85.5 0 82.4 0 82.4 3 79.5 3 79.5 0 76.4 0 76.4 3 73.5 3 73.5 0 70.4 0 70.4 3 67.5 3 67.5 0 64.4 0 64.4 3 61.5 3 61.5 0 58.4 0 58.4 3 55.5 3 55.5 0 52.400000000000006 0 52.400000000000006 3 49.50000000000001 3 49.5 0 46.400000000000006 0 46.400000000000006 3 43.50000000000001 3 43.5 0 40.400000000000006 0 40.400000000000006 3 37.50000000000001 3 37.5 0 34.400000000000006 0 34.400000000000006 3 31.500000000000007 3 31.5 0 28.5 0" stroke="#ff0000" stroke-width="0.001mm" style="fill:none;stroke-width:1"/>
  <path d="M 21 281 L0 123 28.5 66 28.5 66 31.6 66 31.6 63 34.5 63 34.5 66 37.6 66 37.6 63 40.5 63 40.5 66 43.6 66 43.6 63 46.5 63 46.5 66 49.6 66 49.6 63 52.5 63 52.5 66 55.6 66 55.6 63 58.5 63 58.5 66 61.6 66 61.6 63 64.5 63 64.5 66 67.6 66 67.6 63 70.5 63 70.5 66 73.6 66 73.6 63 76.5 63 76.5 66 79.6 66 79.6 63 82.5 63 82.5 66 85.6 66 85.6 63 88.5 63 88.5 66 91.6 66 91.6 63 94.5 63 94.5 66 97.6 66 97.6 63 100.5 63 100.5 66 103.6 66 103.6 63 106.5 63 106.5 66 109.6 66 109.6 63 112.5 63 112.5 66 115.6 66 115.6 63 118.5 63 118.5 66 121.5 66 150 123 129 281 129 281 125.9 281 125.9 284 123 284 123 281 119.9 281 119.9 284 117 284 117 281 113.9 281 113.9 284 111 284 111 281 107.9 281 107.9 284 105 284 105 281 101.9 281 101.9 284 99 284 99 281 95.9 281 95.9 284 93 284 93 281 89.9 281 89.9 284 87 284 87 281 83.9 281 83.9 284 81 284 81 281 77.9 281 77.9 284 75 284 75 281 71.9 281 71.9 284 69 284 69 281 65.9 281 65.9 284 63.00000000000001 284 63 281 59.900000000000006 281 59.900000000000006 284 57.00000000000001 284 57 281 53.900000000000006 281 53.900000000000006 284 51.00000000000001 284 51 281 47.900000000000006 281 47.900000000000006 284 45.00000000000001 284 45 281 41.900000000000006 281 41.900000000000006 284 39.00000000000001 284 39 281 35.900000000000006 281 35.900000000000006 284 33.00000000000001 284 33 281 29.900000000000006 281 29.900000000000006 284 27.000000000000007 284 27 281 23.900000000000006 281 23.900000000000006 284 21.000000000000007 284 21 281 21 281" stroke="#ff0000" stroke-width="0.001mm" style="fill:none;stroke-width:1"/>
  <path d="M 178.4 63 L178.4 66 175.5 66 175.5 63 172.4 63 172.4 63 172.4 66 169.5 66 169.5 63 166.4 63 166.4 63 166.4 66 163.5 66 163.5 63 160.4 63 160.4 63 160.4 66 157.5 66 157.5 63 154.4 63 154.4 63 154.4 66 151.5 66 151.5 63 148.4 63 148.4 63 148.4 66 145.5 66 145.5 62.99999999999999 142.4 62.99999999999999 142.4 62.99999999999999 142.4 66 139.5 66 139.5 62.99999999999999 136.4 62.99999999999999 136.4 62.99999999999999 136.4 66 133.5 66 133.5 62.99999999999999 130.4 62.99999999999999 130.4 62.99999999999999 130.4 66 127.5 66 127.5 62.99999999999999 124.4 62.99999999999999 124.4 62.99999999999999 124.4 66 121.5 66 121.5 62.99999999999999 150 6 178.5 63" stroke="#ff0000" stroke-width="0.001mm" style="fill:none;stroke-width:1"/>
  <path d="M 121.5 66 L124.6 66 124.6 63 127.5 63 127.5 66 130.6 66 130.6 63 133.5 63 133.5 66 136.6 66 136.6 63 139.5 63 139.5 66 142.6 66 142.6 63 145.5 63 145.5 66 148.6 66 148.6 63 151.5 63 151.5 66 154.6 66 154.6 63 157.5 63 157.5 66 160.6 66 160.6 63 163.5 63 163.5 66 166.6 66 166.6 63 169.5 63 169.5 66 172.6 66 172.6 63 175.5 63 175.5 66 178.5 66 150 123 121.5 66" stroke="#ff0000" stroke-width="0.001mm" style="fill:none;stroke-width:1"/>
  <path d="M 188 0 L268.0978869674097 0 276.0978869674097 8 276.0978869674097 53 271.0978869674097 53 271.0978869674097 50 185 50 185 53 180 53 180 8 188 0" stroke="#ff0000" stroke-width="0.001mm" style="fill:none;stroke-width:1"/>
  <path d="M 188 60 L253.0978869674097 60 261.0978869674097 68 261.0978869674097 113 256.0978869674097 113 256.0978869674097 110 185 110 185 113 180 113 180 68 188 60" stroke="#ff0000" stroke-width="0.001mm" style="fill:none;stroke-width:1"/>
</svg>