<?xml version="1.0" encoding="UTF-8" standalone="yes"?>
<svg width="300mm" height="400mm" version="1.1" viewBox="0 0 300 400">
  <path d="M 96.12354134378052 0 L187.54246170814957 66.41973350904946 152.62354134378052 173.8891198504018 39.62354134378052 173.8891198504018 4.704620979411445 66.41973350904948 96.12354134378049 0" stroke="#ff0000" stroke-width="0.001mm" style="fill:none;stroke-width:1"/>
  <path d="M 97.23534159765367 7.5717018807605685 L99.743294280216 9.393836162867235 102.2119923398444 5.995964786492458 99.70403965728207 4.1738305043857915 97.23534159765367 7.5717018807605685" stroke="#ff0000" stroke-width="0.001mm" style="fill:none;stroke-width:1"/>
  <path d="M 102.08944356390336 11.098413394515411 L104.5973962464657 12.920547676622077 107.06609430609407 9.522676300247293 104.55814162353172 7.700542018140627 102.08944356390336 11.098413394515411" stroke="#ff0000" stroke-width="0.001mm" style="fill:none;stroke-width:1"/>
  <path d="M 106.94354553015305 14.62512490827025 L109.45149821271539 16.447259190376915 111.92019627234376 13.049387814002133 109.41224358978141 11.227253531895466 106.94354553015305 14.62512490827025" stroke="#ff0000" stroke-width="0.001mm" style="fill:none;stroke-width:1"/>
  <path d="M 111.79764749640273 18.151836422025085 L114.30560017896508 19.97397070413175 116.77429823859345 16.57609932775697 114.2663455560311 14.753965045650302 111.79764749640273 18.151836422025085" stroke="#ff0000" stroke-width="0.001mm" style="fill:none;stroke-width:1"/>
  <path d="M 116.65174946265242 21.678547935779925 L119.15970214521477 23.50068221788659 121.62840020484313 20.10281084151181 119.12044752228078 18.280676559405144 116.65174946265242 21.678547935779925" stroke="#ff0000" stroke-width="0.001mm" style="fill:none;stroke-width:1"/>
  <path d="M 121.50585142890209 25.20525944953476 L124.01380411146442 27.02739373164143 126.48250217109282 23.629522355266655 123.97454948853049 21.807388073159988 121.50585142890209 25.20525944953476" stroke="#ff0000" stroke-width="0.001mm" style="fill:none;stroke-width:1"/>
  <path d="M 126.35995339515179 28.7319709632896 L128.86790607771414 30.55410524539627 131.3366041373425 27.156233869021488 128.82865145478016 25.33409958691482 126.35995339515179 28.7319709632896" stroke="#ff0000" stroke-width="0.001mm" style="fill:none;stroke-width:1"/>
  <path d="M 131.21405536140148 32.258682477044445 L133.72200804396383 34.080816759151105 136.1907061035922 30.68294538277632 133.68275342102984 28.860811100669657 131.21405536140148 32.258682477044445" stroke="#ff0000" stroke-width="0.001mm" style="fill:none;stroke-width:1"/>
  <path d="M 136.06815732765116 35.78539399079928 L138.5761100102135 37.60752827290595 141.04480806984188 34.20965689653117 138.53685538727953 32.3875226144245 136.06815732765116 35.78539399079928" stroke="#ff0000" stroke-width="0.001mm" style="fill:none;stroke-width:1"/>
  <path d="M 140.92225929390085 39.31210550455412 L143.4302119764632 41.134239786660785 145.89891003609156 37.736368410286005 143.39095735352922 35.91423412817934 140.92225929390085 39.31210550455412" stroke="#ff0000" stroke-width="0.001mm" style="fill:none;stroke-width:1"/>
  <path d="M 145.7763612601505 42.83881701830895 L148.28431394271283 44.66095130041562 150.75301200234125 41.26307992404085 148.24505931977893 39.440945641934185 145.7763612601505 42.83881701830895" stroke="#ff0000" stroke-width="0.001mm" style="fill:none;stroke-width:1"/>
  <path d="M 150.6304632264002 46.36552853206379 L153.13841590896251 48.18766281417046 155.60711396859094 44.78979143779569 153.09916128602862 42.967657155689025 150.6304632264002 46.36552853206379" stroke="#ff0000" stroke-width="0.001mm" style="fill:none;stroke-width:1"/>
  <path d="M 155.48456519264988 49.89224004581863 L157.9925178752122 51.7143743279253 160.46121593484062 48.31650295155053 157.9532632522783 46.494368669443865 155.48456519264988 49.89224004581863" stroke="#ff0000" stroke-width="0.001mm" style="fill:none;stroke-width:1"/>
  <path d="M 160.3386671588996 53.41895155957348 L162.84661984146192 55.24108584168014 165.31531790109028 51.84321446530536 162.80736521852796 50.0210801831987 160.3386671588996 53.41895155957348" stroke="#ff0000" stroke-width="0.001mm" style="fill:none;stroke-width:1"/>
  <path d="M 165.19276912514928 56.94566307332832 L167.7007218077116 58.76779735543498 170.16941986733997 55.3699259790602 167.66146718477765 53.54779169695354 165.19276912514928 56.94566307332832" stroke="#ff0000" stroke-width="0.001mm" style="fill:none;stroke-width:1"/>
  <path d="M 170.04687109139897 60.47237458708316 L172.5548237739613 62.29450886918982 175.02352183358965 58.89663749281504 172.51556915102734 57.07450321070838 170.04687109139897 60.47237458708316" stroke="#ff0000" stroke-width="0.001mm" style="fill:none;stroke-width:1"/>
  <path d="M 174.90097305764863 63.999086100837985 L177.40892574021095 65.82122038294466 179.87762379983937 62.423349006569886 177.36967111727705 60.60121472446322 174.90097305764863 63.999086100837985" stroke="#ff0000" stroke-width="0.001mm" style="fill:none;stroke-width:1"/>
  <path d="M 179.75507502389834 67.52579761459283 L182.26302770646066 69.34793189669949 184.73172576608903 65.95006052032471 182.2237730835267 64.12792623821805 179.75507502389834 67.52579761459283" stroke="#ff0000" stroke-width="0.001mm" style="fill:none;stroke-width:1"/>
  <path d="M 96.01128434963562 14.53230461121797 L100.05636932151036 17.471230872680337 101.81972507838778 15.044179889555494 97.77464010651303 12.105253628093127 96.01128434963562 14.53230461121797" stroke="#ff0000" stroke-width="0.001mm" style="fill:none;stroke-width:1"/>
  <path d="M 175.51946378667026 68.5901743640056 L171.47437881479553 65.65124810254324 169.71102305791808 68.07829908566808 173.7561080297928 71.01722534713045 175.51946378667026 68.5901743640056" stroke="#ff0000" stroke-width="0.001mm" style="fill:none;stroke-width:1"/>
  <path d="M 180.68491046780514 69.8169029428099 L179.7269577852428 72.76517814332487 183.72139515368247 74.06304951969966 184.6793478362448 71.11477431918469 180.68491046780514 69.8169029428099" stroke="#ff0000" stroke-width="0.001mm" style="fill:none;stroke-width:1"/>
  <path d="M 178.83080850155545 75.52324204058083 L177.87285581899312 78.4715172410958 181.86729318743278 79.76938861747058 182.82524586999511 76.82111341695561 178.83080850155545 75.52324204058083" stroke="#ff0000" stroke-width="0.001mm" style="fill:none;stroke-width:1"/>
  <path d="M 176.97670653530577 81.22958113835175 L176.01875385274343 84.17785633886672 180.0131912211831 85.4757277152415 180.97114390374543 82.52745251472653 176.97670653530577 81.22958113835175" stroke="#ff0000" stroke-width="0.001mm" style="fill:none;stroke-width:1"/>
  <path d="M 175.12260456905608 86.93592023612267 L174.16465188649374 89.88419543663764 178.1590892549334 91.18206681301243 179.11704193749574 88.23379161249746 175.12260456905608 86.93592023612267" stroke="#ff0000" stroke-width="0.001mm" style="fill:none;stroke-width:1"/>
  <path d="M 173.2685026028064 92.64225933389359 L172.31054992024406 95.59053453440856 176.30498728868372 96.88840591078335 177.26293997124606 93.94013071026838 173.2685026028064 92.64225933389359" stroke="#ff0000" stroke-width="0.001mm" style="fill:none;stroke-width:1"/>
  <path d="M 171.41440063655676 98.3485984316645 L170.4564479539944 101.29687363217947 174.450885322434 102.59474500855428 175.40883800499637 99.64646980803931 171.41440063655676 98.3485984316645" stroke="#ff0000" stroke-width="0.001mm" style="fill:none;stroke-width:1"/>
  <path d="M 169.56029867030705 104.05493752943543 L168.6023459877447 107.0032127299504 172.59678335618437 108.30108410632519 173.5547360387467 105.35280890581022 169.56029867030705 104.05493752943543" stroke="#ff0000" stroke-width="0.001mm" style="fill:none;stroke-width:1"/>
  <path d="M 167.70619670405736 109.76127662720636 L166.74824402149503 112.70955182772133 170.7426813899347 114.00742320409611 171.70063407249702 111.05914800358114 167.70619670405736 109.76127662720636" stroke="#ff0000" stroke-width="0.001mm" style="fill:none;stroke-width:1"/>
  <path d="M 165.85209473780768 115.46761572497728 L164.89414205524534 118.41589092549225 168.888579423685 119.71376230186704 169.84653210624734 116.76548710135206 165.85209473780768 115.46761572497728" stroke="#ff0000" stroke-width="0.001mm" style="fill:none;stroke-width:1"/>
  <path d="M 163.997992771558 121.1739548227482 L163.04004008899565 124.12223002326317 167.03447745743532 125.42010139963796 167.99243013999765 122.47182619912299 163.997992771558 121.1739548227482" stroke="#ff0000" stroke-width="0.001mm" style="fill:none;stroke-width:1"/>
  <path d="M 162.1438908053083 126.88029392051912 L161.18593812274597 129.82856912103412 165.18037549118563 131.12644049740888 166.13832817374796 128.1781652968939 162.1438908053083 126.88029392051912" stroke="#ff0000" stroke-width="0.001mm" style="fill:none;stroke-width:1"/>
  <path d="M 160.28978883905862 132.58663301829006 L159.33183615649628 135.53490821880504 163.32627352493594 136.8327795951798 164.28422620749828 133.88450439466482 160.28978883905862 132.58663301829006" stroke="#ff0000" stroke-width="0.001mm" style="fill:none;stroke-width:1"/>
  <path d="M 158.43568687280893 138.29297211606098 L157.4777341902466 141.24124731657596 161.47217155868626 142.53911869295072 162.4301242412486 139.59084349243574 158.43568687280893 138.29297211606098" stroke="#ff0000" stroke-width="0.001mm" style="fill:none;stroke-width:1"/>
  <path d="M 156.58158490655924 143.9993112138319 L155.6236322239969 146.9475864143469 159.61806959243657 148.24545779072164 160.5760222749989 145.29718259020666 156.58158490655924 143.9993112138319" stroke="#ff0000" stroke-width="0.001mm" style="fill:none;stroke-width:1"/>
  <path d="M 154.72748294030956 149.70565031160282 L153.76953025774722 152.6539255121178 157.76396762618688 153.95179688849257 158.72192030874922 151.00352168797758 154.72748294030956 149.70565031160282" stroke="#ff0000" stroke-width="0.001mm" style="fill:none;stroke-width:1"/>
  <path d="M 152.87338097405987 155.41198940937375 L151.91542829149753 158.36026460988873 155.9098656599372 159.6581359862635 156.86781834249953 156.7098607857485 152.87338097405987 155.41198940937375" stroke="#ff0000" stroke-width="0.001mm" style="fill:none;stroke-width:1"/>
  <path d="M 151.01927900781018 161.11832850714467 L150.06132632524788 164.06660370765965 154.05576369368754 165.3644750840344 155.01371637624985 162.41619988351943 151.01927900781018 161.11832850714467" stroke="#ff0000" stroke-width="0.001mm" style="fill:none;stroke-width:1"/>
  <path d="M 149.16517704156053 166.8246676049156 L148.2072243589982 169.77294280543057 152.20166172743785 171.07081418180533 153.1596144100002 168.12253898129035 149.16517704156053 166.8246676049156" stroke="#ff0000" stroke-width="0.001mm" style="fill:none;stroke-width:1"/>
  <path d="M 173.68672939193638 70.80369985556803 L172.14164442006165 75.5589824370438 174.99481396894714 76.48603342016864 176.53989894082187 71.73075083869287 173.68672939193638 70.80369985556803" stroke="#ff0000" stroke-width="0.001mm" style="fill:none;stroke-width:1"/>
  <path d="M 146.8440187443695 163.12527244124297 L148.38910371624422 158.3699898597672 145.53593416735873 157.44293887664236 143.990849195484 162.19822145811813 146.8440187443695 163.12527244124297" stroke="#ff0000" stroke-width="0.001mm" style="fill:none;stroke-width:1"/>
  <path d="M 147.27354134378052 168.41698414524743 L144.17354134378053 168.41698414524743 144.17354134378053 172.61698414524741 147.27354134378052 172.61698414524741 147.27354134378052 168.41698414524743" stroke="#ff0000" stroke-width="0.001mm" style="fill:none;stroke-width:1"/>
  <path d="M 141.27354134378052 168.41698414524743 L138.17354134378053 168.41698414524743 138.17354134378053 172.61698414524741 141.27354134378052 172.61698414524741 141.27354134378052 168.41698414524743" stroke="#ff0000" stroke-width="0.001mm" style="fill:none;stroke-width:1"/>
  <path d="M 135.27354134378052 168.41698414524743 L132.17354134378053 168.41698414524743 132.17354134378053 172.61698414524741 135.27354134378052 172.61698414524741 135.27354134378052 168.41698414524743" stroke="#ff0000" stroke-width="0.001mm" style="fill:none;stroke-width:1"/>
  <path d="M 129.27354134378052 168.41698414524743 L126.17354134378053 168.41698414524743 126.17354134378053 172.61698414524741 129.27354134378052 172.61698414524741 129.27354134378052 168.41698414524743" stroke="#ff0000" stroke-width="0.001mm" style="fill:none;stroke-width:1"/>
  <path d="M 123.27354134378052 168.41698414524743 L120.17354134378053 168.41698414524743 120.17354134378053 172.61698414524741 123.27354134378052 172.61698414524741 123.27354134378052 168.41698414524743" stroke="#ff0000" stroke-width="0.001mm" style="fill:none;stroke-width:1"/>
  <path d="M 117.27354134378052 168.41698414524743 L114.17354134378053 168.41698414524743 114.17354134378053 172.61698414524741 117.27354134378052 172.61698414524741 117.27354134378052 168.41698414524743" stroke="#ff0000" stroke-width="0.001mm" style="fill:none;stroke-width:1"/>
  <path d="M 111.27354134378052 168.41698414524743 L108.17354134378053 168.41698414524743 108.17354134378053 172.61698414524741 111.27354134378052 172.61698414524741 111.27354134378052 168.41698414524743" stroke="#ff0000" stroke-width="0.001mm" style="fill:none;stroke-width:1"/>
  <path d="M 105.27354134378052 168.41698414524743 L102.17354134378053 168.41698414524743 102.17354134378053 172.61698414524741 105.27354134378052 172.61698414524741 105.27354134378052 168.41698414524743" stroke="#ff0000" stroke-width="0.001mm" style="fill:none;stroke-width:1"/>
  <path d="M 99.27354134378052 168.41698414524743 L96.17354134378053 168.41698414524743 96.17354134378053 172.61698414524741 99.27354134378052 172.61698414524741 99.27354134378052 168.41698414524743" stroke="#ff0000" stroke-width="0.001mm" style="fill:none;stroke-width:1"/>
  <path d="M 93.27354134378052 168.41698414524745 L90.17354134378053 168.41698414524745 90.17354134378053 172.61698414524744 93.27354134378052 172.61698414524744 93.27354134378052 168.41698414524745" stroke="#ff0000" stroke-width="0.001mm" style="fill:none;stroke-width:1"/>
  <path d="M 87.27354134378052 168.41698414524745 L84.17354134378053 168.41698414524745 84.17354134378053 172.61698414524744 87.27354134378052 172.61698414524744 87.27354134378052 168.41698414524745" stroke="#ff0000" stroke-width="0.001mm" style="fill:none;stroke-width:1"/>
  <path d="M 81.27354134378052 168.41698414524745 L78.17354134378053 168.41698414524745 78.17354134378053 172.61698414524744 81.27354134378052 172.61698414524744 81.27354134378052 168.41698414524745" stroke="#ff0000" stroke-width="0.001mm" style="fill:none;stroke-width:1"/>
  <path d="M 75.27354134378052 168.41698414524745 L72.17354134378053 168.41698414524745 72.17354134378053 172.61698414524744 75.27354134378052 172.61698414524744 75.27354134378052 168.41698414524745" stroke="#ff0000" stroke-width="0.001mm" style="fill:none;stroke-width:1"/>
  <path d="M 69.27354134378052 168.41698414524745 L66.17354134378053 168.41698414524745 66.17354134378053 172.61698414524744 69.27354134378052 172.61698414524744 69.27354134378052 168.41698414524745" stroke="#ff0000" stroke-width="0.001mm" style="fill:none;stroke-width:1"/>
  <path d="M 63.27354134378052 168.41698414524745 L60.17354134378053 168.41698414524745 60.17354134378053 172.61698414524744 63.27354134378052 172.61698414524744 63.27354134378052 168.41698414524745" stroke="#ff0000" stroke-width="0.001mm" style="fill:none;stroke-width:1"/>
  <path d="M 57.27354134378052 168.41698414524745 L54.17354134378053 168.41698414524745 54.17354134378053 172.61698414524744 57.27354134378052 172.61698414524744 57.27354134378052 168.41698414524745" stroke="#ff0000" stroke-width="0.001mm" style="fill:none;stroke-width:1"/>
  <path d="M 51.27354134378052 168.41698414524745 L48.17354134378053 168.41698414524745 48.17354134378053 172.61698414524744 51.27354134378052 172.61698414524744 51.27354134378052 168.41698414524745" stroke="#ff0000" stroke-width="0.001mm" style="fill:none;stroke-width:1"/>
  <path d="M 45.27354134378052 168.41698414524745 L42.17354134378053 168.41698414524745 42.17354134378053 172.61698414524744 45.27354134378052 172.61698414524744 45.27354134378052 168.41698414524745" stroke="#ff0000" stroke-width="0.001mm" style="fill:none;stroke-width:1"/>
  <path d="M 144.17248482748536 162.066255446868 L139.17248482748536 162.066255446868 139.17248482748536 165.066255446868 144.17248482748536 165.066255446868 144.17248482748536 162.066255446868" stroke="#ff0000" stroke-width="0.001mm" style="fill:none;stroke-width:1"/>
  <path d="M 48.07459786007568 165.066255446868 L53.07459786007568 165.066255446868 53.07459786007568 162.066255446868 48.07459786007568 162.066255446868 48.07459786007568 165.066255446868" stroke="#ff0000" stroke-width="0.001mm" style="fill:none;stroke-width:1"/>
  <path d="M 43.17461074431301 167.10998455980413 L42.21665806175067 164.16170935928915 38.22222069331102 165.4595807356639 39.18017337587336 168.4078559361789 43.17461074431301 167.10998455980413" stroke="#ff0000" stroke-width="0.001mm" style="fill:none;stroke-width:1"/>
  <path d="M 41.32050877806332 161.4036454620332 L40.362556095500985 158.45537026151823 36.368118727061336 159.75324163789298 37.32607140962367 162.70151683840797 41.32050877806332 161.4036454620332" stroke="#ff0000" stroke-width="0.001mm" style="fill:none;stroke-width:1"/>
  <path d="M 39.466406811813634 155.6973063642623 L38.5084541292513 152.7490311637473 34.51401676081165 154.04690254012206 35.471969443373986 156.99517774063705 39.466406811813634 155.6973063642623" stroke="#ff0000" stroke-width="0.001mm" style="fill:none;stroke-width:1"/>
  <path d="M 37.612304845563955 149.99096726649137 L36.65435216300161 147.04269206597638 32.65991479456196 148.34056344235114 33.61786747712431 151.28883864286612 37.612304845563955 149.99096726649137" stroke="#ff0000" stroke-width="0.001mm" style="fill:none;stroke-width:1"/>
  <path d="M 35.75820287931427 144.28462816872045 L34.800250196751925 141.33635296820546 30.80581282831228 142.63422434458022 31.763765510874624 145.5824995450952 35.75820287931427 144.28462816872045" stroke="#ff0000" stroke-width="0.001mm" style="fill:none;stroke-width:1"/>
  <path d="M 33.90410091306458 138.57828907094952 L32.946148230502246 135.63001387043454 28.951710862062598 136.9278852468093 29.909663544624934 139.87616044732428 33.90410091306458 138.57828907094952" stroke="#ff0000" stroke-width="0.001mm" style="fill:none;stroke-width:1"/>
  <path d="M 32.049998946814895 132.8719499731786 L31.09204626425256 129.92367477266362 27.09760889581291 131.22154614903837 28.055561578375247 134.16982134955336 32.049998946814895 132.8719499731786" stroke="#ff0000" stroke-width="0.001mm" style="fill:none;stroke-width:1"/>
  <path d="M 30.19589698056521 127.16561087540767 L29.237944298002873 124.2173356748927 25.243506929563225 125.51520705126748 26.20145961212556 128.46348225178244 30.19589698056521 127.16561087540767" stroke="#ff0000" stroke-width="0.001mm" style="fill:none;stroke-width:1"/>
  <path d="M 28.341795014315522 121.45927177763674 L27.383842331753186 118.51099657712177 23.389404963313538 119.80886795349656 24.347357645875874 122.75714315401153 28.341795014315522 121.45927177763674" stroke="#ff0000" stroke-width="0.001mm" style="fill:none;stroke-width:1"/>
  <path d="M 26.487693048065836 115.75293267986582 L25.529740365503496 112.80465747935085 21.535302997063855 114.10252885572564 22.493255679626195 117.05080405624061 26.487693048065836 115.75293267986582" stroke="#ff0000" stroke-width="0.001mm" style="fill:none;stroke-width:1"/>
  <path d="M 24.63359108181615 110.0465935820949 L23.67563839925381 107.09831838157993 19.68120103081417 108.39618975795472 20.63915371337651 111.34446495846969 24.63359108181615 110.0465935820949" stroke="#ff0000" stroke-width="0.001mm" style="fill:none;stroke-width:1"/>
  <path d="M 22.779489115566463 104.34025448432398 L21.821536433004127 101.39197928380901 17.827099064564486 102.6898506601838 18.785051747126822 105.63812586069876 22.779489115566463 104.34025448432398" stroke="#ff0000" stroke-width="0.001mm" style="fill:none;stroke-width:1"/>
  <path d="M 20.925387149316776 98.63391538655306 L19.96743446675444 95.68564018603809 15.972997098314798 96.98351156241287 16.930949780877135 99.93178676292784 20.925387149316776 98.63391538655306" stroke="#ff0000" stroke-width="0.001mm" style="fill:none;stroke-width:1"/>
  <path d="M 19.07128518306709 92.92757628878213 L18.113332500504754 89.97930108826716 14.118895132065111 91.27717246464195 15.076847814627447 94.22544766515692 19.07128518306709 92.92757628878213" stroke="#ff0000" stroke-width="0.001mm" style="fill:none;stroke-width:1"/>
  <path d="M 17.217183216817403 87.22123719101121 L16.259230534255067 84.27296199049624 12.264793165815425 85.57083336687103 13.22274584837776 88.519108567386 17.217183216817403 87.22123719101121" stroke="#ff0000" stroke-width="0.001mm" style="fill:none;stroke-width:1"/>
  <path d="M 15.363081250567719 81.51489809324029 L14.405128568005386 78.56662289272533 10.410691199565742 79.86449426910012 11.368643882128074 82.81276946961508 15.363081250567719 81.51489809324029" stroke="#ff0000" stroke-width="0.001mm" style="fill:none;stroke-width:1"/>
  <path d="M 13.508979284318036 75.80855899546938 L12.5510266017557 72.86028379495441 8.556589233316055 74.1581551713292 9.514541915878391 77.10643037184417 13.508979284318036 75.80855899546938" stroke="#ff0000" stroke-width="0.001mm" style="fill:none;stroke-width:1"/>
  <path d="M 11.65487731806835 70.10221989769846 L10.696924635506013 67.15394469718349 6.702487267066369 68.45181607355828 7.660439949628705 71.40009127407325 11.65487731806835 70.10221989769846" stroke="#ff0000" stroke-width="0.001mm" style="fill:none;stroke-width:1"/>
  <path d="M 48.256233492077016 162.19822145811813 L46.71114852020228 157.44293887664236 43.85797897131682 158.3699898597672 45.403063943191555 163.12527244124297 48.256233492077016 162.19822145811813" stroke="#ff0000" stroke-width="0.001mm" style="fill:none;stroke-width:1"/>
  <path d="M 15.707183746739169 71.73075083869288 L17.252268718613905 76.48603342016865 20.105438267499366 75.55898243704381 18.56035329562463 70.80369985556804 15.707183746739169 71.73075083869288" stroke="#ff0000" stroke-width="0.001mm" style="fill:none;stroke-width:1"/>
  <path d="M 12.249302565350238 67.70213319028058 L14.757255247912573 65.87999890817392 12.28855718828419 62.48212753179914 9.780604505721854 64.3042618139058 12.249302565350238 67.70213319028058" stroke="#ff0000" stroke-width="0.001mm" style="fill:none;stroke-width:1"/>
  <path d="M 17.103404531599924 64.17542167652573 L19.611357214162258 62.35328739441907 17.14265915453387 58.95541601804429 14.634706471971537 60.777550300150956 17.103404531599924 64.17542167652573" stroke="#ff0000" stroke-width="0.001mm" style="fill:none;stroke-width:1"/>
  <path d="M 21.957506497849607 60.6487101627709 L24.465459180411944 58.82657588066423 21.996761120783557 55.42870450428945 19.48880843822122 57.250838786396116 21.957506497849607 60.6487101627709" stroke="#ff0000" stroke-width="0.001mm" style="fill:none;stroke-width:1"/>
  <path d="M 26.811608464099294 57.121998649016064 L29.31956114666163 55.29986436690939 26.850863087033236 51.90199299053461 24.3429104044709 53.72412727264128 26.811608464099294 57.121998649016064" stroke="#ff0000" stroke-width="0.001mm" style="fill:none;stroke-width:1"/>
  <path d="M 31.66571043034897 53.595287135261216 L34.173663112911306 51.773152853154556 31.704965053282926 48.375281476779776 29.19701237072059 50.197415758886436 31.66571043034897 53.595287135261216" stroke="#ff0000" stroke-width="0.001mm" style="fill:none;stroke-width:1"/>
  <path d="M 36.51981239659867 50.068575621506376 L39.027765079161 48.2464413393997 36.559067019532606 44.848569963024936 34.05111433697027 46.67070424513161 36.51981239659867 50.068575621506376" stroke="#ff0000" stroke-width="0.001mm" style="fill:none;stroke-width:1"/>
  <path d="M 41.37391436284834 46.54186410775154 L43.88186704541068 44.719729825644876 41.4131689857823 41.321858449270096 38.90521630321996 43.14399273137676 41.37391436284834 46.54186410775154" stroke="#ff0000" stroke-width="0.001mm" style="fill:none;stroke-width:1"/>
  <path d="M 46.22801632909803 43.0151525939967 L48.735969011660366 41.193018311890036 46.26727095203197 37.795146935515255 43.75931826946964 39.61728121762192 46.22801632909803 43.0151525939967" stroke="#ff0000" stroke-width="0.001mm" style="fill:none;stroke-width:1"/>
  <path d="M 51.082118295347705 39.48844108024186 L53.590070977910045 37.666306798135196 51.121372918281665 34.268435421760415 48.613420235719325 36.09056970386708 51.082118295347705 39.48844108024186" stroke="#ff0000" stroke-width="0.001mm" style="fill:none;stroke-width:1"/>
  <path d="M 55.93622026159739 35.96172956648702 L58.44417294415973 34.139595284380356 55.97547488453135 30.741723908005575 53.46752220196901 32.56385819011224 55.93622026159739 35.96172956648702" stroke="#ff0000" stroke-width="0.001mm" style="fill:none;stroke-width:1"/>
  <path d="M 60.790322227847085 32.43501805273218 L63.29827491040942 30.612883770625512 60.829576850781024 27.21501239425074 58.32162416821869 29.037146676357406 60.790322227847085 32.43501805273218" stroke="#ff0000" stroke-width="0.001mm" style="fill:none;stroke-width:1"/>
  <path d="M 65.64442419409677 28.90830653897734 L68.1523768766591 27.08617225687067 65.68367881703071 23.6883008804959 63.17572613446838 25.510435162602565 65.64442419409677 28.90830653897734" stroke="#ff0000" stroke-width="0.001mm" style="fill:none;stroke-width:1"/>
  <path d="M 70.49852616034646 25.3815950252225 L73.00647884290879 23.55946074311583 70.5377807832804 20.161589366741058 68.02982810071806 21.983723648847725 70.49852616034646 25.3815950252225" stroke="#ff0000" stroke-width="0.001mm" style="fill:none;stroke-width:1"/>
  <path d="M 75.35262812659614 21.85488351146766 L77.86058080915848 20.03274922936099 75.39188274953008 16.634877852986218 72.88393006696775 18.457012135092885 75.35262812659614 21.85488351146766" stroke="#ff0000" stroke-width="0.001mm" style="fill:none;stroke-width:1"/>
  <path d="M 80.20673009284583 18.32817199771282 L82.71468277540815 16.50603771560615 80.24598471577976 13.10816633923138 77.73803203321744 14.930300621338047 80.20673009284583 18.32817199771282" stroke="#ff0000" stroke-width="0.001mm" style="fill:none;stroke-width:1"/>
  <path d="M 85.0608320590955 14.801460483957982 L87.56878474165784 12.979326201851322 85.10008668202944 9.581454825476541 82.59213399946711 11.403589107583201 85.0608320590955 14.801460483957982" stroke="#ff0000" stroke-width="0.001mm" style="fill:none;stroke-width:1"/>
  <path d="M 89.91493402534519 11.274748970203142 L92.42288670790752 9.452614688096482 89.95418864827913 6.054743311721701 87.4462359657168 7.876877593828361 89.91493402534519 11.274748970203142" stroke="#ff0000" stroke-width="0.001mm" style="fill:none;stroke-width:1"/>
  <path d="M 94.76903599159488 7.748037456448301 L97.27698867415721 5.9259031743416415 94.80829061452881 2.528031797966861 92.30033793196648 4.350166080073521 94.76903599159488 7.748037456448301" stroke="#ff0000" stroke-width="0.001mm" style="fill:none;stroke-width:1"/>
  <path d="M 18.490974657768184 71.01722534713046 L22.536059629642924 68.07829908566809 20.772703872765504 65.65124810254325 16.727618900890764 68.59017436400562 18.490974657768184 71.01722534713046" stroke="#ff0000" stroke-width="0.001mm" style="fill:none;stroke-width:1"/>
  <path d="M 94.47244258104799 12.105253628093129 L90.42735760917324 15.044179889555494 92.19071336605066 17.471230872680337 96.2357983379254 14.532304611217972 94.47244258104799 12.105253628093129" stroke="#ff0000" stroke-width="0.001mm" style="fill:none;stroke-width:1"/>
  <path d="M 79.11052517673971 200 L81.61847785930205 201.82213428210667 84.26351149461817 198.1815578074194 86.60966077830552 199.88613503906757 83.9646271429894 203.52671151375483 86.47257982555173 205.3488457958615 89.11761346086786 201.70826932117424 91.46376274455521 203.4128465528224 88.81872910923909 207.05342302750967 91.32668179180142 208.87555730961634 93.97171542711754 205.23498083492908 96.3178647108049 206.93955806657723 93.67283107548877 210.58013454126453 96.1807837580511 212.40226882337117 98.82581739336723 208.7616923486839 101.17196667705458 210.46626958033207 98.52693304173846 214.10684605501936 101.03488572430079 215.92898033712603 103.67991935961692 212.28840386243877 106.02606864330427 213.99298109408693 103.38103500798815 217.6335575687742 105.88898769055048 219.45569185088087 108.5340213258666 215.8151153761936 110.88017060955396 217.51969260784176 108.23513697423782 221.16026908252903 110.74308965680015 222.9824033646357 113.38812329211628 219.34182688994844 115.73427257580363 221.0464041215966 113.0892389404875 224.68698059628386 115.59719162304984 226.50911487839053 118.24222525836596 222.86853840370327 120.58837454205332 224.57311563535143 117.94334090673719 228.21369211003872 120.45129358929952 230.03582639214537 123.09632722461565 226.3952499174581 125.442476508303 228.09982714910626 122.79744287298688 231.74040362379355 125.30539555554921 233.56253790590023 127.95042919086534 229.92196143121296 130.2965784745527 231.62653866286112 127.65154483923656 235.2671151375484 130.1594975217989 237.08924941965506 132.80453115711504 233.4486729449678 135.15068044080238 235.15325017661596 132.50564680548624 238.79382665130322 135.01359948804858 240.6159609334099 137.65863312336472 236.97538445872263 140.00478240705206 238.6799616903708 137.35974877173592 242.32053816505805 139.86770145429827 244.14267244716473 142.5127350896144 240.50209597247746 144.85888437330175 242.20667320412562 142.2138507379856 245.84724967881291 144.72180342054793 247.66938396091956 147.36683705586407 244.0288074862323 149.7129863395514 245.73338471788045 147.0679527042353 249.37396119256775 149.57590538679761 251.1960954746744 152.22093902211375 247.55551899998713 154.5670883058011 249.2600962316353 151.92205467048498 252.90067270632258 154.34910565360983 254.6640284632 154.34910565360983 254.6640284632 153.3911529710475 257.61230366371495 157.67090729437567 259.0028801384022 156.77475801068832 261.76094403565816 152.49500368736014 260.3703675609709 151.5370510047978 263.3186427614859 155.81680532812598 264.7092192361731 154.92065604443863 267.4672831334291 150.64090172111045 266.07670665874184 149.68294903854812 269.0249818592568 153.9627033618763 270.41555833394403 153.06655407818894 273.1736222312 148.78679975486077 271.78304575651276 147.82884707229843 274.7313209570277 152.1086013956266 276.12189743171496 151.21245211193926 278.8799613289709 146.93269778861108 277.4893848542837 145.97474510604874 280.43766005479864 150.25449942937692 281.8282365294859 149.35835014568957 284.58630042674184 145.0785958223614 283.1957239520546 144.12064313979906 286.14399915256956 148.40039746312723 287.5345756272568 147.50424817943988 290.29263952451277 143.2244938561117 288.90206304982553 142.26654117354937 291.8503382503405 146.54629549687755 293.2409147250277 145.6501462131902 295.9989786222837 141.37039188986202 294.60840214759645 140.41243920729968 297.5566773481114 144.69219353062786 298.94725382279864 143.7960442469405 301.7053177200546 139.51628992361236 300.3147412453674 138.55833724105 303.26301644588233 142.83809156437817 304.65359292056957 141.94194228069082 307.41165681782553 137.66218795736268 306.0210803431383 136.70423527480034 308.96935554365325 140.98398959812852 310.3599320183405 140.08784031444117 313.11799591559645 135.808085991113 311.7274194409092 134.85013330855065 314.6756946414242 139.12988763187883 316.0662711161114 138.23373834819148 318.8243350133674 133.9539840248633 317.43375853868014 132.99603134230097 320.3820337391951 137.27578566562914 321.77261021388233 136.3796363819418 324.5306741111383 132.09988205861362 323.14009763645106 131.14192937605128 326.088372836966 135.42168369937946 327.47894931165325 134.5255344156921 330.2370132089092 130.24578009236393 328.846436734222 129.2878274098016 331.79471193473694 133.56758173312977 333.1852884094242 132.67143244944242 335.94335230668014 128.39167812611424 334.5527758319929 127.43372544355191 337.50105103250786 131.71347976688008 338.8916275071951 130.81733048319273 341.64969140445106 126.53757615986456 340.2591149297638 125.61052517673971 343.11228447864926 125.61052517673971 343.11228447864926 122.51052517673972 343.11228447864926 122.51052517673972 347.61228447864926 119.61052517673971 347.61228447864926 119.61052517673971 343.11228447864926 116.51052517673972 343.11228447864926 116.51052517673972 347.61228447864926 113.61052517673971 347.61228447864926 113.61052517673971 343.11228447864926 110.51052517673972 343.11228447864926 110.51052517673972 347.61228447864926 107.61052517673971 347.61228447864926 107.61052517673971 343.11228447864926 104.51052517673972 343.11228447864926 104.51052517673972 347.61228447864926 101.61052517673971 347.61228447864926 101.61052517673971 343.11228447864926 98.51052517673972 343.11228447864926 98.51052517673972 347.61228447864926 95.61052517673971 347.61228447864926 95.61052517673971 343.11228447864926 92.51052517673972 343.11228447864926 92.51052517673972 347.61228447864926 89.61052517673971 347.61228447864926 89.61052517673971 343.11228447864926 86.51052517673972 343.11228447864926 86.51052517673972 347.61228447864926 83.61052517673971 347.61228447864926 83.61052517673971 343.11228447864926 80.51052517673972 343.11228447864926 80.51052517673972 347.61228447864926 77.61052517673971 347.61228447864926 77.61052517673971 343.11228447864926 74.51052517673972 343.11228447864926 74.51052517673972 347.61228447864926 71.61052517673971 347.61228447864926 71.61052517673971 343.11228447864926 68.51052517673972 343.11228447864926 68.51052517673972 347.61228447864926 65.61052517673971 347.61228447864926 65.61052517673971 343.11228447864926 62.51052517673971 343.11228447864926 62.51052517673971 347.61228447864926 59.61052517673971 347.61228447864926 59.61052517673971 343.11228447864926 56.51052517673972 343.11228447864926 56.51052517673972 347.61228447864926 53.61052517673972 347.61228447864926 53.61052517673971 343.11228447864926 50.51052517673972 343.11228447864926 50.51052517673972 347.61228447864926 47.61052517673972 347.61228447864926 47.61052517673971 343.11228447864926 44.51052517673972 343.11228447864926 44.51052517673972 347.61228447864926 41.61052517673972 347.61228447864926 41.61052517673971 343.11228447864926 38.51052517673972 343.11228447864926 38.51052517673972 347.61228447864926 35.61052517673972 347.61228447864926 35.61052517673971 343.11228447864926 32.61052517673972 343.11228447864926 32.61052517673972 343.11228447864926 31.652572494177384 340.1640092781343 27.372818170849193 341.55458575282154 26.476668887161846 338.7965218555656 30.756423210490034 337.40594538087834 29.798470527927698 334.4576701803634 25.518716204599507 335.8482466550506 24.62256692091216 333.09018275779465 28.902321244240348 331.6996062831074 27.94436856167801 328.75133108259246 23.66461423834982 330.1419075572797 22.768464954662473 327.38384366002373 27.048219277990665 325.9932671853365 26.090266595428325 323.04499198482154 21.810512272100134 324.4355684595088 20.914362988412787 321.6775045622528 25.19411731174098 320.28692808756557 24.23616462917864 317.3386528870506 19.956410305850447 318.72922936173785 19.0602610221631 315.9711654644819 23.34001534549129 314.58058898979465 22.382062662928952 311.6323137892797 18.10230833960076 313.02289026396693 17.206159055913414 310.26482636671096 21.48591337924161 308.8742498920237 20.52796069667927 305.92597469150877 16.248206373351078 307.316551166196 15.35205708966373 304.55848726894004 19.631811412991922 303.1679107942528 18.673858730429583 300.21963559373785 14.394104407101391 301.6102120684251 13.497955123414043 298.8521481711691 17.777709446742236 297.4615716964819 16.819756764179896 294.5132964959669 12.540002440851705 295.90387297065416 11.643853157164356 293.1458090733982 15.92360748049255 291.75523259871096 14.96565479793021 288.806957398196 10.685900474602018 290.19753387288324 9.78975119091467 287.4394699756273 14.069505514242863 286.04889350094004 13.111552831680527 283.1006183004251 8.831798508352335 284.4911947751123 7.935649224664988 281.73313087785635 12.215403547993176 280.3425544031691 11.25745086543084 277.39427920265416 6.97769654210265 278.7848556773414 6.081547258415302 276.02679178008543 10.361301581743493 274.6362153053982 9.403348899181157 271.68794010488324 5.123594575852967 273.0785165795705 4.227445292165619 270.3204526823145 8.507199615493807 268.9298762076273 7.549246932931471 265.9816010071123 3.2694926096032804 267.37217748179955 2.3733433259159322 264.6141135845436 6.6530976492441205 263.22353710985635 5.695144966681784 260.2752619093414 1.4153906433535939 261.66583838402863 0.5192413596662458 258.90777448677267 4.798995682994434 257.51719801208543 3.8719446998696014 254.66402846320003 3.8719446998696014 254.66402846320003 6.379897382431938 252.84189418109335 3.7348637471158077 249.2013177064061 6.081013030803155 247.49674047475793 8.726046666119284 251.1373169494452 11.233999348681621 249.31518266733852 8.588965713365491 245.67460619265125 10.935114997052839 243.9700289610031 13.580148632368969 247.61060543569033 16.088101314931308 245.78847115358369 13.443067679615178 242.14789467889642 15.789216963302525 240.44331744724826 18.434250598618654 244.0838939219355 20.94220328118099 242.26175963982882 18.29716964586486 238.62118316514156 20.643318929552205 236.91660593349337 23.288352564868337 240.55718240818067 25.796305247430677 238.735048126074 23.151271612114545 235.09447165138673 25.49742089580189 233.38989441973854 28.142454531118023 237.03047089442583 30.65040721368036 235.20833661231916 28.005373578364228 231.5677601376319 30.351522862051574 229.8631829059837 32.996556497367706 233.50375938067097 35.50450917993004 231.68162509856433 32.85947554461391 228.04104862387706 35.205624828301254 226.33647139222887 37.85065846361739 229.97704786691614 40.358611146179726 228.15491358480946 37.713577510863594 224.5143371101222 40.05972679455094 222.80975987847404 42.70476042986707 226.4503363531613 45.21271311242941 224.62820207105463 42.56767947711328 220.98762559636737 44.91382876080063 219.2830483647192 47.55886239611676 222.92362483940644 50.0668150786791 221.1014905572998 47.42178144336297 217.46091408261253 49.76793072705031 215.75633685096437 52.412964362366445 219.3969133256516 54.92091704492878 217.57477904354494 52.275883409612646 213.93420256885767 54.62203269329999 212.22962533720948 57.267066328616124 215.87020181189678 59.77501901117846 214.0480675297901 57.129985375862326 210.40749105510284 59.47613465954967 208.70291382345465 62.12116829486581 212.34349029814194 64.62912097742814 210.52135601603527 61.98408734211201 206.880779541348 64.33023662579936 205.17620230969982 66.9752702611155 208.8167787843871 69.48322294367783 206.99464450228044 66.8381893083617 203.35406802759317 69.18433859204906 201.64949079594498 71.82937222736518 205.29006727063225 74.33732490992752 203.4679329885256 71.69229127461139 199.82735651383834 74.03844055829875 198.12277928219015 76.68347419361486 201.76335575687742 79.1105251767397 200" stroke="#ff0000" stroke-width="0.001mm" style="fill:none;stroke-width:1"/>
  <path d="M 78.99826818259481 210.27905056945778 L83.04335315446956 213.21797683092015 84.80670891134697 210.7909258477953 80.76162393947223 207.85199958633294 78.99826818259481 210.27905056945778" stroke="#ff0000" stroke-width="0.001mm" style="fill:none;stroke-width:1"/>
  <path d="M 146.37119270400524 255.52014153785834 L142.3261077321305 252.58121527639594 140.56275197525306 255.00826625952078 144.6078369471278 257.94719252098315 146.37119270400524 255.52014153785834" stroke="#ff0000" stroke-width="0.001mm" style="fill:none;stroke-width:1"/>
  <path d="M 144.53845830927136 257.73366702942076 L142.99337333739663 262.48894961089655 145.84654288628212 263.41600059402134 147.39162785815685 258.66071801254554 144.53845830927136 257.73366702942076" stroke="#ff0000" stroke-width="0.001mm" style="fill:none;stroke-width:1"/>
  <path d="M 122.33100257732868 335.78939187066834 L123.87608754920342 331.03410928919254 121.02291800031796 330.10705830606776 119.47783302844321 334.86234088754355 122.33100257732868 335.78939187066834" stroke="#ff0000" stroke-width="0.001mm" style="fill:none;stroke-width:1"/>
  <path d="M 119.65946866044456 334.7303748762934 L114.65946866044456 334.7303748762934 114.65946866044456 337.7303748762934 119.65946866044456 337.7303748762934 119.65946866044456 334.7303748762934" stroke="#ff0000" stroke-width="0.001mm" style="fill:none;stroke-width:1"/>
  <path d="M 38.561581693034874 337.7303748762934 L43.561581693034874 337.7303748762934 43.561581693034874 334.7303748762934 38.561581693034874 334.7303748762934 38.561581693034874 337.7303748762934" stroke="#ff0000" stroke-width="0.001mm" style="fill:none;stroke-width:1"/>
  <path d="M 38.74321732503621 334.86234088754355 L37.198132353161476 330.10705830606776 34.344962804276015 331.03410928919254 35.89004777615075 335.78939187066834 38.74321732503621 334.86234088754355" stroke="#ff0000" stroke-width="0.001mm" style="fill:none;stroke-width:1"/>
  <path d="M 10.82942249532258 258.66071801254554 L12.374507467197319 263.41600059402134 15.22767701608278 262.48894961089655 13.682592044208041 257.73366702942076 10.82942249532258 258.66071801254554" stroke="#ff0000" stroke-width="0.001mm" style="fill:none;stroke-width:1"/>
  <path d="M 13.613213406351603 257.94719252098315 L17.65829837822634 255.00826625952078 15.89494262134891 252.58121527639594 11.849857649474172 255.52014153785834 13.613213406351603 257.94719252098315" stroke="#ff0000" stroke-width="0.001mm" style="fill:none;stroke-width:1"/>
  <path d="M 77.45942641400718 207.85199958633294 L73.41434144213244 210.7909258477953 75.17769719900986 213.21797683092015 79.2227821708846 210.27905056945778 77.45942641400718 207.85199958633294" stroke="#ff0000" stroke-width="0.001mm" style="fill:none;stroke-width:1"/>
  <path d="M 281.74574522975 0 L359.4905689099072 56.484920735912475 329.7946887134549 147.87944233846258 233.69680174604517 147.87944233846258 204.00092154959276 56.484920735912496 281.74574522975 0" stroke="#ff0000" stroke-width="0.001mm" style="fill:none;stroke-width:1"/>
  <path d="M 268.9859831044694 200 L334.5955518690024 247.66814195152537 309.5349265881743 324.79681580964814 228.4370396207646 324.7968158096482 203.37641433993642 247.6681419515254 268.9859831044694 200" stroke="#ff0000" stroke-width="0.001mm" style="fill:none;stroke-width:1"/>
  <circle cx="96.12354134378052" cy="96.12354134378052" r="56.5" stroke="#ff0000" stroke-width="0.001mm" style="fill:none;stroke-width:1"/>
  <circle cx="79.11052517673971" cy="279.1105251767397" r="56.5" stroke="#ff0000" stroke-width="0.001mm" style="fill:none;stroke-width:1"/>
  <circle cx="281.74574522975" cy="81.74574522975003" r="7.5" stroke="#ff0000" stroke-width="0.001mm" style="fill:none;stroke-width:1"/>
  <circle cx="268.9859831044694" cy="268.9859831044694" r="7.5" stroke="#ff0000" stroke-width="0.001mm" style="fill:none;stroke-width:1"/>
</svg>