<?xml version="1.0" encoding="UTF-8" standalone="no"?>
<!-- Created with Inkscape (http://www.inkscape.org/) -->

<svg
   width="210mm"
   height="297mm"
   viewBox="0 0 210 297"
   version="1.1"
   id="svg8"
   inkscape:version="1.1.1 (1:1.1+202109281949+c3084ef5ed)"
   sodipodi:docname="dodecahedron-image-bicycles.svg"
   xmlns:inkscape="http://www.inkscape.org/namespaces/inkscape"
   xmlns:sodipodi="http://sodipodi.sourceforge.net/DTD/sodipodi-0.dtd"
   xmlns="http://www.w3.org/2000/svg"
   xmlns:svg="http://www.w3.org/2000/svg"
   xmlns:rdf="http://www.w3.org/1999/02/22-rdf-syntax-ns#"
   xmlns:cc="http://creativecommons.org/ns#"
   xmlns:dc="http://purl.org/dc/elements/1.1/">
  <defs
     id="defs2">
    <inkscape:path-effect
       effect="fillet_chamfer"
       id="path-effect1390"
       is_visible="true"
       lpeversion="1"
       satellites_param="F,0,0,1,0,0,0,1 @ F,0,0,1,0,0,0,1 @ F,0,0,1,0,0,0,1 @ F,0,0,1,0,0,0,1 @ F,0,0,1,0,0,0,1"
       unit="px"
       method="auto"
       mode="F"
       radius="0"
       chamfer_steps="1"
       flexible="false"
       use_knot_distance="true"
       apply_no_radius="true"
       apply_with_radius="true"
       only_selected="false"
       hide_knots="false" />
    <inkscape:path-effect
       effect="fillet_chamfer"
       id="path-effect1178"
       is_visible="true"
       lpeversion="1"
       satellites_param="F,0,0,1,0,5.2916667,0,1 @ F,0,0,1,0,5.2916667,0,1 @ F,0,0,1,0,5.2916667,0,1 @ F,0,0,1,0,5.2916667,0,1 @ F,0,0,1,0,5.2916667,0,1"
       unit="px"
       method="auto"
       mode="F"
       radius="20"
       chamfer_steps="1"
       flexible="false"
       use_knot_distance="true"
       apply_no_radius="true"
       apply_with_radius="true"
       only_selected="false"
       hide_knots="false" />
    <inkscape:path-effect
       effect="fillet_chamfer"
       id="path-effect1176"
       is_visible="true"
       lpeversion="1"
       satellites_param="F,0,0,1,0,13.229167,0,1 @ F,0,0,1,0,13.229167,0,1 @ F,0,0,1,0,13.229167,0,1 @ F,0,0,1,0,13.229167,0,1 @ F,0,0,1,0,13.229167,0,1"
       unit="px"
       method="arc"
       mode="F"
       radius="50"
       chamfer_steps="1"
       flexible="false"
       use_knot_distance="true"
       apply_no_radius="true"
       apply_with_radius="true"
       only_selected="false"
       hide_knots="false" />
    <inkscape:path-effect
       effect="bspline"
       id="path-effect825"
       is_visible="true"
       weight="33.333333"
       steps="2"
       helper_size="0"
       apply_no_weight="true"
       apply_with_weight="true"
       only_selected="false" />
  </defs>
  <sodipodi:namedview
     id="base"
     pagecolor="#ffffff"
     bordercolor="#666666"
     borderopacity="1.0"
     inkscape:pageopacity="0.0"
     inkscape:pageshadow="2"
     inkscape:zoom="1.1467924"
     inkscape:cx="520.14645"
     inkscape:cy="447.33467"
     inkscape:document-units="mm"
     inkscape:current-layer="layer1"
     showgrid="false"
     inkscape:pagecheckerboard="true"
     borderlayer="true"
     objecttolerance="5"
     gridtolerance="2"
     guidetolerance="5"
     inkscape:snap-perpendicular="true"
     inkscape:snap-tangential="true"
     showguides="true"
     inkscape:guide-bbox="true" />
  <metadata
     id="metadata5">
    <rdf:RDF>
      <cc:Work
         rdf:about="">
        <dc:format>image/svg+xml</dc:format>
        <dc:type
           rdf:resource="http://purl.org/dc/dcmitype/StillImage" />
        <dc:title />
        <cc:license
           rdf:resource="http://creativecommons.org/licenses/by-sa/4.0/" />
      </cc:Work>
      <cc:License
         rdf:about="http://creativecommons.org/licenses/by-sa/4.0/">
        <cc:permits
           rdf:resource="http://creativecommons.org/ns#Reproduction" />
        <cc:permits
           rdf:resource="http://creativecommons.org/ns#Distribution" />
        <cc:requires
           rdf:resource="http://creativecommons.org/ns#Notice" />
        <cc:requires
           rdf:resource="http://creativecommons.org/ns#Attribution" />
        <cc:permits
           rdf:resource="http://creativecommons.org/ns#DerivativeWorks" />
        <cc:requires
           rdf:resource="http://creativecommons.org/ns#ShareAlike" />
      </cc:License>
    </rdf:RDF>
  </metadata>
  <g
     inkscape:label="Layer 1"
     inkscape:groupmode="layer"
     id="layer1">
    <path
       sodipodi:type="star"
       style="fill:none;fill-opacity:0.98823529;stroke:#ff0000;stroke-width:0.1;stroke-miterlimit:4;stroke-dasharray:none;stroke-opacity:0.76724135"
       id="path817"
       sodipodi:sides="5"
       sodipodi:cx="105.45535"
       sodipodi:cy="139.7619"
       sodipodi:r1="109.65805"
       sodipodi:r2="88.715225"
       sodipodi:arg1="-1.5707963"
       sodipodi:arg2="-0.9424778"
       inkscape:flatsided="true"
       inkscape:rounded="0"
       inkscape:randomized="0"
       d="m 109.7364,33.214215 95.72891,69.551125 a 7.2833544,7.2833544 72.000002 0 1 2.64583,8.14304 l -36.56519,112.53608 a 7.2833544,7.2833544 144 0 1 -6.92688,5.03267 l -118.327438,0 a 7.2833544,7.2833544 36.000002 0 1 -6.926881,-5.03268 L 2.799565,110.90837 a 7.2833544,7.2833544 108 0 1 2.6458335,-8.14304 L 101.17431,33.214215 a 7.2833544,7.2833544 1.5352344e-6 0 1 8.56209,0 z"
       inkscape:transform-center-y="-10.471413"
       inkscape:path-effect="#path-effect1178" />
    <circle
       style="fill:none;fill-opacity:0.988235;stroke:#000000;stroke-width:0.1;stroke-miterlimit:4;stroke-dasharray:none;stroke-opacity:0.767241"
       id="path2560-5"
       cx="47.447384"
       cy="219.60529"
       r="1.5914564" />
    <circle
       style="fill:none;fill-opacity:0.988235;stroke:#000000;stroke-width:0.1;stroke-miterlimit:4;stroke-dasharray:none;stroke-opacity:0.767241"
       id="path2560"
       cx="11.679322"
       cy="109.37251"
       r="1.5914564" />
    <circle
       style="fill:none;fill-opacity:0.988235;stroke:#000000;stroke-width:0.1;stroke-miterlimit:4;stroke-dasharray:none;stroke-opacity:0.767241"
       id="path2560-9"
       cx="163.38332"
       cy="219.60164"
       r="1.5914564" />
    <circle
       style="fill:none;fill-opacity:0.988235;stroke:#000000;stroke-width:0.1;stroke-miterlimit:4;stroke-dasharray:none;stroke-opacity:0.767241"
       id="path2560-0"
       cx="199.19925"
       cy="109.3667"
       r="1.5914564" />
    <circle
       style="fill:none;fill-opacity:0.988235;stroke:#000000;stroke-width:0.1;stroke-miterlimit:4;stroke-dasharray:none;stroke-opacity:0.767241"
       id="path2560-06"
       cx="105.43491"
       cy="41.255737"
       r="1.5914564" />
    <path
       path-name="a"
       unicode="á"
       horiz-adv-x="661"
       d="m 131.19495,130.67929 c 9.37973,0 16.98469,7.60245 16.98311,16.98218 0,9.37973 -7.60274,16.98248 -16.98248,16.98248 -9.37805,0 -16.98249,-7.60275 -16.98249,-16.98248 0,-6.92985 4.15288,-12.88629 10.10454,-15.52643 l -1.56937,-4.95168 -20.61959,20.61956 1.88695,5.38719 h 1.27532 c 0.96543,0 1.74689,0.78315 1.74689,1.74859 0,0.96542 -0.78146,1.74858 -1.74689,1.74858 h -5.06809 c -0.965423,0 -1.748578,-0.78316 -1.748578,-1.74858 0,-0.96544 0.783155,-1.74859 1.748578,-1.74859 h 0.40571 l -1.717108,-4.13077 h -4.924964 c -0.710667,8.72406 -8.013219,15.58465 -16.921157,15.58465 -9.378047,0 -16.980761,-7.60273 -16.980761,-16.98248 0,-9.37974 7.602741,-16.98248 16.980761,-16.98248 1.839797,0 3.608799,0.29714 5.269258,0.83812 l 5.152848,-10.67379 -2.173176,-5.39671 h -3.634004 c -1.019025,0 -1.031621,-0.82553 -1.031621,-1.84287 0,-1.01732 0.01313,-1.84287 1.031621,-1.84287 h 11.835768 c 1.017343,0 1.844407,0.82555 1.844407,1.84287 0,1.01904 -0.827064,1.84304 -1.844407,1.84304 H 89.28607 l 1.430869,3.54277 h 29.436301 l -1.43717,-4.54123 c -0.11637,-0.24691 -0.86484,-1.71081 -2.43253,-1.71081 h -4.42806 c -1.01735,0 -1.02839,-0.82553 -1.02839,-1.84286 0,-1.01734 0.0105,-1.84442 1.02839,-1.84442 h 4.42806 c 3.33208,0 5.25359,2.54112 5.86366,4.04277 0.0173,0.0486 1.3822,4.35728 3.14014,9.90493 0.0189,0.0424 0.0268,0.0847 0.0408,0.12885 0.78469,2.47507 1.64478,5.19231 2.49705,7.88745 v 10e-4 c 1.08965,-0.21854 2.21555,-0.33646 3.3697,-0.33646 z m -47.103757,5.67624 -4.352342,9.01488 h 10.439443 c -0.660453,-3.80214 -2.931139,-7.0493 -6.087101,-9.01488 z m -7.023983,24.61681 c 6.879477,0 12.538619,-5.21903 13.236847,-11.91301 H 76.801394 c -0.635274,0 -1.223409,-0.32862 -1.561543,-0.86485 -0.336453,-0.53624 -0.374227,-1.21083 -0.09746,-1.78161 l 5.577432,-11.55124 c -1.16198,-0.33015 -2.386926,-0.51103 -3.652721,-0.51103 -7.352765,0 -13.310715,5.95964 -13.310715,13.31087 0,7.3512 5.959658,13.31087 13.310873,13.31087 z m 16.823515,-15.60178 3.489328,10e-4 -1.630644,-4.04601 -1.017343,-0.004 c -0.965423,-0.001 -1.74536,-0.75152 -1.742287,-1.67132 0.0026,-0.8145 0.614693,-1.48909 1.424577,-1.6322 l -5.063336,-12.55802 -3.657488,7.57447 c 4.376154,2.58672 7.488037,7.07759 8.197179,12.33424 z m 6.887335,-1.42935 20.7169,-20.7155 -0.17292,-0.55036 H 92.203379 l 6.178163,15.32513 1.429332,0.005 c 0.965436,0.004 1.745356,0.75153 1.742296,1.67303 -0.004,0.91982 -0.78776,1.66367 -1.753184,1.66059 h -0.07079 z m 30.41893,17.03113 c 7.35121,0 13.31057,-5.95967 13.31057,-13.31087 0,-7.35123 -5.95966,-13.31087 -13.31089,-13.31087 -0.76888,0 -1.51887,0.0694 -2.25164,0.19348 v 0.001 c 2.20449,6.96118 3.73288,12.20372 3.73288,12.20372 0.30669,0.97019 -0.2311,2.00641 -1.20129,2.31461 -0.97171,0.30511 -2.00642,-0.23264 -2.3146,-1.20131 l -3.72828,-12.1991 -0.001,-0.004 c -4.46414,2.14802 -7.54609,6.71441 -7.54609,12.00101 0,7.35122 5.95964,13.31087 13.31086,13.31087 z"
       id="path832"
       style="stroke-width:0.157246" />
    <path
       path-name="b"
       unicode="b"
       horiz-adv-x="661"
       d="m 157.80287,103.84554 c 2.54826,2.91498 2.25092,7.3449 -0.66448,9.89269 -2.91551,2.54873 -7.34454,2.25142 -9.89281,-0.66354 -2.54872,-2.9155 -2.25142,-7.34453 0.66408,-9.89326 2.15399,-1.88303 5.13389,-2.21071 7.57135,-1.07862 l 1.11314,-1.83279 -12.01202,-0.807221 -1.16224,2.050791 0.3461,0.39583 c 0.26231,0.30013 0.23173,0.75633 -0.0684,1.01866 -0.30011,0.26229 -0.75631,0.23171 -1.01866,-0.0684 l -1.37663,-1.5748 c -0.26231,-0.30013 -0.2317,-0.75634 0.0684,-1.01867 0.3001,-0.2623 0.7563,-0.2317 1.01864,0.0684 l 0.11049,0.12589 0.81739,-1.656161 -1.33829,-1.53082 c -2.90479,2.14968 -7.02157,1.74403 -9.44209,-1.02483 -2.54827,-2.91497 -2.25097,-7.34399 0.66454,-9.89272 2.91498,-2.54827 7.34451,-2.25144 9.89279,0.66354 0.49991,0.57185 0.88864,1.20295 1.17128,1.86559 l 4.7179,-1.2987 1.08652,-2.14241 -0.987,-1.12901 c -0.27689,-0.31675 -0.0233,-0.54451 0.29288,-0.82096 0.3162,-0.27647 0.57582,-0.49734 0.85274,-0.18055 l 3.21582,3.67915 c 0.27643,0.31621 0.24413,0.79712 -0.0721,1.07355 -0.31673,0.2769 -0.79718,0.24421 -1.07361,-0.072 l -1.14893,-1.31427 -4.00854,7.94162 11.29439,2.61501 1.02101,-1.6807 c 0.0456,-0.10377 0.29677,-0.73369 -0.12922,-1.22096 l -1.20321,-1.37638 c -0.27644,-0.31621 -0.0229,-0.54397 0.29337,-0.82042 0.3162,-0.27646 0.57591,-0.49818 0.85273,-0.18156 l 1.20323,1.37638 c 0.90541,1.0357 0.63768,2.32346 0.33669,2.92113 -0.0104,0.0185 -0.97834,1.61414 -2.22544,3.667508 -0.009,0.0168 -0.0195,0.031 -0.0289,0.0477 -0.55611,0.916443 -1.16699,1.922133 -1.77314,2.919383 l -5.6e-4,4.9e-4 c 0.36452,0.27886 0.70708,0.59766 1.0207,0.95641 z m -14.56438,-13.099551 -3.98473,1.09674 2.83666,3.2449 c 1.00235,-1.23845 1.39467,-2.82659 1.14807,-4.34164 z m -9.56026,4.50577 c 1.86936,2.13834 5.02936,2.47927 7.30027,0.87697 l -3.66904,-4.19704 c -0.1727,-0.1974 -0.2313,-0.4687 -0.15599,-0.71996 0.0757,-0.25012 0.27468,-0.44534 0.5273,-0.5144 l 5.106,-1.40515 c -0.21312,-0.45088 -0.48933,-0.88032 -0.83368,-1.27424 -1.99754,-2.28498 -5.46937,-2.51803 -7.75435,-0.52049 -2.28497,1.99752 -2.51802,5.46935 -0.52049,7.75433 z m 9.42096,0.98987 0.94819,1.08455 0.81358,-1.60629 -0.27515,-0.31649 c -0.2614,-0.30091 -0.24065,-0.74672 0.0466,-0.99617 0.2531,-0.22044 0.62987,-0.2126 0.89443,-7.1e-4 l 2.52694,-4.98562 -3.3478,0.92182 c 0.38467,2.06263 -0.16563,4.25019 -1.60687,5.89899 z m 2.31585,1.75241 12.06829,0.81044 0.12408,-0.20331 c 0,0 -10.5166,-2.35162 -10.50229,-2.35897 0.13887,0.2831 0.0849,0.62689 -0.15441,0.83443 -0.28656,0.24919 -0.73118,0.20718 -0.99256,-0.0937 l -0.0193,-0.0221 z m 2.97181,14.082881 c 1.99752,2.28497 5.46931,2.51798 7.7543,0.52045 2.28497,-1.99752 2.51801,-5.46937 0.52049,-7.75435 -0.20854,-0.23848 -0.4343,-0.45332 -0.67197,-0.64739 l -5.5e-4,4.9e-4 c -1.56473,2.57678 -2.77896,4.47637 -2.77896,4.47637 -0.21827,0.35891 -0.68598,0.47296 -1.0454,0.25511 -0.35891,-0.21827 -0.47338,-0.68644 -0.25563,-1.04496 l 2.77835,-4.47417 3.2e-4,-10e-4 c -1.88069,-0.80391 -4.1375,-0.52106 -5.78074,0.91548 -2.28497,1.99752 -2.51802,5.46937 -0.52049,7.75435 z"
       id="path841"
       style="stroke-width:0.0649196" />
    <path
       path-name="c"
       unicode="c"
       horiz-adv-x="586"
       d="m 121.62469,77.383019 c 2.98283,0.160611 5.2791,2.71749 5.11775,5.700304 -0.16056,2.982876 -2.71748,5.279182 -5.70033,5.118588 -2.98362,-0.160651 -5.27917,-2.718264 -5.11857,-5.701114 0.094,-1.745375 1.00923,-3.254869 2.34954,-4.175546 -0.21848,-0.679287 -0.42934,-1.387174 -0.63272,-2.106071 -1.11012,-0.12016 -3.53692,-0.381353 -5.37164,-0.574867 -1.58563,-0.167809 -2.28378,0.01913 -3.02225,0.21607 -0.33934,0.09021 -0.69039,0.18435 -1.11831,0.246102 -0.14777,0.02177 -0.32425,0.05059 -0.51935,0.08497 -0.12791,0.303161 -0.24366,0.681855 -0.35151,1.038802 -0.39362,1.296242 -0.92368,3.041862 -2.53753,3.397927 l 0.36702,1.964193 c 0.10435,0.0058 0.21258,0.01049 0.32673,0.01677 l 0.6967,0.04031 c 0.47131,0.02677 0.83312,0.413633 0.80736,0.86299 -0.025,0.449276 -0.42902,0.791781 -0.90037,0.764905 l -0.0351,-0.0019 -1.94306,-0.110172 -0.49566,-0.02804 c -0.47132,-0.02677 -0.83312,-0.412982 -0.80747,-0.862898 0.0226,-0.396657 0.33985,-0.710276 0.73891,-0.759046 0.25507,0.01371 0.52327,0.02534 0.82721,0.0404 l -0.34277,-1.833147 c -0.92219,0.09241 -2.1325,0.230408 -3.35692,0.376009 0.009,0.191456 0.01,0.383877 -5.7e-4,0.578775 -0.16055,2.982884 -2.717493,5.279199 -5.700359,5.118599 -2.982853,-0.160603 -5.279146,-2.71824 -5.118521,-5.701106 0.1606,-2.982842 2.718192,-5.278382 5.701096,-5.118529 1.389022,0.07478 2.628596,0.670032 3.54086,1.585195 l 1.723044,-1.491195 c 0.15948,-0.138785 0.40133,-0.348025 0.70734,-0.257486 0.19842,0.05941 0.33773,0.223591 0.41287,0.487351 0.004,0.0091 0.004,0.01823 0.007,0.02736 l 0.77637,3.765684 c 0.25273,-0.02769 0.49553,-0.05424 0.72666,-0.0785 L 99.840509,63.28591 c -0.01169,-0.05497 -0.01803,-0.11092 -0.01868,-0.165201 L 97.64464,63.003497 c -0.493486,-0.02659 -0.47734,-0.426635 -0.450798,-0.919344 0.02668,-0.492661 0.054,-0.892902 0.546956,-0.866354 l 5.731902,0.308609 c 0.49268,0.02652 0.87162,0.448683 0.84511,0.941329 -0.0267,0.492655 -0.44855,0.870901 -0.94126,0.84437 l -1.73097,-0.09319 2.50741,11.856656 c 1.05937,-0.228627 2.82442,-0.599433 3.72116,-0.729103 0.32404,-0.04668 0.61079,-0.123654 0.91375,-0.204299 0.82215,-0.219245 1.75355,-0.468463 3.66803,-0.266865 1.515,0.16028 3.43309,0.365883 4.68141,0.501025 -0.0875,-0.332349 -0.17359,-0.663055 -0.25896,-0.991482 -0.14539,-0.562288 -0.26051,-1.006129 -0.34357,-1.293189 -0.54707,-1.88224 -0.67638,-4.98377 -0.55769,-6.408621 0.0982,-1.170067 0.49183,-2.538112 0.51061,-2.602814 0.13601,-0.472344 0.65435,-0.790342 1.14477,-0.764721 0.29315,0.01577 2.05304,0.09529 2.54357,0.14804 0.49055,0.05231 0.84652,0.492808 0.79394,0.984351 -0.0523,0.490548 -0.49245,0.84594 -0.98356,0.79325 l -0.64688,-0.01501 -1.28913,-0.07079 -0.0577,0.248927 c -0.1014,0.449725 -0.20401,0.981109 -0.24102,1.427451 -0.10829,1.287937 0.0304,4.173096 0.49238,5.763599 0.0908,0.312713 0.20844,0.767354 0.35765,1.34436 0.30347,1.171871 0.76003,2.933169 1.29864,4.631701 0.54726,-0.150795 1.1275,-0.218088 1.7245,-0.185929 z m -23.45006,1.924391 -1.776056,1.537949 c 0.630571,-0.0798 1.447932,-0.18249 2.334386,-0.291305 -0.106974,-0.452515 -0.298083,-0.874416 -0.558331,-1.246662 z m 0.649758,2.272686 c 0.0049,-0.08981 0.0051,-0.179255 0.0033,-0.267897 -1.941964,0.238366 -3.553961,0.447145 -3.585525,0.45157 -0.02382,0.0027 -0.04675,0.0031 -0.0703,0.0017 -0.140853,-0.0076 -0.268348,-0.09323 -0.327808,-0.225329 -0.06893,-0.153366 -0.0285,-0.334563 0.09887,-0.445294 l 2.73247,-2.365556 c -0.602763,-0.564722 -1.399565,-0.929188 -2.286784,-0.976937 -2.002761,-0.107848 -3.720188,1.434078 -3.827979,3.436099 -0.107848,2.002775 1.434128,3.719378 3.436903,3.82722 2.002044,0.107793 3.719391,-1.433318 3.82725,-3.436082 z m 1.683482,-1.241326 c 0.46659,-0.0551 0.93232,-0.11023 1.38036,-0.161738 l -0.7145,-3.46679 -1.648657,1.428023 c 0.481027,0.640681 0.823287,1.390021 0.982797,2.200503 z m 6.018,-3.330417 c 0.0687,-0.22624 0.13552,-0.444879 0.20463,-0.651978 -0.76262,0.1499 -1.6039,0.328329 -2.20971,0.459137 l 0.59724,2.822072 c 0.76546,-0.513996 1.10239,-1.623081 1.40786,-2.629225 z m 14.61173,9.415246 c 2.00279,0.107837 3.71929,-1.4334 3.82712,-3.436154 0.10785,-2.002791 -1.43333,-3.719346 -3.43611,-3.82718 -0.36245,-0.01955 -0.7149,0.01579 -1.05072,0.09691 0.47568,1.278899 0.99113,2.371322 1.50789,2.929933 0.33414,0.360985 0.31304,0.924169 -0.0479,1.258322 -0.18408,0.170324 -0.42115,0.247698 -0.65265,0.23522 -0.22309,-0.01207 -0.44173,-0.107018 -0.60481,-0.283808 -0.64964,-0.700888 -1.24227,-1.877672 -1.78738,-3.299331 -0.68646,0.62137 -1.13794,1.50363 -1.19153,2.498935 -0.10784,2.002779 1.43332,3.719354 3.4361,3.827186 z"
       id="path850"
       style="stroke-width:0.0762618" />
    <path
       path-name="f"
       unicode="f"
       horiz-adv-x="842"
       d="m 45.66995,170.47613 c -2.379897,-3.04556 -1.840261,-7.44491 1.205307,-9.82483 3.046118,-2.38033 7.444951,-1.84012 9.824846,1.20546 2.380331,3.04611 1.840678,7.44452 -1.205438,9.82484 -2.250503,1.75861 -5.238776,1.92152 -7.606159,0.65918 l -1.210244,1.76572 11.928488,1.46404 1.27116,-1.98031 -0.32321,-0.41362 c -0.245002,-0.31354 -0.189416,-0.76661 0.124151,-1.0116 0.313528,-0.24499 0.766609,-0.18941 1.011636,0.12391 l 1.286147,1.64589 c 0.245001,0.31352 0.189407,0.7666 -0.124151,1.01161 -0.313527,0.24498 -0.7666,0.18939 -1.011628,-0.12392 l -0.103349,-0.13224 -0.905732,1.6059 6.287382,8.04598 0.973965,-1.51859 -0.322824,-0.41311 c -0.245428,-0.31409 -0.189416,-0.76661 0.124148,-1.01159 0.313527,-0.24501 0.766179,-0.18997 1.011632,0.12391 l 1.285717,1.64535 c 0.244999,0.31353 0.189408,0.7666 -0.124149,1.0116 -0.313526,0.245 -0.7666,0.18941 -1.011626,-0.12391 l -0.10335,-0.13226 -0.905731,1.60592 1.250217,1.59991 c 3.013522,-1.98313 7.094296,-1.35319 9.355287,1.54021 2.379899,3.04556 1.840241,7.44395 -1.205877,9.82429 -3.045566,2.37989 -7.444519,1.84067 -9.824407,-1.2049 -0.466894,-0.59748 -0.819718,-1.24789 -1.065013,-1.92392 l -4.774021,1.03531 -1.200725,2.0758 0.921782,1.1796 c 0.2586,0.33093 -0.0067,0.54402 -0.33707,0.8022 -0.33038,0.25816 -0.601316,0.46405 -0.859894,0.13309 l -3.003603,-3.84371 c -0.258175,-0.33039 -0.199961,-0.8085 0.13047,-1.06666 0.330931,-0.25859 0.808418,-0.1991 1.066585,0.13135 l 1.073021,1.37314 0.787807,-1.36325 -6.205975,-7.9418 -0.788197,1.36274 0.921782,1.17962 c 0.258602,0.33092 -0.0067,0.54402 -0.337077,0.80219 -0.330381,0.25818 -0.601308,0.46404 -0.859885,0.13309 l -3.003604,-3.84372 c -0.258174,-0.33039 -0.19997,-0.80847 0.13037,-1.06666 0.330932,-0.25859 0.808418,-0.1991 1.066588,0.13134 l 1.073019,1.37316 0.787814,-1.36326 -7.470555,-9.5601 -1.109649,1.61973 c -0.05115,0.10085 -0.336113,0.71502 0.06173,1.22414 l 1.123334,1.43752 c 0.258599,0.33095 -0.0067,0.54403 -0.337076,0.80219 -0.330384,0.25817 -0.601814,0.46445 -0.860388,0.13354 l -1.123332,-1.43752 c -0.845596,-1.08211 -0.507982,-2.351 -0.175139,-2.9302 0.01139,-0.018 1.063859,-1.55519 2.419746,-3.53343 0.0091,-0.0169 0.02071,-0.0302 0.03147,-0.0459 0.60466,-0.88295 1.268829,-1.85183 1.92781,-2.81256 l 4.2e-5,-9.7e-4 c -0.347682,-0.29746 -0.671561,-0.63409 -0.964455,-1.0089 z m 21.012757,23.09063 4.032134,-0.87429 -2.649257,-3.39026 c -1.067149,1.17936 -1.545447,2.74082 -1.382877,4.26455 z m 9.776929,-3.96602 c -1.745828,-2.23415 -4.876913,-2.74758 -7.228512,-1.27519 l 3.426619,4.38506 c 0.161216,0.20631 0.204747,0.47993 0.115917,0.7262 -0.08876,0.24535 -0.298253,0.42882 -0.553842,0.4838 l -5.166727,1.1201 c 0.187665,0.46114 0.439383,0.90436 0.760999,1.31593 1.865543,2.38734 5.313376,2.81037 7.700728,0.94478 2.387338,-1.86553 2.810367,-5.31336 0.94482,-7.70071 z m -9.336158,-1.50424 -0.885547,-1.13315 -0.899195,1.5564 0.256995,0.33049 c 0.24421,0.31415 0.198863,0.75753 -0.101185,0.9904 -0.264398,0.2058 -0.639504,0.17731 -0.891578,-0.0484 l -2.792672,4.8307 3.387629,-0.73491 c -0.270109,-2.07712 0.398603,-4.22738 1.925775,-5.79167 z m -7.211219,-9.22813 -0.88909,-1.13857 -0.899745,1.55682 0.256992,0.33051 c 0.24421,0.31415 0.198864,0.75753 -0.10064,0.98997 -0.264953,0.2061 -0.640005,0.1777 -0.891576,-0.0485 l -2.793146,4.83109 -0.619547,1.07224 6.205975,7.9418 3.409052,-5.89549 -0.360763,-0.46492 c -0.244642,-0.31468 -0.199293,-0.75809 0.100756,-0.99094 0.299514,-0.2324 0.740199,-0.16637 0.984204,0.1479 l 0.01795,0.0231 0.578976,-1.00103 0.299182,-0.46657 -4.359776,-5.68657 -0.938538,-1.20105 z m -2.216094,-1.87908 -11.984822,-1.47081 -0.134859,0.19582 7.389549,9.45643 3.409054,-5.8955 -0.360764,-0.46492 c -0.244641,-0.31468 -0.199295,-0.75807 0.100754,-0.99093 0.299453,-0.23249 0.740199,-0.16635 0.984205,0.1479 l 0.01795,0.0231 z m -2.188529,-14.20071 c -1.865543,-2.38735 -5.313339,-2.81031 -7.700682,-0.94478 -2.387341,1.86554 -2.810369,5.31338 -0.944823,7.70073 0.194729,0.24919 0.407943,0.47574 0.634247,0.6822 l 5.05e-4,-4e-4 c 1.70123,-2.48248 3.015899,-4.30925 3.015899,-4.30925 0.237258,-0.3458 0.709356,-0.43424 1.056049,-0.19687 0.345798,0.23725 0.434161,0.71022 0.19737,1.05565 l -3.015192,4.30708 -3.4e-4,9.6e-4 c 1.830454,0.90463 4.095612,0.74623 5.812383,-0.59492 2.387337,-1.86554 2.810365,-5.31337 0.944822,-7.70071 z"
       id="path976"
       style="stroke-width:0.0648084" />
    <path
       path-name="j"
       unicode="j"
       horiz-adv-x="652"
       d="m 84.646552,204.28913 c 0.05559,-0.001 3.876456,-0.13094 6.619956,-0.24453 -0.250189,-0.70774 -0.500301,-1.41362 -0.739421,-2.08998 -0.27652,0.0564 -0.561213,0.0926 -0.852388,0.10443 -2.927914,0.11922 -5.398138,-2.15771 -5.517382,-5.0862 -0.119223,-2.92793 2.157709,-5.39815 5.085616,-5.51737 2.927906,-0.11922 5.398143,2.15771 5.517353,5.08562 0.08707,2.1379 -1.104138,4.03071 -2.89293,4.94377 l 0.876348,2.49471 c 0.528553,-0.0251 0.929426,-0.0473 1.12864,-0.0649 0.959058,-0.0849 1.364584,-0.48852 1.978174,-1.09873 0.41787,-0.41568 2.98934,-3.61154 4.917162,-6.03512 l -0.52333,-1.3191 -0.493882,0.0201 c -0.37547,0.0153 -0.69191,-0.27638 -0.70717,-0.6512 -0.0153,-0.37482 0.27641,-0.69125 0.65189,-0.70654 l 1.966982,-0.0801 c 0.37482,-0.0153 0.69125,0.27641 0.70651,0.65123 0.0152,0.37483 -0.2764,0.69125 -0.65122,0.70651 l -0.15811,0.006 0.19099,0.41109 2.54409,0.23086 c 0.51884,-2.99728 3.0697,-5.33255 6.23265,-5.46135 3.64094,-0.14825 6.71281,2.68326 6.8611,6.32487 0.14827,3.6416 -2.68323,6.71348 -6.32416,6.86173 -0.71428,0.0291 -1.40578,-0.0583 -2.05839,-0.24211 l -1.83247,4.22549 0.92963,2.06083 1.41021,-0.0574 c 0.39563,-0.0161 0.41297,0.30422 0.42905,0.69919 0.0161,0.39497 0.0248,0.71566 -0.37078,0.73176 l -4.59514,0.18711 c -0.39497,0.0161 -0.72852,-0.29137 -0.74461,-0.68634 -0.0161,-0.39497 0.29137,-0.72853 0.68634,-0.74462 l 1.64159,-0.0669 -3.45728,-7.6253 -8.582041,6.73782 0.629759,1.74038 c 0.0492,0.0947 0.3628,0.65053 0.97145,0.62575 l 1.71915,-0.0701 c 0.39497,-0.0161 0.41232,0.30424 0.4284,0.69922 0.0161,0.39563 0.0249,0.71631 -0.37011,0.73239 l -1.71914,0.0701 c -1.293656,0.0527 -2.079832,-0.90351 -2.340405,-1.47628 -0.0035,-0.008 -1.001923,-2.83016 -2.110367,-5.96364 -2.720736,0.11663 -6.800565,0.25424 -7.038122,0.26204 -0.365792,0.0126 -0.672227,-0.27407 -0.684697,-0.64047 -0.01243,-0.3658 0.275359,-0.67161 0.64051,-0.6853 z m 23.599928,-2.60657 1.54731,-3.5687 0.0942,-0.22336 -4.25347,-0.38694 c 0.11147,1.80489 1.13965,3.34373 2.61189,4.179 z m 2.33793,-9.66758 c -2.43833,0.0993 -4.41167,1.87095 -4.86313,4.16473 l 5.09863,0.4632 c 0.0189,-0.002 0.0364,-0.006 0.056,-0.007 0.24665,-0.0106 0.48015,0.10771 0.61991,0.31049 0.1391,0.20286 0.16443,0.46416 0.0661,0.69016 l -1.98278,4.57283 c 0.45638,0.11042 0.93422,0.16136 1.42624,0.14132 2.85405,-0.11616 5.07362,-2.52422 4.95738,-5.37886 -0.11616,-2.85404 -2.52418,-5.07295 -5.37823,-4.95673 z m -6.3836,5.3585 -1.80512,-0.16423 0.54904,1.1835 0.69761,1.54437 0.39443,-0.0149 c 0.37487,-0.0141 0.6895,0.26419 0.70287,0.62201 0.0122,0.31563 -0.21578,0.58725 -0.52727,0.65619 l 2.16429,4.79476 1.29964,-2.99853 c -1.98745,-1.06809 -3.37567,-3.128 -3.47414,-5.54618 -0.001,-0.0256 -9.1e-4,-0.0513 -0.001,-0.077 z m -10.211754,7.86226 c -0.157825,0.0135 -0.431653,0.0305 -0.787397,0.0493 l 0.806581,2.29762 c 0,0 7.92995,-6.32298 7.92687,-6.30816 -0.28947,-0.0652 -0.50907,-0.30766 -0.52058,-0.60501 -0.0134,-0.3578 0.27952,-0.65899 0.65438,-0.67307 l 0.028,-0.001 -0.44893,-0.99374 -0.3169,-0.79919 c -1.489972,1.86951 -4.052942,5.06439 -4.545432,5.55407 -0.6682,0.66499 -1.35933,1.35234 -2.796679,1.47936 z m -4.371698,-4.58186 c 0.147138,-0.006 0.292107,-0.0214 0.434316,-0.0427 -0.727708,-2.05742 -1.268819,-3.58738 -1.268819,-3.58738 -0.134371,-0.37122 0.05802,-0.78202 0.430423,-0.91704 0.37182,-0.1344 0.782651,0.0585 0.917023,0.42983 l 1.265191,3.60406 c 1.220116,-0.70156 2.021087,-2.04096 1.959961,-3.54214 -0.08748,-2.14835 -1.906476,-3.82501 -4.055414,-3.7375 -2.148342,0.0875 -3.824999,1.90648 -3.737521,4.05481 0.08751,2.14895 1.906498,3.8256 4.05484,3.73813 z"
       id="path994"
       style="stroke-width:0.0610996" />
    <path
       path-name="n"
       unicode="ñ"
       horiz-adv-x="747"
       d="m 131.24799,194.8149 c -2.14144,1.38858 -5.01387,0.77594 -6.40276,-1.36601 -0.0829,-0.12792 -0.1576,-0.25913 -0.22643,-0.39201 l 7.72882,-5.01168 c 0.0932,0.11714 0.18208,0.23906 0.26502,0.36699 1.38889,2.14191 0.77681,5.01406 -1.36465,6.40264 z m 9.08245,1.17835 -12.59804,8.16928 -5.99123,-9.23945 1.16105,-0.75286 c 0.0733,0.13134 0.14368,0.26329 0.22694,0.39168 2.00215,3.08763 6.14334,3.97122 9.23144,1.96875 3.08811,-2.00244 3.97093,-6.14381 1.96875,-9.23145 -0.0833,-0.12838 -0.17503,-0.2464 -0.26501,-0.36698 l 0.11954,-0.16007 5.78662,-3.75226 -1.29177,-0.99954 -0.39841,0.25835 c -0.30224,0.19598 -0.70677,0.11016 -0.90311,-0.19223 -0.19598,-0.30224 -0.10933,-0.70656 0.19317,-0.9025 l 1.58629,-1.02862 c 0.30225,-0.19598 0.70623,-0.10982 0.90228,0.19205 0.1963,0.30272 0.11017,0.7067 -0.19218,0.90268 l -0.12745,0.0826 1.37619,0.94479 1.55799,-1.01025 c -1.54872,-2.87607 -0.65548,-6.50615 2.13335,-8.31454 2.93624,-1.90396 6.86058,-1.06702 8.76455,1.8692 1.90398,2.93623 1.06675,6.86014 -1.86951,8.7641 -1.08438,0.70315 -2.30348,1.03176 -3.50575,1.01936 l -0.35259,2.37719 1.05566,0.74133 1.52123,1.06784 1.77601,1.24795 1.1376,-0.73765 c 0.31882,-0.20676 0.49014,0.0495 0.69694,0.36782 0.20642,0.31831 0.37031,0.57959 0.0514,0.78635 l -3.70523,2.40262 c -0.31883,0.20674 -0.74538,0.11574 -0.95172,-0.20279 -0.20674,-0.31883 -0.1155,-0.74491 0.20377,-0.95155 l 1.32364,-0.8583 -1.16621,-0.81879 -1.21421,-0.85215 -1.38136,-0.96989 -6.65781,6.00665 c 1.25772,1.75675 2.3806,2.29155 2.3806,2.29155 0.087,0.0538 0.61796,0.3594 1.10862,0.0413 l 1.38609,-0.89879 c 0.31883,-0.20677 0.49004,0.0498 0.69681,0.36861 0.2064,0.3183 0.37085,0.57922 0.0519,0.78603 l -1.38608,0.8988 c -1.04337,0.67656 -2.09058,0.41243 -2.65637,-0.0751 -0.10772,-0.10841 -1.01214,-1.0026 -1.78388,-1.63127 z m 6.72512,-12.90492 0.49613,-3.3442 -2.9368,1.90433 c 0.66952,0.7234 1.52326,1.21221 2.4407,1.43986 z m -1.50324,-8.98584 c -2.15411,1.39681 -2.8666,4.17931 -1.72622,6.41716 l 4.21201,-2.73125 c 0.19874,-0.12885 0.44977,-0.14603 0.66462,-0.0468 0.0172,0.009 0.0308,0.0209 0.0482,0.0305 0.0272,0.0141 0.0519,0.0309 0.0766,0.0488 0.0235,0.0181 0.0432,0.0379 0.0643,0.0583 0.156,0.14647 0.24901,0.35522 0.2156,0.58285 l -0.70781,4.77274 c 0.87998,-0.0247 1.76437,-0.28339 2.55727,-0.79753 2.30155,-1.49242 2.95709,-4.56816 1.46466,-6.86972 -1.49241,-2.30154 -4.56767,-2.95741 -6.86923,-1.46496 z m -2.0999,8.29969 -1.10827,0.71873 1.3316,0.93482 0.31856,-0.20496 c 0.30381,-0.19464 0.69977,-0.11875 0.88562,0.16982 0.16415,0.25559 0.10921,0.59082 -0.11482,0.80053 l 1.84179,1.29275 0.24717,-1.66593 c -1.29351,-0.29309 -2.49498,-0.98987 -3.40157,-2.04569 z m -2.33457,1.48331 -5.17229,3.35313 c 0.0787,0.08 0.15034,0.16881 0.21337,0.266 l 3.61423,5.57372 6.28374,-5.66906 -2.53063,-1.77746 -0.44783,0.28802 c -0.30345,0.19519 -0.6994,0.11931 -0.88527,-0.16948 -0.18599,-0.28928 -0.0916,-0.6813 0.21134,-0.87632 l 0.0225,-0.0145 z m -8.94087,12.36196 c -2.93624,1.90397 -6.86058,1.06703 -8.76455,-1.8692 -1.90431,-2.93677 -1.06706,-6.86063 1.86921,-8.76458 2.93621,-1.90397 6.86027,-1.06751 8.76458,1.8693 1.90397,2.93626 1.06701,6.86057 -1.8692,8.76454 z m -6.14985,-9.48407 c -2.30152,1.49242 -2.95786,4.56799 -1.46543,6.86955 1.49241,2.30153 4.56847,2.95755 6.87003,1.46512 2.30154,-1.49241 2.95708,-4.56815 1.46465,-6.86969 -1.49242,-2.30156 -4.56816,-2.9571 -6.86924,-1.46497 z"
       id="path1003"
       style="stroke-width:0.0581901" />
    <path
       path-name="numbersign"
       unicode="#"
       horiz-adv-x="652"
       d="m 33.703098,128.73571 c -0.139191,0.0222 -0.278907,0.0424 -0.4183,0.0636 -0.182258,0.0275 -0.363944,0.0589 -0.546739,0.083 -0.253904,0.0333 -0.296896,-10e-4 -0.344293,-0.26004 -0.0091,-0.0535 -0.01942,-0.10697 -0.02383,-0.16073 -0.01478,-0.19688 0.021,-0.2586 0.215729,-0.29226 0.395331,-0.0682 0.792281,-0.12851 1.190075,-0.18072 0.177905,-0.0239 0.22087,0.0218 0.265217,0.20604 0.005,0.0209 0.0065,0.0431 0.01035,0.0644 0.0706,0.38659 0.04904,0.41618 -0.348409,0.47752 z m 4.349909,-11.55831 c 1.39382,-0.9999 2.966901,-1.48911 4.687403,-1.50868 3.568042,-0.0412 6.868766,2.30633 7.910709,5.86136 0.601648,2.0531 0.435511,4.06009 -0.519846,5.98018 -0.953858,1.91715 -2.460826,3.24562 -4.461352,4.04087 0.01883,0.0736 0.03147,0.12325 0.04365,0.17319 0.01318,0.0522 0.02579,0.10488 0.03825,0.15606 -2.217567,1.02921 -6.891124,1.02889 -9.93016,-2.96009 -0.598465,0.28487 -1.202896,0.57247 -1.866987,0.88864 0.145788,0.075 0.235356,0.1255 0.328249,0.16861 3.284492,1.52455 6.56937,3.04827 9.853855,4.57296 0.19773,0.0917 0.390426,0.1948 0.588548,0.28575 0.562275,0.25784 1.011721,0.63757 1.301546,1.21235 0.802769,-0.0505 1.471334,0.22733 1.988686,0.86314 0.543156,-0.29472 1.066789,-0.57892 1.596596,-0.86639 -0.05556,-0.1999 -0.108879,-0.37527 -0.153556,-0.55289 -0.04903,-0.19511 -0.0216,-0.24082 0.170015,-0.31393 0.05113,-0.0189 0.102095,-0.0389 0.15456,-0.054 0.212319,-0.0614 0.273676,-0.0397 0.344564,0.17052 0.125308,0.37188 0.235274,0.74897 0.350316,1.1242 0.05147,0.16681 0.09778,0.33493 0.148503,0.50189 0.0477,0.15685 -0.01678,0.25173 -0.163197,0.30261 -0.0414,0.0142 -0.0835,0.0258 -0.125454,0.0377 -0.280766,0.0753 -0.337416,0.0436 -0.423938,-0.23881 -0.03197,-0.10334 -0.06143,-0.2074 -0.104367,-0.3505 -0.517323,0.24139 -0.985275,0.52857 -1.468546,0.77611 0.194028,1.04611 0.05255,2.08069 0.0813,3.11114 0.0041,0.15097 0.005,0.30179 0.0072,0.44549 4.436535,1.0581 6.935389,5.25175 6.300917,9.27194 -0.22398,1.42006 -0.77686,2.69573 -1.666113,3.82535 -0.882268,1.12082 -1.982893,1.95411 -3.300581,2.49932 -1.327065,0.54891 -2.708958,0.72138 -4.147523,0.56945 -0.03101,0.13094 -0.05737,0.24275 -0.08917,0.377 -1.158778,-0.14337 -2.226212,-0.52062 -3.226504,-1.09796 -1.004312,-0.57964 -1.846207,-1.34591 -2.57247,-2.28681 -0.246692,0.16546 -0.472802,0.33049 -0.712175,0.47361 -0.222446,0.13306 -0.447507,0.28159 -0.692064,0.35373 -0.442244,0.13034 -0.81609,-0.0139 -1.083543,-0.40076 -0.02314,-0.0334 -0.04304,-0.069 -0.104472,-0.0914 0.04625,0.47298 0.09234,0.94586 0.139061,1.41878 0.03646,0.36888 0.07326,0.73769 0.111282,1.10643 0.03102,0.30091 0.002,0.35861 -0.289272,0.45579 -0.52736,0.17616 -1.057357,0.34422 -1.586762,0.514 -0.871977,0.27974 -1.744021,0.55899 -2.616468,0.83711 -0.244234,0.0775 -0.290852,0.0507 -0.313573,-0.19766 -0.13122,-1.43315 -0.258959,-2.8666 -0.389898,-4.29973 -0.07639,-0.83606 -0.158433,-1.67162 -0.234611,-2.50768 -0.05526,-0.608 -0.09891,-1.21721 -0.161642,-1.82447 -0.02107,-0.20296 0.04256,-0.36013 0.162263,-0.5118 0.540546,-0.68509 1.082647,-1.36916 1.615362,-2.06033 0.130642,-0.16958 0.283458,-0.2221 0.484146,-0.19274 0.690003,0.10106 1.380761,0.19767 2.07044,0.30106 0.105058,0.016 0.206273,0.0587 0.336154,0.0973 0.394699,-1.20276 0.793349,-2.4175 1.196887,-3.64734 -0.401723,-0.24692 -0.788465,-0.49052 -1.182832,-0.72118 -0.06334,-0.037 -0.173882,-0.0469 -0.240281,-0.0178 -0.757613,0.33047 -1.51111,0.67103 -2.243954,0.99918 -0.0053,0.44455 0.0088,0.85701 -0.02182,1.26598 -0.01929,0.2573 -0.08691,0.51582 -0.167267,0.76255 -0.09001,0.27632 -0.272211,0.49108 -0.535155,0.63481 -0.508681,0.2781 -0.997892,0.15565 -1.290558,-0.34257 -0.222817,-0.37943 -0.279634,-0.79637 -0.249686,-1.23059 0.03376,-0.49042 0.05228,-0.98202 -0.05956,-1.46603 -0.07379,-0.31857 -0.179727,-0.63041 -0.239062,-0.95122 -0.06158,-0.32997 -0.106522,-0.66644 -0.117489,-1.0014 -0.0095,-0.28321 0.125693,-0.52744 0.345488,-0.71293 0.10865,-0.0918 0.226452,-0.17282 0.393917,-0.14101 0.107009,0.30372 0.199007,0.61764 0.327822,0.9157 0.142261,0.32889 0.30336,0.65175 0.484932,0.96052 0.108853,0.18503 0.271621,0.33842 0.411633,0.50466 0.146125,0.17355 0.304486,0.1976 0.517409,0.094 0.479683,-0.23375 0.971472,-0.44261 1.458374,-0.66146 2.821794,-1.26898 5.643658,-2.53801 8.465411,-3.80713 0.02938,-0.0137 0.05806,-0.0284 0.117897,-0.0576 0.08417,-1.01085 -0.139539,-1.93813 -0.633504,-2.804 -0.08097,-0.14166 -0.17575,-0.27562 -0.268653,-0.40999 -0.26636,-0.38544 -0.610312,-0.64675 -1.057319,-0.82748 -3.244193,-1.31224 -6.480751,-2.64333 -9.714254,-3.98138 -0.280144,-0.11585 -0.500669,-0.10363 -0.765934,0.0266 -1.10445,0.54277 -2.218316,1.06654 -3.329018,1.59683 -0.03835,0.0191 -0.07933,0.0318 -0.142353,0.0558 -0.370028,-0.33061 -0.738179,-0.66943 -1.117764,-0.99484 -0.188954,-0.16205 -0.386174,-0.32258 -0.602654,-0.44224 -0.256085,-0.14173 -0.402619,-0.0493 -0.395799,0.24424 0.0046,0.19191 0.04795,0.39108 0.114762,0.57185 0.378013,1.02186 0.768304,2.03918 1.153309,3.05857 0.01127,0.0293 0.01011,0.0632 0.01999,0.13123 -0.198533,0.0796 -0.405558,0.1626 -0.62807,0.25194 -0.03428,-0.0603 -0.06586,-0.1017 -0.08327,-0.14836 -0.422184,-1.12247 -0.847243,-2.2438 -1.260998,-3.3692 -0.138862,-0.37755 -0.104941,-0.75487 0.106533,-1.10194 0.215885,-0.35422 0.539856,-0.48947 0.950883,-0.41499 0.332386,0.0599 0.612022,0.22442 0.861706,0.44392 0.335172,0.29463 0.667591,0.59235 1.016836,0.90268 2.445134,-1.16463 4.88131,-2.32517 7.355041,-3.50343 -0.462286,-0.84526 -0.836234,-1.709 -1.022644,-2.64325 -0.184347,-0.92415 -0.253422,-1.8519 -0.130147,-2.80607 0.132989,0.002 0.248504,0.004 0.384121,0.007 0.352375,-2.3728 1.465179,-4.28563 3.407033,-5.67857 z m -0.283909,36.73487 c 0.04946,0.39611 0.255627,0.49553 0.583965,0.28713 0.320306,-0.20316 0.629197,-0.42455 0.945016,-0.63943 -1.600342,-2.8666 -1.696071,-5.75684 -0.201245,-8.69727 -0.255396,-0.15642 -0.504051,-0.30869 -0.764416,-0.46797 -0.03732,0.0502 -0.05569,0.0655 -0.06188,0.0846 -0.349992,1.0648 -0.700788,2.12933 -1.045119,3.19596 -0.0323,0.0998 -0.03926,0.21463 -0.02948,0.31987 0.136077,1.46344 0.276583,2.92651 0.417306,4.38955 0.04901,0.50948 0.09277,1.01964 0.155996,1.52749 z m 5.768346,-6.34062 c -1.272119,0.73487 -2.611318,1.29327 -4.053946,1.63573 0.04683,1.25957 0.368004,2.4159 1.039347,3.5219 1.536198,-1.04281 3.037894,-2.06224 4.542251,-3.0834 -0.02593,-0.34065 -0.05271,-0.66565 -0.07444,-0.99088 -0.0092,-0.13888 -0.05699,-0.23879 -0.186395,-0.31482 -0.422893,-0.2471 -0.838144,-0.50711 -1.266796,-0.76855 z m 10.216945,0.83338 c -0.314412,-3.45886 -2.937816,-5.74144 -5.328253,-6.26426 -0.0071,0.0639 -0.02008,0.12517 -0.02046,0.18673 -0.01906,2.36523 -0.03615,4.73049 -0.05579,7.09583 -0.0057,0.68353 -0.407732,1.25788 -1.052737,1.51726 -0.605364,0.24357 -1.310956,0.0887 -1.776844,-0.39084 -0.05983,-0.0618 -0.116776,-0.12643 -0.185018,-0.20044 -1.465109,0.99535 -2.922447,1.98523 -4.380384,2.97555 1.494626,2.10292 4.621407,3.55941 7.871971,2.50399 3.18424,-1.0338 5.226224,-4.1387 4.927573,-7.42385 z m -8.858451,-0.86961 c -0.164998,-1.80272 -0.290619,-3.53676 -0.468033,-5.28919 -0.125309,0.0377 -0.20557,0.0625 -0.312169,0.0944 0.109733,1.55844 0.0019,3.07511 -0.213663,4.58848 0.178337,0.10969 0.335041,0.2072 0.492444,0.30327 0.15026,0.0917 0.301145,0.18201 0.501421,0.30307 z m -0.590625,-6.78612 c -0.03056,-0.37329 -0.05917,-0.72392 -0.08988,-1.09922 -2.359308,1.06096 -4.676239,2.10265 -7.047814,3.16909 0.794732,0.48642 1.54383,0.94482 2.325568,1.42318 0.584005,-0.86059 1.277964,-1.57813 2.09336,-2.17338 0.822092,-0.60008 1.732756,-1.02879 2.718737,-1.31968 z m -0.400747,-4.89344 c -0.01848,-0.01 -0.03673,-0.0202 -0.05524,-0.0292 0.01173,0.0208 0.02113,0.0426 0.03201,0.0637 0.167441,0.3985 0.335091,0.797 0.506591,1.20478 0.141311,-0.16979 0.284115,-0.34122 0.442954,-0.53219 -0.286789,-0.28063 -0.559682,-0.55259 -0.926387,-0.70699 z m 4.446336,-16.47992 c -2.521279,-3.11361 -7.075894,-3.56964 -10.136915,-0.98947 -3.206838,2.70313 -3.070902,6.93459 -1.441809,9.25692 0.0822,-0.0364 0.170052,-0.0734 0.256131,-0.11426 0.511639,-0.24246 1.017732,-0.49755 1.5352,-0.72684 1.42239,-0.63053 2.609028,-1.56746 3.614036,-2.74521 0.111047,-0.13006 0.218049,-0.26378 0.341313,-0.4134 0.19599,0.14759 0.36837,0.27741 0.608982,0.45862 -0.09799,0.10355 -0.17851,0.17897 -0.247939,0.26336 -0.888257,1.0805 -1.914058,2.00355 -3.151373,2.66479 -0.758149,0.40514 -1.544669,0.75682 -2.317688,1.13403 -0.07337,0.0359 -0.142049,0.082 -0.215828,0.12492 2.436508,3.07625 6.919817,3.65589 10.042516,1.16576 3.107735,-2.47819 3.622815,-6.98036 1.113392,-10.07921 z"
       id="path1012"
       style="stroke-width:0.0758663" />
    <path
       path-name="s"
       unicode="s"
       horiz-adv-x="925"
       d="m 75.629222,79.156671 c 2.719324,-2.324656 6.852146,-2.029105 9.230777,0.659109 2.379056,2.688666 2.103262,6.75224 -0.616046,9.07689 -2.718822,2.324227 -6.851309,2.029128 -9.230347,-0.659555 -1.757679,-1.98643 -2.064934,-4.722697 -1.009111,-6.954533 l -1.710426,-1.030841 -0.748844,11.020784 1.913866,1.076962 0.369236,-0.315646 c 0.279893,-0.239279 0.705573,-0.208905 0.950447,0.06781 0.244896,0.276715 0.216473,0.695313 -0.06343,0.934604 l -1.468823,1.255631 c -0.279876,0.239255 -0.705549,0.2089 -0.950435,-0.0678 -0.244885,-0.276703 -0.216451,-0.695314 0.06343,-0.934593 l 0.117553,-0.10065 -1.545512,-0.758558 -1.427814,1.220601 c 2.006237,2.677285 1.629717,6.453294 -0.952813,8.661034 -2.718819,2.3242 -6.851804,2.02955 -9.230854,-0.65914 -2.378634,-2.688208 -2.102771,-6.752669 0.616042,-9.076906 0.533376,-0.455953 1.121601,-0.809214 1.739772,-1.065293 l -1.212906,-4.337099 -1.999297,-1.007965 -1.053054,0.900224 c -0.295425,0.25255 -0.508076,0.01956 -0.766523,-0.272671 -0.258046,-0.291615 -0.463611,-0.531517 -0.168376,-0.783934 l 3.431359,-2.933342 c 0.294934,-0.252127 0.74366,-0.220084 1.001685,0.07156 0.258501,0.292053 0.228121,0.732902 -0.06682,0.985028 l -1.226315,1.048348 1.312971,0.661292 8.534437,-7.295802 -1.56849,-0.945548 c -0.0968,-0.04236 -0.684656,-0.276056 -1.139149,0.112452 l -1.283752,1.097437 c -0.294935,0.252127 -0.507526,0.01826 -0.765548,-0.273411 -0.258043,-0.291618 -0.464529,-0.5315 -0.169672,-0.783576 l 1.283758,-1.097438 c 0.966004,-0.825816 2.167595,-0.573626 2.724962,-0.294819 0.01769,0.01072 1.506802,0.906503 3.423108,2.061424 0.01588,0.0073 0.02931,0.01766 0.04406,0.02652 0.855645,0.515449 1.794194,1.081174 2.724851,1.642497 l 4.56e-4,5.14e-4 c 0.260055,-0.333176 0.556949,-0.645575 0.89156,-0.931624 z m -12.216471,13.301357 1.0247,3.662807 3.026104,-2.586926 c -1.155411,-0.926576 -2.637317,-1.294636 -4.050804,-1.075881 z m 4.207392,8.797192 c 1.994013,-1.704601 2.311379,-4.603573 0.815569,-6.695883 l -3.914612,3.34646 c -0.184194,0.157456 -0.437253,0.209906 -0.671648,0.139702 -0.23401,-0.07003 -0.415655,-0.254259 -0.480642,-0.486111 l -1.312361,-4.693865 c -0.420634,0.193303 -0.821179,0.444719 -1.188596,0.758809 -2.131658,1.822269 -2.347366,5.007196 -0.482809,7.114438 1.86454,2.1072 5.103929,2.33851 7.235139,0.51663 z m 0.919748,-8.641352 1.011531,-0.86482 -1.498525,-0.755183 -0.295445,0.250691 c -0.280843,0.238172 -0.696621,0.217107 -0.92946,-0.04782 -0.205665,-0.233493 -0.199051,-0.578785 -7.95e-4,-0.820961 l -4.65256,-2.344336 0.860812,3.077687 c 1.924782,-0.343151 3.965583,0.1733 5.504458,1.504403 z m 1.63457,-2.117076 0.751871,-11.072483 -0.189688,-0.11491 -8.441877,7.21665 5.678154,2.861748 0.415386,-0.352257 c 0.280828,-0.238196 0.697054,-0.217548 0.929893,0.04734 0.232207,0.264592 0.193576,0.672113 -0.08709,0.910515 l -0.02096,0.01794 z m 13.138588,-2.656984 c 2.131222,-1.821907 2.347374,-5.007214 0.482823,-7.11442 -1.86455,-2.107219 -5.103925,-2.338519 -7.235141,-0.516626 -0.222915,0.19055 -0.423244,0.39673 -0.603762,0.613542 l 4.58e-4,5.1e-4 c 2.404287,1.449437 4.177583,2.572982 4.177583,2.572982 0.334954,0.202153 0.441503,0.631984 0.237975,0.961164 -0.203466,0.328368 -0.640316,0.431002 -0.974911,0.229341 l -4.175026,-2.572836 -0.0011,-4.92e-4 c -0.749862,1.722517 -0.484735,3.794897 0.856146,5.310284 1.864546,2.107217 5.103931,2.338537 7.235153,0.51663 z M 50.432097,104.04709 c 2.18638,-1.86909 5.509916,-1.63215 7.422717,0.52962 1.912803,2.16174 1.691022,5.4294 -0.495785,7.29884 -2.186395,1.86907 -5.509483,1.63178 -7.422276,-0.52999 -1.91281,-2.16173 -1.691023,-5.42942 0.495344,-7.29847 z m 6.008845,6.7909 c 1.604694,-1.37181 1.768005,-3.77799 0.364493,-5.36418 -1.403902,-1.58662 -3.850923,-1.76134 -5.455622,-0.38955 -1.604247,1.3714 -1.767553,3.77763 -0.36365,5.3642 1.403509,1.58621 3.850541,1.76094 5.454779,0.38953 z M 63.03466,97.647708 c 0.09664,0.348084 0.363873,0.618531 0.715629,0.724715 0.05775,0.01908 0.117722,0.02939 0.177162,0.03513 l -2.907091,2.485197 c -0.130683,-0.11792 -0.255795,-0.24289 -0.374655,-0.37724 -0.19866,-0.22446 -0.370154,-0.46267 -0.51871,-0.710193 l 2.833291,-2.422065 z m -4.79359,3.770312 0.280837,-0.24006 c 0.162816,0.23926 0.340334,0.47143 0.537365,0.69416 0.118454,0.13383 0.242119,0.26009 0.368235,0.38265 l -0.253934,0.21707 1.150628,1.30038 -1.618363,1.38347 c -0.170041,-0.27903 -0.365167,-0.54842 -0.589699,-0.8022 -2.036044,-2.30101 -5.585659,-2.55447 -7.912461,-0.56536 -2.327232,1.98944 -2.564132,5.47991 -0.528084,7.78091 0.224572,0.25371 0.468905,0.48104 0.726907,0.68488 l -1.618819,1.38388 -5.464419,-6.17562 11.54047,-9.865558 3.381329,3.821408 z m -6.662659,3.92466 c 1.460634,-1.24862 3.687922,-1.08955 4.965789,0.35463 0.22857,0.25827 0.410774,0.54111 0.549125,0.83772 l -5.077996,4.34101 c -0.279654,-0.17586 -0.539346,-0.3924 -0.767917,-0.65068 -1.277864,-1.44416 -1.129216,-3.63435 0.330954,-4.88261 z"
       id="path1021"
       style="stroke-width:0.0600759"
       inkscape:transform-center-x="-1.7714219"
       inkscape:transform-center-y="-0.23184841" />
    <path
       path-name="z"
       unicode="z"
       horiz-adv-x="933"
       d="m 164.41303,164.38572 c -0.23092,2.98258 -2.83607,5.21311 -5.81863,4.98222 -2.98259,-0.23094 -5.21331,-2.83597 -4.98241,-5.81855 0.23094,-2.98257 2.83596,-5.21328 5.81854,-4.98239 2.19962,0.17032 3.98836,1.63196 4.685,3.58338 l 1.98579,-0.43748 -5.52071,-4.51391 c -0.1586,-0.1493 -0.24041,-0.36147 -0.22367,-0.57791 l 1.71252,-22.1218 -1.67863,0.44557 -0.0391,0.50371 c -0.03,0.38179 -0.36326,0.66757 -0.74509,0.63801 -0.38184,-0.029 -0.66756,-0.36328 -0.63799,-0.74508 l 0.15519,-2.00438 c 0.03,-0.38179 0.36327,-0.66757 0.74507,-0.63801 0.38185,0.029 0.66758,0.36327 0.63802,0.74509 l -0.013,0.16104 1.68692,-0.55259 0.15232,-1.96761 c -3.42906,-0.54889 -5.91883,-3.64635 -5.64611,-7.16934 0.28711,-3.70892 3.5267,-6.48295 7.23629,-6.19577 3.70959,0.28716 6.48362,3.52674 6.19645,7.23633 -0.10606,1.36936 -0.6157,2.6112 -1.40253,3.61884 l 1.78006,1.83197 1.30824,-0.41295 1.88355,-0.59552 2.20092,-0.69485 0.11125,-1.43654 c 0.0314,-0.40299 0.35745,-0.38275 0.75981,-0.35161 0.40299,0.0314 0.72912,0.0615 0.69792,0.46447 l -0.36233,4.68093 c -0.0315,0.40232 -0.38353,0.70351 -0.78587,0.67237 -0.40232,-0.0315 -0.70295,-0.38288 -0.6718,-0.78522 l 0.12953,-1.67291 -1.4449,0.45681 -1.50328,0.47547 -1.71098,0.54071 0.77553,9.50126 c 2.2961,0.0715 3.47204,-0.53201 3.47204,-0.53201 0.10183,-0.0384 0.70248,-0.2897 0.75048,-0.90971 l 0.1356,-1.75125 c 0.0315,-0.40233 0.35858,-0.38139 0.76092,-0.35025 0.40235,0.0315 0.72911,0.0609 0.69796,0.4632 l -0.13561,1.75124 c -0.10203,1.31781 -1.00126,2.03211 -1.77838,2.19531 -0.26412,0.0339 -2.12392,0.57383 -4.26668,0.56623 l -8.23566,-0.63754 c -0.19406,-0.0143 -0.37031,0.13643 -0.38531,0.3305 l -1.05687,13.65233 c 0.0208,0.56405 1.00932,1.24181 1.87395,1.94499 l 4.33018,3.60032 c 0.28735,0.27188 0.33606,0.80683 0.064,1.09667 -0.0743,0.0788 -0.16559,0.12664 -0.26354,0.15542 -0.93021,0.2161 -2.17734,0.49582 -3.43247,0.77283 0.0173,0.25914 0.0172,0.52187 -0.003,0.78805 z m 2.28723,-35.8267 -2.50436,-2.57751 -0.28717,3.70959 c 1.04365,-0.0988 2.00722,-0.50399 2.79154,-1.13208 z m -8.56052,-4.53026 c -0.21064,2.72076 1.68014,5.11863 4.30678,5.59976 l 0.4118,-5.32026 c 0.0198,-0.25121 0.16624,-0.47448 0.3893,-0.59174 0.0182,-0.01 0.0377,-0.0132 0.0566,-0.0209 0.0297,-0.0144 0.0593,-0.0246 0.0909,-0.0342 0.0301,-0.008 0.0603,-0.013 0.0908,-0.0155 0.22437,-0.0377 0.46083,0.0188 0.63122,0.19401 l 3.57468,3.67882 c 0.54732,-0.75902 0.89901,-1.67333 0.97653,-2.67456 0.22508,-2.90732 -1.94945,-5.44677 -4.85678,-5.67182 -2.90733,-0.22508 -5.44677,1.94947 -5.67185,4.85677 z m 5.65528,7.13113 -0.10825,1.39924 1.64939,-0.52107 0.0324,-0.40164 c 0.031,-0.38172 0.3507,-0.66787 0.71505,-0.63845 0.32143,0.0262 0.56945,0.28932 0.60185,0.61405 l 2.28116,-0.72115 -1.24757,-1.28402 c -1.08218,0.90346 -2.4466,1.46847 -3.92395,1.55303 z m -0.25435,2.92883 -0.50578,6.53356 c 0.11813,-0.0157 0.2391,-0.0186 0.3623,-0.009 l 7.04102,0.54509 -0.73268,-8.96737 -3.13467,0.99041 -0.0461,0.56451 c -0.03,0.38177 -0.35067,0.66725 -0.71507,0.63844 -0.3637,-0.0288 -0.63384,-0.36249 -0.603,-0.74488 l 0.003,-0.0281 z m -8.49722,29.57129 c -0.16944,2.18847 1.47322,4.10744 3.66166,4.27684 2.18907,0.16945 4.10741,-1.47377 4.27682,-3.66222 0.009,-0.12252 0.0125,-0.24368 0.0107,-0.36452 -2.02052,0.44167 -3.73818,0.80975 -3.73818,0.80975 -0.3932,0.0912 -0.78584,-0.15278 -0.878,-0.54593 -0.0912,-0.39318 0.15343,-0.78639 0.5459,-0.87801 l 3.77434,-0.83271 c -0.5525,-1.34843 -1.82729,-2.34553 -3.37703,-2.4655 -2.18845,-0.16943 -4.10678,1.47381 -4.27621,3.66227 z"
       id="path1030"
       style="stroke-width:0.0623748"
       inkscape:transform-center-x="-5.5862389"
       inkscape:transform-center-y="-5.6449566" />
  </g>
</svg>
