<?xml version="1.0" encoding="UTF-8" standalone="no"?>
<!-- Created with Inkscape (http://www.inkscape.org/) -->

<svg
   width="210mm"
   height="297mm"
   viewBox="0 0 210 297"
   version="1.1"
   id="svg5"
   inkscape:version="1.1.1 (1:1.1+202109281949+c3084ef5ed)"
   sodipodi:docname="piltover-lantern.svg"
   xmlns:inkscape="http://www.inkscape.org/namespaces/inkscape"
   xmlns:sodipodi="http://sodipodi.sourceforge.net/DTD/sodipodi-0.dtd"
   xmlns="http://www.w3.org/2000/svg"
   xmlns:svg="http://www.w3.org/2000/svg">
  <sodipodi:namedview
     id="namedview7"
     pagecolor="#fff3a7"
     bordercolor="#ee00ee"
     borderopacity="1"
     inkscape:pageshadow="0"
     inkscape:pageopacity="1"
     inkscape:pagecheckerboard="false"
     inkscape:document-units="mm"
     showgrid="false"
     inkscape:zoom="0.46574172"
     inkscape:cx="-393.99519"
     inkscape:cy="338.17026"
     inkscape:current-layer="layer1"
     showguides="true"
     inkscape:guide-bbox="true"
     inkscape:snap-global="false"
     showborder="true"
     inkscape:snap-object-midpoints="true" />
  <defs
     id="defs2" />
  <g
     inkscape:label="Layer 1"
     inkscape:groupmode="layer"
     id="layer1">
    <g
       id="g19852"
       inkscape:transform-center-x="-32.992582"
       inkscape:transform-center-y="44.203635"
       transform="rotate(31.875168,6.9483018,478.19866)" />
    <g
       id="g21136"
       transform="matrix(0.76707727,-0.39536476,-0.39536476,-0.76707727,71.082465,296.88046)"
       inkscape:transform-center-x="-4.4093607"
       inkscape:transform-center-y="1.6282072" />
    <path
       id="path6576"
       style="fill:#000000;fill-opacity:0.991321;stroke-width:0.10151"
       d="m 99.615406,41.850625 -2.451384,10e-4 -41.262231,30.01485 -0.756532,2.332101 15.795203,48.518624 1.984373,1.43978 51.024595,-0.0295 1.98221,-1.44266 15.73989,-48.53658 -0.75868,-2.330665 z m -7.391458,19.603731 c 0.09244,0 1.644123,1.855922 1.71207,2.047595 0.02052,0.0579 -0.211536,0.36282 -0.515846,0.67822 -0.963256,0.998192 -1.465571,1.768369 -1.945575,2.981584 -0.956357,2.417345 -0.469697,5.390022 1.213467,7.414442 0.844788,1.016144 2.157991,2.007429 3.19066,2.408258 0.195209,0.07581 0.364332,0.141604 0.382211,0.155903 0.01429,0.0099 0.02577,7.750187 0.02442,17.200504 -0.0024,17.182428 -0.0024,17.181968 -0.750059,17.977148 -0.4717,0.50139 -0.893807,1.07841 -1.141625,1.5612 -0.44509,0.8671 -0.396071,0.84877 -1.615082,0.59416 -0.714975,-0.14923 -0.715012,-0.14915 -0.827655,-1.07983 -0.198432,-1.63682 -0.776779,-2.57028 -1.938395,-3.12959 -0.570507,-0.27495 -0.796355,-0.32812 -1.39164,-0.32618 -0.8814,0.003 -1.773106,0.38239 -2.55267,1.08774 -0.287226,0.26033 -0.589509,0.47275 -0.671756,0.47275 -0.179761,0 -2.51099,-1.61063 -2.51099,-1.73507 0,-0.0481 0.119188,-0.44264 0.265109,-0.87652 0.614996,-1.83003 0.01233,-3.44744 -1.60574,-4.31144 -0.371049,-0.2006 -0.587335,-0.23278 -1.451284,-0.23278 -0.83867,0 -1.117628,0.0422 -1.605741,0.24284 -0.503182,0.20741 -0.610489,0.22183 -0.724927,0.1013 -0.322616,-0.34029 -1.576212,-2.32891 -1.574124,-2.49519 0.0012,-0.10103 0.186746,-0.36671 0.410945,-0.58985 0.608914,-0.60681 1.044857,-1.56245 1.092056,-2.394606 0.04445,-0.78557 -0.08206,-1.25994 -0.521597,-1.957786 -0.571655,-0.907682 -1.620542,-1.446028 -3.030439,-1.554734 -0.438227,-0.03397 -0.796771,-0.069 -0.796771,-0.08335 0,-0.01197 -0.114182,-0.582051 -0.253606,-1.267351 -0.372367,-1.82835 -0.373723,-1.821733 0.347724,-2.157517 0.813037,-0.378226 1.657629,-1.16983 2.005207,-1.880193 0.226361,-0.46312 0.279862,-0.711925 0.278762,-1.288188 -0.0024,-1.335376 -0.793522,-2.463457 -2.193442,-3.130302 -0.680683,-0.324376 -0.68028,-0.324858 -0.681807,-0.78168 -0.0012,-0.463805 0.402849,-2.579038 0.513697,-2.68989 0.03346,-0.03318 0.374481,-0.07629 0.757961,-0.09771 1.759941,-0.09392 3.185592,-1.180249 3.493126,-2.66259 0.232895,-1.121813 0.01221,-1.85658 -0.926803,-3.090069 -0.270239,-0.355129 -0.493071,-0.731502 -0.495013,-0.835563 -0.0037,-0.170609 1.004496,-1.776772 1.500132,-2.391014 0.198457,-0.244617 0.198945,-0.244629 0.743599,-0.0072 0.812524,0.354377 2.020985,0.399925 2.883871,0.108491 0.362891,-0.122657 0.733586,-0.208987 0.824064,-0.19111 0.116014,0.02289 0.310184,0.505844 0.660986,1.643105 0.496294,1.610288 0.496807,1.610205 0.103435,2.131652 -2.805409,3.719315 -4.317422,8.761204 -3.975206,13.260503 0.243555,3.204382 1.035807,5.823036 2.604399,8.610668 1.659706,2.949484 4.305528,5.611954 7.222616,7.267154 0.944547,0.53604 1.429448,0.60486 1.684776,0.23997 0.137312,-0.19736 0.15795,-0.91191 0.158768,-5.71027 0.0011,-5.484301 0.0012,-5.484412 0.244997,-5.991906 0.134087,-0.279182 0.504,-0.78177 0.821915,-1.116478 1.032669,-1.08827 0.958347,-0.45235 0.960569,-8.181751 0.0024,-6.760483 0.0024,-6.760122 -0.598472,-7.282248 -0.782128,-0.680273 -1.533885,-1.471411 -2.048315,-2.156063 -0.5724,-0.761607 -1.365507,-2.421203 -1.621555,-3.39254 -0.274635,-1.043248 -0.377448,-3.37839 -0.198286,-4.497521 0.287213,-1.792804 1.074141,-3.587983 2.131649,-4.861057 0.583342,-0.702283 1.742393,-1.756621 1.930494,-1.756621 z m 12.714462,0.02372 h 7.2e-4 c 0.15106,-0.03013 1.28749,0.939599 1.81771,1.551142 2.30405,2.658007 3.05012,6.915986 1.80761,10.320589 -0.6942,1.902122 -2.08346,3.799382 -3.67848,5.024148 -0.27761,0.213376 -0.27745,0.21326 -0.28163,7.076769 -0.004,7.786821 -0.0901,7.031728 0.9261,8.153015 1.14298,1.261414 1.05467,0.672501 1.05467,7.049471 0,5.21571 0.011,5.55883 0.18466,5.7505 0.31617,0.3495 0.5501,0.33402 1.35067,-0.0877 3.84002,-2.02234 7.16373,-5.8264 8.81832,-10.093557 2.05521,-5.300175 1.77879,-11.01662 -0.77953,-16.124979 -0.50909,-1.016501 -1.39377,-2.454495 -1.92257,-3.125274 -0.16021,-0.203615 -0.2917,-0.450923 -0.2917,-0.549618 0,-0.09873 0.18314,-0.741125 0.40665,-1.427567 0.22338,-0.68644 0.4052,-1.309723 0.4052,-1.385179 0,-0.07546 0.0574,-0.214884 0.12722,-0.309653 0.11846,-0.16092 0.16393,-0.157144 0.68541,0.04311 0.31829,0.122303 0.9071,0.237938 1.37008,0.266548 0.69628,0.0447 0.91953,0.01478 1.56696,-0.210508 0.60495,-0.210622 0.78618,-0.238073 0.9074,-0.13938 0.22096,0.179835 1.53315,2.21442 1.60071,2.482258 0.0442,0.174757 -0.0601,0.356753 -0.44973,0.783115 -0.59391,0.649715 -0.88982,1.216285 -1.04824,2.006642 -0.10087,0.502063 -0.0882,0.658724 0.10917,1.314051 0.19715,0.655151 0.29877,0.817533 0.84993,1.354285 0.716,0.697246 1.48905,1.027039 2.59506,1.107855 0.35705,0.02611 0.68455,0.08357 0.72781,0.128604 0.0957,0.09901 0.60206,2.471284 0.60206,2.821369 0,0.204973 -0.11162,0.30255 -0.63441,0.554646 -1.40742,0.678864 -2.2064,1.726373 -2.28468,2.99308 -0.0866,1.399768 0.69446,2.593851 2.18913,3.346557 0.54041,0.272058 0.72996,0.420628 0.72996,0.57117 0,0.192826 -0.45024,2.384659 -0.56759,2.763174 -0.0421,0.135901 -0.16697,0.177897 -0.5302,0.178895 -0.60174,0.002 -1.63758,0.243996 -2.12807,0.49717 -0.82473,0.425679 -1.60045,1.567481 -1.71209,2.519618 -0.10832,0.924524 0.36667,2.124528 1.19768,3.026128 0.21455,0.23287 0.3901,0.46257 0.3901,0.5101 0,0.0474 -0.37176,0.64809 -0.82621,1.33417 -0.79014,1.19239 -1.00984,1.39415 -1.25945,1.15527 -0.1795,-0.17183 -1.19641,-0.41598 -1.73434,-0.41598 -1.64553,0 -2.91128,0.91039 -3.34584,2.40538 -0.13847,0.48233 -0.13722,0.61697 0.0209,1.47355 0.3465,1.87787 0.4005,1.68726 -0.68828,2.44634 -1.4335,0.99948 -1.39979,0.99103 -1.97144,0.48783 -1.06263,-0.93544 -2.20828,-1.34725 -3.17126,-1.14091 -1.0848,0.23262 -1.96597,0.88795 -2.43772,1.81266 -0.21012,0.41177 -0.40427,1.30667 -0.44543,2.05118 -0.0249,0.45101 -0.0249,0.4513 -0.83699,0.63153 -1.15401,0.25617 -1.12457,0.26382 -1.465,-0.39731 -0.42765,-0.83004 -0.635,-1.11187 -1.32195,-1.80403 -0.60741,-0.61199 -0.60673,-0.61256 -0.67751,-17.8349 -0.0707,-17.222373 -0.0711,-17.221801 0.51371,-17.4807 1.4683,-0.649393 3.09701,-2.111988 3.83008,-3.439957 1.3578,-2.460043 1.30037,-5.212737 -0.15951,-7.637164 -0.40502,-0.672565 -1.54964,-2.075613 -1.69339,-2.075613 -0.0507,0 -0.0927,-0.07983 -0.0927,-0.177456 0,-0.207376 1.45129,-2.083699 1.65028,-2.134527 z m -6.383443,2.948534 h 7.08e-4 c 0.926242,0.0016 1.874275,0.239454 2.684875,0.699775 0.70675,0.401365 1.84427,1.468276 1.84427,1.730036 0,0.14472 -0.26448,0.316874 -1.06764,0.694745 -0.58706,0.276136 -1.10406,0.502198 -1.14951,0.502198 -0.0451,0 -0.18601,-0.110531 -0.31253,-0.24571 -0.65064,-0.692521 -2.347983,-0.955211 -3.205752,-0.496453 -0.470198,0.251463 -0.974894,0.758435 -1.200535,1.207003 -0.08658,0.17204 -0.21189,0.704256 -0.278763,1.182576 -0.121631,0.869636 -0.121631,0.869595 -1.148084,1.337761 -0.564572,0.257504 -1.078672,0.468356 -1.142333,0.467713 -0.06363,-3.57e-4 -0.148559,-0.08126 -0.189677,-0.178895 -0.172946,-0.4181 -0.1738,-2.103105 -0.0012,-2.766766 0.480065,-1.845586 1.585322,-3.101096 3.345838,-3.801338 0.562752,-0.223777 1.186894,-0.333657 1.820573,-0.332645 z m 5.061503,3.705785 h 7.2e-4 c 0.0904,-1.73e-4 0.14406,0.03167 0.18966,0.08692 0.20055,0.241627 0.16605,2.19315 -0.0518,2.924825 -0.85194,2.862302 -3.40113,4.454422 -6.252703,3.904796 -0.811828,-0.156446 -2.116263,-0.879505 -2.812749,-1.559043 -0.351375,-0.343005 -0.63871,-0.678161 -0.63871,-0.745037 0,-0.133954 1.929858,-1.138749 2.186982,-1.138749 0.08866,0 0.309036,0.112717 0.489981,0.25074 0.936475,0.714477 2.031816,0.885449 2.983019,0.466276 0.95803,-0.422177 1.53902,-1.342458 1.62731,-2.577094 0.0497,-0.696059 0.0495,-0.696008 0.8219,-1.051816 0.8775,-0.404225 1.25731,-0.560749 1.4563,-0.561831 z m -4.820842,9.076945 c 0.870629,0.03229 0.867246,0.93246 0.804684,15.32965 -0.03871,8.44641 -0.06741,16.08814 -0.06753,16.98209 -2.81e-4,1.62506 -1.71e-4,1.62542 -0.872204,1.62442 -0.479577,-6.9e-4 -0.906837,-0.0231 -0.949787,-0.0517 -0.0425,-0.0279 -0.09647,-7.65693 -0.117845,-16.95263 -0.03993,-16.901679 -0.03945,-16.901755 1.017331,-16.930364 0.06582,-0.0018 0.127358,-0.0034 0.185353,-0.0013 z m -14.940951,0.589133 c 0.0795,0 0.251335,0.171588 0.382931,0.38078 0.498236,0.792648 0.495476,0.757542 0.107099,1.301838 -0.649787,0.910795 -1.737032,3.267587 -2.112257,4.578707 -0.582878,2.036691 -0.70617,2.903666 -0.708392,5.006185 -0.0012,1.551568 0.03749,2.078304 0.227753,3.031158 0.840453,4.21294 2.588158,7.126054 6.33533,10.559829 0.583659,0.53489 0.584099,0.53479 0.584099,1.23718 0,0.53975 -0.03358,0.70265 -0.144407,0.70265 -0.07938,0 -0.547451,-0.30142 -1.040326,-0.6696 -3.6257,-2.70922 -6.127763,-6.688217 -7.110546,-11.308462 -0.246377,-1.153203 -0.271558,-1.477021 -0.27516,-3.552755 -0.0061,-2.59639 0.145212,-3.675218 0.810411,-5.786426 0.645891,-2.049706 2.488789,-5.481084 2.943502,-5.481084 z m 29.458773,0.02155 c 0.005,-5.46e-4 0.0127,-7.88e-4 0.0159,0 0.25768,0.04892 1.29249,1.646917 1.99011,3.073544 2.11114,4.3175 2.41475,9.401858 0.84276,14.109716 -1.17824,3.528458 -3.48237,6.674137 -6.61842,9.034557 -0.76831,0.57815 -0.92565,0.64598 -0.99864,0.43107 -0.0818,-0.24099 0.006,-1.2289 0.13152,-1.46133 0.0686,-0.12827 0.38837,-0.44049 0.71126,-0.69403 3.02098,-2.373432 5.29465,-6.220841 6.06017,-10.253773 0.12944,-0.67978 0.17314,-1.459378 0.17314,-3.045526 0,-1.851777 -0.0311,-2.285108 -0.24139,-3.29914 -0.43219,-2.0854 -1.32658,-4.310676 -2.38671,-5.938021 -0.2545,-0.390816 -0.46455,-0.764373 -0.46556,-0.830532 -0.004,-0.240303 0.60326,-1.101504 0.78599,-1.126535 z" />
    <g
       id="g18817"
       transform="translate(-10.136512,31.052762)">
      <g
         id="g4522"
         transform="matrix(1.199784,4.726813e-4,-4.726813e-4,1.199784,-221.4502,-160.50398)">
        <g
           id="g4242"
           transform="translate(-15.604249,-82.236923)">
          <g
             id="g6811"
             transform="matrix(3.3767588,0,0,3.3767588,-86.349249,-588.55093)">
            <path
               style="fill:none;stroke:#000000;stroke-width:0.4;stroke-linecap:butt;stroke-linejoin:miter;stroke-miterlimit:4;stroke-dasharray:none;stroke-opacity:1"
               d="m 56.371375,258.40657 -0.02736,-26.82756"
               id="path1786"
               sodipodi:nodetypes="cc" />
            <path
               style="fill:none;stroke:#000000;stroke-width:0.264583px;stroke-linecap:butt;stroke-linejoin:miter;stroke-opacity:1"
               d="m 48.558128,236.47625 6.085889,-5.63704 4.383746,3.68126"
               id="path1794"
               sodipodi:nodetypes="ccc" />
            <path
               style="fill:none;stroke:#000000;stroke-width:0.264583px;stroke-linecap:butt;stroke-linejoin:miter;stroke-opacity:1"
               d="m 54.644017,230.83921 0.01716,-2.09054"
               id="path1796"
               sodipodi:nodetypes="cc" />
            <path
               id="path1798"
               style="fill:none;stroke:#000000;stroke-width:0.3;stroke-linecap:butt;stroke-linejoin:miter;stroke-miterlimit:4;stroke-dasharray:none;stroke-opacity:1"
               d="m 56.322743,249.48929 c 0.481076,-1.18425 0.41211,-2.40398 2.004558,-2.35514 m -7.873882,2.87808 c 4.504828,1.5633 5.403749,0.17073 5.869324,-0.52294"
               sodipodi:nodetypes="cccc" />
            <path
               style="fill:none;stroke:#000000;stroke-width:0.4;stroke-linecap:butt;stroke-linejoin:miter;stroke-miterlimit:4;stroke-dasharray:none;stroke-opacity:1"
               d="m 56.371375,258.40657 -0.02736,-29.77955"
               id="path6618"
               sodipodi:nodetypes="cc" />
            <path
               style="fill:none;stroke:#000000;stroke-width:0.313729px;stroke-linecap:butt;stroke-linejoin:miter;stroke-opacity:1"
               d="m 54.690337,250.70206 c 0,0 0.941456,0.49293 1.667496,1.44887"
               id="path6620"
               sodipodi:nodetypes="cc" />
            <path
               style="fill:none;stroke:#000000;stroke-width:0.264583px;stroke-linecap:butt;stroke-linejoin:miter;stroke-opacity:1"
               d="m 56.283962,246.67059 c 1.230388,-0.64688 1.30827,0.70409 2.043339,0.3946"
               id="path6628"
               sodipodi:nodetypes="cc" />
            <path
               style="fill:#000000;fill-opacity:1;stroke:#000000;stroke-width:0.1;stroke-linecap:butt;stroke-linejoin:miter;stroke-miterlimit:4;stroke-dasharray:none;stroke-opacity:1"
               d="m 56.354011,247.45702 c -0.04378,1.37221 -0.488001,0.51567 -0.788318,0.7319 -1.359752,0.97905 -1.250883,1.49021 -5.112274,1.82331 l -0.01322,-0.22106 c 2.171443,-0.43194 4.349415,-0.76491 5.843763,-3.12058 z"
               id="path6630"
               sodipodi:nodetypes="cscccc" />
          </g>
          <path
             style="fill:none;stroke:#000000;stroke-width:0.89343px;stroke-linecap:butt;stroke-linejoin:miter;stroke-opacity:1"
             d="M 112.97326,213.33624 V 285.8546"
             id="path11438" />
          <path
             id="path3008"
             style="fill:#000000;fill-opacity:1;stroke:#000000;stroke-width:0.89343px;stroke-linecap:butt;stroke-linejoin:miter;stroke-opacity:1"
             d="m 113.02243,283.79022 c -6.97883,-0.0543 -21.253688,-0.21526 -21.253688,-0.21526 l 2.869734,-2.92321 -5.768188,-0.008 -9.902359,-71.97329 13.203245,-24.86872 23.194436,0.11852 v -5.97719 m 0,1.3e-4 -26.826214,-0.1638 -15.646213,30.47854 11.42241,81.40953 28.759537,0.0232 -0.0527,-5.90031"
             sodipodi:nodetypes="cccccccccccccc" />
        </g>
        <g
           id="g4262"
           transform="matrix(-3.3767588,0,0,3.3767588,296.69153,-670.7878)">
          <path
             style="fill:none;stroke:#000000;stroke-width:0.4;stroke-linecap:butt;stroke-linejoin:miter;stroke-miterlimit:4;stroke-dasharray:none;stroke-opacity:1"
             d="m 56.371375,258.40657 -0.02736,-26.82756"
             id="path4244"
             sodipodi:nodetypes="cc" />
          <path
             style="fill:none;stroke:#000000;stroke-width:0.264583px;stroke-linecap:butt;stroke-linejoin:miter;stroke-opacity:1"
             d="m 48.796708,236.16249 5.847309,-5.32328 4.383746,3.68126"
             id="path4246"
             sodipodi:nodetypes="ccc" />
          <path
             style="fill:none;stroke:#000000;stroke-width:0.264583px;stroke-linecap:butt;stroke-linejoin:miter;stroke-opacity:1"
             d="m 54.644017,230.83921 0.01716,-2.09054"
             id="path4248"
             sodipodi:nodetypes="cc" />
          <path
             id="path4250"
             style="fill:none;stroke:#000000;stroke-width:0.3;stroke-linecap:butt;stroke-linejoin:miter;stroke-miterlimit:4;stroke-dasharray:none;stroke-opacity:1"
             d="m 56.322743,249.48929 c 0.481076,-1.18425 0.41211,-2.40398 2.004558,-2.35514 m -7.873882,2.87808 c 4.504828,1.5633 5.403749,0.17073 5.869324,-0.52294"
             sodipodi:nodetypes="cccc" />
          <path
             style="fill:none;stroke:#000000;stroke-width:0.4;stroke-linecap:butt;stroke-linejoin:miter;stroke-miterlimit:4;stroke-dasharray:none;stroke-opacity:1"
             d="m 56.371375,258.40657 -0.02736,-29.77955"
             id="path4254"
             sodipodi:nodetypes="cc" />
          <path
             style="fill:none;stroke:#000000;stroke-width:0.313729px;stroke-linecap:butt;stroke-linejoin:miter;stroke-opacity:1"
             d="m 54.690337,250.70206 c 0,0 0.941456,0.49293 1.667496,1.44887"
             id="path4256"
             sodipodi:nodetypes="cc" />
          <path
             style="fill:none;stroke:#000000;stroke-width:0.264583px;stroke-linecap:butt;stroke-linejoin:miter;stroke-opacity:1"
             d="m 56.283962,246.67059 c 1.230388,-0.64688 1.30827,0.70409 2.043339,0.3946"
             id="path4258"
             sodipodi:nodetypes="cc" />
          <path
             style="fill:#000000;fill-opacity:1;stroke:#000000;stroke-width:0.1;stroke-linecap:butt;stroke-linejoin:miter;stroke-miterlimit:4;stroke-dasharray:none;stroke-opacity:1"
             d="m 56.354011,247.45702 c -0.04378,1.37221 -0.488001,0.51567 -0.788318,0.7319 -1.359752,0.97905 -1.250883,1.49021 -5.112274,1.82331 l -0.01322,-0.22106 c 2.171443,-0.43194 4.349415,-0.76491 5.843763,-3.12058 z"
             id="path4260"
             sodipodi:nodetypes="cscccc" />
        </g>
        <path
           style="fill:none;stroke:#000000;stroke-width:0.89343px;stroke-linecap:butt;stroke-linejoin:miter;stroke-opacity:1"
           d="m 97.369021,121.13121 v 82.48652"
           id="path4264"
           sodipodi:nodetypes="cc" />
        <path
           id="path4266"
           style="fill:#000000;fill-opacity:1;stroke:#000000;stroke-width:0.89343px;stroke-linecap:butt;stroke-linejoin:miter;stroke-opacity:1"
           d="m 97.319851,201.55335 c 6.978829,-0.0543 21.253689,-0.21526 21.253689,-0.21526 l -2.89235,-2.73968 5.78267,-0.0501 8.80231,-70.73482 -12.09506,-26.24874 -23.194439,0.11852 v -5.977193 m 0,1.3e-4 26.826209,-0.1638 15.64622,30.478543 -11.42241,81.40953 -28.759539,0.0232 0.0527,-5.90031"
           sodipodi:nodetypes="cccccccccccccc" />
      </g>
      <g
         id="g20762"
         transform="matrix(-1.199784,4.726813e-4,4.726813e-4,1.199784,130.37584,-273.46515)"
         inkscape:transform-center-x="-1.0644508"
         inkscape:transform-center-y="2.832161">
        <path
           id="path20752"
           style="fill:#000000;fill-opacity:1;stroke:#000000;stroke-width:0.999999px;stroke-linecap:butt;stroke-linejoin:miter;stroke-opacity:1"
           d="m 526.01758,714.47852 v 0.002 l 59.48437,116.38086 59.05469,-116.23242 c -39.51315,0.0302 -79.02607,-0.0646 -118.53906,-0.15039 z m 90.95117,10.19921 4.80469,7.69141 c -11.94713,24.33902 -23.05512,49.22271 -36.27149,72.88281 -13.68056,-23.64691 -23.91509,-49.30277 -36.71484,-73.42383 l 5.13672,-7.09179 z"
           transform="scale(0.26458333)" />
        <g
           id="g20760">
          <path
             style="fill:none;fill-opacity:1;stroke:#000000;stroke-width:0.98;stroke-linecap:butt;stroke-linejoin:miter;stroke-miterlimit:4;stroke-dasharray:none;stroke-opacity:1"
             d="m 146.25896,202.10989 8.65532,-3.7181 8.84158,3.7181"
             id="path20754"
             sodipodi:nodetypes="ccc" />
          <path
             style="fill:none;fill-opacity:1;stroke:#000000;stroke-width:0.98;stroke-linecap:butt;stroke-linejoin:miter;stroke-miterlimit:4;stroke-dasharray:none;stroke-opacity:1"
             d="m 154.91428,198.39179 -0.0249,-7.02853"
             id="path20756"
             sodipodi:nodetypes="cc" />
          <circle
             style="fill:none;fill-opacity:1;stroke:#000000;stroke-width:0.804998;stroke-linejoin:bevel;stroke-miterlimit:4;stroke-dasharray:none;stroke-opacity:1;stop-color:#000000"
             id="circle20758"
             cx="154.86653"
             cy="203.76816"
             r="4.577085" />
        </g>
      </g>
      <path
         style="color:#000000;fill:#000000;stroke-width:1.39028;stroke-linejoin:bevel;-inkscape-stroke:none"
         d="m -131.7278,-89.076567 -2.54434,2.544343 v 37.323393 l 2.54434,2.544345 h 53.903723 l 2.544353,-2.544345 v -37.323393 l -2.544353,-2.544343 z m 2.25028,5.787734 48.869661,-0.295936 0.132915,31.012164 -48.708506,-0.1922 z"
         id="rect20786"
         sodipodi:nodetypes="cccccccccccccc" />
      <path
         style="fill:none;stroke:#000000;stroke-width:1.61274;stroke-linecap:butt;stroke-linejoin:miter;stroke-miterlimit:4;stroke-dasharray:none;stroke-opacity:1"
         d="m -131.48071,-51.859271 26.97651,-22.79583"
         id="path22350"
         sodipodi:nodetypes="cc" />
      <path
         style="fill:none;stroke:#000000;stroke-width:1.07193px;stroke-linecap:butt;stroke-linejoin:miter;stroke-opacity:1"
         d="m -122.72359,-59.302748 0.0759,6.798586"
         id="path22352"
         sodipodi:nodetypes="cc" />
      <path
         style="fill:none;stroke:#000000;stroke-width:1.62055;stroke-linecap:butt;stroke-linejoin:miter;stroke-miterlimit:4;stroke-dasharray:none;stroke-opacity:1"
         d="m -115.33888,-85.837129 -0.0203,35.066802"
         id="path22354"
         sodipodi:nodetypes="cc" />
      <path
         style="fill:none;stroke:#000000;stroke-width:1.07193px;stroke-linecap:butt;stroke-linejoin:miter;stroke-opacity:1"
         d="m -104.87616,-85.020067 0.076,10.799252"
         id="path22652"
         sodipodi:nodetypes="cc" />
      <path
         style="fill:none;stroke:#000000;stroke-width:1.61274;stroke-linecap:butt;stroke-linejoin:miter;stroke-miterlimit:4;stroke-dasharray:none;stroke-opacity:1"
         d="M -78.805444,-52.203163 -105.13315,-74.655101"
         id="path23229"
         sodipodi:nodetypes="cc" />
      <path
         style="fill:none;stroke:#000000;stroke-width:1.07193px;stroke-linecap:butt;stroke-linejoin:miter;stroke-opacity:1"
         d="m -87.384102,-59.727567 -0.07596,7.530757"
         id="path23231"
         sodipodi:nodetypes="cc" />
      <path
         style="fill:none;stroke:#000000;stroke-width:1.62055;stroke-linecap:butt;stroke-linejoin:miter;stroke-miterlimit:4;stroke-dasharray:none;stroke-opacity:1"
         d="m -94.298462,-85.837129 0.02027,35.066802"
         id="path23233"
         sodipodi:nodetypes="cc" />
      <g
         id="g8240"
         transform="matrix(1.1997352,-0.01083143,-0.01083143,-1.1997352,-239.39369,180.18859)"
         inkscape:transform-center-x="0.92961873"
         inkscape:transform-center-y="-2.7418754">
        <path
           id="path8230"
           style="fill:#000000;fill-opacity:1;stroke:#000000;stroke-width:0.999999px;stroke-linecap:butt;stroke-linejoin:miter;stroke-opacity:1"
           d="m 526.01758,714.47852 v 0.002 l 59.48437,116.38086 59.05469,-116.23242 c -39.51315,0.0302 -79.02607,-0.0646 -118.53906,-0.15039 z m 90.95117,10.19921 4.80469,7.69141 c -11.94713,24.33902 -23.05512,49.22271 -36.27149,72.88281 -13.68056,-23.64691 -23.91509,-49.30277 -36.71484,-73.42383 l 5.13672,-7.09179 z"
           transform="scale(0.26458333)" />
        <g
           id="g8238">
          <path
             style="fill:none;fill-opacity:1;stroke:#000000;stroke-width:0.98;stroke-linecap:butt;stroke-linejoin:miter;stroke-miterlimit:4;stroke-dasharray:none;stroke-opacity:1"
             d="m 146.25896,202.10989 8.65532,-3.7181 8.84158,3.7181"
             id="path8232"
             sodipodi:nodetypes="ccc" />
          <path
             style="fill:none;fill-opacity:1;stroke:#000000;stroke-width:0.98;stroke-linecap:butt;stroke-linejoin:miter;stroke-miterlimit:4;stroke-dasharray:none;stroke-opacity:1"
             d="m 154.91428,198.39179 -0.0249,-7.02853"
             id="path8234"
             sodipodi:nodetypes="cc" />
          <circle
             style="fill:none;fill-opacity:1;stroke:#000000;stroke-width:0.804998;stroke-linejoin:bevel;stroke-miterlimit:4;stroke-dasharray:none;stroke-opacity:1;stop-color:#000000"
             id="circle8236"
             cx="154.86653"
             cy="203.76816"
             r="4.577085" />
        </g>
      </g>
      <path
         style="color:#000000;fill:#000000;stroke-width:1.39028;stroke-linejoin:bevel;-inkscape-stroke:none"
         d="m -131.7278,-120.43127 -2.54434,2.54435 v 25.632385 l 2.54434,2.544345 h 53.903723 l 2.544353,-2.544345 v -25.632385 l -2.544353,-2.54435 z m 2.25028,5.78774 48.869661,-0.29594 0.132915,19.321161 -48.708506,-0.1922 z"
         id="path9561"
         sodipodi:nodetypes="cccccccccccccc" />
      <path
         style="fill:none;stroke:#000000;stroke-width:1.62055;stroke-linecap:butt;stroke-linejoin:miter;stroke-miterlimit:4;stroke-dasharray:none;stroke-opacity:1"
         d="m -115.33888,-117.19183 -0.0203,23.3758"
         id="path9567"
         sodipodi:nodetypes="cc" />
      <path
         style="fill:none;stroke:#000000;stroke-width:1.07193px;stroke-linecap:butt;stroke-linejoin:miter;stroke-opacity:1"
         d="m -104.87616,-116.37477 0.076,-0.89175"
         id="path9569"
         sodipodi:nodetypes="cc" />
      <path
         style="fill:none;stroke:#000000;stroke-width:1.62055;stroke-linecap:butt;stroke-linejoin:miter;stroke-miterlimit:4;stroke-dasharray:none;stroke-opacity:1"
         d="m -94.298462,-117.19183 0.02027,23.3758"
         id="path9575"
         sodipodi:nodetypes="cc" />
      <path
         style="fill:none;stroke:#000000;stroke-width:1.07193px;stroke-linecap:butt;stroke-linejoin:miter;stroke-opacity:1"
         d="m -104.87616,-116.68164 0.076,22.496876"
         id="path10816"
         sodipodi:nodetypes="cc" />
      <path
         style="fill:none;stroke:#000000;stroke-width:1.07193px;stroke-linecap:butt;stroke-linejoin:miter;stroke-opacity:1"
         d="m -122.6108,-51.574958 17.85113,-14.939289"
         id="path11250"
         sodipodi:nodetypes="cc" />
      <path
         style="fill:none;stroke:#000000;stroke-width:1.07193px;stroke-linecap:butt;stroke-linejoin:miter;stroke-opacity:1"
         d="M -87.414827,-51.50058 -104.72441,-66.604278"
         id="path11252"
         sodipodi:nodetypes="cc" />
      <path
         style="fill:none;stroke:#000000;stroke-width:1.07193px;stroke-linecap:butt;stroke-linejoin:miter;stroke-opacity:1"
         d="m -125.70017,-84.036724 20.93055,17.725813"
         id="path11254"
         sodipodi:nodetypes="cc" />
      <path
         style="fill:none;stroke:#000000;stroke-width:1.07193px;stroke-linecap:butt;stroke-linejoin:miter;stroke-opacity:1"
         d="m -82.214393,-84.208115 -22.555227,17.897204"
         id="path11256"
         sodipodi:nodetypes="cc" />
      <path
         style="fill:none;stroke:#000000;stroke-width:1.07193px;stroke-linecap:butt;stroke-linejoin:miter;stroke-opacity:1"
         d="m -125.70017,-94.665114 20.93055,-20.637006"
         id="path15779"
         sodipodi:nodetypes="cc" />
      <path
         style="fill:none;stroke:#000000;stroke-width:1.07193px;stroke-linecap:butt;stroke-linejoin:miter;stroke-opacity:1"
         d="M -82.214393,-94.493722 -104.76962,-115.30212"
         id="path15781"
         sodipodi:nodetypes="cc" />
      <path
         style="fill:none;stroke:#000000;stroke-width:1.61274;stroke-linecap:butt;stroke-linejoin:miter;stroke-miterlimit:4;stroke-dasharray:none;stroke-opacity:1"
         d="m -131.48071,-51.859271 26.97651,-22.79583"
         id="path15863"
         sodipodi:nodetypes="cc" />
      <path
         style="fill:none;stroke:#000000;stroke-width:1.61274;stroke-linecap:butt;stroke-linejoin:miter;stroke-miterlimit:4;stroke-dasharray:none;stroke-opacity:1"
         d="M -78.805444,-52.203163 -105.13315,-74.655101"
         id="path15865"
         sodipodi:nodetypes="cc" />
    </g>
    <g
       id="g18758"
       transform="translate(12.989173,-18.127364)">
      <path
         sodipodi:type="star"
         style="fill:none;stroke:#00e900;stroke-width:1.88976;stroke-linejoin:bevel;stroke-miterlimit:4;stroke-dasharray:none;stroke-opacity:1;stop-color:#000000"
         id="path5782"
         inkscape:flatsided="true"
         sodipodi:sides="5"
         sodipodi:cx="260.5426"
         sodipodi:cy="553.33032"
         sodipodi:r1="299.71524"
         sodipodi:r2="242.47472"
         sodipodi:arg1="0.9415111"
         sodipodi:arg2="1.5698296"
         inkscape:rounded="0"
         inkscape:randomized="0"
         d="M 436.94512,795.63463 84.608886,795.97523 -24.592929,460.98882 260.25287,253.61522 545.49907,460.43771 Z"
         transform="matrix(-0.195963,-7.7212041e-5,7.7212041e-5,-0.195963,115.3515,338.86379)"
         inkscape:transform-center-x="-34.226244"
         inkscape:transform-center-y="53.192641" />
      <circle
         style="fill:none;fill-opacity:0.991321;stroke:#000000;stroke-width:0.0730001;stroke-linejoin:bevel;stroke-miterlimit:4;stroke-dasharray:none;stroke-opacity:1;stop-color:#000000"
         id="path18039"
         cx="64.337517"
         cy="230.41141"
         r="16.5" />
    </g>
  </g>
  <g
     inkscape:groupmode="layer"
     id="layer2"
     inkscape:label="holder"
     style="display:inline" />
</svg>
