<?xml version="1.0" encoding="UTF-8" standalone="no"?>
<!-- Created with Inkscape (http://www.inkscape.org/) -->

<svg
   width="210mm"
   height="297mm"
   viewBox="0 0 210 297"
   version="1.1"
   id="svg5"
   inkscape:version="1.1.1 (1:1.1+202109281949+c3084ef5ed)"
   sodipodi:docname="piltover-lantern.svg.2021_11_26_15_43_36.0.svg"
   xmlns:inkscape="http://www.inkscape.org/namespaces/inkscape"
   xmlns:sodipodi="http://sodipodi.sourceforge.net/DTD/sodipodi-0.dtd"
   xmlns="http://www.w3.org/2000/svg"
   xmlns:svg="http://www.w3.org/2000/svg">
  <sodipodi:namedview
     id="namedview7"
     pagecolor="#fff3a7"
     bordercolor="#eeeeee"
     borderopacity="1"
     inkscape:pageshadow="0"
     inkscape:pageopacity="1"
     inkscape:pagecheckerboard="0"
     inkscape:document-units="mm"
     showgrid="false"
     inkscape:zoom="1.5006222"
     inkscape:cx="496.12753"
     inkscape:cy="789.33923"
     inkscape:current-layer="layer1"
     showguides="true"
     inkscape:guide-bbox="true" />
  <defs
     id="defs2" />
  <g
     inkscape:label="Layer 1"
     inkscape:groupmode="layer"
     id="layer1">
    <g
       id="g6811"
       transform="matrix(3.3767588,0,0,3.3767588,-86.349249,-588.55093)">
      <path
         style="fill:none;stroke:#000000;stroke-width:0.4;stroke-linecap:butt;stroke-linejoin:miter;stroke-miterlimit:4;stroke-dasharray:none;stroke-opacity:1"
         d="m 56.371375,258.40657 -0.02736,-26.82756"
         id="path1786"
         sodipodi:nodetypes="cc" />
      <path
         style="fill:none;stroke:#000000;stroke-width:0.264583px;stroke-linecap:butt;stroke-linejoin:miter;stroke-opacity:1"
         d="m 51.6677,235.47184 2.282324,-1.75723 5.077739,3.75785"
         id="path1794"
         sodipodi:nodetypes="ccc" />
      <path
         style="fill:none;stroke:#000000;stroke-width:0.264583px;stroke-linecap:butt;stroke-linejoin:miter;stroke-opacity:1"
         d="m 53.950024,233.71461 0.01716,-2.09054"
         id="path1796"
         sodipodi:nodetypes="cc" />
      <path
         id="path1798"
         style="fill:none;stroke:#000000;stroke-width:0.3;stroke-linecap:butt;stroke-linejoin:miter;stroke-miterlimit:4;stroke-dasharray:none;stroke-opacity:1"
         d="m 56.322743,252.70481 c 0.481076,-1.18425 0.41211,-2.40398 2.004558,-2.35514 m -7.873882,2.87808 c 4.504828,1.5633 5.403749,0.17073 5.869324,-0.52294"
         sodipodi:nodetypes="cccc" />
      <path
         style="fill:#000000;fill-opacity:1;stroke:#000000;stroke-width:0.1;stroke-linecap:butt;stroke-linejoin:miter;stroke-miterlimit:4;stroke-dasharray:none;stroke-opacity:1"
         d="m 56.354011,250.67254 c -0.04378,1.37221 -0.488001,0.51567 -0.788318,0.7319 -1.359752,0.97905 -1.250883,1.49021 -5.112274,1.82331 l -0.01322,-0.22106 c 2.171443,-0.43194 4.349415,-0.76491 5.843763,-3.12058 z"
         id="path1793"
         sodipodi:nodetypes="cscccc" />
      <path
         style="fill:none;stroke:#000000;stroke-width:0.4;stroke-linecap:butt;stroke-linejoin:miter;stroke-miterlimit:4;stroke-dasharray:none;stroke-opacity:1"
         d="m 56.371375,258.40657 -0.02736,-26.82756"
         id="path6618"
         sodipodi:nodetypes="cc" />
      <path
         style="fill:none;stroke:#000000;stroke-width:0.313729px;stroke-linecap:butt;stroke-linejoin:miter;stroke-opacity:1"
         d="m 54.690337,253.91758 c 0,0 0.941456,0.49293 1.667496,1.44887"
         id="path6620"
         sodipodi:nodetypes="cc" />
      <path
         style="fill:none;stroke:#000000;stroke-width:0.264583px;stroke-linecap:butt;stroke-linejoin:miter;stroke-opacity:1"
         d="m 56.283962,249.88611 c 1.230388,-0.64688 1.30827,0.70409 2.043339,0.3946"
         id="path6628"
         sodipodi:nodetypes="cc" />
      <path
         style="fill:#000000;fill-opacity:1;stroke:#000000;stroke-width:0.1;stroke-linecap:butt;stroke-linejoin:miter;stroke-miterlimit:4;stroke-dasharray:none;stroke-opacity:1"
         d="m 56.354011,250.67254 c -0.04378,1.37221 -0.488001,0.51567 -0.788318,0.7319 -1.359752,0.97905 -1.250883,1.49021 -5.112274,1.82331 l -0.01322,-0.22106 c 2.171443,-0.43194 4.349415,-0.76491 5.843763,-3.12058 z"
         id="path6630"
         sodipodi:nodetypes="cscccc" />
    </g>
    <g
       id="g11403"
       transform="matrix(-3.3767588,0,0,3.3767588,312.29578,-588.55093)">
      <path
         style="fill:none;stroke:#000000;stroke-width:0.4;stroke-linecap:butt;stroke-linejoin:miter;stroke-miterlimit:4;stroke-dasharray:none;stroke-opacity:1"
         d="m 56.371375,258.40657 -0.02736,-26.82756"
         id="path11385"
         sodipodi:nodetypes="cc" />
      <path
         style="fill:none;stroke:#000000;stroke-width:0.264583px;stroke-linecap:butt;stroke-linejoin:miter;stroke-opacity:1"
         d="m 51.6677,235.47184 2.282324,-1.75723 5.077739,3.75785"
         id="path11387"
         sodipodi:nodetypes="ccc" />
      <path
         style="fill:none;stroke:#000000;stroke-width:0.264583px;stroke-linecap:butt;stroke-linejoin:miter;stroke-opacity:1"
         d="m 53.950024,233.71461 0.01716,-2.09054"
         id="path11389"
         sodipodi:nodetypes="cc" />
      <path
         id="path11391"
         style="fill:none;stroke:#000000;stroke-width:0.3;stroke-linecap:butt;stroke-linejoin:miter;stroke-miterlimit:4;stroke-dasharray:none;stroke-opacity:1"
         d="m 56.322743,252.70481 c 0.481076,-1.18425 0.41211,-2.40398 2.004558,-2.35514 m -7.873882,2.87808 c 4.504828,1.5633 5.403749,0.17073 5.869324,-0.52294"
         sodipodi:nodetypes="cccc" />
      <path
         style="fill:#000000;fill-opacity:1;stroke:#000000;stroke-width:0.1;stroke-linecap:butt;stroke-linejoin:miter;stroke-miterlimit:4;stroke-dasharray:none;stroke-opacity:1"
         d="m 56.354011,250.67254 c -0.04378,1.37221 -0.488001,0.51567 -0.788318,0.7319 -1.359752,0.97905 -1.250883,1.49021 -5.112274,1.82331 l -0.01322,-0.22106 c 2.171443,-0.43194 4.349415,-0.76491 5.843763,-3.12058 z"
         id="path11393"
         sodipodi:nodetypes="cscccc" />
      <path
         style="fill:none;stroke:#000000;stroke-width:0.4;stroke-linecap:butt;stroke-linejoin:miter;stroke-miterlimit:4;stroke-dasharray:none;stroke-opacity:1"
         d="m 56.371375,258.40657 -0.02736,-26.82756"
         id="path11395"
         sodipodi:nodetypes="cc" />
      <path
         style="fill:none;stroke:#000000;stroke-width:0.313729px;stroke-linecap:butt;stroke-linejoin:miter;stroke-opacity:1"
         d="m 54.690337,253.91758 c 0,0 0.941456,0.49293 1.667496,1.44887"
         id="path11397"
         sodipodi:nodetypes="cc" />
      <path
         style="fill:none;stroke:#000000;stroke-width:0.264583px;stroke-linecap:butt;stroke-linejoin:miter;stroke-opacity:1"
         d="m 56.283962,249.88611 c 1.230388,-0.64688 1.30827,0.70409 2.043339,0.3946"
         id="path11399"
         sodipodi:nodetypes="cc" />
      <path
         style="fill:#000000;fill-opacity:1;stroke:#000000;stroke-width:0.1;stroke-linecap:butt;stroke-linejoin:miter;stroke-miterlimit:4;stroke-dasharray:none;stroke-opacity:1"
         d="m 56.354011,250.67254 c -0.04378,1.37221 -0.488001,0.51567 -0.788318,0.7319 -1.359752,0.97905 -1.250883,1.49021 -5.112274,1.82331 l -0.01322,-0.22106 c 2.171443,-0.43194 4.349415,-0.76491 5.843763,-3.12058 z"
         id="path11401"
         sodipodi:nodetypes="cscccc" />
    </g>
    <path
       style="fill:none;stroke:#000000;stroke-width:0.89343px;stroke-linecap:butt;stroke-linejoin:miter;stroke-opacity:1"
       d="M 112.97326,213.33624 V 285.8546"
       id="path11438" />
    <path
       id="path3008"
       style="fill:#000000;fill-opacity:1;stroke:#000000;stroke-width:0.89343px;stroke-linecap:butt;stroke-linejoin:miter;stroke-opacity:1"
       d="m 112.37236,283.49908 c -7.83279,-0.0609 -15.344231,0.16511 -23.176102,0.0358 l -12.113399,-63.51638 13.667467,4.5203 -0.805786,-18.28438 -0.766618,-12.48466 23.194438,0.11852 v -5.97719 m 0,1.3e-4 -48.527541,-0.2259 16.542192,101.65588 31.985349,0.26678 v -6.10873" />
    <path
       id="path6616"
       style="fill:#000000;fill-opacity:1;stroke:#000000;stroke-width:0.89343px;stroke-linecap:butt;stroke-linejoin:miter;stroke-opacity:1"
       d="m 112.37237,283.49908 c 7.8328,-0.0609 15.34424,0.16511 23.1761,0.0358 l 12.1134,-63.51638 -13.66746,4.52029 0.80578,-18.28437 0.76663,-12.48466 -23.19445,0.11852 v -5.97719 m 0,1.3e-4 48.52755,-0.2259 -16.5422,101.74173 -31.98535,0.181 v -6.10874"
       sodipodi:nodetypes="ccccccccccccc" />
    <path
       id="path6632"
       style="fill:#000000;fill-opacity:1;stroke:#000000;stroke-width:0.89343px;stroke-linecap:butt;stroke-linejoin:miter;stroke-opacity:1"
       d="m 112.37236,283.49908 c -7.83279,-0.0609 -15.344231,0.16511 -23.176102,0.0358 l -12.113399,-63.51638 13.667467,4.5203 -0.805786,-18.28438 -0.766618,-12.48466 23.194438,0.11852 v -5.97719 m 0,1.3e-4 -48.527541,-0.2259 16.542192,101.65588 31.985349,0.26678 v -6.10873"
       sodipodi:nodetypes="ccccccccccccc" />
  </g>
  <g
     inkscape:groupmode="layer"
     id="layer2"
     inkscape:label="holder" />
</svg>
