<?xml version="1.0" encoding="UTF-8" standalone="no"?>
<!-- Created with Inkscape (http://www.inkscape.org/) -->

<svg
        xmlns:inkscape="http://www.inkscape.org/namespaces/inkscape"
        xmlns:sodipodi="http://sodipodi.sourceforge.net/DTD/sodipodi-0.dtd"
        width="144.12041mm"
        height="215.14764mm"
        viewBox="0 0 144.12041 215.14765"
        version="1.1"
        id="svg5"
        inkscape:version="1.1.1 (1:1.1+202109281949+c3084ef5ed)"
        sodipodi:docname="front_plate.svg"
        xmlns="http://www.w3.org/2000/svg"
>
    <sodipodi:namedview
            id="namedview7"
            pagecolor="#fff3a7"
            bordercolor="#ee00ee"
            borderopacity="1"
            inkscape:pageshadow="0"
            inkscape:pageopacity="1"
            inkscape:pagecheckerboard="false"
            inkscape:document-units="mm"
            showgrid="false"
            inkscape:zoom="0.20605841"
            inkscape:cx="330.00351"
            inkscape:cy="-747.3609"
            inkscape:current-layer="g8092"
            showguides="true"
            inkscape:guide-bbox="true"
            inkscape:snap-global="false"
            showborder="true"
            inkscape:snap-object-midpoints="true">
        <sodipodi:guide
                position="-395.82485,-365.15629"
                orientation="1,0"
                id="guide1212"/>
        <sodipodi:guide
                position="-282.34618,88.373814"
                orientation="0,-1"
                id="guide6488"/>
    </sodipodi:namedview>
    <defs
            id="defs2">
        <rect
                x="-730.65662"
                y="-9.8631811"
                width="507.70526"
                height="213.23495"
                id="rect7847"/>
        <rect
                x="373.49561"
                y="386.01743"
                width="90.403969"
                height="50.85796"
                id="rect6727"/>
    </defs>
    <g
            inkscape:groupmode="layer"
            id="g8092"
            inkscape:label="lines_to_cut"
            style="display:inline"
            transform="translate(-398.76258,-361.41871)">
        <path
                id="path7916"
                style="color:#000000;fill:none;fill-opacity:1;stroke:#ff0000;stroke-width:1;stroke-miterlimit:4;stroke-dasharray:none;stroke-opacity:1"
                d="m 427.18669,361.91871 -27.90889,56.52524 20.32589,157.62241 h 102.43819 l 20.32589,-157.62241 -27.90889,-56.52524 z m 7.39438,12.6721 9.49606,0.0465 -0.0971,11.81891 -25.53953,24.55303 z m 72.48343,0 15.7887,35.6247 -25.08581,-23.7386 -0.0894,-11.84011 z m -10.96212,0.0537 0.0889,11.81789 -8.14524,7.09827 10e-4,-2.14664 h -0.0165 l 0.0212,-16.73024 z m -50.44912,5.2e-4 8.04964,0.0398 0.006,16.71474 h -0.0165 l 10e-4,2.14922 -8.14163,-7.10706 z m 40.01616,0.0506 -0.0258,20.95841 -14.77997,12.88035 -14.76655,-12.8912 -0.007,-20.94652 9.7839,0.0481 v 0.0491 l 4.95267,-0.0248 4.95215,0.0248 v -0.0491 z m -40.87967,13.21418 8.90901,7.77731 0.0548,89.67669 c -8.09016,12.62036 -19.35968,15.34961 -30.97227,17.73639 l -5.41879,-35.91357 -0.6444,-52.2919 z m 52.17097,0.0181 27.58281,26.10125 0.0258,53.16213 -5.70869,35.94457 c -11.60449,-2.39518 -22.86343,-5.13464 -30.94023,-17.75447 l 0.12195,-89.68083 z m -40.86314,9.85366 13.97899,12.20236 -0.0243,66.75458 -0.0326,83.98402 h 10e-4 l -5.1e-4,2.91093 c -4.73067,-0.0379 -8.06413,-0.0801 -13.84257,-0.13952 l -0.001,-6.12986 h 0.002 l -0.0222,-36.04018 -0.009,-20.44165 c 1.07749,-3.18462 1.71222,-6.20839 2.84789,-8.38501 1.33287,-2.55455 3.12292,-4.07981 7.63777,-3.93413 l 0.014,-0.47439 c 0.10652,-0.0366 0.21371,-0.0774 0.32142,-0.12454 l -0.29455,-0.72864 0.0165,-0.5271 c -0.0785,-10e-4 -0.15431,-8.2e-4 -0.23152,-0.005 l -0.10128,-0.24959 c -0.90114,0.39363 -1.39739,0.26984 -2.02675,-0.0982 -0.62937,-0.36785 -1.31324,-1.0749 -2.14509,-1.78645 -0.8318,-0.7116 -1.85066,-1.42781 -3.18999,-1.6521 -0.293,-0.0491 -0.5979,-0.0742 -0.91622,-0.0713 -0.59817,0.005 -1.24416,0.11053 -1.94097,0.32556 z m 29.54394,0.0114 -0.10439,85.38807 c -1.06934,-0.33043 -2.01597,-0.39344 -2.86081,-0.2527 -1.33943,0.22321 -2.35763,0.9381 -3.18998,1.649 -0.83238,0.71086 -1.51803,1.41604 -2.14768,1.78335 -0.62969,0.36735 -1.12383,0.48988 -2.02468,0.0956 l -0.10077,0.2496 c -0.0772,10e-4 -0.15314,10e-4 -0.23151,0.002 l 0.015,0.53175 -0.29352,0.7245 c 0.108,0.0471 0.21033,0.0588 0.31677,0.0956 l 0.0139,0.50333 c 4.5149,-0.14197 6.30737,1.38731 7.6383,3.94291 1.13626,2.18183 1.76605,5.2107 2.84478,8.40259 l -0.0775,56.46425 h 0.007 l -0.006,6.11797 c -5.77963,0.0593 -9.11529,0.1017 -13.84204,0.13953 l 0.0553,-153.64747 z m -27.55594,86.68825 h 5.1e-4 c 0.23461,-9.7e-4 0.45381,0.0179 0.66043,0.0522 0.94538,0.1583 1.6912,0.66124 2.43809,1.30018 0.49218,0.42105 0.9685,0.90173 1.49862,1.33377 -2.54813,0.76196 -4.18883,2.39448 -5.25963,4.44676 -0.5098,0.97706 -0.91223,2.03929 -1.27796,3.14451 l -0.005,-9.85831 c 0.75064,-0.28498 1.39552,-0.41626 1.94459,-0.4191 z m 25.39224,0.0109 c 0.19185,-0.004 0.39403,0.006 0.60823,0.032 0.43079,0.0525 0.91004,0.17147 1.44953,0.37827 l -0.009,9.86245 c -0.36535,-1.10446 -0.77089,-2.16212 -1.2795,-3.13883 -1.07446,-2.06304 -2.72464,-3.70358 -5.2927,-4.46329 0.53619,-0.43434 1.04017,-0.89559 1.53685,-1.31982 0.74742,-0.63831 1.49262,-1.14212 2.4381,-1.29966 0.17341,-0.029 0.35548,-0.0471 0.54828,-0.0512 z m -32.55098,9.73739 h 0.002 c 0.19388,10e-4 0.40379,0.0576 0.64027,0.14056 0.473,0.16567 0.98481,0.45223 1.53324,0.51005 0.21469,0.0227 0.44194,7.2e-4 0.65681,-0.0894 l 0.002,7.20834 c -1.36861,2.11689 -3.19594,4.82286 -7.74733,6.1588 -4.39923,1.29129 -11.45104,1.19811 -22.95415,-2.58589 l -0.0196,-0.17363 c 19.64158,-2.0687 19.70127,-5.28134 27.34355,-10.9921 0.17166,-0.12827 0.34926,-0.17895 0.54312,-0.17673 z m 39.80584,0.015 h 0.003 c 0.19365,-10e-4 0.37099,0.0475 0.5426,0.17569 7.61116,5.69707 7.88637,8.89838 27.32443,10.98383 l -0.0243,0.21136 c -11.49397,3.76807 -18.54237,3.85676 -22.93813,2.56263 -4.55226,-1.34025 -6.37516,-4.04961 -7.74217,-6.1681 l 0.001,-2.93367 0.005,-4.27002 c 0.21421,0.0892 0.4408,0.1108 0.65474,0.0884 0.54846,-0.0574 1.06012,-0.34491 1.53324,-0.51004 0.23657,-0.0826 0.44656,-0.13736 0.64027,-0.14004 z m -36.96932,10.85308 h 0.002 l 0.005,10.63604 c -2.55001,-2.8754 -5.19853,-4.86263 -6.80992,-5.9402 3.32692,-1.08593 5.39215,-2.95286 6.80269,-4.69584 z m 34.13125,0.0326 c 1.41254,1.74175 3.48783,3.6117 6.81457,4.69428 -1.59496,1.05274 -4.20383,2.96486 -6.82749,5.91747 z m -64.60329,2.46083 c 9.89441,3.17267 16.62971,3.67027 21.35993,2.78743 l -0.091,0.17983 c 0,0 5.09607,2.7851 9.21391,8.15299 v 0.52917 l 0.0217,44.22985 c -7.46331,-0.0781 -17.16654,-0.17157 -18.40249,-0.18551 l 5.10253,-5.02554 -11.45976,-0.0987 z m 95.05776,0.0434 -5.73919,50.5256 -11.46028,0.0987 5.10305,5.02605 c -1.23712,0.0151 -10.95235,0.1074 -18.42937,0.18551 l 0.0548,-44.7492 c 4.1212,-5.36146 9.21494,-8.14162 9.21494,-8.14162 l -0.0894,-0.17777 c 4.72689,0.88504 11.46008,0.3921 21.34547,-2.76727 z"
                sodipodi:nodetypes="cccccccccccccccccccccccccccccccccccccccccccccccccccccccccccccccccccscccccccccccccccccscccccccsccccccccscscsccsccccccccccccsccccsccssccscccccccscccccccccccccccccccccccccccccccsc"/>
        <g
                id="g8359"
                transform="matrix(0.80329031,0,0,0.84074978,-16.93819,-32.596032)"
                style="fill:none;fill-opacity:1;stroke-width:1.21683;stroke-miterlimit:4;stroke-dasharray:none"/>
    </g>
</svg>
