<?xml version="1.0" encoding="UTF-8" standalone="no"?>
<svg
   width="800mm"
   height="400mm"
   version="1.1"
   viewBox="0 0 800 400"
   id="svg14"
   sodipodi:docname="Generated5.svg"
   inkscape:version="1.1.2 (1:1.1+202202050950+0a00cf5339)"
   xmlns:inkscape="http://www.inkscape.org/namespaces/inkscape"
   xmlns:sodipodi="http://sodipodi.sourceforge.net/DTD/sodipodi-0.dtd"
   xmlns="http://www.w3.org/2000/svg"
   xmlns:svg="http://www.w3.org/2000/svg">
  <defs
     id="defs18" />
  <sodipodi:namedview
     id="namedview16"
     pagecolor="#505050"
     bordercolor="#eeeeee"
     borderopacity="1"
     inkscape:pageshadow="0"
     inkscape:pageopacity="0"
     inkscape:pagecheckerboard="0"
     inkscape:document-units="mm"
     showgrid="false"
     showguides="true"
     inkscape:guide-bbox="true"
     inkscape:zoom="0.46003321"
     inkscape:cx="1012.9703"
     inkscape:cy="786.89971"
     inkscape:current-layer="svg14"
     inkscape:snap-global="false">
    <sodipodi:guide
       position="74.900003,111.68279"
       orientation="1,0"
       id="guide1098" />
    <sodipodi:guide
       position="149.84523,348.42989"
       orientation="1,0"
       id="guide2340" />
  </sodipodi:namedview>
  <path
     d="M 28.5 0 L28.5 66 28.5 66 31.6 66 31.6 63 34.5 63 34.5 66 37.6 66 37.6 63 40.5 63 40.5 66 43.6 66 43.6 63 46.5 63 46.5 66 49.6 66 49.6 63 52.5 63 52.5 66 55.6 66 55.6 63 58.5 63 58.5 66 61.6 66 61.6 63 64.5 63 64.5 66 67.6 66 67.6 63 70.5 63 70.5 66 73.6 66 73.6 63 76.5 63 76.5 66 79.6 66 79.6 63 82.5 63 82.5 66 85.6 66 85.6 63 88.5 63 88.5 66 91.6 66 91.6 63 94.5 63 94.5 66 97.6 66 97.6 63 100.5 63 100.5 66 103.6 66 103.6 63 106.5 63 106.5 66 109.6 66 109.6 63 112.5 63 112.5 66 115.6 66 115.6 63 118.5 63 118.5 66 121.5 66 121.5 0 121.5 0 118.4 0 118.4 3 115.5 3 115.5 0 112.4 0 112.4 3 109.5 3 109.5 0 106.4 0 106.4 3 103.5 3 103.5 0 100.4 0 100.4 3 97.5 3 97.5 0 94.4 0 94.4 3 91.5 3 91.5 0 88.4 0 88.4 3 85.5 3 85.5 0 82.4 0 82.4 3 79.5 3 79.5 0 76.4 0 76.4 3 73.5 3 73.5 0 70.4 0 70.4 3 67.5 3 67.5 0 64.4 0 64.4 3 61.5 3 61.5 0 58.4 0 58.4 3 55.5 3 55.5 0 52.400000000000006 0 52.400000000000006 3 49.50000000000001 3 49.5 0 46.400000000000006 0 46.400000000000006 3 43.50000000000001 3 43.5 0 40.400000000000006 0 40.400000000000006 3 37.50000000000001 3 37.5 0 34.400000000000006 0 34.400000000000006 3 31.500000000000007 3 31.5 0 28.5 0"
     stroke="#ff0000"
     stroke-width="0.001mm"
     style="fill:none;stroke-width:0.025;stroke-miterlimit:4;stroke-dasharray:none;stroke:#ff0000;stroke-opacity:1"
     id="path2" />
  <path
     d="M 21 281 L0 123 28.5 66 28.5 66 31.6 66 31.6 63 34.5 63 34.5 66 37.6 66 37.6 63 40.5 63 40.5 66 43.6 66 43.6 63 46.5 63 46.5 66 49.6 66 49.6 63 52.5 63 52.5 66 55.6 66 55.6 63 58.5 63 58.5 66 61.6 66 61.6 63 64.5 63 64.5 66 67.6 66 67.6 63 70.5 63 70.5 66 73.6 66 73.6 63 76.5 63 76.5 66 79.6 66 79.6 63 82.5 63 82.5 66 85.6 66 85.6 63 88.5 63 88.5 66 91.6 66 91.6 63 94.5 63 94.5 66 97.6 66 97.6 63 100.5 63 100.5 66 103.6 66 103.6 63 106.5 63 106.5 66 109.6 66 109.6 63 112.5 63 112.5 66 115.6 66 115.6 63 118.5 63 118.5 66 121.5 66 150 123 129 281 129 281 125.9 281 125.9 284 123 284 123 281 119.9 281 119.9 284 117 284 117 281 113.9 281 113.9 284 111 284 111 281 107.9 281 107.9 284 105 284 105 281 101.9 281 101.9 284 99 284 99 281 95.9 281 95.9 284 93 284 93 281 89.9 281 89.9 284 87 284 87 281 83.9 281 83.9 284 81 284 81 281 77.9 281 77.9 284 75 284 75 281 71.9 281 71.9 284 69 284 69 281 65.9 281 65.9 284 63.00000000000001 284 63 281 59.900000000000006 281 59.900000000000006 284 57.00000000000001 284 57 281 53.900000000000006 281 53.900000000000006 284 51.00000000000001 284 51 281 47.900000000000006 281 47.900000000000006 284 45.00000000000001 284 45 281 41.900000000000006 281 41.900000000000006 284 39.00000000000001 284 39 281 35.900000000000006 281 35.900000000000006 284 33.00000000000001 284 33 281 29.900000000000006 281 29.900000000000006 284 27.000000000000007 284 27 281 23.900000000000006 281 23.900000000000006 284 21.000000000000007 284 21 281 21 281"
     stroke="#ff0000"
     stroke-width="0.001mm"
     style="fill:none;stroke-width:0.025;stroke-miterlimit:4;stroke-dasharray:none;stroke:#ff0000;stroke-opacity:1"
     id="path4" />
  <path
     d="M 178.4 63 L178.4 66 175.5 66 175.5 63 172.4 63 172.4 63 172.4 66 169.5 66 169.5 63 166.4 63 166.4 63 166.4 66 163.5 66 163.5 63 160.4 63 160.4 63 160.4 66 157.5 66 157.5 63 154.4 63 154.4 63 154.4 66 151.5 66 151.5 63 148.4 63 148.4 63 148.4 66 145.5 66 145.5 62.99999999999999 142.4 62.99999999999999 142.4 62.99999999999999 142.4 66 139.5 66 139.5 62.99999999999999 136.4 62.99999999999999 136.4 62.99999999999999 136.4 66 133.5 66 133.5 62.99999999999999 130.4 62.99999999999999 130.4 62.99999999999999 130.4 66 127.5 66 127.5 62.99999999999999 124.4 62.99999999999999 124.4 62.99999999999999 124.4 66 121.5 66 121.5 62.99999999999999 150 6 178.5 63"
     stroke="#ff0000"
     stroke-width="0.001mm"
     style="fill:none;stroke-width:0.025;stroke-miterlimit:4;stroke-dasharray:none;stroke:#ff0000;stroke-opacity:1"
     id="path6" />
  <path
     d="M 121.5 66 L124.6 66 124.6 63 127.5 63 127.5 66 130.6 66 130.6 63 133.5 63 133.5 66 136.6 66 136.6 63 139.5 63 139.5 66 142.6 66 142.6 63 145.5 63 145.5 66 148.6 66 148.6 63 151.5 63 151.5 66 154.6 66 154.6 63 157.5 63 157.5 66 160.6 66 160.6 63 163.5 63 163.5 66 166.6 66 166.6 63 169.5 63 169.5 66 172.6 66 172.6 63 175.5 63 175.5 66 178.5 66 150 123 121.5 66"
     stroke="#ff0000"
     stroke-width="0.001mm"
     style="fill:none;stroke-width:0.025;stroke-miterlimit:4;stroke-dasharray:none;stroke:#ff0000;stroke-opacity:1"
     id="path8" />
  <path
     d="M 188 0 L268.0978869674097 0 276.0978869674097 8 276.0978869674097 53 271.0978869674097 53 271.0978869674097 50 185 50 185 53 180 53 180 8 188 0"
     stroke="#ff0000"
     stroke-width="0.001mm"
     style="fill:none;stroke-width:0.025;stroke-miterlimit:4;stroke-dasharray:none;stroke:#ff0000;stroke-opacity:1"
     id="path10" />
  <path
     d="m 188.51584,60 h 65.09789 l 8,8 v 45 h -5 v -3 h -71.09789 v 3 h -5 V 68 l 8,-8"
     stroke="#ff0000"
     stroke-width="0.001mm"
     style="fill:none;stroke-width:0.025;stroke-miterlimit:4;stroke-dasharray:none;stroke:#ff0000;stroke-opacity:1"
     id="path12" />
  <g
     id="g1074"
     transform="translate(-148.57513,-103.63264)"
     style="stroke-width:0.025;stroke-miterlimit:4;stroke-dasharray:none;stroke:#ff0000;stroke-opacity:1">
    <path
       style="color:#000000;display:inline;fill:none;fill-opacity:1;stroke:#ff0000;stroke-width:0.025;stroke-miterlimit:4;stroke-dasharray:none;stroke-opacity:1"
       d="m 271.031,317.70856 -5.73919,50.5256 -11.46028,0.0987 5.10305,5.02605 c -1.23712,0.0151 -10.95235,0.1074 -18.42937,0.18551 l 0.0548,-44.7492 c 4.1212,-5.36146 9.21494,-8.14162 9.21494,-8.14162 l -0.0894,-0.17777 c 4.72689,0.88504 11.46008,0.3921 21.34547,-2.76727 z"
       id="path957" />
    <path
       style="color:#000000;display:inline;fill:none;fill-opacity:1;stroke:#ff0000;stroke-width:0.025;stroke-miterlimit:4;stroke-dasharray:none;stroke-opacity:1"
       d="m 175.97324,317.66516 c 9.89441,3.17267 16.62971,3.67027 21.35993,2.78743 l -0.091,0.17983 c 0,0 5.09607,2.7851 9.21391,8.15299 v 0.52917 l 0.0217,44.22985 c -7.46331,-0.0781 -17.16654,-0.17157 -18.40249,-0.18551 l 5.10253,-5.02554 -11.45976,-0.0987 z"
       id="path955" />
    <path
       style="color:#000000;display:inline;fill:none;fill-opacity:1;stroke:#ff0000;stroke-width:0.025;stroke-miterlimit:4;stroke-dasharray:none;stroke-opacity:1"
       d="m 240.57653,315.20433 c 1.41254,1.74175 3.48783,3.6117 6.81457,4.69428 -1.59496,1.05274 -4.20383,2.96486 -6.82749,5.91747 z"
       id="path953" />
    <path
       style="color:#000000;display:inline;fill:none;fill-opacity:1;stroke:#ff0000;stroke-width:0.025;stroke-miterlimit:4;stroke-dasharray:none;stroke-opacity:1"
       d="m 206.44528,315.17173 h 0.002 l 0.005,10.63604 c -2.55001,-2.8754 -5.19853,-4.86263 -6.80992,-5.9402 3.32692,-1.08593 5.39215,-2.95286 6.80269,-4.69584 z"
       id="path951" />
    <path
       style="color:#000000;display:inline;fill:none;fill-opacity:1;stroke:#ff0000;stroke-width:0.025;stroke-miterlimit:4;stroke-dasharray:none;stroke-opacity:1"
       d="m 243.4146,304.31865 h 0.003 c 0.19365,-10e-4 0.37099,0.0475 0.5426,0.17569 7.61116,5.69707 7.88637,8.89838 27.32443,10.98383 l -0.0243,0.21136 c -11.49397,3.76807 -18.54237,3.85676 -22.93813,2.56263 -4.55226,-1.34025 -6.37516,-4.04961 -7.74217,-6.1681 l 0.001,-2.93367 0.005,-4.27002 c 0.21421,0.0892 0.4408,0.1108 0.65474,0.0884 0.54846,-0.0574 1.06012,-0.34491 1.53324,-0.51004 0.23657,-0.0826 0.44656,-0.13736 0.64027,-0.14004 z"
       id="path949" />
    <path
       style="color:#000000;display:inline;fill:none;fill-opacity:1;stroke:#ff0000;stroke-width:0.025;stroke-miterlimit:4;stroke-dasharray:none;stroke-opacity:1"
       d="m 203.60876,304.30365 h 0.002 c 0.19388,10e-4 0.40379,0.0576 0.64027,0.14056 0.473,0.16567 0.98481,0.45223 1.53324,0.51005 0.21469,0.0227 0.44194,7.2e-4 0.65681,-0.0894 l 0.002,7.20834 c -1.36861,2.11689 -3.19594,4.82286 -7.74733,6.1588 -4.39923,1.29129 -11.45104,1.19811 -22.95415,-2.58589 l -0.0196,-0.17363 c 19.64158,-2.0687 19.70127,-5.28134 27.34355,-10.9921 0.17166,-0.12827 0.34926,-0.17895 0.54312,-0.17673 z"
       id="path947" />
    <path
       style="color:#000000;display:inline;fill:none;fill-opacity:1;stroke:#ff0000;stroke-width:0.025;stroke-miterlimit:4;stroke-dasharray:none;stroke-opacity:1"
       d="m 236.15974,294.56626 c 0.19185,-0.004 0.39403,0.006 0.60823,0.032 0.43079,0.0525 0.91004,0.17147 1.44953,0.37827 l -0.009,9.86245 c -0.36535,-1.10446 -0.77089,-2.16212 -1.2795,-3.13883 -1.07446,-2.06304 -2.72464,-3.70358 -5.2927,-4.46329 0.53619,-0.43434 1.04017,-0.89559 1.53685,-1.31982 0.74742,-0.63831 1.49262,-1.14212 2.4381,-1.29966 0.17341,-0.029 0.35548,-0.0471 0.54828,-0.0512 z"
       id="path945" />
    <path
       style="color:#000000;display:inline;fill:none;fill-opacity:1;stroke:#ff0000;stroke-width:0.025;stroke-miterlimit:4;stroke-dasharray:none;stroke-opacity:1"
       d="m 210.7675,294.55536 h 5.1e-4 c 0.23461,-9.7e-4 0.45381,0.0179 0.66043,0.0522 0.94538,0.1583 1.6912,0.66124 2.43809,1.30018 0.49218,0.42105 0.9685,0.90173 1.49862,1.33377 -2.54813,0.76196 -4.18883,2.39448 -5.25963,4.44676 -0.5098,0.97706 -0.91223,2.03929 -1.27796,3.14451 l -0.005,-9.85831 c 0.75064,-0.28498 1.39552,-0.41626 1.94459,-0.4191 z"
       id="path943" />
    <path
       style="color:#000000;display:inline;fill:none;fill-opacity:1;stroke:#ff0000;stroke-width:0.025;stroke-miterlimit:4;stroke-dasharray:none;stroke-opacity:1"
       d="m 238.32344,207.86711 -0.10439,85.38807 c -1.06934,-0.33043 -2.01597,-0.39344 -2.86081,-0.2527 -1.33943,0.22321 -2.35763,0.9381 -3.18998,1.649 -0.83238,0.71086 -1.51803,1.41604 -2.14768,1.78335 -0.62969,0.36735 -1.12383,0.48988 -2.02468,0.0956 l -0.10077,0.2496 c -0.0772,10e-4 -0.15314,10e-4 -0.23151,0.002 l 0.015,0.53175 -0.29352,0.7245 c 0.108,0.0471 0.21033,0.0588 0.31677,0.0956 l 0.0139,0.50333 c 4.5149,-0.14197 6.30737,1.38731 7.6383,3.94291 1.13626,2.18183 1.76605,5.2107 2.84478,8.40259 l -0.0775,56.46425 h 0.007 l -0.006,6.11797 c -5.77963,0.0593 -9.11529,0.1017 -13.84204,0.13953 l 0.0553,-153.64747 z"
       id="path941" />
    <path
       style="color:#000000;display:inline;fill:none;fill-opacity:1;stroke:#ff0000;stroke-width:0.025;stroke-miterlimit:4;stroke-dasharray:none;stroke-opacity:1"
       d="m 208.7795,207.85571 13.97899,12.20236 -0.0243,66.75458 -0.0326,83.98402 h 10e-4 l -5.1e-4,2.91093 c -4.73067,-0.0379 -8.06413,-0.0801 -13.84257,-0.13952 l -0.001,-6.12986 h 0.002 l -0.0222,-36.04018 -0.009,-20.44165 c 1.07749,-3.18462 1.71222,-6.20839 2.84789,-8.38501 1.33287,-2.55455 3.12292,-4.07981 7.63777,-3.93413 l 0.014,-0.47439 c 0.10652,-0.0366 0.21371,-0.0774 0.32142,-0.12454 l -0.29455,-0.72864 0.0165,-0.5271 c -0.0785,-10e-4 -0.15431,-8.2e-4 -0.23152,-0.005 l -0.10128,-0.24959 c -0.90114,0.39363 -1.39739,0.26984 -2.02675,-0.0982 -0.62937,-0.36785 -1.31324,-1.0749 -2.14509,-1.78645 -0.8318,-0.7116 -1.85066,-1.42781 -3.18999,-1.6521 -0.293,-0.0491 -0.5979,-0.0742 -0.91622,-0.0713 -0.59817,0.005 -1.24416,0.11053 -1.94097,0.32556 z"
       id="path939" />
    <path
       style="color:#000000;display:inline;fill:none;fill-opacity:1;stroke:#ff0000;stroke-width:0.025;stroke-miterlimit:4;stroke-dasharray:none;stroke-opacity:1"
       d="m 249.64264,198.00205 27.58281,26.10125 0.0258,53.16213 -5.70869,35.94457 c -11.60449,-2.39518 -22.86343,-5.13464 -30.94023,-17.75447 l 0.12195,-89.68083 z"
       id="path937" />
    <path
       style="color:#000000;display:inline;fill:none;fill-opacity:1;stroke:#ff0000;stroke-width:0.025;stroke-miterlimit:4;stroke-dasharray:none;stroke-opacity:1"
       d="m 197.47167,197.98395 8.90901,7.77731 0.0548,89.67669 c -8.09016,12.62036 -19.35968,15.34961 -30.97227,17.73639 l -5.41879,-35.91357 -0.6444,-52.2919 z"
       id="path935" />
    <path
       style="color:#000000;display:inline;fill:none;fill-opacity:1;stroke:#ff0000;stroke-width:0.025;stroke-miterlimit:4;stroke-dasharray:none;stroke-opacity:1"
       d="m 238.35134,184.76977 -0.0258,20.95841 -14.77997,12.88035 -14.76655,-12.8912 -0.007,-20.94652 9.7839,0.0481 v 0.0491 l 4.95267,-0.0248 4.95215,0.0248 v -0.0491 z"
       id="path933" />
    <path
       style="color:#000000;display:inline;fill:none;fill-opacity:1;stroke:#ff0000;stroke-width:0.025;stroke-miterlimit:4;stroke-dasharray:none;stroke-opacity:1"
       d="m 198.33518,184.71917 8.04964,0.0398 0.006,16.71474 h -0.0165 l 10e-4,2.14922 -8.14163,-7.10706 z"
       id="path931" />
    <path
       style="color:#000000;display:inline;fill:none;fill-opacity:1;stroke:#ff0000;stroke-width:0.025;stroke-miterlimit:4;stroke-dasharray:none;stroke-opacity:1"
       d="m 248.7843,184.71865 0.0889,11.81789 -8.14524,7.09827 0.001,-2.14664 h -0.0165 l 0.0212,-16.73024 z"
       id="path929" />
    <path
       style="color:#000000;display:inline;fill:none;fill-opacity:1;stroke:#ff0000;stroke-width:0.025;stroke-miterlimit:4;stroke-dasharray:none;stroke-opacity:1"
       d="m 259.74642,184.66495 15.7887,35.6247 -25.08581,-23.7386 -0.0894,-11.84011 z"
       id="path927" />
    <path
       style="color:#000000;display:inline;fill:none;fill-opacity:1;stroke:#ff0000;stroke-width:0.025;stroke-miterlimit:4;stroke-dasharray:none;stroke-opacity:1"
       d="m 187.26299,184.66495 9.49606,0.0465 -0.0971,11.81891 -25.53953,24.55303 z"
       id="path925" />
  </g>
  <g
     id="g1370"
     transform="rotate(-90.10909,73.273018,166.29342)"
     style="stroke-width:0.025;stroke-miterlimit:4;stroke-dasharray:none;stroke:#ff0000;stroke-opacity:1">
    <path
       style="color:#000000;display:inline;fill:none;stroke:#ff0000;stroke-width:0.025;stroke-linejoin:bevel;stroke-miterlimit:4;stroke-dasharray:none;stroke-opacity:1"
       d="m 187.62587,183.48205 -5.27365,5.8177 0.0242,-5.8151 z"
       id="path1252" />
    <path
       style="color:#000000;display:inline;fill:none;stroke:#ff0000;stroke-width:0.025;stroke-linejoin:bevel;stroke-miterlimit:4;stroke-dasharray:none;stroke-opacity:1"
       d="m 187.92676,150.07271 -5.41334,-0.002 0.0249,-6.19528 z"
       id="path1250" />
    <path
       style="color:#000000;display:inline;fill:none;stroke:#ff0000;stroke-width:0.025;stroke-linejoin:bevel;stroke-miterlimit:4;stroke-dasharray:none;stroke-opacity:1"
       d="m 190.2183,139.67538 -7.66349,0.0811 0.0362,-8.77135 z"
       id="path1248" />
    <path
       style="color:#000000;display:inline;fill:none;stroke:#ff0000;stroke-width:0.025;stroke-linejoin:bevel;stroke-miterlimit:4;stroke-dasharray:none;stroke-opacity:1"
       d="m 190.60107,193.18455 -8.30316,9.3739 0.0388,-9.4541 z"
       id="path1246" />
    <path
       style="color:#000000;display:inline;fill:none;stroke:#ff0000;stroke-width:0.025;stroke-linejoin:bevel;stroke-miterlimit:4;stroke-dasharray:none;stroke-opacity:1"
       d="m 199.20086,183.47605 -7.18846,8.1153 -9.4869,-0.091 7.26864,-8.0188 z"
       id="path1244" />
    <path
       style="color:#000000;display:inline;fill:none;stroke:#ff0000;stroke-width:0.025;stroke-linejoin:bevel;stroke-miterlimit:4;stroke-dasharray:none;stroke-opacity:1"
       d="m 199.34831,150.07873 -9.29294,-0.005 -7.50659,-8.63513 v -0.0741 l 9.06617,-0.0974 0.21555,0.2457 z"
       id="path1242" />
    <path
       style="color:#000000;display:inline;fill:none;stroke:#ff0000;stroke-width:0.025;stroke-linejoin:bevel;stroke-miterlimit:4;stroke-dasharray:none;stroke-opacity:1"
       d="m 202.60457,166.95671 -12.77423,14.09244 h -7.44363 l 0.1164,-28.55643 7.53503,0.005 z"
       id="path1240" />
    <path
       style="color:#000000;display:inline;fill:none;stroke:#ff0000;stroke-width:0.025;stroke-linejoin:bevel;stroke-miterlimit:4;stroke-dasharray:none;stroke-opacity:1"
       d="m 207.87134,173.68654 -6.516,7.35651 h -9.35673 l 11.49138,-12.67847 z"
       id="path1238" />
    <path
       style="color:#000000;display:inline;fill:none;stroke:#ff0000;stroke-width:0.025;stroke-linejoin:bevel;stroke-miterlimit:4;stroke-dasharray:none;stroke-opacity:1"
       d="m 208.14378,160.09932 -4.71415,5.35987 -11.26291,-12.95699 9.31363,0.005 z"
       id="path1236" />
    <path
       style="color:#000000;display:inline;fill:none;stroke:#ff0000;stroke-width:0.025;stroke-linejoin:bevel;stroke-miterlimit:4;stroke-dasharray:none;stroke-opacity:1"
       d="m 213.92956,181.03625 h -9.3438 l 4.84261,-5.46683 z"
       id="path1234" />
    <path
       style="color:#000000;display:inline;fill:none;stroke:#ff0000;stroke-width:0.025;stroke-linejoin:bevel;stroke-miterlimit:4;stroke-dasharray:none;stroke-opacity:1"
       d="m 213.99846,166.76964 -5.04867,5.69954 -4.6176,-5.60299 4.88055,-5.54955 z"
       id="path1232" />
    <path
       style="color:#000000;display:inline;fill:none;stroke:#ff0000;stroke-width:0.025;stroke-linejoin:bevel;stroke-miterlimit:4;stroke-dasharray:none;stroke-opacity:1"
       d="m 214.8149,152.51513 -5.06161,5.75388 -5.05553,-5.7599 z"
       id="path1230" />
    <path
       style="color:#000000;display:inline;fill:none;stroke:#ff0000;stroke-width:0.025;stroke-linejoin:bevel;stroke-miterlimit:4;stroke-dasharray:none;stroke-opacity:1"
       d="m 229.23578,136.11908 -12.28711,13.96914 -14.38297,-0.007 -16.46281,-18.89011 h 43.09754 z"
       id="path1228" />
    <path
       style="color:#000000;display:inline;fill:none;stroke:#ff0000;stroke-width:0.025;stroke-linejoin:bevel;stroke-miterlimit:4;stroke-dasharray:none;stroke-opacity:1"
       d="m 229.32368,150.09513 -10.23696,-0.006 10.16454,-11.55603 z"
       id="path1226" />
    <path
       style="color:#000000;display:inline;fill:none;stroke:#ff0000;stroke-width:0.025;stroke-linejoin:bevel;stroke-miterlimit:4;stroke-dasharray:none;stroke-opacity:1"
       d="m 229.42368,165.90406 -12.89059,0.0898 -5.71166,-6.50738 6.13149,-6.97036 12.38628,0.006 z"
       id="path1224" />
    <path
       style="color:#000000;display:inline;fill:none;stroke:#ff0000;stroke-width:0.025;stroke-linejoin:bevel;stroke-miterlimit:4;stroke-dasharray:none;stroke-opacity:1"
       d="m 229.51848,181.02755 -13.50875,0.01 -5.50388,-6.67803 5.98839,-6.75999 12.93889,-0.087 z"
       id="path1222" />
    <path
       style="color:#000000;display:inline;fill:none;stroke:#ff0000;stroke-width:0.025;stroke-linejoin:bevel;stroke-miterlimit:4;stroke-dasharray:none;stroke-opacity:1"
       d="m 229.62285,197.55125 -11.61033,-14.0864 11.52153,-0.01 z"
       id="path1220" />
    <path
       style="color:#000000;display:inline;fill:none;stroke:#ff0000;stroke-width:0.025;stroke-linejoin:bevel;stroke-miterlimit:4;stroke-dasharray:none;stroke-opacity:1"
       d="m 229.65315,202.36795 -44.11882,0.1819 16.89696,-19.0764 13.50101,-0.01 13.7062,16.6288 z"
       id="path1218" />
  </g>
  <g
     id="g1836"
     transform="matrix(1.2509408,0,0,1.2509408,-159.87279,-40.356882)"
     style="stroke-width:0.01998496;stroke-miterlimit:4;stroke-dasharray:none;stroke:#ff0000;stroke-opacity:1">
    <path
       style="color:#000000;display:inline;fill:none;fill-opacity:1;stroke:#ff0000;stroke-width:0.01998496;stroke-linejoin:bevel;stroke-miterlimit:4;stroke-dasharray:none;stroke-opacity:1"
       d="m 293.11436,105.64549 c 1.6724,4.54424 5.74508,7.81556 10.81804,7.92303 v 1.91874 h -10.81804 z"
       id="path1645" />
    <path
       style="color:#000000;display:inline;fill:none;fill-opacity:1;stroke:#ff0000;stroke-width:0.01998496;stroke-linejoin:bevel;stroke-miterlimit:4;stroke-dasharray:none;stroke-opacity:1"
       d="m 315.89538,105.19693 v 10.29033 h -11.01701 v -1.91874 c 5.23729,-0.11203 9.46943,-3.59636 11.01701,-8.37159 z"
       id="path1643" />
    <path
       style="color:#000000;display:inline;fill:none;fill-opacity:1;stroke:#ff0000;stroke-width:0.01998496;stroke-linejoin:bevel;stroke-miterlimit:4;stroke-dasharray:none;stroke-opacity:1"
       d="m 304.42683,91.15955 c 5.65909,0 10.23244,4.59472 10.23244,10.29291 0,5.69819 -4.57335,10.29291 -10.23244,10.29291 -5.65907,0 -10.23244,-4.59472 -10.23244,-10.29291 0,-5.69819 4.57337,-10.29291 10.23244,-10.29291 z"
       id="path1641" />
    <path
       style="color:#000000;display:inline;fill:none;fill-opacity:1;stroke:#ff0000;stroke-width:0.01998496;stroke-linejoin:bevel;stroke-miterlimit:4;stroke-dasharray:none;stroke-opacity:1"
       d="m 318.06528,87.47192 h 13.8162 v 28.01534 h -13.8162 z"
       id="path1639" />
    <path
       style="color:#000000;display:inline;fill:none;fill-opacity:1;stroke:#ff0000;stroke-width:0.01998496;stroke-linejoin:bevel;stroke-miterlimit:4;stroke-dasharray:none;stroke-opacity:1"
       d="m 304.82841,87.47192 h 11.06697 V 97.7085 c -1.54758,-4.77473 -5.82967,-8.25753 -11.06697,-8.36951 z"
       id="path1637" />
    <path
       style="color:#000000;display:inline;fill:none;fill-opacity:1;stroke:#ff0000;stroke-width:0.01998496;stroke-linejoin:bevel;stroke-miterlimit:4;stroke-dasharray:none;stroke-opacity:1"
       d="m 293.11436,87.47192 h 10.87419 v 1.86707 c -5.07296,0.10743 -9.20179,3.37723 -10.87419,7.92096 z"
       id="path1635" />
    <path
       style="color:#000000;display:inline;fill:none;fill-opacity:1;stroke:#ff0000;stroke-width:0.01998496;stroke-linejoin:bevel;stroke-miterlimit:4;stroke-dasharray:none;stroke-opacity:1"
       d="m 276.74636,87.47192 h 14.20585 v 28.01534 h -14.20585 z"
       id="path1633" />
  </g>
  <path
     style="color:#000000;display:inline;fill:none;fill-opacity:1;stroke:#ff0000;stroke-width:0.025;stroke-linejoin:bevel;stroke-miterlimit:4;stroke-dasharray:none;stroke-opacity:1"
     d="m 244.04169,24.623042 c -3.27039,5.48583 -9.10337,9.197587 -15.67469,9.414178 l -0.009,9.980715 h 3.84519 l 10.56528,0.0071 -0.006,-0.0048 h 1.28548 z"
     id="path1110"
     sodipodi:nodetypes="cccccccc" />
  <path
     style="color:#000000;display:inline;fill:none;fill-opacity:1;stroke:#ff0000;stroke-width:0.025;stroke-linejoin:bevel;stroke-miterlimit:4;stroke-dasharray:none;stroke-opacity:1"
     d="m 211.46468,23.5661 h -6e-4 l -0.0142,20.447496 15.28054,0.0036 0.01,-4.336126 0.0128,-5.646417 C 219.7614,33.414133 214.5959,29.533541 211.46465,23.566069 Z"
     id="path1112"
     sodipodi:nodetypes="cccccccc" />
  <path
     style="color:#000000;display:inline;fill:none;fill-opacity:1;stroke:#ff0000;stroke-width:0.025;stroke-linejoin:bevel;stroke-miterlimit:4;stroke-dasharray:none;stroke-opacity:1"
     d="m 208.70016,10.613471 h -21.96451 l 0.0601,33.404464 1.82965,-0.01865 v 0.0095 l 20.04929,0.0048 z"
     id="path1114"
     sodipodi:nodetypes="ccccccc" />
  <path
     style="color:#000000;display:inline;fill:none;fill-opacity:1;stroke:#ff0000;stroke-width:0.025;stroke-linejoin:bevel;stroke-miterlimit:4;stroke-dasharray:none;stroke-opacity:1"
     d="m 246.80917,10.538724 c 0,0 0.009,23.966223 0.0142,33.483539 h 0.11033 v 0.006 l 12.03136,0.0048 -0.009,-0.0071 h 2.92152 l 0.009,0.0084 6.20894,0.0036 0.0175,-33.424798 z"
     id="path1116"
     sodipodi:nodetypes="ccccccccccc" />
  <path
     style="color:#000000;display:inline;fill:none;fill-opacity:1;stroke:#ff0000;stroke-width:0.025;stroke-linejoin:bevel;stroke-miterlimit:4;stroke-dasharray:none;stroke-opacity:1"
     d="m 244.03756,10.525133 -32.56402,0.08834 -0.001,1.474511 h 0.0171 c -2.6e-4,1.093819 0.097,4.157502 0.28302,5.193788 1.42549,7.938233 8.0671,13.924997 16.07277,13.926887 8.25674,0.0036 15.06082,-6.363465 16.1929,-14.672277 z"
     id="path1118"
     sodipodi:nodetypes="ccccsccc" />
  <path
     style="display:inline;fill:none;fill-opacity:1;stroke:#ff0000;stroke-width:0.025;stroke-linecap:butt;stroke-linejoin:miter;stroke-miterlimit:4;stroke-dasharray:none;stroke-opacity:1"
     d="m 144.92131,100.65579 c 1.45346,0.98567 3.20603,1.56177 5.09027,1.56094 1.79725,-5.2e-4 3.47411,-0.52583 4.88591,-1.43053 -1.57581,3.14458 -3.21316,6.25367 -4.97001,9.29312 -1.73492,-3.10294 -3.39296,-6.25044 -5.00617,-9.42353 z"
     id="path2240" />
  <path
     style="display:inline;fill:none;fill-opacity:1;stroke:#ff0000;stroke-width:0.025;stroke-linecap:butt;stroke-linejoin:miter;stroke-miterlimit:4;stroke-dasharray:none;stroke-opacity:1"
     d="m 156.99855,87.329511 3.62197,1.55478 c -0.5235,1.10906 -1.04676,2.21855 -1.57127,3.3272 -0.18596,-1.84466 -0.92595,-3.52863 -2.0507,-4.88198 z"
     id="path2238" />
  <path
     style="display:inline;fill:none;fill-opacity:1;stroke:#ff0000;stroke-width:0.025;stroke-linecap:butt;stroke-linejoin:miter;stroke-miterlimit:4;stroke-dasharray:none;stroke-opacity:1"
     d="m 143.20308,87.114151 c -1.3125,1.48307 -2.14922,3.39651 -2.2677,5.49823 -0.60984,-1.25712 -1.21503,-2.51704 -1.81963,-3.77684 z"
     id="path2236" />
  <path
     style="display:inline;fill:none;fill-opacity:1;stroke:#ff0000;stroke-width:0.025;stroke-linecap:butt;stroke-linejoin:miter;stroke-miterlimit:4;stroke-dasharray:none;stroke-opacity:1"
     d="m 150.00528,85.512241 c 4.21617,-0.001 7.61883,3.39805 7.6205,7.61421 0.001,4.21614 -3.39804,7.618849 -7.6142,7.620509 -4.21615,0.001 -7.62193,-3.398019 -7.62363,-7.614219 -10e-4,-4.21619 3.40118,-7.61882 7.61733,-7.6205 z"
     id="path2234" />
  <path
     style="display:inline;fill:none;fill-opacity:1;stroke:#ff0000;stroke-width:0.025;stroke-linecap:butt;stroke-linejoin:miter;stroke-miterlimit:4;stroke-dasharray:none;stroke-opacity:1"
     d="m 150.85106,71.189361 14.30872,0.006 2.48148,3.42391 c -2.19872,4.14739 -4.2403,8.3883 -6.25598,12.6463 l -10.57197,-4.53694 z"
     id="path2232" />
  <path
     style="display:inline;fill:none;fill-opacity:1;stroke:#ff0000;stroke-width:0.025;stroke-linecap:butt;stroke-linejoin:miter;stroke-miterlimit:4;stroke-dasharray:none;stroke-opacity:1"
     d="m 134.71876,71.182361 14.34252,0.006 -0.038,11.53566 -10.68283,4.49761 c -1.97095,-4.11664 -3.93164,-8.23671 -5.94072,-12.3256 z"
     id="path2230" />
  <path
     style="display:inline;fill:none;fill-opacity:1;stroke:#ff0000;stroke-width:0.025;stroke-linecap:butt;stroke-linejoin:miter;stroke-miterlimit:4;stroke-dasharray:none;stroke-opacity:1"
     d="m 145.75775,29.461215 c 1.45346,-0.98567 3.20603,-1.56177 5.09027,-1.56094 1.79725,5.2e-4 3.47411,0.52583 4.88591,1.43053 -1.57581,-3.14458 -3.21316,-6.25367 -4.97001,-9.29312 -1.73492,3.10294 -3.39296,6.25044 -5.00617,9.42353 z"
     id="path2342" />
  <path
     style="display:inline;fill:none;fill-opacity:1;stroke:#ff0000;stroke-width:0.025;stroke-linecap:butt;stroke-linejoin:miter;stroke-miterlimit:4;stroke-dasharray:none;stroke-opacity:1"
     d="m 157.83499,42.787494 3.62197,-1.55478 c -0.5235,-1.10906 -1.04676,-2.21855 -1.57127,-3.3272 -0.18596,1.84466 -0.92595,3.52863 -2.0507,4.88198 z"
     id="path2344" />
  <path
     style="display:inline;fill:none;fill-opacity:1;stroke:#ff0000;stroke-width:0.025;stroke-linecap:butt;stroke-linejoin:miter;stroke-miterlimit:4;stroke-dasharray:none;stroke-opacity:1"
     d="m 144.03952,43.002854 c -1.3125,-1.48307 -2.14922,-3.39651 -2.2677,-5.49823 -0.60984,1.25712 -1.21503,2.51704 -1.81963,3.77684 z"
     id="path2346" />
  <path
     style="display:inline;fill:none;fill-opacity:1;stroke:#ff0000;stroke-width:0.025;stroke-linecap:butt;stroke-linejoin:miter;stroke-miterlimit:4;stroke-dasharray:none;stroke-opacity:1"
     d="m 150.84172,44.604764 c 4.21617,10e-4 7.61883,-3.39805 7.6205,-7.61421 0.001,-4.21614 -3.39804,-7.618849 -7.6142,-7.620509 -4.21615,-0.001 -7.62193,3.398019 -7.62363,7.614219 -0.001,4.21619 3.40118,7.61882 7.61733,7.6205 z"
     id="path2348" />
  <path
     style="display:inline;fill:none;fill-opacity:1;stroke:#ff0000;stroke-width:0.025;stroke-linecap:butt;stroke-linejoin:miter;stroke-miterlimit:4;stroke-dasharray:none;stroke-opacity:1"
     d="m 151.6875,58.927644 14.30872,-0.006 2.48148,-3.42391 c -2.19872,-4.14739 -4.2403,-8.3883 -6.25598,-12.6463 l -10.57197,4.53694 z"
     id="path2350" />
  <path
     style="display:inline;fill:none;fill-opacity:1;stroke:#ff0000;stroke-width:0.025;stroke-linecap:butt;stroke-linejoin:miter;stroke-miterlimit:4;stroke-dasharray:none;stroke-opacity:1"
     d="m 135.5552,58.934644 14.34252,-0.006 -0.038,-11.53566 -10.68283,-4.49761 c -1.97095,4.11664 -3.93164,8.23671 -5.94072,12.3256 z"
     id="path2352" />
  <path
     d="m 263.02874,398.36249 v -66 0 h -3.1 v 3 h -2.9 v -3 h -3.1 v 3 h -2.9 v -3 h -3.1 v 3 h -2.9 v -3 h -3.1 v 3 h -2.9 v -3 h -3.1 v 3 h -2.9 v -3 h -3.1 v 3 h -2.9 v -3 h -3.1 v 3 h -2.9 v -3 h -3.1 v 3 h -2.9 v -3 h -3.1 v 3 h -2.9 v -3 h -3.1 v 3 h -2.9 v -3 h -3.1 v 3 h -2.9 v -3 h -3.1 v 3 h -2.9 v -3 h -3.1 v 3 h -2.9 v -3 h -3.1 v 3 h -2.9 v -3 h -3.1 v 3 h -2.9 v -3 h -3 v 66 0 h 3.1 v -3 h 2.9 v 3 h 3.1 v -3 h 2.9 v 3 h 3.1 v -3 h 2.9 v 3 h 3.1 v -3 h 2.9 v 3 h 3.1 v -3 h 2.9 v 3 h 3.1 v -3 h 2.9 v 3 h 3.1 v -3 h 2.9 v 3 h 3.1 v -3 h 2.9 v 3 h 3.1 v -3 h 2.9 v 3 h 3.1 v -3 h 2.9 v 3 h 3.1 v -3 h 2.9 v 3 h 3.1 v -3 h 2.9 v 3 h 3.1 v -3 h 2.9 v 3 h 3.1 v -3 h 2.9 v 3 h 3.1 v -3 h 2.9 v 3 h 3"
     stroke="#ff0000"
     stroke-width="0.001mm"
     style="fill:none;stroke-width:0.025;stroke-miterlimit:4;stroke-dasharray:none;stroke:#ff0000;stroke-opacity:1"
     id="path3264" />
  <path
     d="m 270.52874,117.36249 21,158 -28.5,57 v 0 h -3.1 v 3 h -2.9 v -3 h -3.1 v 3 h -2.9 v -3 h -3.1 v 3 h -2.9 v -3 h -3.1 v 3 h -2.9 v -3 h -3.1 v 3 h -2.9 v -3 h -3.1 v 3 h -2.9 v -3 h -3.1 v 3 h -2.9 v -3 h -3.1 v 3 h -2.9 v -3 h -3.1 v 3 h -2.9 v -3 h -3.1 v 3 h -2.9 v -3 h -3.1 v 3 h -2.9 v -3 h -3.1 v 3 h -2.9 v -3 h -3.1 v 3 h -2.9 v -3 h -3.1 v 3 h -2.9 v -3 h -3.1 v 3 h -2.9 v -3 h -3 l -28.5,-57 21,-158 v 0 h 3.1 v -3 h 2.9 v 3 h 3.1 v -3 h 2.9 v 3 h 3.1 v -3 h 2.9 v 3 h 3.1 v -3 h 2.9 v 3 h 3.1 v -3 h 2.9 v 3 h 3.1 v -3 h 2.9 v 3 h 3.1 v -3 h 2.9 v 3 h 3.1 v -3 h 2.9 v 3 h 3.1 v -3 h 2.9 v 3 h 3.1 v -3 h 2.9 v 3 h 3.1 v -3 h 2.9 v 3 h 3.1 v -3 h 2.9 v 3 h 3.1 v -3 h 2.9 v 3 h 3.1 v -3 h 2.9 v 3 h 3.1 v -3 h 2.9 v 3 h 3.1 v -3 h 2.9 v 3 h 3.1 v -3 h 2.9 v 3 h 3.1 v -3 h 2.9 v 3 0"
     stroke="#ff0000"
     stroke-width="0.001mm"
     style="fill:none;stroke-width:0.025;stroke-miterlimit:4;stroke-dasharray:none;stroke:#ff0000;stroke-opacity:1"
     id="path3266" />
  <path
     d="m 113.12874,335.36249 v -3 h 2.9 v 3 h 3.1 v 0 -3 h 2.9 v 3 h 3.1 v 0 -3 h 2.9 v 3 h 3.1 v 0 -3 h 2.9 v 3 h 3.1 v 0 -3 h 2.9 v 3 h 3.1 v 0 -3 h 2.9 v 3 h 3.1 v 0 -3 h 2.9 v 3 h 3.1 v 0 -3 h 2.9 v 3 h 3.1 v 0 -3 h 2.9 v 3 h 3.1 v 0 -3 h 2.9 v 3 l -28.5,57 -28.5,-57"
     stroke="#ff0000"
     stroke-width="0.001mm"
     style="fill:none;stroke-width:0.025;stroke-miterlimit:4;stroke-dasharray:none;stroke:#ff0000;stroke-opacity:1"
     id="path3268" />
  <path
     d="m 170.02874,332.36249 h -3.1 v 3 h -2.9 v -3 h -3.1 v 3 h -2.9 v -3 h -3.1 v 3 h -2.9 v -3 h -3.1 v 3 h -2.9 v -3 h -3.1 v 3 h -2.9 v -3 h -3.1 v 3 h -2.9 v -3 h -3.1 v 3 h -2.9 v -3 h -3.1 v 3 h -2.9 v -3 h -3.1 v 3 h -2.9 v -3 h -3 l 28.5,-57 28.5,57"
     stroke="#ff0000"
     stroke-width="0.001mm"
     style="fill:none;stroke-width:0.025;stroke-miterlimit:4;stroke-dasharray:none;stroke:#ff0000;stroke-opacity:1"
     id="path3270" />
  <path
     d="M 103.52874,398.36249 H 23.43085 l -8,-8 v -45 h 5 v 3 h 86.09789 v -3 h 5 v 45 l -8,8"
     stroke="#ff0000"
     stroke-width="0.001mm"
     style="fill:none;stroke-width:0.025;stroke-miterlimit:4;stroke-dasharray:none;stroke:#ff0000;stroke-opacity:1"
     id="path3272" />
  <path
     d="M 103.0129,338.36249 H 37.91501 l -8,-8 v -45 h 5 v 3 h 71.09789 v -3 h 5 v 45 l -8,8"
     stroke="#ff0000"
     stroke-width="0.001mm"
     style="fill:none;stroke-width:0.025;stroke-miterlimit:4;stroke-dasharray:none;stroke:#ff0000;stroke-opacity:1"
     id="path3274" />
  <path
     style="color:#000000;display:inline;fill:none;fill-opacity:1;stroke:#ff0000;stroke-width:0.025;stroke-miterlimit:4;stroke-dasharray:none;stroke-opacity:1"
     d="m 169.07288,184.28658 5.73919,-50.5256 11.46028,-0.0987 -5.10305,-5.02605 c 1.23712,-0.0151 10.95235,-0.1074 18.42937,-0.18551 l -0.0548,44.7492 c -4.1212,5.36146 -9.21494,8.14162 -9.21494,8.14162 l 0.0894,0.17777 c -4.72689,-0.88504 -11.46008,-0.3921 -21.34547,2.76727 z"
     id="path3276" />
  <path
     style="color:#000000;display:inline;fill:none;fill-opacity:1;stroke:#ff0000;stroke-width:0.025;stroke-miterlimit:4;stroke-dasharray:none;stroke-opacity:1"
     d="m 264.13064,184.32998 c -9.89441,-3.17267 -16.62971,-3.67027 -21.35993,-2.78743 l 0.091,-0.17983 c 0,0 -5.09607,-2.7851 -9.21391,-8.15299 v -0.52917 l -0.0217,-44.22985 c 7.46331,0.0781 17.16654,0.17157 18.40249,0.18551 l -5.10253,5.02554 11.45976,0.0987 z"
     id="path3278" />
  <path
     style="color:#000000;display:inline;fill:none;fill-opacity:1;stroke:#ff0000;stroke-width:0.025;stroke-miterlimit:4;stroke-dasharray:none;stroke-opacity:1"
     d="m 199.52735,186.79081 c -1.41254,-1.74175 -3.48783,-3.6117 -6.81457,-4.69428 1.59496,-1.05274 4.20383,-2.96486 6.82749,-5.91747 z"
     id="path3280" />
  <path
     style="color:#000000;display:inline;fill:none;fill-opacity:1;stroke:#ff0000;stroke-width:0.025;stroke-miterlimit:4;stroke-dasharray:none;stroke-opacity:1"
     d="m 233.6586,186.82341 h -0.002 l -0.005,-10.63604 c 2.55001,2.8754 5.19853,4.86263 6.80992,5.9402 -3.32692,1.08593 -5.39215,2.95286 -6.80269,4.69584 z"
     id="path3282" />
  <path
     style="color:#000000;display:inline;fill:none;fill-opacity:1;stroke:#ff0000;stroke-width:0.025;stroke-miterlimit:4;stroke-dasharray:none;stroke-opacity:1"
     d="m 196.68928,197.67649 h -0.003 c -0.19365,0.001 -0.37099,-0.0475 -0.5426,-0.17569 -7.61116,-5.69707 -7.88637,-8.89838 -27.32443,-10.98383 l 0.0243,-0.21136 c 11.49397,-3.76807 18.54237,-3.85676 22.93813,-2.56263 4.55226,1.34025 6.37516,4.04961 7.74217,6.1681 l -0.001,2.93367 -0.005,4.27002 c -0.21421,-0.0892 -0.4408,-0.1108 -0.65474,-0.0884 -0.54846,0.0574 -1.06012,0.34491 -1.53324,0.51004 -0.23657,0.0826 -0.44656,0.13736 -0.64027,0.14004 z"
     id="path3284" />
  <path
     style="color:#000000;display:inline;fill:none;fill-opacity:1;stroke:#ff0000;stroke-width:0.025;stroke-miterlimit:4;stroke-dasharray:none;stroke-opacity:1"
     d="m 236.49512,197.69149 h -0.002 c -0.19388,-10e-4 -0.40379,-0.0576 -0.64027,-0.14056 -0.473,-0.16567 -0.98481,-0.45223 -1.53324,-0.51005 -0.21469,-0.0227 -0.44194,-7.2e-4 -0.65681,0.0894 l -0.002,-7.20834 c 1.36861,-2.11689 3.19594,-4.82286 7.74733,-6.1588 4.39923,-1.29129 11.45104,-1.19811 22.95415,2.58589 l 0.0196,0.17363 c -19.64158,2.0687 -19.70127,5.28134 -27.34355,10.9921 -0.17166,0.12827 -0.34926,0.17895 -0.54312,0.17673 z"
     id="path3286" />
  <path
     style="color:#000000;display:inline;fill:none;fill-opacity:1;stroke:#ff0000;stroke-width:0.025;stroke-miterlimit:4;stroke-dasharray:none;stroke-opacity:1"
     d="m 203.94414,207.42888 c -0.19185,0.004 -0.39403,-0.006 -0.60823,-0.032 -0.43079,-0.0525 -0.91004,-0.17147 -1.44953,-0.37827 l 0.009,-9.86245 c 0.36535,1.10446 0.77089,2.16212 1.2795,3.13883 1.07446,2.06304 2.72464,3.70358 5.2927,4.46329 -0.53619,0.43434 -1.04017,0.89559 -1.53685,1.31982 -0.74742,0.63831 -1.49262,1.14212 -2.4381,1.29966 -0.17341,0.029 -0.35548,0.0471 -0.54828,0.0512 z"
     id="path3288" />
  <path
     style="color:#000000;display:inline;fill:none;fill-opacity:1;stroke:#ff0000;stroke-width:0.025;stroke-miterlimit:4;stroke-dasharray:none;stroke-opacity:1"
     d="m 229.33638,207.43978 h -5.1e-4 c -0.23461,9.7e-4 -0.45381,-0.0179 -0.66043,-0.0522 -0.94538,-0.1583 -1.6912,-0.66124 -2.43809,-1.30018 -0.49218,-0.42105 -0.9685,-0.90173 -1.49862,-1.33377 2.54813,-0.76196 4.18883,-2.39448 5.25963,-4.44676 0.5098,-0.97706 0.91223,-2.03929 1.27796,-3.14451 l 0.005,9.85831 c -0.75064,0.28498 -1.39552,0.41626 -1.94459,0.4191 z"
     id="path3290" />
  <path
     style="color:#000000;display:inline;fill:none;fill-opacity:1;stroke:#ff0000;stroke-width:0.025;stroke-miterlimit:4;stroke-dasharray:none;stroke-opacity:1"
     d="m 201.78044,294.12803 0.10439,-85.38807 c 1.06934,0.33043 2.01597,0.39344 2.86081,0.2527 1.33943,-0.22321 2.35763,-0.9381 3.18998,-1.649 0.83238,-0.71086 1.51803,-1.41604 2.14768,-1.78335 0.62969,-0.36735 1.12383,-0.48988 2.02468,-0.0956 l 0.10077,-0.2496 c 0.0772,-0.001 0.15314,-0.001 0.23151,-0.002 l -0.015,-0.53175 0.29352,-0.7245 c -0.108,-0.0471 -0.21033,-0.0588 -0.31677,-0.0956 l -0.0139,-0.50333 c -4.5149,0.14197 -6.30737,-1.38731 -7.6383,-3.94291 -1.13626,-2.18183 -1.76605,-5.2107 -2.84478,-8.40259 l 0.0775,-56.46425 h -0.007 l 0.006,-6.11797 c 5.77963,-0.0593 9.11529,-0.1017 13.84204,-0.13953 l -0.0553,153.64747 z"
     id="path3292" />
  <path
     style="color:#000000;display:inline;fill:none;fill-opacity:1;stroke:#ff0000;stroke-width:0.025;stroke-miterlimit:4;stroke-dasharray:none;stroke-opacity:1"
     d="m 231.32438,294.13943 -13.97899,-12.20236 0.0243,-66.75458 0.0326,-83.98402 h -0.001 l 5.1e-4,-2.91093 c 4.73067,0.0379 8.06413,0.0801 13.84257,0.13952 l 0.001,6.12986 h -0.002 l 0.0222,36.04018 0.009,20.44165 c -1.07749,3.18462 -1.71222,6.20839 -2.84789,8.38501 -1.33287,2.55455 -3.12292,4.07981 -7.63777,3.93413 l -0.014,0.47439 c -0.10652,0.0366 -0.21371,0.0774 -0.32142,0.12454 l 0.29455,0.72864 -0.0165,0.5271 c 0.0785,0.001 0.15431,8.2e-4 0.23152,0.005 l 0.10128,0.24959 c 0.90114,-0.39363 1.39739,-0.26984 2.02675,0.0982 0.62937,0.36785 1.31324,1.0749 2.14509,1.78645 0.8318,0.7116 1.85066,1.42781 3.18999,1.6521 0.293,0.0491 0.5979,0.0742 0.91622,0.0713 0.59817,-0.005 1.24416,-0.11053 1.94097,-0.32556 z"
     id="path3294" />
  <path
     style="color:#000000;display:inline;fill:none;fill-opacity:1;stroke:#ff0000;stroke-width:0.025;stroke-miterlimit:4;stroke-dasharray:none;stroke-opacity:1"
     d="m 190.46124,303.99309 -27.58281,-26.10125 -0.0258,-53.16213 5.70869,-35.94457 c 11.60449,2.39518 22.86343,5.13464 30.94023,17.75447 l -0.12195,89.68083 z"
     id="path3296" />
  <path
     style="color:#000000;display:inline;fill:none;fill-opacity:1;stroke:#ff0000;stroke-width:0.025;stroke-miterlimit:4;stroke-dasharray:none;stroke-opacity:1"
     d="m 242.63221,304.01119 -8.90901,-7.77731 -0.0548,-89.67669 c 8.09016,-12.62036 19.35968,-15.34961 30.97227,-17.73639 l 5.41879,35.91357 0.6444,52.2919 z"
     id="path3298" />
  <path
     style="color:#000000;display:inline;fill:none;fill-opacity:1;stroke:#ff0000;stroke-width:0.025;stroke-miterlimit:4;stroke-dasharray:none;stroke-opacity:1"
     d="m 201.75254,317.22537 0.0258,-20.95841 14.77997,-12.88035 14.76655,12.8912 0.007,20.94652 -9.7839,-0.0481 v -0.0491 l -4.95267,0.0248 -4.95215,-0.0248 v 0.0491 z"
     id="path3300" />
  <path
     style="color:#000000;display:inline;fill:none;fill-opacity:1;stroke:#ff0000;stroke-width:0.025;stroke-miterlimit:4;stroke-dasharray:none;stroke-opacity:1"
     d="m 241.7687,317.27597 -8.04964,-0.0398 -0.006,-16.71474 h 0.0165 l -0.001,-2.14922 8.14163,7.10706 z"
     id="path3302" />
  <path
     style="color:#000000;display:inline;fill:none;fill-opacity:1;stroke:#ff0000;stroke-width:0.025;stroke-miterlimit:4;stroke-dasharray:none;stroke-opacity:1"
     d="m 191.31958,317.27649 -0.0889,-11.81789 8.14524,-7.09827 -0.001,2.14664 h 0.0165 l -0.0212,16.73024 z"
     id="path3304" />
  <path
     style="color:#000000;display:inline;fill:none;fill-opacity:1;stroke:#ff0000;stroke-width:0.025;stroke-miterlimit:4;stroke-dasharray:none;stroke-opacity:1"
     d="m 180.35746,317.33019 -15.7887,-35.6247 25.08581,23.7386 0.0894,11.84011 z"
     id="path3306" />
  <path
     style="color:#000000;display:inline;fill:none;fill-opacity:1;stroke:#ff0000;stroke-width:0.025;stroke-miterlimit:4;stroke-dasharray:none;stroke-opacity:1"
     d="m 252.84089,317.33019 -9.49606,-0.0465 0.0971,-11.81891 25.53953,-24.55303 z"
     id="path3308" />
  <g
     id="g3348"
     transform="rotate(89.89091,112.81387,271.81075)"
     style="stroke-width:0.025;stroke-miterlimit:4;stroke-dasharray:none;stroke:#ff0000;stroke-opacity:1">
    <path
       style="color:#000000;display:inline;fill:none;stroke:#ff0000;stroke-width:0.025;stroke-linejoin:bevel;stroke-miterlimit:4;stroke-dasharray:none;stroke-opacity:1"
       d="m 187.62587,183.48205 -5.27365,5.8177 0.0242,-5.8151 z"
       id="path3312" />
    <path
       style="color:#000000;display:inline;fill:none;stroke:#ff0000;stroke-width:0.025;stroke-linejoin:bevel;stroke-miterlimit:4;stroke-dasharray:none;stroke-opacity:1"
       d="m 187.92676,150.07271 -5.41334,-0.002 0.0249,-6.19528 z"
       id="path3314" />
    <path
       style="color:#000000;display:inline;fill:none;stroke:#ff0000;stroke-width:0.025;stroke-linejoin:bevel;stroke-miterlimit:4;stroke-dasharray:none;stroke-opacity:1"
       d="m 190.2183,139.67538 -7.66349,0.0811 0.0362,-8.77135 z"
       id="path3316" />
    <path
       style="color:#000000;display:inline;fill:none;stroke:#ff0000;stroke-width:0.025;stroke-linejoin:bevel;stroke-miterlimit:4;stroke-dasharray:none;stroke-opacity:1"
       d="m 190.60107,193.18455 -8.30316,9.3739 0.0388,-9.4541 z"
       id="path3318" />
    <path
       style="color:#000000;display:inline;fill:none;stroke:#ff0000;stroke-width:0.025;stroke-linejoin:bevel;stroke-miterlimit:4;stroke-dasharray:none;stroke-opacity:1"
       d="m 199.20086,183.47605 -7.18846,8.1153 -9.4869,-0.091 7.26864,-8.0188 z"
       id="path3320" />
    <path
       style="color:#000000;display:inline;fill:none;stroke:#ff0000;stroke-width:0.025;stroke-linejoin:bevel;stroke-miterlimit:4;stroke-dasharray:none;stroke-opacity:1"
       d="m 199.34831,150.07873 -9.29294,-0.005 -7.50659,-8.63513 v -0.0741 l 9.06617,-0.0974 0.21555,0.2457 z"
       id="path3322" />
    <path
       style="color:#000000;display:inline;fill:none;stroke:#ff0000;stroke-width:0.025;stroke-linejoin:bevel;stroke-miterlimit:4;stroke-dasharray:none;stroke-opacity:1"
       d="m 202.60457,166.95671 -12.77423,14.09244 h -7.44363 l 0.1164,-28.55643 7.53503,0.005 z"
       id="path3324" />
    <path
       style="color:#000000;display:inline;fill:none;stroke:#ff0000;stroke-width:0.025;stroke-linejoin:bevel;stroke-miterlimit:4;stroke-dasharray:none;stroke-opacity:1"
       d="m 207.87134,173.68654 -6.516,7.35651 h -9.35673 l 11.49138,-12.67847 z"
       id="path3326" />
    <path
       style="color:#000000;display:inline;fill:none;stroke:#ff0000;stroke-width:0.025;stroke-linejoin:bevel;stroke-miterlimit:4;stroke-dasharray:none;stroke-opacity:1"
       d="m 208.14378,160.09932 -4.71415,5.35987 -11.26291,-12.95699 9.31363,0.005 z"
       id="path3328" />
    <path
       style="color:#000000;display:inline;fill:none;stroke:#ff0000;stroke-width:0.025;stroke-linejoin:bevel;stroke-miterlimit:4;stroke-dasharray:none;stroke-opacity:1"
       d="m 213.92956,181.03625 h -9.3438 l 4.84261,-5.46683 z"
       id="path3330" />
    <path
       style="color:#000000;display:inline;fill:none;stroke:#ff0000;stroke-width:0.025;stroke-linejoin:bevel;stroke-miterlimit:4;stroke-dasharray:none;stroke-opacity:1"
       d="m 213.99846,166.76964 -5.04867,5.69954 -4.6176,-5.60299 4.88055,-5.54955 z"
       id="path3332" />
    <path
       style="color:#000000;display:inline;fill:none;stroke:#ff0000;stroke-width:0.025;stroke-linejoin:bevel;stroke-miterlimit:4;stroke-dasharray:none;stroke-opacity:1"
       d="m 214.8149,152.51513 -5.06161,5.75388 -5.05553,-5.7599 z"
       id="path3334" />
    <path
       style="color:#000000;display:inline;fill:none;stroke:#ff0000;stroke-width:0.025;stroke-linejoin:bevel;stroke-miterlimit:4;stroke-dasharray:none;stroke-opacity:1"
       d="m 229.23578,136.11908 -12.28711,13.96914 -14.38297,-0.007 -16.46281,-18.89011 h 43.09754 z"
       id="path3336" />
    <path
       style="color:#000000;display:inline;fill:none;stroke:#ff0000;stroke-width:0.025;stroke-linejoin:bevel;stroke-miterlimit:4;stroke-dasharray:none;stroke-opacity:1"
       d="m 229.32368,150.09513 -10.23696,-0.006 10.16454,-11.55603 z"
       id="path3338" />
    <path
       style="color:#000000;display:inline;fill:none;stroke:#ff0000;stroke-width:0.025;stroke-linejoin:bevel;stroke-miterlimit:4;stroke-dasharray:none;stroke-opacity:1"
       d="m 229.42368,165.90406 -12.89059,0.0898 -5.71166,-6.50738 6.13149,-6.97036 12.38628,0.006 z"
       id="path3340" />
    <path
       style="color:#000000;display:inline;fill:none;stroke:#ff0000;stroke-width:0.025;stroke-linejoin:bevel;stroke-miterlimit:4;stroke-dasharray:none;stroke-opacity:1"
       d="m 229.51848,181.02755 -13.50875,0.01 -5.50388,-6.67803 5.98839,-6.75999 12.93889,-0.087 z"
       id="path3342" />
    <path
       style="color:#000000;display:inline;fill:none;stroke:#ff0000;stroke-width:0.025;stroke-linejoin:bevel;stroke-miterlimit:4;stroke-dasharray:none;stroke-opacity:1"
       d="m 229.62285,197.55125 -11.61033,-14.0864 11.52153,-0.01 z"
       id="path3344" />
    <path
       style="color:#000000;display:inline;fill:none;stroke:#ff0000;stroke-width:0.025;stroke-linejoin:bevel;stroke-miterlimit:4;stroke-dasharray:none;stroke-opacity:1"
       d="m 229.65315,202.36795 -44.11882,0.1819 16.89696,-19.0764 13.50101,-0.01 13.7062,16.6288 z"
       id="path3346" />
  </g>
  <g
     id="g3364"
     transform="matrix(-1.2509408,0,0,-1.2509408,451.40153,438.71938)"
     style="stroke-width:0.01998496;stroke-miterlimit:4;stroke-dasharray:none;stroke:#ff0000;stroke-opacity:1">
    <path
       style="color:#000000;display:inline;fill:none;fill-opacity:1;stroke:#ff0000;stroke-width:0.01998496;stroke-linejoin:bevel;stroke-miterlimit:4;stroke-dasharray:none;stroke-opacity:1"
       d="m 293.11436,105.64549 c 1.6724,4.54424 5.74508,7.81556 10.81804,7.92303 v 1.91874 h -10.81804 z"
       id="path3350" />
    <path
       style="color:#000000;display:inline;fill:none;fill-opacity:1;stroke:#ff0000;stroke-width:0.01998496;stroke-linejoin:bevel;stroke-miterlimit:4;stroke-dasharray:none;stroke-opacity:1"
       d="m 315.89538,105.19693 v 10.29033 h -11.01701 v -1.91874 c 5.23729,-0.11203 9.46943,-3.59636 11.01701,-8.37159 z"
       id="path3352" />
    <path
       style="color:#000000;display:inline;fill:none;fill-opacity:1;stroke:#ff0000;stroke-width:0.01998496;stroke-linejoin:bevel;stroke-miterlimit:4;stroke-dasharray:none;stroke-opacity:1"
       d="m 304.42683,91.15955 c 5.65909,0 10.23244,4.59472 10.23244,10.29291 0,5.69819 -4.57335,10.29291 -10.23244,10.29291 -5.65907,0 -10.23244,-4.59472 -10.23244,-10.29291 0,-5.69819 4.57337,-10.29291 10.23244,-10.29291 z"
       id="path3354" />
    <path
       style="color:#000000;display:inline;fill:none;fill-opacity:1;stroke:#ff0000;stroke-width:0.01998496;stroke-linejoin:bevel;stroke-miterlimit:4;stroke-dasharray:none;stroke-opacity:1"
       d="m 318.06528,87.47192 h 13.8162 v 28.01534 h -13.8162 z"
       id="path3356" />
    <path
       style="color:#000000;display:inline;fill:none;fill-opacity:1;stroke:#ff0000;stroke-width:0.01998496;stroke-linejoin:bevel;stroke-miterlimit:4;stroke-dasharray:none;stroke-opacity:1"
       d="m 304.82841,87.47192 h 11.06697 V 97.7085 c -1.54758,-4.77473 -5.82967,-8.25753 -11.06697,-8.36951 z"
       id="path3358" />
    <path
       style="color:#000000;display:inline;fill:none;fill-opacity:1;stroke:#ff0000;stroke-width:0.01998496;stroke-linejoin:bevel;stroke-miterlimit:4;stroke-dasharray:none;stroke-opacity:1"
       d="m 293.11436,87.47192 h 10.87419 v 1.86707 c -5.07296,0.10743 -9.20179,3.37723 -10.87419,7.92096 z"
       id="path3360" />
    <path
       style="color:#000000;display:inline;fill:none;fill-opacity:1;stroke:#ff0000;stroke-width:0.01998496;stroke-linejoin:bevel;stroke-miterlimit:4;stroke-dasharray:none;stroke-opacity:1"
       d="m 276.74636,87.47192 h 14.20585 v 28.01534 h -14.20585 z"
       id="path3362" />
  </g>
  <path
     style="color:#000000;display:inline;fill:none;fill-opacity:1;stroke:#ff0000;stroke-width:0.025;stroke-linejoin:bevel;stroke-miterlimit:4;stroke-dasharray:none;stroke-opacity:1"
     d="m 47.48705,373.73945 c 3.27039,-5.48583 9.10337,-9.19758 15.67469,-9.41418 l 0.009,-9.98071 h -3.84519 l -10.56528,-0.007 0.006,0.005 h -1.28548 z"
     id="path3366"
     sodipodi:nodetypes="cccccccc" />
  <path
     style="color:#000000;display:inline;fill:none;fill-opacity:1;stroke:#ff0000;stroke-width:0.025;stroke-linejoin:bevel;stroke-miterlimit:4;stroke-dasharray:none;stroke-opacity:1"
     d="m 80.06406,374.79639 h 6e-4 l 0.0142,-20.44749 -15.28054,-0.004 -0.01,4.33612 -0.0128,5.64642 c 6.99182,0.62052 12.15732,4.50111 15.28857,10.46858 z"
     id="path3368"
     sodipodi:nodetypes="cccccccc" />
  <path
     style="color:#000000;display:inline;fill:none;fill-opacity:1;stroke:#ff0000;stroke-width:0.025;stroke-linejoin:bevel;stroke-miterlimit:4;stroke-dasharray:none;stroke-opacity:1"
     d="m 82.82858,387.74902 h 21.96451 l -0.0601,-33.40446 -1.82965,0.0186 v -0.01 l -20.04929,-0.005 z"
     id="path3370"
     sodipodi:nodetypes="ccccccc" />
  <path
     style="color:#000000;display:inline;fill:none;fill-opacity:1;stroke:#ff0000;stroke-width:0.025;stroke-linejoin:bevel;stroke-miterlimit:4;stroke-dasharray:none;stroke-opacity:1"
     d="m 44.71957,387.82377 c 0,0 -0.009,-23.96622 -0.0142,-33.48354 h -0.11033 v -0.006 l -12.03136,-0.005 0.009,0.007 h -2.92152 l -0.009,-0.008 -6.20894,-0.004 -0.0175,33.4248 z"
     id="path3372"
     sodipodi:nodetypes="ccccccccccc" />
  <path
     style="color:#000000;display:inline;fill:none;fill-opacity:1;stroke:#ff0000;stroke-width:0.025;stroke-linejoin:bevel;stroke-miterlimit:4;stroke-dasharray:none;stroke-opacity:1"
     d="m 47.49118,387.83736 32.56402,-0.0883 0.001,-1.47451 h -0.0171 c 2.6e-4,-1.09382 -0.097,-4.1575 -0.28302,-5.19379 -1.42549,-7.93823 -8.0671,-13.925 -16.07277,-13.92689 -8.25674,-0.004 -15.06082,6.36347 -16.1929,14.67228 z"
     id="path3374"
     sodipodi:nodetypes="ccccsccc" />
  <path
     style="display:inline;fill:none;fill-opacity:1;stroke:#ff0000;stroke-width:0.025;stroke-linecap:butt;stroke-linejoin:miter;stroke-miterlimit:4;stroke-dasharray:none;stroke-opacity:1"
     d="m 146.60743,297.7067 c -1.45346,-0.98567 -3.20603,-1.56177 -5.09027,-1.56094 -1.79725,5.2e-4 -3.47411,0.52583 -4.88591,1.43053 1.57581,-3.14458 3.21316,-6.25367 4.97001,-9.29312 1.73492,3.10294 3.39296,6.25044 5.00617,9.42353 z"
     id="path3376" />
  <path
     style="display:inline;fill:none;fill-opacity:1;stroke:#ff0000;stroke-width:0.025;stroke-linecap:butt;stroke-linejoin:miter;stroke-miterlimit:4;stroke-dasharray:none;stroke-opacity:1"
     d="m 134.53019,311.03298 -3.62197,-1.55478 c 0.5235,-1.10906 1.04676,-2.21855 1.57127,-3.3272 0.18596,1.84466 0.92595,3.52863 2.0507,4.88198 z"
     id="path3378" />
  <path
     style="display:inline;fill:none;fill-opacity:1;stroke:#ff0000;stroke-width:0.025;stroke-linecap:butt;stroke-linejoin:miter;stroke-miterlimit:4;stroke-dasharray:none;stroke-opacity:1"
     d="m 148.32566,311.24834 c 1.3125,-1.48307 2.14922,-3.39651 2.2677,-5.49823 0.60984,1.25712 1.21503,2.51704 1.81963,3.77684 z"
     id="path3380" />
  <path
     style="display:inline;fill:none;fill-opacity:1;stroke:#ff0000;stroke-width:0.025;stroke-linecap:butt;stroke-linejoin:miter;stroke-miterlimit:4;stroke-dasharray:none;stroke-opacity:1"
     d="m 141.52346,312.85025 c -4.21617,10e-4 -7.61883,-3.39805 -7.6205,-7.61421 -0.001,-4.21614 3.39804,-7.61885 7.6142,-7.62051 4.21615,-10e-4 7.62193,3.39802 7.62363,7.61422 10e-4,4.21619 -3.40118,7.61882 -7.61733,7.6205 z"
     id="path3382" />
  <path
     style="display:inline;fill:none;fill-opacity:1;stroke:#ff0000;stroke-width:0.025;stroke-linecap:butt;stroke-linejoin:miter;stroke-miterlimit:4;stroke-dasharray:none;stroke-opacity:1"
     d="m 140.67768,327.17313 -14.30872,-0.006 -2.48148,-3.42391 c 2.19872,-4.14739 4.2403,-8.3883 6.25598,-12.6463 l 10.57197,4.53694 z"
     id="path3384" />
  <path
     style="display:inline;fill:none;fill-opacity:1;stroke:#ff0000;stroke-width:0.025;stroke-linecap:butt;stroke-linejoin:miter;stroke-miterlimit:4;stroke-dasharray:none;stroke-opacity:1"
     d="m 156.80998,327.18013 -14.34252,-0.006 0.038,-11.53566 10.68283,-4.49761 c 1.97095,4.11664 3.93164,8.23671 5.94072,12.3256 z"
     id="path3386" />
  <path
     style="display:inline;fill:none;fill-opacity:1;stroke:#ff0000;stroke-width:0.025;stroke-linecap:butt;stroke-linejoin:miter;stroke-miterlimit:4;stroke-dasharray:none;stroke-opacity:1"
     d="m 145.77099,368.90128 c -1.45346,0.98567 -3.20603,1.56177 -5.09027,1.56094 -1.79725,-5.2e-4 -3.47411,-0.52583 -4.88591,-1.43053 1.57581,3.14458 3.21316,6.25367 4.97001,9.29312 1.73492,-3.10294 3.39296,-6.25044 5.00617,-9.42353 z"
     id="path3388" />
  <path
     style="display:inline;fill:none;fill-opacity:1;stroke:#ff0000;stroke-width:0.025;stroke-linecap:butt;stroke-linejoin:miter;stroke-miterlimit:4;stroke-dasharray:none;stroke-opacity:1"
     d="m 133.69375,355.575 -3.62197,1.55478 c 0.5235,1.10906 1.04676,2.21855 1.57127,3.3272 0.18596,-1.84466 0.92595,-3.52863 2.0507,-4.88198 z"
     id="path3390" />
  <path
     style="display:inline;fill:none;fill-opacity:1;stroke:#ff0000;stroke-width:0.025;stroke-linecap:butt;stroke-linejoin:miter;stroke-miterlimit:4;stroke-dasharray:none;stroke-opacity:1"
     d="m 147.48922,355.35964 c 1.3125,1.48307 2.14922,3.39651 2.2677,5.49823 0.60984,-1.25712 1.21503,-2.51704 1.81963,-3.77684 z"
     id="path3392" />
  <path
     style="display:inline;fill:none;fill-opacity:1;stroke:#ff0000;stroke-width:0.025;stroke-linecap:butt;stroke-linejoin:miter;stroke-miterlimit:4;stroke-dasharray:none;stroke-opacity:1"
     d="m 140.68702,353.75773 c -4.21617,-10e-4 -7.61883,3.39805 -7.6205,7.61421 -0.001,4.21614 3.39804,7.61885 7.6142,7.62051 4.21615,10e-4 7.62193,-3.39802 7.62363,-7.61422 0.001,-4.21619 -3.40118,-7.61882 -7.61733,-7.6205 z"
     id="path3394" />
  <path
     style="display:inline;fill:none;fill-opacity:1;stroke:#ff0000;stroke-width:0.025;stroke-linecap:butt;stroke-linejoin:miter;stroke-miterlimit:4;stroke-dasharray:none;stroke-opacity:1"
     d="m 139.84124,339.43485 -14.30872,0.006 -2.48148,3.42391 c 2.19872,4.14739 4.2403,8.3883 6.25598,12.6463 l 10.57197,-4.53694 z"
     id="path3396" />
  <path
     style="display:inline;fill:none;fill-opacity:1;stroke:#ff0000;stroke-width:0.025;stroke-linecap:butt;stroke-linejoin:miter;stroke-miterlimit:4;stroke-dasharray:none;stroke-opacity:1"
     d="m 155.97354,339.42785 -14.34252,0.006 0.038,11.53566 10.68283,4.49761 c 1.97095,-4.11664 3.93164,-8.23671 5.94072,-12.3256 z"
     id="path3398" />
</svg>
