<?xml version="1.0" encoding="UTF-8" standalone="no"?>
<svg
   width="309.80719mm"
   height="374.05447mm"
   version="1.1"
   viewBox="0 0 309.8072 374.05447"
   id="svg238"
   sodipodi:docname="GeneratedOnce.svg"
   inkscape:version="1.1.2 (1:1.1+202202050950+0a00cf5339)"
   xmlns:inkscape="http://www.inkscape.org/namespaces/inkscape"
   xmlns:sodipodi="http://sodipodi.sourceforge.net/DTD/sodipodi-0.dtd"
   xmlns="http://www.w3.org/2000/svg"
   xmlns:svg="http://www.w3.org/2000/svg">
  <defs
     id="defs242" />
  <sodipodi:namedview
     id="namedview240"
     pagecolor="#505050"
     bordercolor="#eeeeee"
     borderopacity="1"
     inkscape:pageshadow="0"
     inkscape:pageopacity="0"
     inkscape:pagecheckerboard="0"
     inkscape:document-units="mm"
     showgrid="false"
     inkscape:zoom="0.37015164"
     inkscape:cx="1007.6951"
     inkscape:cy="1002.2919"
     inkscape:current-layer="svg238" />
  <path
     d="M 92.006705,0.40450848 183.42562,66.824248 148.5067,174.29363 H 35.506705 L 0.58778525,66.824248 92.006705,0.40450848"
     stroke="#ff0000"
     stroke-width="0.001mm"
     style="fill:none;stroke-width:0.025;stroke:#ff0000;stroke-opacity:1;stroke-miterlimit:4;stroke-dasharray:none"
     id="path2" />
  <path
     d="m 93.118506,7.9762185 2.507952,1.82213 2.468696,-3.39787 -2.50795,-1.82214 -2.468698,3.39788"
     stroke="#ff0000"
     stroke-width="0.001mm"
     style="fill:none;stroke-width:0.025;stroke:#ff0000;stroke-opacity:1;stroke-miterlimit:4;stroke-dasharray:none"
     id="path4" />
  <path
     d="m 97.972604,11.502928 2.507956,1.82213 2.46869,-3.3978695 -2.50795,-1.82213 -2.468696,3.3978695"
     stroke="#ff0000"
     stroke-width="0.001mm"
     style="fill:none;stroke-width:0.025;stroke:#ff0000;stroke-opacity:1;stroke-miterlimit:4;stroke-dasharray:none"
     id="path6" />
  <path
     d="m 102.82671,15.029638 2.50795,1.82213 2.4687,-3.39787 -2.50796,-1.82213 -2.46869,3.39787"
     stroke="#ff0000"
     stroke-width="0.001mm"
     style="fill:none;stroke-width:0.025;stroke:#ff0000;stroke-opacity:1;stroke-miterlimit:4;stroke-dasharray:none"
     id="path8" />
  <path
     d="m 107.68081,18.556348 2.50795,1.82213 2.4687,-3.39787 -2.50795,-1.82213 -2.4687,3.39787"
     stroke="#ff0000"
     stroke-width="0.001mm"
     style="fill:none;stroke-width:0.025;stroke:#ff0000;stroke-opacity:1;stroke-miterlimit:4;stroke-dasharray:none"
     id="path10" />
  <path
     d="m 112.53491,22.083058 2.50795,1.82214 2.4687,-3.39788 -2.50795,-1.82213 -2.4687,3.39787"
     stroke="#ff0000"
     stroke-width="0.001mm"
     style="fill:none;stroke-width:0.025;stroke:#ff0000;stroke-opacity:1;stroke-miterlimit:4;stroke-dasharray:none"
     id="path12" />
  <path
     d="m 117.38901,25.609768 2.50795,1.82214 2.4687,-3.39787 -2.50795,-1.82214 -2.4687,3.39787"
     stroke="#ff0000"
     stroke-width="0.001mm"
     style="fill:none;stroke-width:0.025;stroke:#ff0000;stroke-opacity:1;stroke-miterlimit:4;stroke-dasharray:none"
     id="path14" />
  <path
     d="m 122.24311,29.136478 2.50796,1.82214 2.46869,-3.39787 -2.50795,-1.82214 -2.4687,3.39787"
     stroke="#ff0000"
     stroke-width="0.001mm"
     style="fill:none;stroke-width:0.025;stroke:#ff0000;stroke-opacity:1;stroke-miterlimit:4;stroke-dasharray:none"
     id="path16" />
  <path
     d="m 127.09722,32.663198 2.50795,1.82213 2.4687,-3.39787 -2.50796,-1.82214 -2.46869,3.39788"
     stroke="#ff0000"
     stroke-width="0.001mm"
     style="fill:none;stroke-width:0.025;stroke:#ff0000;stroke-opacity:1;stroke-miterlimit:4;stroke-dasharray:none"
     id="path18" />
  <path
     d="m 131.95132,36.189908 2.50795,1.82213 2.4687,-3.39787 -2.50795,-1.82213 -2.4687,3.39787"
     stroke="#ff0000"
     stroke-width="0.001mm"
     style="fill:none;stroke-width:0.025;stroke:#ff0000;stroke-opacity:1;stroke-miterlimit:4;stroke-dasharray:none"
     id="path20" />
  <path
     d="m 136.80542,39.716618 2.50795,1.82213 2.4687,-3.39787 -2.50795,-1.82213 -2.4687,3.39787"
     stroke="#ff0000"
     stroke-width="0.001mm"
     style="fill:none;stroke-width:0.025;stroke:#ff0000;stroke-opacity:1;stroke-miterlimit:4;stroke-dasharray:none"
     id="path22" />
  <path
     d="m 141.65952,43.243328 2.50795,1.82213 2.4687,-3.39787 -2.50795,-1.82213 -2.4687,3.39787"
     stroke="#ff0000"
     stroke-width="0.001mm"
     style="fill:none;stroke-width:0.025;stroke:#ff0000;stroke-opacity:1;stroke-miterlimit:4;stroke-dasharray:none"
     id="path24" />
  <path
     d="m 146.51362,46.770038 2.50796,1.82214 2.46869,-3.39788 -2.50795,-1.82213 -2.4687,3.39787"
     stroke="#ff0000"
     stroke-width="0.001mm"
     style="fill:none;stroke-width:0.025;stroke:#ff0000;stroke-opacity:1;stroke-miterlimit:4;stroke-dasharray:none"
     id="path26" />
  <path
     d="m 151.36773,50.296748 2.50795,1.82214 2.4687,-3.39787 -2.50796,-1.82214 -2.46869,3.39787"
     stroke="#ff0000"
     stroke-width="0.001mm"
     style="fill:none;stroke-width:0.025;stroke:#ff0000;stroke-opacity:1;stroke-miterlimit:4;stroke-dasharray:none"
     id="path28" />
  <path
     d="m 156.22183,53.823468 2.50795,1.82213 2.4687,-3.39787 -2.50795,-1.82214 -2.4687,3.39788"
     stroke="#ff0000"
     stroke-width="0.001mm"
     style="fill:none;stroke-width:0.025;stroke:#ff0000;stroke-opacity:1;stroke-miterlimit:4;stroke-dasharray:none"
     id="path30" />
  <path
     d="m 161.07593,57.350178 2.50795,1.82213 2.4687,-3.39787 -2.50795,-1.82213 -2.4687,3.39787"
     stroke="#ff0000"
     stroke-width="0.001mm"
     style="fill:none;stroke-width:0.025;stroke:#ff0000;stroke-opacity:1;stroke-miterlimit:4;stroke-dasharray:none"
     id="path32" />
  <path
     d="m 165.93003,60.876888 2.50795,1.82213 2.4687,-3.39787 -2.50795,-1.82213 -2.4687,3.39787"
     stroke="#ff0000"
     stroke-width="0.001mm"
     style="fill:none;stroke-width:0.025;stroke:#ff0000;stroke-opacity:1;stroke-miterlimit:4;stroke-dasharray:none"
     id="path34" />
  <path
     d="m 170.78413,64.403598 2.50796,1.82213 2.46869,-3.39787 -2.50795,-1.82213 -2.4687,3.39787"
     stroke="#ff0000"
     stroke-width="0.001mm"
     style="fill:none;stroke-width:0.025;stroke:#ff0000;stroke-opacity:1;stroke-miterlimit:4;stroke-dasharray:none"
     id="path36" />
  <path
     d="m 175.63824,67.930308 2.50795,1.82214 2.4687,-3.39788 -2.50796,-1.82213 -2.46869,3.39787"
     stroke="#ff0000"
     stroke-width="0.001mm"
     style="fill:none;stroke-width:0.025;stroke:#ff0000;stroke-opacity:1;stroke-miterlimit:4;stroke-dasharray:none"
     id="path38" />
  <path
     d="m 91.894448,14.936818 4.045086,2.93892 1.76336,-2.42705 -4.04509,-2.93892 -1.763356,2.42705"
     stroke="#ff0000"
     stroke-width="0.001mm"
     style="fill:none;stroke-width:0.025;stroke:#ff0000;stroke-opacity:1;stroke-miterlimit:4;stroke-dasharray:none"
     id="path40" />
  <path
     d="m 171.40262,68.994688 -4.04508,-2.93893 -1.76336,2.42705 4.04509,2.93893 1.76335,-2.42705"
     stroke="#ff0000"
     stroke-width="0.001mm"
     style="fill:none;stroke-width:0.025;stroke:#ff0000;stroke-opacity:1;stroke-miterlimit:4;stroke-dasharray:none"
     id="path42" />
  <path
     d="m 176.56807,70.221418 -0.95795,2.94827 3.99444,1.29787 0.95795,-2.94827 -3.99444,-1.29787"
     stroke="#ff0000"
     stroke-width="0.001mm"
     style="fill:none;stroke-width:0.025;stroke:#ff0000;stroke-opacity:1;stroke-miterlimit:4;stroke-dasharray:none"
     id="path44" />
  <path
     d="m 174.71397,75.927758 -0.95795,2.94827 3.99443,1.29787 0.95796,-2.94827 -3.99444,-1.29787"
     stroke="#ff0000"
     stroke-width="0.001mm"
     style="fill:none;stroke-width:0.025;stroke:#ff0000;stroke-opacity:1;stroke-miterlimit:4;stroke-dasharray:none"
     id="path46" />
  <path
     d="m 172.85987,81.634088 -0.95796,2.94828 3.99444,1.29787 0.95795,-2.94827 -3.99443,-1.29788"
     stroke="#ff0000"
     stroke-width="0.001mm"
     style="fill:none;stroke-width:0.025;stroke:#ff0000;stroke-opacity:1;stroke-miterlimit:4;stroke-dasharray:none"
     id="path48" />
  <path
     d="m 171.00576,87.340432 -0.95795,2.948275 3.99444,1.297872 0.95795,-2.948275 -3.99444,-1.297872"
     stroke="#ff0000"
     stroke-width="0.001mm"
     style="fill:none;stroke-width:0.025;stroke:#ff0000;stroke-opacity:1;stroke-miterlimit:4;stroke-dasharray:none"
     id="path50" />
  <path
     d="m 169.15166,93.046771 -0.95795,2.948276 3.99444,1.297871 0.95795,-2.948275 -3.99444,-1.297872"
     stroke="#ff0000"
     stroke-width="0.001mm"
     style="fill:none;stroke-width:0.025;stroke:#ff0000;stroke-opacity:1;stroke-miterlimit:4;stroke-dasharray:none"
     id="path52" />
  <path
     d="m 167.29756,98.75311 -0.95795,2.94827 3.99444,1.29788 0.95795,-2.94828 -3.99444,-1.29787"
     stroke="#ff0000"
     stroke-width="0.001mm"
     style="fill:none;stroke-width:0.025;stroke:#ff0000;stroke-opacity:1;stroke-miterlimit:4;stroke-dasharray:none"
     id="path54" />
  <path
     d="m 165.44346,104.45945 -0.95795,2.94827 3.99443,1.29787 0.95796,-2.94827 -3.99444,-1.29787"
     stroke="#ff0000"
     stroke-width="0.001mm"
     style="fill:none;stroke-width:0.025;stroke:#ff0000;stroke-opacity:1;stroke-miterlimit:4;stroke-dasharray:none"
     id="path56" />
  <path
     d="m 163.58936,110.16579 -0.95796,2.94827 3.99444,1.29787 0.95795,-2.94827 -3.99443,-1.29787"
     stroke="#ff0000"
     stroke-width="0.001mm"
     style="fill:none;stroke-width:0.025;stroke:#ff0000;stroke-opacity:1;stroke-miterlimit:4;stroke-dasharray:none"
     id="path58" />
  <path
     d="m 161.73525,115.87213 -0.95795,2.94827 3.99444,1.29787 0.95795,-2.94827 -3.99444,-1.29787"
     stroke="#ff0000"
     stroke-width="0.001mm"
     style="fill:none;stroke-width:0.025;stroke:#ff0000;stroke-opacity:1;stroke-miterlimit:4;stroke-dasharray:none"
     id="path60" />
  <path
     d="m 159.88115,121.57846 -0.95795,2.94828 3.99444,1.29787 0.95795,-2.94827 -3.99444,-1.29788"
     stroke="#ff0000"
     stroke-width="0.001mm"
     style="fill:none;stroke-width:0.025;stroke:#ff0000;stroke-opacity:1;stroke-miterlimit:4;stroke-dasharray:none"
     id="path62" />
  <path
     d="m 158.02705,127.2848 -0.95795,2.94828 3.99444,1.29787 0.95795,-2.94827 -3.99444,-1.29788"
     stroke="#ff0000"
     stroke-width="0.001mm"
     style="fill:none;stroke-width:0.025;stroke:#ff0000;stroke-opacity:1;stroke-miterlimit:4;stroke-dasharray:none"
     id="path64" />
  <path
     d="m 156.17295,132.99114 -0.95795,2.94828 3.99443,1.29787 0.95796,-2.94828 -3.99444,-1.29787"
     stroke="#ff0000"
     stroke-width="0.001mm"
     style="fill:none;stroke-width:0.025;stroke:#ff0000;stroke-opacity:1;stroke-miterlimit:4;stroke-dasharray:none"
     id="path66" />
  <path
     d="m 154.31885,138.69748 -0.95796,2.94828 3.99444,1.29787 0.95795,-2.94828 -3.99443,-1.29787"
     stroke="#ff0000"
     stroke-width="0.001mm"
     style="fill:none;stroke-width:0.025;stroke:#ff0000;stroke-opacity:1;stroke-miterlimit:4;stroke-dasharray:none"
     id="path68" />
  <path
     d="m 152.46474,144.40382 -0.95795,2.94828 3.99444,1.29787 0.95795,-2.94828 -3.99444,-1.29787"
     stroke="#ff0000"
     stroke-width="0.001mm"
     style="fill:none;stroke-width:0.025;stroke:#ff0000;stroke-opacity:1;stroke-miterlimit:4;stroke-dasharray:none"
     id="path70" />
  <path
     d="m 150.61064,150.11016 -0.95795,2.94828 3.99444,1.29787 0.95795,-2.94828 -3.99444,-1.29787"
     stroke="#ff0000"
     stroke-width="0.001mm"
     style="fill:none;stroke-width:0.025;stroke:#ff0000;stroke-opacity:1;stroke-miterlimit:4;stroke-dasharray:none"
     id="path72" />
  <path
     d="m 148.75654,155.8165 -0.95795,2.94827 3.99444,1.29788 0.95795,-2.94828 -3.99444,-1.29787"
     stroke="#ff0000"
     stroke-width="0.001mm"
     style="fill:none;stroke-width:0.025;stroke:#ff0000;stroke-opacity:1;stroke-miterlimit:4;stroke-dasharray:none"
     id="path74" />
  <path
     d="m 146.90244,161.52284 -0.95795,2.94827 3.99443,1.29788 0.95796,-2.94828 -3.99444,-1.29787"
     stroke="#ff0000"
     stroke-width="0.001mm"
     style="fill:none;stroke-width:0.025;stroke:#ff0000;stroke-opacity:1;stroke-miterlimit:4;stroke-dasharray:none"
     id="path76" />
  <path
     d="m 145.04834,167.22918 -0.95796,2.94827 3.99444,1.29787 0.95795,-2.94827 -3.99443,-1.29787"
     stroke="#ff0000"
     stroke-width="0.001mm"
     style="fill:none;stroke-width:0.025;stroke:#ff0000;stroke-opacity:1;stroke-miterlimit:4;stroke-dasharray:none"
     id="path78" />
  <path
     d="m 169.56989,71.208208 -1.54509,4.75529 2.85317,0.92705 1.54509,-4.75529 -2.85317,-0.92705"
     stroke="#ff0000"
     stroke-width="0.001mm"
     style="fill:none;stroke-width:0.025;stroke:#ff0000;stroke-opacity:1;stroke-miterlimit:4;stroke-dasharray:none"
     id="path80" />
  <path
     d="m 142.72718,163.52978 1.54508,-4.75528 -2.85317,-0.92705 -1.54508,4.75528 2.85317,0.92705"
     stroke="#ff0000"
     stroke-width="0.001mm"
     style="fill:none;stroke-width:0.025;stroke:#ff0000;stroke-opacity:1;stroke-miterlimit:4;stroke-dasharray:none"
     id="path82" />
  <path
     d="m 143.1567,168.82149 h -3.1 v 4.2 h 3.1 v -4.2"
     stroke="#ff0000"
     stroke-width="0.001mm"
     style="fill:none;stroke-width:0.025;stroke:#ff0000;stroke-opacity:1;stroke-miterlimit:4;stroke-dasharray:none"
     id="path84" />
  <path
     d="m 137.1567,168.82149 h -3.1 v 4.2 h 3.1 v -4.2"
     stroke="#ff0000"
     stroke-width="0.001mm"
     style="fill:none;stroke-width:0.025;stroke:#ff0000;stroke-opacity:1;stroke-miterlimit:4;stroke-dasharray:none"
     id="path86" />
  <path
     d="m 131.1567,168.82149 h -3.1 v 4.2 h 3.1 v -4.2"
     stroke="#ff0000"
     stroke-width="0.001mm"
     style="fill:none;stroke-width:0.025;stroke:#ff0000;stroke-opacity:1;stroke-miterlimit:4;stroke-dasharray:none"
     id="path88" />
  <path
     d="m 125.1567,168.82149 h -3.1 v 4.2 h 3.1 v -4.2"
     stroke="#ff0000"
     stroke-width="0.001mm"
     style="fill:none;stroke-width:0.025;stroke:#ff0000;stroke-opacity:1;stroke-miterlimit:4;stroke-dasharray:none"
     id="path90" />
  <path
     d="m 119.1567,168.82149 h -3.1 v 4.2 h 3.1 v -4.2"
     stroke="#ff0000"
     stroke-width="0.001mm"
     style="fill:none;stroke-width:0.025;stroke:#ff0000;stroke-opacity:1;stroke-miterlimit:4;stroke-dasharray:none"
     id="path92" />
  <path
     d="m 113.1567,168.82149 h -3.1 v 4.2 h 3.1 v -4.2"
     stroke="#ff0000"
     stroke-width="0.001mm"
     style="fill:none;stroke-width:0.025;stroke:#ff0000;stroke-opacity:1;stroke-miterlimit:4;stroke-dasharray:none"
     id="path94" />
  <path
     d="m 107.1567,168.82149 h -3.1 v 4.2 h 3.1 v -4.2"
     stroke="#ff0000"
     stroke-width="0.001mm"
     style="fill:none;stroke-width:0.025;stroke:#ff0000;stroke-opacity:1;stroke-miterlimit:4;stroke-dasharray:none"
     id="path96" />
  <path
     d="m 101.1567,168.82149 h -3.099996 v 4.2 h 3.099996 v -4.2"
     stroke="#ff0000"
     stroke-width="0.001mm"
     style="fill:none;stroke-width:0.025;stroke:#ff0000;stroke-opacity:1;stroke-miterlimit:4;stroke-dasharray:none"
     id="path98" />
  <path
     d="m 95.156705,168.82149 h -3.1 v 4.2 h 3.1 v -4.2"
     stroke="#ff0000"
     stroke-width="0.001mm"
     style="fill:none;stroke-width:0.025;stroke:#ff0000;stroke-opacity:1;stroke-miterlimit:4;stroke-dasharray:none"
     id="path100" />
  <path
     d="m 89.156705,168.82149 h -3.1 v 4.2 h 3.1 v -4.2"
     stroke="#ff0000"
     stroke-width="0.001mm"
     style="fill:none;stroke-width:0.025;stroke:#ff0000;stroke-opacity:1;stroke-miterlimit:4;stroke-dasharray:none"
     id="path102" />
  <path
     d="m 83.156705,168.82149 h -3.1 v 4.2 h 3.1 v -4.2"
     stroke="#ff0000"
     stroke-width="0.001mm"
     style="fill:none;stroke-width:0.025;stroke:#ff0000;stroke-opacity:1;stroke-miterlimit:4;stroke-dasharray:none"
     id="path104" />
  <path
     d="m 77.156705,168.82149 h -3.1 v 4.2 h 3.1 v -4.2"
     stroke="#ff0000"
     stroke-width="0.001mm"
     style="fill:none;stroke-width:0.025;stroke:#ff0000;stroke-opacity:1;stroke-miterlimit:4;stroke-dasharray:none"
     id="path106" />
  <path
     d="m 71.156705,168.82149 h -3.1 v 4.2 h 3.1 v -4.2"
     stroke="#ff0000"
     stroke-width="0.001mm"
     style="fill:none;stroke-width:0.025;stroke:#ff0000;stroke-opacity:1;stroke-miterlimit:4;stroke-dasharray:none"
     id="path108" />
  <path
     d="m 65.156705,168.82149 h -3.1 v 4.2 h 3.1 v -4.2"
     stroke="#ff0000"
     stroke-width="0.001mm"
     style="fill:none;stroke-width:0.025;stroke:#ff0000;stroke-opacity:1;stroke-miterlimit:4;stroke-dasharray:none"
     id="path110" />
  <path
     d="m 59.156705,168.82149 h -3.1 v 4.2 h 3.1 v -4.2"
     stroke="#ff0000"
     stroke-width="0.001mm"
     style="fill:none;stroke-width:0.025;stroke:#ff0000;stroke-opacity:1;stroke-miterlimit:4;stroke-dasharray:none"
     id="path112" />
  <path
     d="m 53.156705,168.82149 h -3.1 v 4.2 h 3.1 v -4.2"
     stroke="#ff0000"
     stroke-width="0.001mm"
     style="fill:none;stroke-width:0.025;stroke:#ff0000;stroke-opacity:1;stroke-miterlimit:4;stroke-dasharray:none"
     id="path114" />
  <path
     d="m 47.156705,168.82149 h -3.1 v 4.2 h 3.1 v -4.2"
     stroke="#ff0000"
     stroke-width="0.001mm"
     style="fill:none;stroke-width:0.025;stroke:#ff0000;stroke-opacity:1;stroke-miterlimit:4;stroke-dasharray:none"
     id="path116" />
  <path
     d="m 41.156705,168.82149 h -3.1 v 4.2 h 3.1 v -4.2"
     stroke="#ff0000"
     stroke-width="0.001mm"
     style="fill:none;stroke-width:0.025;stroke:#ff0000;stroke-opacity:1;stroke-miterlimit:4;stroke-dasharray:none"
     id="path118" />
  <path
     d="m 140.05564,162.47077 h -5 v 3 h 5 v -3"
     stroke="#ff0000"
     stroke-width="0.001mm"
     style="fill:none;stroke-width:0.025;stroke:#ff0000;stroke-opacity:1;stroke-miterlimit:4;stroke-dasharray:none"
     id="path120" />
  <path
     d="m 43.957762,165.47077 h 5 v -3 h -5 v 3"
     stroke="#ff0000"
     stroke-width="0.001mm"
     style="fill:none;stroke-width:0.025;stroke:#ff0000;stroke-opacity:1;stroke-miterlimit:4;stroke-dasharray:none"
     id="path122" />
  <path
     d="m 39.057775,167.51449 -0.957953,-2.94827 -3.994437,1.29787 0.957952,2.94828 3.994438,-1.29788"
     stroke="#ff0000"
     stroke-width="0.001mm"
     style="fill:none;stroke-width:0.025;stroke:#ff0000;stroke-opacity:1;stroke-miterlimit:4;stroke-dasharray:none"
     id="path124" />
  <path
     d="m 37.203673,161.80816 -0.957953,-2.94828 -3.994437,1.29787 0.957952,2.94828 3.994438,-1.29787"
     stroke="#ff0000"
     stroke-width="0.001mm"
     style="fill:none;stroke-width:0.025;stroke:#ff0000;stroke-opacity:1;stroke-miterlimit:4;stroke-dasharray:none"
     id="path126" />
  <path
     d="m 35.349571,156.10182 -0.957953,-2.94828 -3.994437,1.29787 0.957952,2.94828 3.994438,-1.29787"
     stroke="#ff0000"
     stroke-width="0.001mm"
     style="fill:none;stroke-width:0.025;stroke:#ff0000;stroke-opacity:1;stroke-miterlimit:4;stroke-dasharray:none"
     id="path128" />
  <path
     d="m 33.495469,150.39548 -0.957953,-2.94828 -3.994437,1.29787 0.957952,2.94828 3.994438,-1.29787"
     stroke="#ff0000"
     stroke-width="0.001mm"
     style="fill:none;stroke-width:0.025;stroke:#ff0000;stroke-opacity:1;stroke-miterlimit:4;stroke-dasharray:none"
     id="path130" />
  <path
     d="m 31.641367,144.68914 -0.957953,-2.94828 -3.994437,1.29787 0.957953,2.94828 3.994437,-1.29787"
     stroke="#ff0000"
     stroke-width="0.001mm"
     style="fill:none;stroke-width:0.025;stroke:#ff0000;stroke-opacity:1;stroke-miterlimit:4;stroke-dasharray:none"
     id="path132" />
  <path
     d="m 29.787265,138.9828 -0.957953,-2.94828 -3.994437,1.29788 0.957953,2.94827 3.994437,-1.29787"
     stroke="#ff0000"
     stroke-width="0.001mm"
     style="fill:none;stroke-width:0.025;stroke:#ff0000;stroke-opacity:1;stroke-miterlimit:4;stroke-dasharray:none"
     id="path134" />
  <path
     d="m 27.933163,133.27646 -0.957953,-2.94828 -3.994437,1.29788 0.957953,2.94827 3.994437,-1.29787"
     stroke="#ff0000"
     stroke-width="0.001mm"
     style="fill:none;stroke-width:0.025;stroke:#ff0000;stroke-opacity:1;stroke-miterlimit:4;stroke-dasharray:none"
     id="path136" />
  <path
     d="m 26.079061,127.57012 -0.957953,-2.94827 -3.994437,1.29787 0.957953,2.94827 3.994437,-1.29787"
     stroke="#ff0000"
     stroke-width="0.001mm"
     style="fill:none;stroke-width:0.025;stroke:#ff0000;stroke-opacity:1;stroke-miterlimit:4;stroke-dasharray:none"
     id="path138" />
  <path
     d="m 24.224959,121.86378 -0.957953,-2.94827 -3.994437,1.29787 0.957953,2.94827 3.994437,-1.29787"
     stroke="#ff0000"
     stroke-width="0.001mm"
     style="fill:none;stroke-width:0.025;stroke:#ff0000;stroke-opacity:1;stroke-miterlimit:4;stroke-dasharray:none"
     id="path140" />
  <path
     d="m 22.370857,116.15744 -0.957953,-2.94827 -3.994437,1.29787 0.957953,2.94827 3.994437,-1.29787"
     stroke="#ff0000"
     stroke-width="0.001mm"
     style="fill:none;stroke-width:0.025;stroke:#ff0000;stroke-opacity:1;stroke-miterlimit:4;stroke-dasharray:none"
     id="path142" />
  <path
     d="m 20.516755,110.4511 -0.957953,-2.94827 -3.994437,1.29787 0.957953,2.94827 3.994437,-1.29787"
     stroke="#ff0000"
     stroke-width="0.001mm"
     style="fill:none;stroke-width:0.025;stroke:#ff0000;stroke-opacity:1;stroke-miterlimit:4;stroke-dasharray:none"
     id="path144" />
  <path
     d="m 18.662653,104.74476 -0.957953,-2.94827 -3.994437,1.29787 0.957953,2.94828 3.994437,-1.29788"
     stroke="#ff0000"
     stroke-width="0.001mm"
     style="fill:none;stroke-width:0.025;stroke:#ff0000;stroke-opacity:1;stroke-miterlimit:4;stroke-dasharray:none"
     id="path146" />
  <path
     d="m 16.808551,99.038427 -0.957953,-2.948275 -3.994437,1.297872 0.957953,2.948276 3.994437,-1.297873"
     stroke="#ff0000"
     stroke-width="0.001mm"
     style="fill:none;stroke-width:0.025;stroke:#ff0000;stroke-opacity:1;stroke-miterlimit:4;stroke-dasharray:none"
     id="path148" />
  <path
     d="m 14.954449,93.332088 -0.957952,-2.948275 -3.994438,1.297871 0.957953,2.948276 3.994437,-1.297872"
     stroke="#ff0000"
     stroke-width="0.001mm"
     style="fill:none;stroke-width:0.025;stroke:#ff0000;stroke-opacity:1;stroke-miterlimit:4;stroke-dasharray:none"
     id="path150" />
  <path
     d="m 13.100347,87.625749 -0.957952,-2.948271 -3.9944378,1.29787 0.957953,2.948273 3.9944368,-1.297872"
     stroke="#ff0000"
     stroke-width="0.001mm"
     style="fill:none;stroke-width:0.025;stroke:#ff0000;stroke-opacity:1;stroke-miterlimit:4;stroke-dasharray:none"
     id="path152" />
  <path
     d="m 11.246245,81.919408 -0.957952,-2.94827 -3.9944378,1.29787 0.957953,2.94827 3.9944368,-1.29787"
     stroke="#ff0000"
     stroke-width="0.001mm"
     style="fill:none;stroke-width:0.025;stroke:#ff0000;stroke-opacity:1;stroke-miterlimit:4;stroke-dasharray:none"
     id="path154" />
  <path
     d="m 9.3921432,76.213068 -0.957952,-2.94827 -3.9944378,1.29787 0.9579527,2.94827 3.9944371,-1.29787"
     stroke="#ff0000"
     stroke-width="0.001mm"
     style="fill:none;stroke-width:0.025;stroke:#ff0000;stroke-opacity:1;stroke-miterlimit:4;stroke-dasharray:none"
     id="path156" />
  <path
     d="m 7.5380412,70.506728 -0.957952,-2.94827 -3.9944377,1.29787 0.9579526,2.94827 3.9944371,-1.29787"
     stroke="#ff0000"
     stroke-width="0.001mm"
     style="fill:none;stroke-width:0.025;stroke:#ff0000;stroke-opacity:1;stroke-miterlimit:4;stroke-dasharray:none"
     id="path158" />
  <path
     d="m 44.139397,162.60273 -1.545084,-4.75528 -2.85317,0.92705 1.545085,4.75528 2.853169,-0.92705"
     stroke="#ff0000"
     stroke-width="0.001mm"
     style="fill:none;stroke-width:0.025;stroke:#ff0000;stroke-opacity:1;stroke-miterlimit:4;stroke-dasharray:none"
     id="path160" />
  <path
     d="m 11.590348,72.135258 1.545085,4.75529 2.853169,-0.92705 -1.545085,-4.75529 -2.853169,0.92705"
     stroke="#ff0000"
     stroke-width="0.001mm"
     style="fill:none;stroke-width:0.025;stroke:#ff0000;stroke-opacity:1;stroke-miterlimit:4;stroke-dasharray:none"
     id="path162" />
  <path
     d="m 8.1324672,68.106648 2.5079518,-1.82214 -2.4686978,-3.39787 -2.5079525,1.82214 2.4686985,3.39787"
     stroke="#ff0000"
     stroke-width="0.001mm"
     style="fill:none;stroke-width:0.025;stroke:#ff0000;stroke-opacity:1;stroke-miterlimit:4;stroke-dasharray:none"
     id="path164" />
  <path
     d="m 12.986569,64.579938 2.507952,-1.82214 -2.468698,-3.39787 -2.507953,1.82213 2.468699,3.39788"
     stroke="#ff0000"
     stroke-width="0.001mm"
     style="fill:none;stroke-width:0.025;stroke:#ff0000;stroke-opacity:1;stroke-miterlimit:4;stroke-dasharray:none"
     id="path166" />
  <path
     d="m 17.84067,61.053218 2.507953,-1.82213 -2.468698,-3.39787 -2.507953,1.82213 2.468698,3.39787"
     stroke="#ff0000"
     stroke-width="0.001mm"
     style="fill:none;stroke-width:0.025;stroke:#ff0000;stroke-opacity:1;stroke-miterlimit:4;stroke-dasharray:none"
     id="path168" />
  <path
     d="m 22.694772,57.526508 2.507953,-1.82213 -2.468698,-3.39787 -2.507953,1.82213 2.468698,3.39787"
     stroke="#ff0000"
     stroke-width="0.001mm"
     style="fill:none;stroke-width:0.025;stroke:#ff0000;stroke-opacity:1;stroke-miterlimit:4;stroke-dasharray:none"
     id="path170" />
  <path
     d="m 27.548874,53.999798 2.507953,-1.82213 -2.468698,-3.39788 -2.507953,1.82214 2.468698,3.39787"
     stroke="#ff0000"
     stroke-width="0.001mm"
     style="fill:none;stroke-width:0.025;stroke:#ff0000;stroke-opacity:1;stroke-miterlimit:4;stroke-dasharray:none"
     id="path172" />
  <path
     d="m 32.402976,50.473088 2.507953,-1.82214 -2.468698,-3.39787 -2.507953,1.82214 2.468698,3.39787"
     stroke="#ff0000"
     stroke-width="0.001mm"
     style="fill:none;stroke-width:0.025;stroke:#ff0000;stroke-opacity:1;stroke-miterlimit:4;stroke-dasharray:none"
     id="path174" />
  <path
     d="m 37.257078,46.946378 2.507953,-1.82214 -2.468698,-3.39787 -2.507953,1.82214 2.468698,3.39787"
     stroke="#ff0000"
     stroke-width="0.001mm"
     style="fill:none;stroke-width:0.025;stroke:#ff0000;stroke-opacity:1;stroke-miterlimit:4;stroke-dasharray:none"
     id="path176" />
  <path
     d="m 42.11118,43.419668 2.507953,-1.82214 -2.468698,-3.39787 -2.507953,1.82213 2.468698,3.39788"
     stroke="#ff0000"
     stroke-width="0.001mm"
     style="fill:none;stroke-width:0.025;stroke:#ff0000;stroke-opacity:1;stroke-miterlimit:4;stroke-dasharray:none"
     id="path178" />
  <path
     d="m 46.965282,39.892948 2.507953,-1.82213 -2.468698,-3.39787 -2.507953,1.82213 2.468698,3.39787"
     stroke="#ff0000"
     stroke-width="0.001mm"
     style="fill:none;stroke-width:0.025;stroke:#ff0000;stroke-opacity:1;stroke-miterlimit:4;stroke-dasharray:none"
     id="path180" />
  <path
     d="m 51.819384,36.366238 2.507953,-1.82213 -2.468698,-3.39787 -2.507953,1.82213 2.468698,3.39787"
     stroke="#ff0000"
     stroke-width="0.001mm"
     style="fill:none;stroke-width:0.025;stroke:#ff0000;stroke-opacity:1;stroke-miterlimit:4;stroke-dasharray:none"
     id="path182" />
  <path
     d="m 56.673486,32.839528 2.507953,-1.82213 -2.468698,-3.39787 -2.507953,1.82213 2.468698,3.39787"
     stroke="#ff0000"
     stroke-width="0.001mm"
     style="fill:none;stroke-width:0.025;stroke:#ff0000;stroke-opacity:1;stroke-miterlimit:4;stroke-dasharray:none"
     id="path184" />
  <path
     d="m 61.527588,29.312818 2.507953,-1.82213 -2.468698,-3.39788 -2.507953,1.82214 2.468698,3.39787"
     stroke="#ff0000"
     stroke-width="0.001mm"
     style="fill:none;stroke-width:0.025;stroke:#ff0000;stroke-opacity:1;stroke-miterlimit:4;stroke-dasharray:none"
     id="path186" />
  <path
     d="m 66.38169,25.786108 2.507953,-1.82214 -2.468698,-3.39787 -2.507953,1.82214 2.468698,3.39787"
     stroke="#ff0000"
     stroke-width="0.001mm"
     style="fill:none;stroke-width:0.025;stroke:#ff0000;stroke-opacity:1;stroke-miterlimit:4;stroke-dasharray:none"
     id="path188" />
  <path
     d="m 71.235792,22.259398 2.507953,-1.82214 -2.468698,-3.39787 -2.507953,1.82214 2.468698,3.39787"
     stroke="#ff0000"
     stroke-width="0.001mm"
     style="fill:none;stroke-width:0.025;stroke:#ff0000;stroke-opacity:1;stroke-miterlimit:4;stroke-dasharray:none"
     id="path190" />
  <path
     d="m 76.089894,18.732688 2.507953,-1.82214 -2.468698,-3.39787 -2.507953,1.82213 2.468698,3.39788"
     stroke="#ff0000"
     stroke-width="0.001mm"
     style="fill:none;stroke-width:0.025;stroke:#ff0000;stroke-opacity:1;stroke-miterlimit:4;stroke-dasharray:none"
     id="path192" />
  <path
     d="m 80.943996,15.205968 2.507953,-1.82213 -2.468698,-3.3978695 -2.507953,1.8221295 2.468698,3.39787"
     stroke="#ff0000"
     stroke-width="0.001mm"
     style="fill:none;stroke-width:0.025;stroke:#ff0000;stroke-opacity:1;stroke-miterlimit:4;stroke-dasharray:none"
     id="path194" />
  <path
     d="m 85.798098,11.679258 2.507953,-1.8221295 -2.468698,-3.39787 -2.507953,1.82213 2.468698,3.3978695"
     stroke="#ff0000"
     stroke-width="0.001mm"
     style="fill:none;stroke-width:0.025;stroke:#ff0000;stroke-opacity:1;stroke-miterlimit:4;stroke-dasharray:none"
     id="path196" />
  <path
     d="m 90.6522,8.1525485 2.507953,-1.82213 -2.468698,-3.39787 -2.507953,1.82213 2.468698,3.39787"
     stroke="#ff0000"
     stroke-width="0.001mm"
     style="fill:none;stroke-width:0.025;stroke:#ff0000;stroke-opacity:1;stroke-miterlimit:4;stroke-dasharray:none"
     id="path198" />
  <path
     d="m 14.374139,71.421738 4.045085,-2.93893 -1.763356,-2.42705 -4.045085,2.93893 1.763356,2.42705"
     stroke="#ff0000"
     stroke-width="0.001mm"
     style="fill:none;stroke-width:0.025;stroke:#ff0000;stroke-opacity:1;stroke-miterlimit:4;stroke-dasharray:none"
     id="path200" />
  <path
     d="m 90.355607,12.509768 -4.045085,2.93892 1.763355,2.42705 4.045085,-2.93892 -1.763355,-2.42705"
     stroke="#ff0000"
     stroke-width="0.001mm"
     style="fill:none;stroke-width:0.025;stroke:#ff0000;stroke-opacity:1;stroke-miterlimit:4;stroke-dasharray:none"
     id="path202" />
  <circle
     cx="92.006706"
     cy="96.528053"
     r="56.5"
     stroke="#ff0000"
     stroke-width="0.001mm"
     style="fill:none;stroke-width:0.025;stroke:#ff0000;stroke-opacity:1;stroke-miterlimit:4;stroke-dasharray:none"
     id="circle230" />
  <g
     id="g1079"
     transform="translate(8.6310202,-10.149742)"
     style="stroke:#ff0000;stroke-opacity:1;stroke-width:0.025;stroke-miterlimit:4;stroke-dasharray:none">
    <path
       d="m 79.110525,200 2.507953,1.82213 2.645033,-3.64057 2.34615,1.70458 -2.645034,3.64057 2.507953,1.82214 2.645033,-3.64058 2.34615,1.70458 -2.645034,3.64057 2.507953,1.82214 2.645033,-3.64058 2.34615,1.70458 -2.645034,3.64057 2.507953,1.82214 2.645033,-3.64058 2.346153,1.70458 -2.645037,3.64058 2.507957,1.82213 2.64503,-3.64058 2.34615,1.70458 -2.64503,3.64058 2.50795,1.82213 2.64503,-3.64057 2.34615,1.70457 -2.64503,3.64058 2.50795,1.82213 2.64503,-3.64057 2.34615,1.70457 -2.64503,3.64058 2.50795,1.82213 2.64504,-3.64057 2.34614,1.70458 -2.64503,3.64057 2.50795,1.82214 2.64504,-3.64058 2.34615,1.70458 -2.64504,3.64057 2.50796,1.82214 2.64503,-3.64058 2.34615,1.70458 -2.64504,3.64058 2.50796,1.82213 2.64503,-3.64058 2.34615,1.70458 -2.64503,3.64058 2.50795,1.82213 2.64503,-3.64058 2.34615,1.70458 -2.64503,3.64058 2.50795,1.82213 2.64504,-3.64057 2.34614,1.70457 -2.64503,3.64058 2.50795,1.82213 2.64504,-3.64057 2.34615,1.70457 -2.64504,3.64058 2.50796,1.82214 2.64503,-3.64058 2.34615,1.70458 -2.64504,3.64057 2.42706,1.76336 v 0 l -0.95796,2.94827 4.27976,1.39058 -0.89615,2.75806 -4.27976,-1.39057 -0.95795,2.94827 4.27976,1.39058 -0.89615,2.75806 -4.27976,-1.39057 -0.95795,2.94827 4.27975,1.39058 -0.89615,2.75806 -4.27975,-1.39057 -0.95795,2.94827 4.27975,1.39058 -0.89615,2.75806 -4.27975,-1.39058 -0.95795,2.94828 4.27975,1.39058 -0.89615,2.75806 -4.27975,-1.39058 -0.95796,2.94828 4.27976,1.39058 -0.89615,2.75806 -4.27976,-1.39058 -0.95795,2.94828 4.27976,1.39057 -0.89615,2.75807 -4.27976,-1.39058 -0.95795,2.94828 4.27975,1.39057 -0.89615,2.75807 -4.27975,-1.39058 -0.95795,2.94828 4.27975,1.39057 -0.89615,2.75807 -4.27975,-1.39058 -0.95795,2.94828 4.27975,1.39057 -0.89615,2.75807 -4.27975,-1.39058 -0.95796,2.94827 4.27976,1.39058 -0.89615,2.75807 -4.27976,-1.39058 -0.95795,2.94827 4.27976,1.39058 -0.89615,2.75806 -4.27976,-1.39057 -0.95795,2.94827 4.27975,1.39058 -0.89615,2.75806 -4.27975,-1.39057 -0.95795,2.94827 4.27975,1.39058 -0.89615,2.75806 -4.27975,-1.39057 -0.95795,2.94827 4.27975,1.39058 -0.89615,2.75806 -4.27975,-1.39058 -0.92705,2.85317 v 0 h -3.1 v 4.5 h -2.9 v -4.5 h -3.1 v 4.5 h -2.9 v -4.5 h -3.1 v 4.5 h -2.9 v -4.5 h -3.1 v 4.5 h -2.9 v -4.5 h -3.100005 v 4.5 h -2.9 v -4.5 h -3.1 v 4.5 h -2.9 v -4.5 h -3.1 v 4.5 h -2.9 v -4.5 h -3.1 v 4.5 h -2.9 v -4.5 h -3.1 v 4.5 h -2.9 v -4.5 h -3.1 v 4.5 h -2.9 v -4.5 h -3.1 v 4.5 h -2.9 v -4.5 h -3.1 v 4.5 h -2.9 v -4.5 h -3.1 v 4.5 h -2.9 v -4.5 h -3.1 v 4.5 h -2.9 v -4.5 h -3.1 v 4.5 h -2.9 v -4.5 h -3 v 0 l -0.957953,-2.94827 -4.279754,1.39058 -0.896149,-2.75807 4.279754,-1.39057 -0.957952,-2.94828 -4.279755,1.39058 -0.896149,-2.75807 4.279754,-1.39057 -0.957952,-2.94828 -4.279755,1.39058 -0.896149,-2.75807 4.279754,-1.39057 -0.957952,-2.94828 -4.279755,1.39058 -0.896149,-2.75807 4.279754,-1.39057 -0.957952,-2.94828 -4.279755,1.39058 -0.896149,-2.75806 4.279754,-1.39058 -0.957952,-2.94828 -4.279755,1.39058 -0.896149,-2.75806 4.279754,-1.39058 -0.957952,-2.94828 -4.279755,1.39058 -0.896149,-2.75806 4.279754,-1.39058 -0.957952,-2.94827 -4.279755,1.39057 -0.896149,-2.75806 4.279754,-1.39058 -0.957952,-2.94827 -4.279755,1.39057 -0.896149,-2.75806 4.279754,-1.39058 -0.957952,-2.94827 -4.279755,1.39057 -0.8961488,-2.75806 4.2797548,-1.39058 -0.957953,-2.94827 -4.2797545,1.39057 -0.8961493,-2.75806 4.2797548,-1.39058 -0.957953,-2.94827 -4.2797545,1.39058 -0.8961492,-2.75807 4.2797547,-1.39057 -0.9579531,-2.94828 -4.2797543,1.39058 -0.8961493,-2.75807 4.2797543,-1.39057 -0.9579527,-2.94828 -4.2797543,1.39058 -0.8961493,-2.75807 4.2797543,-1.39057 -0.9579526,-2.94828 -4.2797544,1.39058 -0.89614924,-2.75807 4.27975434,-1.39057 -0.927051,-2.85317 v 0 l 2.5079527,-1.82214 -2.6450337,-3.64057 2.3461493,-1.70458 2.6450337,3.64058 2.5079523,-1.82214 -2.6450333,-3.64057 2.3461493,-1.70458 2.645034,3.64058 2.507952,-1.82214 -2.645033,-3.64058 2.346149,-1.70457 2.645034,3.64057 2.507952,-1.82213 -2.645033,-3.64058 2.346149,-1.70457 2.645034,3.64057 2.507952,-1.82213 -2.645033,-3.64058 2.346149,-1.70458 2.645034,3.64058 2.507952,-1.82213 -2.645033,-3.64058 2.346149,-1.70458 2.645033,3.64058 2.507953,-1.82213 -2.645033,-3.64058 2.346149,-1.70458 2.645033,3.64058 2.507953,-1.82214 -2.645033,-3.64057 2.346149,-1.70458 2.645033,3.64058 2.507953,-1.82214 -2.645034,-3.64057 2.34615,-1.70458 2.645033,3.64057 2.507953,-1.82213 -2.645034,-3.64058 2.34615,-1.70457 2.645033,3.64057 2.507953,-1.82213 -2.645034,-3.64058 2.34615,-1.70457 2.645033,3.64057 2.507953,-1.82213 -2.645034,-3.64058 2.34615,-1.70458 2.645033,3.64058 2.507953,-1.82213 -2.645034,-3.64058 2.34615,-1.70458 2.645033,3.64058 2.507953,-1.82214 -2.645034,-3.64057 2.34615,-1.70458 2.645033,3.64058 2.507953,-1.82214 -2.645034,-3.64057 2.34615,-1.70458 2.645033,3.64058 L 79.110525,200"
       stroke="#ff0000"
       stroke-width="0.001mm"
       style="fill:none;stroke-width:0.025;stroke:#ff0000;stroke-opacity:1;stroke-miterlimit:4;stroke-dasharray:none"
       id="path204" />
    <path
       d="m 78.998268,210.27905 4.045085,2.93893 1.763356,-2.42705 -4.045085,-2.93893 -1.763356,2.42705"
       stroke="#ff0000"
       stroke-width="0.001mm"
       style="fill:none;stroke-width:0.025;stroke:#ff0000;stroke-opacity:1;stroke-miterlimit:4;stroke-dasharray:none"
       id="path206" />
    <path
       d="m 146.37119,255.52014 -4.04508,-2.93892 -1.76336,2.42705 4.04509,2.93892 1.76335,-2.42705"
       stroke="#ff0000"
       stroke-width="0.001mm"
       style="fill:none;stroke-width:0.025;stroke:#ff0000;stroke-opacity:1;stroke-miterlimit:4;stroke-dasharray:none"
       id="path208" />
    <path
       d="m 144.53846,257.73367 -1.54509,4.75528 2.85317,0.92705 1.54509,-4.75528 -2.85317,-0.92705"
       stroke="#ff0000"
       stroke-width="0.001mm"
       style="fill:none;stroke-width:0.025;stroke:#ff0000;stroke-opacity:1;stroke-miterlimit:4;stroke-dasharray:none"
       id="path210" />
    <path
       d="m 122.331,335.78939 1.54509,-4.75528 -2.85317,-0.92705 -1.54509,4.75528 2.85317,0.92705"
       stroke="#ff0000"
       stroke-width="0.001mm"
       style="fill:none;stroke-width:0.025;stroke:#ff0000;stroke-opacity:1;stroke-miterlimit:4;stroke-dasharray:none"
       id="path212" />
    <path
       d="m 119.65947,334.73037 h -5 v 3 h 5 v -3"
       stroke="#ff0000"
       stroke-width="0.001mm"
       style="fill:none;stroke-width:0.025;stroke:#ff0000;stroke-opacity:1;stroke-miterlimit:4;stroke-dasharray:none"
       id="path214" />
    <path
       d="m 38.561582,337.73037 h 5 v -3 h -5 v 3"
       stroke="#ff0000"
       stroke-width="0.001mm"
       style="fill:none;stroke-width:0.025;stroke:#ff0000;stroke-opacity:1;stroke-miterlimit:4;stroke-dasharray:none"
       id="path216" />
    <path
       d="m 38.743217,334.86234 -1.545085,-4.75528 -2.853169,0.92705 1.545085,4.75528 2.853169,-0.92705"
       stroke="#ff0000"
       stroke-width="0.001mm"
       style="fill:none;stroke-width:0.025;stroke:#ff0000;stroke-opacity:1;stroke-miterlimit:4;stroke-dasharray:none"
       id="path218" />
    <path
       d="m 10.829422,258.66072 1.545085,4.75528 2.85317,-0.92705 -1.545085,-4.75528 -2.85317,0.92705"
       stroke="#ff0000"
       stroke-width="0.001mm"
       style="fill:none;stroke-width:0.025;stroke:#ff0000;stroke-opacity:1;stroke-miterlimit:4;stroke-dasharray:none"
       id="path220" />
    <path
       d="m 13.613213,257.94719 4.045085,-2.93892 -1.763355,-2.42705 -4.045085,2.93892 1.763355,2.42705"
       stroke="#ff0000"
       stroke-width="0.001mm"
       style="fill:none;stroke-width:0.025;stroke:#ff0000;stroke-opacity:1;stroke-miterlimit:4;stroke-dasharray:none"
       id="path222" />
    <path
       d="m 77.459426,207.852 -4.045085,2.93893 1.763356,2.42705 4.045085,-2.93893 -1.763356,-2.42705"
       stroke="#ff0000"
       stroke-width="0.001mm"
       style="fill:none;stroke-width:0.025;stroke:#ff0000;stroke-opacity:1;stroke-miterlimit:4;stroke-dasharray:none"
       id="path224" />
    <circle
       cx="79.110527"
       cy="279.11053"
       r="56.5"
       stroke="#ff0000"
       stroke-width="0.001mm"
       style="fill:none;stroke-width:0.025;stroke:#ff0000;stroke-opacity:1;stroke-miterlimit:4;stroke-dasharray:none"
       id="circle232" />
  </g>
  <path
     d="M 231.47458,214.70368 309.2194,158.21876 279.52352,66.82424 h -96.09789 l -29.69588,91.39452 77.74483,56.48492"
     stroke="#ff0000"
     stroke-width="0.001mm"
     style="fill:none;stroke-width:0.025;stroke:#ff0000;stroke-opacity:1;stroke-miterlimit:4;stroke-dasharray:none"
     id="path226" />
  <circle
     cx="231.47458"
     cy="-132.95793"
     r="7.5"
     stroke="#ff0000"
     stroke-width="0.001mm"
     style="fill:none;stroke-width:0.025;stroke:#ff0000;stroke-opacity:1;stroke-miterlimit:4;stroke-dasharray:none"
     id="circle234"
     transform="scale(1,-1)" />
  <path
     d="m 206.85088,373.64996 65.60957,-47.66814 -25.06063,-77.12868 h -81.09789 l -25.06062,77.12868 65.60957,47.66814"
     stroke="#ff0000"
     stroke-width="0.001mm"
     style="fill:none;stroke-width:0.025;stroke:#ff0000;stroke-opacity:1;stroke-miterlimit:4;stroke-dasharray:none"
     id="path228" />
  <circle
     cx="206.85088"
     cy="-304.66394"
     r="7.5"
     stroke="#ff0000"
     stroke-width="0.001mm"
     style="fill:none;stroke-width:0.025;stroke:#ff0000;stroke-opacity:1;stroke-miterlimit:4;stroke-dasharray:none"
     id="circle236"
     transform="scale(1,-1)" />
</svg>
